<svg xmlns="http://www.w3.org/2000/svg" width="1366" height="554.271" viewBox="0 0 1366 554.271"><defs><style>.a{fill:#5667ff;}</style></defs><path class="a" d="M32.862,194.389c-3.281-1.1-1.626,4.233-4.892,4.883s-7.17,2.287-4.557,2.946,8.467-.329,9.128-1.308S33.841,194.712,32.862,194.389Z" transform="translate(0.792 -63.134)"/><path class="a" d="M23.163,196.8c-3.913-.318-7.835,0-8.479,1.305-.661,1.311,3.584,2.287,6.191,2.287s7.823-1.638,6.853-1.958S23.163,196.8,23.163,196.8Z" transform="translate(-14.616 -58.379)"/><path class="a" d="M25.033,187.724c-1.323.4,2.281,2.608,3.584,2.608s3.593-3.587.979-3.587S28.3,186.745,25.033,187.724Z" transform="translate(5.037 -77.671)"/><path class="a" d="M37.977,198.015l1.961,1.635c1.952,1.623,5.215,2.273,8.149,2.6s2.943-1.623.656-3.578-2.94-1.64-4.895-1.955c-1.958-.332-2.278-2.29-7.494-2.29s-4.569-2.6-5.227-3.913,4.566-.656,5.877-.332,6.518-3.919,6.518-3.919,8.484-3.249,9.46-2.6,5.877-.647,8.152-1.305,3.59-4.236,3.59-4.236a13.868,13.868,0,0,1,4.569,2.611c1.629,1.626,5.221,0,6.2,0S81.361,184,81.361,184s6.521,0,9.128-.332,9.46-.326,12.074.332,14.344,1.294,15.655,1.294,7.817,2.287,12.062,1.308,6.2.656,7.179.979a5.788,5.788,0,0,1,3.59,2.284c1.626,1.964,3.257.323,5.545-.979s1.955-2.616,1.955-2.616l1.958-.317c1.958-.329,3.257.65,8.8.985s4.239-.985,8.149-2.29,7.832,1.623,9.137,1.305,2.934-2.931,3.916-1.635,2.6,3.919,2.6,3.919,4.245-3.257,5.545-3.257,5.227,1.291,7.508.973,11.086-.329,13.044,1.305,6.847,1.3,9.455,2.931,5.221-1.3,3.916-1.952a44.672,44.672,0,0,1-4.566-3.257s-4.9-5.871-5.548-6.853-1.626-.976-2.931,1.632-6.2,2.6-11.745,2.934-1.955-2.6-8.152-2.934-3.907-2.608-1.958-2.608,3.26-3.919,3.91-6.2,2.94-1.955,7.508-1.629,5.865-.659,10.437,0,4.236-1.955,8.8-1.635,2.284.976,4.895,2.614,4.242,1.305,7.823,2.934,2.29,1.635,3.919,1.964,7.179-.656,10.431-.985,5.877-.659,7.508,1.305,1.308,4.242,3.6,5.868-1.311-5.868-1.311-8.476,4.563-.329,7.5-.329,6.188-.976,6.847.329-4.239,3.263-1.308,6.2,4.895,3.913,7.5,3.913,8.479.647,5.874,4.236-9.452,3.263-11.739,3.263-6.2,1.308-5.221,3.26,6.2.979,9.781.979,14.676.979,17.607,0,2.29-4.895-.976-5.874-.65-2.934,2.619-2.284,6.515-.979,5.865,0,.332,3.263.332,5.874.97,4.248,3.251,3.587a27.306,27.306,0,0,1,4.895-1.3c2.287-.326.982-5.874-.329-8.808-1.291-2.931-2.278-4.569-1.952-6.194s3.916-1.955,5.865-.329a43.24,43.24,0,0,1,4.572,4.889s3.919,2.284,5.218,4.895,1.632,1.961,4.242.326,3.254-1.3,5.545.326.65,4.895.65,5.874,3.263,0,3.91-1.958,3.266-1.952,4.907-2.608c1.62-.653,1.62-4.572,1.62-4.572a32.041,32.041,0,0,0-8.479-.65c-4.233.317-5.547-.329-8.8-2.611s-1.311-3.913-2.946-6.191,5.221-3.6,9.463-5.548,8.476-.656,7.5,4.239-1.626,4.245,3.26,3.266-.332-5.218,1.955-5.556c2.29-.32,8.155-1.3,10.116-.973s12.712-.976,15.331-.976,6.841,2.287,9.781,3.913,10.766,3.913,12.718,4.889,15.655,2.937,16.96,3.263,1.308,4.242,2.611,7.505,4.895.979,6.2.979,5.874,2.281,7.176,3.91,11.089,2.934,11.089,2.934-2.278,2.931-3.26,3.913-3.263,1.635-5.215,2.94-4.245-.329-6.859-1.958-7.179-2.614-8.146-1.964-.32,1.964.329,2.937,4.886,2.287,7.5,4.245,1.958,3.919,2.284,6.524-2.613-.979-5.871-1.626a2.869,2.869,0,0,0-3.59,2.6s-4.242-.317-6.2-.317,0,0-3.59-2.614-2.931,1.638-4.889.332-3.907-3.266-4.895-2.616-4.239-2.931-6.2-2.6-9.772-.985-11.724-.326-3.6.65-5.227,1.305-2.281-4.572-1.305-6.2,3.263-1.958,7.5-.979,4.566,0,5.545-1.637,1.952-3.249,6.518-4.56-.32-2.287-1.623-2.934-2.943-1.961-3.919,0a20.97,20.97,0,0,1-3.257,4.245s-2.614,0-6.2-.332-.976-1.632.656-2.287,3.587-4.563,1.949-5.545-2.281-1.629-5.215-.979-.979-2.29-2.931-3.266-1.314.659-1.314,1.964-2.931.979-2.931.979-4.571-.656-6.2,0-4.563,1.952-3.584,2.937,4.236.979,5.209,3.91-4.233,3.6-5.209,3.913-4.895,1.638-4.895,1.638a35.3,35.3,0,0,0-7.176-.979c-3.26,0-4.239.32-3.584,1.623s2.281.65,3.251.65.982,1.64,3.922.982,2.287-1.632,4.889.982,5.224,2.278,9.463,4.569-.661,4.895-2.937,4.895-2.284-1.964-3.59-3.913c-1.305-1.967-6.521.323-6.521.323s-4.245,2.284-6.515,2.284c-2.29,0-3.925-.332-.988-2.608s-3.59-2.619-3.59-5.874-1.3,3.254-1.3,4.892-2.608.326-8.161.982-4.566,2.608-11.742,7.164-8.8,5.55-8.152,9.793,2.287,2.931,5.218,3.59,1.952,5.539,4.242,5.209,3.919-1.958,8.484.329,6.847,2.937,12.391,3.91,9.128,2.616,12.071,1.961,4.892.326,4.892,2.611,1.955,2.611,1.626,5.548,3.6-2.616,3.6-2.616,1.62,4.907.312,5.55.332,3.584,1.964,3.266c1.632-.335,3.919.976,5.871-.661s-.976-6.515-.976-8.476-1.961-2.934-2.937-4.895,2.6-2.287,3.913-.326,3.59.326,5.871-1.305a6.053,6.053,0,0,0,2.284-4.566s-3.91-5.221-6.841-6.518-1.646-1.635,1.288-2.287,0-1.629.661-5.218.65-5.871,2.284-5.871,7.5-.979,12.392-.65,7.176,3.91,10.442,4.239,8.47.976,9.452,2.6-3.587,1.961-1.3,4.571,2.608,2.281,4.889,3.263,4.883.326,7.829-3.6,4.233-4.239,5.209-3.587,7.188,7.826,8.814,9.463,4.892,5.206,5.215,6.847c.329,1.623,4.895,1.623,6.2,1.623s6.194,3.6,6.847,5.556,1.964,2.611,6.2,3.587,0,4.56-.976,6.518-1.629,2.614-2.934,4.895,0,0,1.626.976,2.284,2.284,4.895,1.638,3.916,0,4.9,1.955,2.281,3.59,3.263,5.209c.97,1.637,0,4.248-1.314,2.619-1.3-1.637-5.545-.661-5.545-.661s-1.952,1.958-2.6.979a3.606,3.606,0,0,0-4.245-1.626c-2.275.647-4.56,0-7.17.326s-3.59-1.3-1.958-2.611,1.958-6.191,5.212-8.155,2.29-4.886,0-4.886-3.254,2.931-4.563,3.587-3.913.65-6.2,2.281-7.82.982-5.533,1.629-3.263,3.272-5.221,3.272-1.308-4.248-1.308-5.883-2.6.982-2.6.982-5.221-2.937-7.179-.982-4.895,2.94-7.173,4.895a85.323,85.323,0,0,1-7.5,5.215,31.085,31.085,0,0,1,5.871-1.955c3.907-.976,3.587-.647,6.838-2.273,3.272-1.637,6.529-2.29,8.817.647s-.976,4.557-.976,4.557,1.3,2.29,2.6,2.94,1.632-.65,3.916-1.961,1.305,2.616,1.961,3.916,2.934,1.308,4.239-.323,2.275-2.934,3.251-1.955,1.97,3.257,2.94,5.545-6.847,2.937-8.149,3.26-7.508,1.635-8.479,1.961-4.233,3.252-6.85,3.252-2.29-3.91-2.611-6.185-3.593.318-3.913,1.3-3.263.656-5.545.976-6.2,2.617-6.2,5.218,2.934,3.916,1.958,5.218-6.853,2.287-9.134,1.635-5.547.976-4.566,2.284.329,3.257-1.958,2.937-2.608,1.958-1.632,3.584-2.937,4.889-3.913,3.584-2.94-1.955-2.94,0,.65,3.59,2.614,6.2-4.239,4.245-6.521,6.2-10.116,8.473-13.368,9.781-3.266,5.545-1.638,7.17,3.587,8.476,4.569,10.766-.329,8.8-3.263,8.484c-2.934-.332-1.305-4.242-4.239-5.221s-4.571-6.85-5.221-10.766-1.3-1.626-3.263-.332c-1.958,1.311-3.913-2.6-4.889-3.581s-6.521.65-10.436.332-5.218,1.623-5.218,2.6-.647,3.91-4.242,1.958-4.245-1.958-7.826-1.958-6.853-.332-7.5.979-4.245,4.242-6.526,4.9-6.521,3.913-4.566,4.557,1.964,5.221.653,7.826-.982,7.182-.332,11.745,4.577,7.5,8.161,10.439,4.895,3.916,8.476,1.305,4.886-.976,5.877-.653c.973.329,3.584-1.635,2.6-4.566a3.918,3.918,0,0,1,4.245-5.218c2.931.329,7.17-.979,9.452-.647s3.59,6.512,0,9.125-1.626,6.529-2.281,9.463-3.59,3.581,0,3.581,2.619.656,4.892.976,4.569-1.952,6.856-2.284,8.149,4.895,7.167,7.511a29.236,29.236,0,0,0-1.623,11.407c.32,4.242,1.623,4.577,2.273,5.874s3.269,4.248,6.2,2.943,5.871-2.287,6.847-3.6,7.182,2.284,6.526,3.272c-.656.967,2.281,1.952,4.233.967,1.955-.967,2.943-2.611,4.9-5.218s5.215-4.886,6.847-5.215,5.545-4.242,8.146-3.581c2.619.644-.976,3.91-1.3,5.862s0,7.508,1.3,7.832.664-3.919,2.29-6.85,4.889-4.572,6.526-4.572,2.934,6.859,5.212,4.9,6.85-1.638,7.832.32a12,12,0,0,0,1.955,2.934,4.42,4.42,0,0,0,1.632-2.934c0-1.632,5.215-3.269,8.484-1.305s1.958,2.608,3.578,2.943c1.638.32,3.263-4.245,4.245-4.577s0,5.221-2.281,8.158,1.949,1.964,1.949,1.964l.976.982c.982.97,4.245-.982,5.553.97s3.593,2.608,5.545,6.2,4.895,2.6,8.8,1.952,8.814,1.958,12.724,6.2,3.269,7.5,5.871,7.5,3.257,3.584,3.257,4.886-5.859,4.248-9.128,4.9-3.263,3.922,1.958,2.94,2.937-2.94,6.194-3.916,6.526,1.3,3.6,5.212-8.811,4.239-3.6,4.889,2.287-.65,5.221-4.56,2.608-2.608,4.574-2.608,6.182.982,7.817,2.279,5.865,3.263,8.484,4.889c2.6,1.635,5.871.982,7.823.326s7.5,1.958,9.461,4.572,6.853,2.94,9.128,3.916,5.877,4.886,6.2,8.152-3.584,10.113-3.913,11.742-5.536,7.5-10.431,11.415-1.964,8.482-1.632,10.434-3.266,9.122-2.284,10.76-1.311,5.218-3.263,7.505-3.263,6.518-4.563,8.47-5.548,1.314-9.461,2.3a31.6,31.6,0,0,0-5.877,1.952,111.708,111.708,0,0,0-10.757,5.868c-3.907,2.614,1.3,7.182-.656,10.766s-3.913,3.266-5.871,7.5-2.928.664-4.571,1.637c-1.623.982-2.6,3.581-2.931,6.194s-3.578,5.218-7.817,9.134S456.1,590.7,451.542,589.4s-3.91-12.4-4.566-10.772-.32,7.505.329,8.493c.641.97,2.611,4.56,4.236,5.536s1.3,2.6,0,4.236-4.886,7.511-6.2,7.832-11.41,1.632-13.368.656-2.934,2.278-2.614,4.242,1.955,4.233-1.626,3.584-8.484-2.934-8.484-1.314c0,1.646.976,5.23,2.937,5.23s3.913-1.308,2.934.976-3.584,4.242-4.895,5.224-2.934,4.228-6.2,6.512-3.263,3.59-2.608,4.572,5.547.326,6.524.976-.976,5.224-2.284,6.2-6.847,5.542-9.128,6.85-2.29,5.215-1.632,7.173,5.865,6.856,8.8,7.826,9.143.65,8.49,1.632-7.829,1.958-8.808,2.284a42.951,42.951,0,0,1-8.811,1.632c-2.6,0-7.5-2.614-8.479-2.614s.661-1.3,3.919-3.9c3.26-2.619-1.305-5.553-1.955-1.958-.655,3.578-1.964,4.56-3.589,4.56s-3.587-2.293-4.569-3.269-5.215-1.952-4.566-5.868-1.958-3.578-3.913-5.212,2.611-2.928,1.955-4.572c-.656-1.626-3.587-.65-3.913-2.934s2.608-5.542,2.937-6.523-1.961-2.928-2.281-4.557,1.3-3.269,3.584-5.871,3.907-5.874,3.907-6.856-1.626-4.569-1.626-7.17,1.626-3.59,2.287-7.182-2.287-2.275-2.287-5.215,3.263-1.958,2.613-4.886,1.632-4.9,2.608-6.856,1.955-5.218,3.263-7.505-1.308-7.491-1.308-8.473,4.242-2.281,2.284-4.245.65-3.59,2.613-5.224-.326-6.192.65-12.053,1.958-15.99,1.958-16.966.326-4.9-1.308-7.505a13.475,13.475,0,0,0-5.865-5.542c-2.287-.982-5.221-3.922-6.859-4.236s-9.46-3.263-9.46-7.826-5.533-8.167-6.188-11.421-5.542-10.434-5.871-13.694-7.179-4.239-8.155-7.832,3.263-6.2,3.91-8.481-2.281-7.173-2.6-8.8,4.889-6.2,6.847-7.173,3.6-5.218,4.883-5.218c1.311,0,.988-3.6,2.293-7.182s-.65-8.47-1.632-9.131-1.949-4.892-3.6-6.188c-1.62-1.305-4.883-.661-4.883-.661a4.322,4.322,0,0,1-2.287,4.577c-2.934,1.62-3.59-.335-4.566-1.311s-4.569-1.308-6.191-2.928a28.718,28.718,0,0,0-6.206-4.895c-1.952-.988-4.889-1.967-4.56-5.877s-4.245-6.2-5.55-6.844c-1.3-.664-3.916-2.284-5.542-1.311s-4.563-1.949-6.85-1.626-6.847-3.916-8.481-5.553-2.931-3.916-5.865-3.916-3.263.979-5.224,3.263-4.892-1.626-5.868-2.6-3.587-1.305-7.176-1.305-6.194-4.886-7.5-5.542-10.436-4.895-12.724-6.2-4.572-6.2-3.6-7.5-1.62-5.548-1.62-5.548-4.574-5.221-6.2-5.221-6.844-9.128-9.784-11.736-9.778-8.49-11.092-11.421-1.632-7.5-4.883-5.212-.661,4.563,2.6,7.164,2.614,5.227,7.176,8.814,2.614,7.173,4.566,8.8,8.811,5.55,5.877,8.161-5.877-3.266-7.176-3.59-4.245-.979-3.916-2.931-2.608-3.6-4.895-6.529-3.257-1.3-6.186-1.3-.329-3.59,1.291-5.215c1.637-1.635-1.62-3.919-3.584-4.569s-4.563-8.149-7.173-12.724-4.569-6.841-7.5-6.526-4.239-3.251-6.194-4.557-4.895-7.508-8.155-10.766-6.2-9.458-5.871-13.047,1.3-12.721,1.3-15-1.632-7.832-1.632-8.808-1.632-2.611-2.934-2.931-4.895-4.895-7.829-4.895a4.247,4.247,0,0,1-3.913-5.545c.982-2.281-2.6-6.191-4.239-6.191s-4.239-4.248-5.221-6.529-3.584-2.287-2.931-.985-.326,3.592,1.3,4.248,2.946,5.865,1.632,6.515-4.239-1.955-7.5-3.581-1.958-8.158-1.958-9.79-4.569-3.26-6.527-3.26-3.907.326-4.233-3.913-6.209-6.524-8.164-6.524-12.394-4.239-15.658-4.239-8.8-2.94-10.76-1.632-5.542-2.284-7.5-2.284-1.952,1.305-5.548,3.584-4.889.979-6.844,2.611-6.847,3.263-5.215-.65,1.62-4.569-.982-3.59a5.37,5.37,0,0,0-3.263,5.224c0,1.629-4.566,4.233-4.566,4.233a33.2,33.2,0,0,0,5.877,0c1.62-.317.317,3.6-1.311,4.572s-3.916,3.581-6.526,2.934-2.931-2.934-4.557-3.263-5.218,2.281-11.089,5.218-4.895.653-7.179,1.635-10.439,3.913-13.373,4.239-2.287-3.59-.65-3.59,7.826-2.937,9.455-3.913,8.808-3.59,10.76-4.566,5.221-2.608,3.919-4.563-5.545.979-5.545.979-3.263-2.94-4.233-3.593-2.946,2.614-2.946,2.614-4.233-.659-3.257-4.245-2.287-3.587-2.934-1.955-6.194,4.239-6.529,2.611-5.215-4.895-6.518-7.505,1.3-2.934,4.233-5.218,7.179-2.934,10.772-2.6,5.865-3.922,4.566-4.251a6.087,6.087,0,0,0-5.548.979c-1.961,1.64-6.856,1.308-6.856,1.308s-7.167,0-10.1-1.958a15.912,15.912,0,0,1-4.566-4.895,43.982,43.982,0,0,1,10.436-2.6ZM336.734,295.21c3.26.359,3.26-4.236,2.937-5.547s-.326-6.841.988-7.823c1.288-.979,2.931-3.913,6.515-4.245s5.877,2.287,5.542,5.227.656,5.865,1.961,5.865,5.215-2.284,3.91-4.239.973-8.484.973-6.194a3.947,3.947,0,0,0,4.251,3.587c1.632-.326-1.632-6.2-3.919-6.524a30.9,30.9,0,0,0-7.823,0c-.982.323-6.527-1.638-9.14-1.305s-6.515,1.305-7.823,3.916,0,7.5-.323,9.452S333.8,294.884,336.734,295.21Zm18.265,0c.747,1.488,4.248.326,6.2-1.635s6.2-2.6,7.511-4.242c1.288-1.626,2.275-1.293,5.533-2.6s5.877-1.629,4.571-3.266-8.155,0-9.131-.644-7.832,7.173-7.832,7.173-5.868,2.281-6.2,3.257S354.027,293.252,355,295.21ZM321.083,270.1c0,1.752,3.257,1.955,5.209.979a33.163,33.163,0,0,1,6.206-1.955c1.3-.329.65,1.62,3.584,1.62s6.526.982,7.508.661,3.91-4.236,1.62-4.571-5.865-2.608-7.817-4.563-6.526,2.611-10.772,4.239S321.083,267.5,321.083,270.1ZM187.36,259.329c-2.669-.879.976,3.919,2.6,4.895s4.895.982,5.227,2.608,1.3,5.548,2.931,5.221,1.632-3.91.329-5.221-6.194-5.218-7.176-5.218S188.336,259.658,187.36,259.329Z" transform="translate(3.506 -114.71)"/><path class="a" d="M134.415,184.311c-.885.973,3.913,2.387,4.783,1.085S136.584,181.912,134.415,184.311Z" transform="translate(217.567 -84.477)"/><path class="a" d="M139.64,184.383c-3.469.991-.226,3.472,1.955,2.608S142.677,183.512,139.64,184.383Z" transform="translate(224.96 -82.594)"/><path class="a" d="M83.493,171.283c-.441,1.317,1.952,1.293,4.774,1.293s7.4,0,8.708-.65,7.832-2.173,7.614-.218,2.6,5,4.119,4.566c1.532-.435,4.574-3.257,6.091-2.173s1.746,3.7,3.269,4.348,5.65.65,7.608,0,7.4-.65,9.79-.223c2.387.447,9.343,1.746,10,.447s2.6-1.529,2.819-2.834,1.3-5.436,1.3-5.436-1.3-2.387-3.472-1.3-2.834,1.743-4.786,1.3-1.952-3.919-5.436-3.257-4.133,2.608-5.215,3.475-3.484,1.52-4.342,1.088-5.883-3.263-5.883-3.263-10.436-.429-10.866-1.735-2.173-3.478-6.962-3.04-13.05,3.263-14.361,3.263c-1.291,0,1.532,2.6-.209,2.6S84.148,169.319,83.493,171.283Z" transform="translate(118.894 -122.541)"/><path class="a" d="M97.157,165.64c-2.514.835-1.958,3.26-.215,3.26s6.1-1.52,7.388-.435c1.311,1.091,4.574.221,4.348-.87s1.305-5.442-1.3-5.656S101.076,164.334,97.157,165.64Z" transform="translate(142.193 -125.817)"/><path class="a" d="M106.039,164.025c-.329,1.549,1.737,2.828,4.351,2.828s8.264-1.305,8.693-.226c.435,1.1-.209,1.967,2.828,2.393s4.348.879,6.091.879,1.079-2.837-.435-4.789-1.088-1.732-5-2.828a30.975,30.975,0,0,0-10.437-.873C109.514,161.635,106.689,160.979,106.039,164.025Z" transform="translate(162.666 -127.03)"/><path class="a" d="M108.072,166.241c-1.643,1.441,0,5.871-.659,6.3s.223,2.387,1.964,1.961,2.6-4.563,3.913-4.563,8.049-1.529,9.131.864,1.091,1.305,4.133,1.526,5.436-3.04,5.656-4.133-1.529-3.263-5.656-2.828S109.813,164.721,108.072,166.241Z" transform="translate(164.983 -119.245)"/><path class="a" d="M110.729,170.361c-1.508.967-.656,4.136,1.737,4.345,2.393.226,6.526-1.517,6.956-.209s1.952,7.176,5.871,5.218,3.7-3.7,4.792-3.916-.226-5-1.964-6.091-7.4-.432-8.911.223S113.116,168.841,110.729,170.361Z" transform="translate(170.373 -111.844)"/><path class="a" d="M118.621,173.6c.253.6,1.958,1.732,4.786,1.3s6.944-.876,8.9-1.085,2.4-3.487.226-3.7-3.913-2.17-5.865-1.52S117.959,172.076,118.621,173.6Z" transform="translate(187.052 -113.124)"/><path class="a" d="M118.409,168.144c-.95,2.287,8.711,3.487,7.617.873S119.5,165.545,118.409,168.144Z" transform="translate(186.602 -116.803)"/><path class="a" d="M124.067,164.819c-2.749-.664-7.385-1.514-7.385-2.173s-1.314,3.052,1.091,4.133,6.294,3.04,9.128,4.136,8.252,1.3,10,3.472,7.608,3.913,7.608,3.913l6.967.659a35.761,35.761,0,0,1,9.772-.659c5,.435,12.394,1.094,16.528.87s4.786-1.517,5.221-2.39-7.608-2.614-9.569-2.393-13.053.215-16.307,0a75.646,75.646,0,0,0-10.01,0c-2.6.215-4.554-1.734-6.515-2.825s-6.3-4.566-8.911-5.007S129.512,166.13,124.067,164.819Z" transform="translate(182.684 -124.567)"/><path class="a" d="M214.844,179.034c-.876,1.452-2.6,1.526-.876,4.568,1.749,3.04,3.052,4.777,4.572,4.563s6.741-.435,7.4,1.311,2.39,3.263,6.08,2.167,6.735-1.729,7.605-3.037,6.756-1.52,6.756-1.52,4.783-3.7,3.037-5.218-5.865-2.616-7.835-2.834-3.913,1.526-8.258,1.526-7.176,1.734-8.919,0S215.491,177.952,214.844,179.034Z" transform="translate(370.666 -93.556)"/><path class="a" d="M149.336,192.07c2.611,1.743,4.133.656,7.391,1.311s5.871,5.43,7.614,6.083a5.059,5.059,0,0,0,5.212-1.305c1.088-1.3,2.6-5.868,2.6-5.868s0,4.348,2.619,5.215,9.128-.65,10.877-.432c1.732.215,11.951,1.523,14.779,2.822s9.781,2.181,11.745,5.007,2.176,12.606,3.254,13.694,4.774-3.481,5.659-4.56,5.433-.438,6.956,1.079,4.995,5.224,4.783,6.75-.867,3.907-2.181,3.034c-1.291-.864-3.472-.647-2.6-2.39s1.3-5.43-.435-5.43h-3.257a5.142,5.142,0,0,0-5.436,2.393C216.744,222.73,218.476,226,220,226s5,0,5,.858c0,.879-3.7,3.487-3.484,5.009s3.043,6.735,3.919,7.826,5.436,2.173,6.729,2.39c1.314.221-3.031.432-1.955,1.958,1.1,1.526,2.828,5.212,5.221,6.083s9.134,4.783,10,6.529,6.091-1.305,7.188-1.523.861,4.569,3.91,4.783,4.131-.435,6.741-2.387,1.952-4.569,2.167-6.521,0-3.481,2.828-2.834,4.345-.438,4.133-2.6-2.6-4.786,1.952-5.442c4.577-.65,6.97-3.475,9.8-3.475s10.648,1.085,11.518,0,4.56-6.088,6.956-6.306,8.7-.653,14.355-1.523,11.742-4.131,13.706-3.919,6.735.218,5.215-1.085-3.7-4.342-6.964-4.342-.215-4.786.647-4.786,5.224.647,5.01,2.822,1.308,5,5.656,4.142c4.345-.882,3.684-4.142,2.822-5.01s-1.517-3.049-2.387-4.563-.659-3.484,3.91-3.919,10.877,1.737,10.645-1.737c-.212-3.481,0-7.179,1.311-9.134s4.133-3.266,2.613-3.907-3.484.867-5.007-2.4,1.314-5.656,3.046-6.965,10.869-9.781,15.875-11.086,8.479-6.306,4.995-7.391-10.437-3.043-14.993.432c-4.577,3.49-7.173,6.738-12.394,5.656s-4.572.432-4.783-5.656-5.877-16.96-10.437-16.3l-4.571.656s-80.011-.429-82.631,2.17c-2.6,2.6-4.995,9.131-7.382,7.391s-2.834-6.08-5.871-4.348-.226,6.088-2.84,9.131S222.174,167.281,220,166.2s-4.348-1.955-13.047-1.526-18.265,3.049-16.307,5.656-3.916,4.13-5.436,2.831-8.479,1.517-8.043,4.125-1.091,5.659-4.786,5-6.306,1.526-6.521,3.692-8.484,3.7-9.134,3.7S145.42,189.466,149.336,192.07Z" transform="translate(245.05 -149.644)"/><path class="a" d="M133.581,237.4c-.323,3.257,2.943,2.281,6.859,2.281s10.76-.65,12.062.976,7.176,4.239,8.8,5.553c1.632,1.3,6.85,1.62,7.17.317s-3.584-4.892-5.871-4.563-7.173-2.284-9.775-4.566-7.508-2.284-9.46-2.284S133.581,237.4,133.581,237.4Z" transform="translate(216.117 16.159)"/><path class="a" d="M142.892,232.8c-2.978.329-2.27,3.91,1.311,3.26S145.837,232.47,142.892,232.8Z" transform="translate(230.61 11.622)"/><path class="a" d="M143.459,242c-2.993.535-2.287,6.356,1.3,5.295S146.393,241.465,143.459,242Z" transform="translate(231.686 29.439)"/><path class="a" d="M158.091,240.779c-2.975.541-2.27,6.371,1.308,5.3C163,245.021,161.031,240.247,158.091,240.779Z" transform="translate(260.096 27.067)"/><path class="a" d="M146.769,245.065a42.748,42.748,0,0,0,5.874.647c2.278,0,3.587,1.308,5.545,2.287s5.545-1.3,6.847-1.3,2.931,3.91,3.263-.332-3.916-6.2-6.524-6.85-5.545,0-7.5.323S146.769,245.065,146.769,245.065Z" transform="translate(241.744 24.151)"/><path class="a" d="M276.622,225.868c1.308-.647,6.518-2.284,9.46-3.59s12.395-4.569,13.694-4.569,17.607.332,19.9-.653,8.164-2.6,10.766,4.569,0,4.572-2.6,5.868c-2.622,1.308.973,4.239,2.273,4.239s5.865,4.242,8.146,4.242,7.838,2.287,7.838,2.287,5.536,4.236,8.485,4.236c2.928,0,5.221,2.29,8.476-.976s7.494-7.179,10.76-6.524,6.856,3.263,11.083,3.263c4.248,0,12.08-.659,13.382.976s-8.8,7.173-8.158,8.481,1.961.979,5.224-2.931,8.152-3.916,12.062-4.895,5.883,5.212,6.532,7.164,3.584,5.553,5.859,9.8,4.566,10.1,7.185,14.673,4.236,11.421,6.853,14.349,4.889,7.835,6.515,11.748,5.551,7.82,6.853,8.149,6.847,7.826,7.176,9.781-1.958,6.2,3.249,6.524c5.23.335,9.79-2.284,11.427-2.934s14.349-5.545,15.981-3.59-2.284,10.44-2.608,12.727-9.79,13.37-10.119,16.3-5.868,8.164-9.452,8.808-11.1,9.79-13.7,12.724-6.853,9.457-8.8,10.1-2.608,7.506-1.626,8.814.318,9.131,3.263,11.739c2.925,2.611,3.913,4.557,2.6,6.85-1.305,2.273.656,7.5,0,11.742s-4.239,9.784-5.547,11.086-9.455,3.6-12.059,6.844c-2.619,3.269-4.895,6.2-4.248,7.832s3.266,9.787,2.928,11.745c-.312,1.964-6.509,4.563-9.122,5.862-2.6,1.32-1.294,3.916-.653,6.532s-4.56,6.85-6.85,9.125-8.484,10.11-12.724,13.044-9.128,5.221-13.373,4.9c-4.222-.326-12.394,0-14.014,1.632-1.643,1.638-3.913,1.308-7.185-.32-3.254-1.638-3.587-3.916-3.9-7.511a21.514,21.514,0,0,0-1.317-5.874s-.976-5.536-3.925-8.143c-2.928-2.617-3.91-5.545-5.53-7.514-1.632-1.952-.653-6.186-.982-9.766a29.748,29.748,0,0,0-3.9-11.421c-1.649-2.287-4.907-8.482-6.218-10.766s-2.934-6.844-2.6-13.367,4.886-10.107,7.505-12.077c2.617-1.952.323-4.557-1.958-8.47s.329-10.448-1.632-12.718c-1.958-2.29-8.476-14.358-12.071-16.316s-3.907-2.6-1.949-7.173,0-9.134,3.257-12.062,1.635-4.892-1.949-6.853-2.284-2.934-5.23-.653-6.844,3.59-9.119,1.308-1.64-5.88-5.883-8.487-9.775.976-11.413,1.632-6.194,3.59-10.772,4.242c-4.554.65-7.817-.332-12.394-.332-4.554,0-8.479.332-9.125,2.62s-1.623,3.589-4.56,1.3-8.811-7.511-8.811-7.511-8.155-6.506-9.784-10.434c-1.632-3.907-4.566-6.521-10.76-9.46s-2.614-6.194-3.266-9.449-3.913-4.574-2.281-4.9,1.311-2.608,4.883-7.173c3.6-4.566,1.311-9.463.664-12.071-.664-2.611-3.91-6.521-.664-10.76,3.263-4.242,6.529-13.371,9.128-15.978,2.625-2.614,9.155-6.206,12.727-7.832,3.593-1.637,1.311-5.865,3.263-10.763s4.9-7.179,5.874-7.179,4.6-3.384,8.482-5.536C268.463,224.56,275.316,226.515,276.622,225.868ZM419.155,359.917c-.876-1.411-6.521-.982-7.508.656-.964,1.632-1.952,9.125.988,9.784S420.78,362.524,419.155,359.917Z" transform="translate(385.207 -20.578)"/><path class="a" d="M323.707,281.594c-4.081-1.164-4.56,4.245-7.817,7.832s-6.853,6.512-8.152,6.2c-1.32-.329-8.484,2.278-6.2,7.164s1.961,9.8-.329,12.077,1.955,8.808,1.317,12.391c-.667,3.587.973,5.874,5.539,5.874s6.2-1.637,8.152-5.874,2.278-8.476,4.236-12.065,3.592-11.092,4.569-13.044,2.937-8.161,2.613-11.745S325.994,282.25,323.707,281.594Z" transform="translate(540.005 106.011)"/><path class="a" d="M350.2,253.1c-2.111.935-3.913,12.062,0,13.365s6.209-5.212,4.907-6.838S353.148,251.787,350.2,253.1Z" transform="translate(631.9 50.69)"/><path class="a" d="M257.579,211.6c-3.075,0-4.574,4.9-2.617,6.526s3.919,1.308,5.542-.979C262.151,214.858,259.205,211.6,257.579,211.6Z" transform="translate(449.917 -29.466)"/><path class="a" d="M246.918,214.568c-.791,1.238,2.608,1.638,3.257.329S249.194,210.982,246.918,214.568Z" transform="translate(435.789 -27.221)"/><path class="a" d="M260.211,215.545c-1.185.706,1.952,2.931,3.59,3.581s2.937,2.614,4.248,2.937,5.536,0,4.233-3.26a5.11,5.11,0,0,0-5.212-3.257C266.1,215.545,261.855,214.566,260.211,215.545Z" transform="translate(461.299 -22.647)"/><path class="a" d="M239.816,192.924c-2.955.494-3.263,3.592-5.215,3.592s-4.242.653-3.584,2.931,1.952,3.916,0,4.892.32,4.9,2.928,5.221,5.551-1.629,7.826-2.6,5.548-2.934,5.548-5.874-.647-5.55-1.958-6.853S241.771,192.6,239.816,192.924Z" transform="translate(403.744 -65.913)"/><path class="a" d="M235.84,191.644c-2.64.879-1.64,4.233-.332,5.865s3.593,5.221,6.847,6.524,10.116,2.608,7.514,3.916c-2.619,1.308-7.191,4.892-7.835,6.847-.661,1.958,5.548,3.916,5.548,3.916s-1.964,2.284-.332,2.934,2.619-2.281,5.221-2.281S260.294,221,262.913,221s6.838-3.587,6.521-5.874-3.6-5.865-6.521-7.173-6.2-7.176-8.152-8.482,1.949-4.569-.335-6.841-3.913-1.958-6.524-3.6-4.892.332-6.529,2.287S237.79,190.985,235.84,191.644Z" transform="translate(411.315 -74.415)"/><path class="a" d="M263.886,285.025c-.329-2.934-6.847-5.547-11.086-6.194s-3.6-2.6.976-2.934,4.245-1.955,8.146-2.611c3.922-.653,7.841-1.632,10.772-1.955s2.934-2.94,2.934-4.895,8.155-2.614,8.155-2.614,4.571-4.228,7.182-6.191,7.167-1.634,10.76-.656-.329-2.287-1.635-3.91-.329-5.224.664-7.182c.97-1.958,6.847-2.937,8.473-2.278s0,3.581.323,6.2,2.937,4.239,2.937,4.239l2.6-.323h4.242c4.245,0,2.934,2.611,6.2,1.629a79.9,79.9,0,0,0,8.485-2.934c1.29-.656,4.886-.656,9.775.976s2.287-2.937,3.263-5.548,2.925-7.167,6.191-6.853,5.889,2.287,8.49.661-4.892-3.913-4.892-4.892,6.191-.982,11.739-1.311,8.808,0,11.418-.647-1.955-5.224-2.943-5.224c-.97,0-7.5.653-10.772.329-3.251-.329-6.841,1.955-9.778,2.611s-3.584-3.919-5.215-5.874-2.29-5.539,1.952-7.5,11.754-6.2,13.041-8.158c1.314-1.955-5.2-1.623-11.4-1.305s.982,1.964-4.907,7.838c-5.853,5.868-8.8,1.952-13.359,5.868s-1.314,4.239,2.943,5.545c4.228,1.3.65,5.221-.332,6.2s-5.877,4.569-5.215,7.176-3.269,4.239-3.269,4.239-12.077,2.608-14.358,2.934-2.934-1.632-2.273-3.59-2.619-6.518-2.934-9.455-5.212,1.308-5.553,3.263c-.323,1.958-6.523,2.278-10.1.982-3.6-1.308-5.559-6.2-4.889-7.182.65-.976-1.958-5.871-1.958-7.182,0-1.294,7.164-6.512,13.353-7.82,6.218-1.3,14.032-8.814,18.274-12.062,4.248-3.266,6.2-7.182,7.511-8.158,1.291-.982,23.8-6.853,31.962-8.158,8.14-1.3,26.094,1.637,29.022,2.284s4.563,1.623,11.748,4.239,13.368,2.611,17.924,3.266a35.946,35.946,0,0,1,10.454,3.26c2.928,1.311,0,2.29-7.194,4.563-7.173,2.281-12.062,1.635-15.969.326s-6.2-1.305-3.263.65,1.955,2.94,2.275,5.871,4.895.329,5.877-.323.979-1.955,4.574.323,4.886.979,6.506.653.335-3.907,1.311-5.218,4.9-1.305,5.883-1.955a16.029,16.029,0,0,1,5.2-1.955c1.952-.326,1.632,2.931,3.6,3.91,1.943.976.973-4.236.309-5.533-.647-1.311-1.3-4.895-.309-5.88s7.826-1.632,9.449-.323-2.6,5.218-1.623,7.5,3.254-1.3,4.889-3.26,5.212,0,11.083-.979,4.568-4.242,10.754-2.284c6.212,1.961,4.577,1.961,6.541,0s5.536.332,9.116-.976,3.593,0,6.212,1.308c2.6,1.3,5.868-2.616,7.173-3.919s6.515-1.308,9.128-.973,5.865,1.949,8.479,1.949,6.847,1.958,6.847,1.958,5.55,1.961,6.862.653c1.293-1.308-.329-2.937-5.23-5.227-4.889-2.27-2.934-6.182,0-6.512s2.613-1.955,4.9-3.26,5.215-6.2,7.817-5.224,4.9,2.937,8.17,4.569c3.246,1.632.315,3.916-.338,5.542s.653,7.829,1.629,8.8-.976,4.571-3.578,6.2-6.212,5.218-5.215,5.865c.958.653,8.793-2.931,8.793-2.931s4.907-5.868,7.176-7.5,4.566-1.64,5.215.323,4.245,2.608,7.508,1.305,0-2.284-.321-5.221-5.545-1.3-8.49-.656-5.224,3.592-6.183,3.592c-1,0-1-1.961-.341-4.9s-1.3-4.557-1.3-6.182.973-1.638,3.257-4.892,2.287,2.278,2.608,5.209,2.608,1.64,4.563,1.308.988-4.239,2.622-6.2,5.218-2.284,8.467.656,2.931,1.955,6.859,3.257,4.242,1.635,4.572,4.571,2.928,3.257,4.56,2.27.326-4.886-.661-6.182c-.97-1.308-8.8-3.59-11.421-5.877-2.6-2.284,1.311-2.284,4.257-2.284s8.479.329,8.479.329,6.188-1.308,9.455-3.6,5.55-2.273,8.808-3.581,8.484-1.308,11.748-.65,5.53-1.305,8.8-2.614c3.257-1.3,6.847-2.281,7.832-1.626s9.111,2.6,10.422,2.287,4.242-1.305,9.46-3.272,2.937-1.623,4.883-2.608c1.966-.976,5.23-1.3,12.077,1.632s0,0,1.958,1.961,2.931-.329,7.5-.985,7.508,0,10.436.329,9.458.326,12.392,2.281-1.952,6.2-3.59,7.5,2.611,2.284,3.928,1.955c1.288-.326,12.059,0,16.942.653,4.907.653,6.859,2.94,9.137,2.94s5.877-.976,7.182-2.287,9.455-1.955,12.062-2.281,9.793,0,10.778.65,1.952,3.919,1.952,6.527,2.928,4.889,5.212,5.218,6.523-3.913,8.146-4.566,3.587,2.937,4.566,1.961,9.143.318,12.406-1.308,5.2,0,6.847-.653c1.62-.653,4.239-4.236,4.239-5.548s1.305-2.281,0-4.236-5.883-.659-10.772-1.955-.315-3.263,1.635-4.571,5.212,0,8.476.661,1.967-.985,3.6-.985,7.5,1.632,10.754,1.632,5.877,3.584,5.877,3.584-9.134,2.611-11.086,2.611-.656,2.608.982,2.608,3.91.982,6.194,2.614,12.389,0,13.688,0,5.233,1.632,9.143,3.91a46.9,46.9,0,0,0,6.521,3.263,108.956,108.956,0,0,0,11.086-.65c5.542-.659,12.73-.659,14.029.32s4.895,1.958,7.5,4.239,4.566,1.314,8.158.979,7.173-.979,10.437-.979,14.02-.329,15.978,2.614,4.242,2.284,4.242,2.284,2.94-5.227,4.242-6.2,5.544.661,8.152,1.952c2.608,1.311,15.32,0,18.592.667,3.26.644,7.829,3.907,5.224,6.521s1.958,7.176.982,9.775c-.982,2.616-3.6,2.937-6.206,3.59s2.611,3.919,4.9,6.206-1.311,2.931-3.6,1.955-8.155.329-15.661,2.284-10.436,5.865-18.254,6.188-4.571-.323-14.344-.323-9.466,2.611-11.424,5.877.982,2.608,0,5.212-2.608,5.545-2.608,7.832-5.877,2.611-7.835,4.566-5.212,6.85-10.76,10.433a39.475,39.475,0,0,0-9.455,9.14,29.054,29.054,0,0,1,3.584-9.46c2.608-3.91-2.934-9.463-3.263-13.7s1.637-5.547,4.889-9.46,11.1-5.221,14.355-7.17S901.2,223.062,901.2,223.062a42.656,42.656,0,0,1-5.871,2.931c-3.278,1.3-7.185,3.913-9.79,3.913-2.622,0-1.623-2.616-1.961-5.221s-6.527-.647-8.817,1.958-6.518,4.239-11.072,7.505c-4.571,3.263-3.266,2.931-6.206,3.263s-7.832-1.635-10.1-3.263c-2.287-1.632-4.577,1.3-11.748,1.629s-15.337-.653-18.595-.329-11.412,9.784-16.313,11.418-11.086,4.569-9.449,6.853,4.56-1.961,5.877-1.961c1.3,0-.982,4.571,1.952,4.571s4.548-1.64,7.5-1.961c2.934-.326,5.221,2.278,5.865,5.871s-1.3,6.521-2.6,11.092-3.263,9.122-8.485,13.038-13.7,11.092-15.331,13.047-7.505.332-8.476-.976-3.91,2.934-6.2,3.913-4.563,2.937-4.563,5.548-6.515,2.611-6.515,4.239,3.913,6.2,5.536,8.479-.341,9.463-3.266,11.089-4.222,3.584-8.152,1.311c-3.907-2.29-.647-3.6.988-7.182s-1.635-5.545-2.3-6.524-3.257,1.955-4.557,2.281-1.308-2.94-.332-4.895-.65-6.188-1.626-6.515-7.179,4.892-9.784,4.56c-2.625-.318-.338-6.191.647-7.823s-1.955-.329-3.913,1.3-6.194,5.224-7.832,4.895-4.892,2.6-2.272,4.563c2.6,1.955,3.584,3.587,5.215,3.913s5.865-.653,7.5-.976,4.889,2.284,1.623,5.218-10.107,3.269-8.8,5.227c1.291,1.955,4.56,4.883,7.173,9.449s1.623,9.455,2.287,13.047c.647,3.592-9.461,11.086-12.4,13.37s-5.871,7.829-10.766,10.439-15.331,4.889-16.957,3.91-6.2,1.638-5.871,5.218,2.6,3.263,2.6,4.239-3.266,4.9-4.557,6.532c-1.308,1.626-5.88,0-5.215-4.9s3.907-6.853,3.578-9.134a3.044,3.044,0,0,0-5.212-1.629c-1.958,1.958-8.155,7.5-8.155,7.5s2.287,5.871,5.215,8.161,4.895,5.533,8.811,10.428.979,9.134,0,12.73-4.236,3.584-6.853,4.233-3.266,1.638-4.248,3.59-5.53,4.236-6.194,2.611c-.641-1.634-4.883-5.548-4.883-5.548s-2.94-5.874-7.179-8.808-5.865-4.233-5.865-1.3-2.611,8.47-2.611,10.434-5.886-5.877-5.886-9.137-.976-8.808-.644-14.02-6.847-.329-6.847-.329-3.266,5.542-4.883,5.542c-1.638,0-2.29-4.563-1.973-8.476a13.988,13.988,0,0,0-2.6-8.808c-.982-1.305-6.521-6.518-7.5-10.11s-2.934-2.281-4.886-.32-1.314,1.958-9.131,1.958c-7.838,0-7.511,4.892-11.436,7.82-3.907,2.94-7.162,8.481-11.73,10.439s-6.527,3.91-6.527,6.2,0,8.146-.97,11.412-1.635,7.832-3.91,11.092c-2.3,3.263-4.245,8.476-6.2,8.476s-2.616-4.554-2.616-7.5-5.536-9.781-6.847-12.068-6.2-12.391-6.2-12.391-3.91-10.763-3.578-13.7c.315-2.937.315-11.086.315-11.086s-5.215,5.218-7.5,4.886-4.56-3.91-4.239-8.149-3.907-3.919-6.2-4.571-5.215-6.515-6.841-6.515c-1.646,0-2.616,0-3.919,1.958s-8.152,1.626-9.793,1.626-11.41-.332-14.338-1.311-6.2-6.847-7.838-7.491c-1.617-.653-6.512,3.581-8.47,2.934s-5.883-3.916-10.119-5.871-5.536-6.524-7.173-9.455-7.176,1.623-6.532,4.886c.661,3.26,7.841,7.505,7.841,9.79s1.305,2.934,4.889,5.868.656,4.566,2.928,5.212,5.55-2.608,8.82-4.233,2.925-3.913,4.566-3.913,1.288,4.236,3.907,4.56,9.46,4.239,11.092,6.856-1.632,4.242-2.934,6.515-5.212,8.811-8.49,11.421-6.835,6.191-11.736,7.167-5.539,3.6-9.455,3.916-14.676,5.553-16.3,6.532-10.442,3.581-13.05,2.6-3.59-7.5-4.572-12.394A33.706,33.706,0,0,0,428.933,392c-.982-1.955-6.859-7.17-8.164-8.152s-4.56-8.808-4.895-12.068-3.91-1.961-4.56-5.542-4.251-8.484-4.895-10.775-7.185.335-9.778.661c-2.619.326-7.505-1.958-6.853-7.185.644-5.2,3.263-5.2,6.518-5.2s1.958-1.637,5.218-4.9,4.245-9.772,4.557-14.014c.338-4.245-2.275-2.29-4.883-1.637s-6.526,1.637-7.829,1.305-6.518-1.958-7.491-.979c-1,.979-6.532.326-7.829-1.3-1.317-1.632-7.835-3.59-8.487-4.895s0-9.128-1.308-11.089-4.233.329-5.877,1.632c-1.62,1.308-6.18,2.284-4.886,3.263s5.547,2.934,5.227,5.536c-.341,2.613-3.269,3.272-4.895,4.571s-4.895,3.263-5.877,1.632-4.245-8.8-5.227-10.113-3.907-4.56-4.877-7.5-4.572-3.919-6.847-6.2-8.814-5.868-11.415-8.47c-2.62-2.611-7.188-4.568-7.511-1.308s4.572,3.91,6.541,7.173c1.949,3.263,6.182,5.218,8.467,6.2a88.135,88.135,0,0,1,8.49,5.218,11.738,11.738,0,0,1-4.9.656c-2.293-.326-.329,3.916-.65,6.188s-2.625,2.284-3.269-.317a14,14,0,0,0-3.91-6.527c-1.305-.976-9.79-3.587-11.1-4.242s-6.847-4.239-7.491-7.173-5.547-3.263-6.859-2.6-6.2,4.233-8.479,4.233-5.871-1.629-8.49-1.958c-2.6-.318-2.922,4.242-3.9,6.853s-5.221.65-7.5,2.937-6.209,4.569-5.23,6.526,2.614,1.955-.318,3.584-4.577,4.892-7.508,5.215-6.841,1.632-8.479.653-2.934,3.266-3.916,4.245-2.611-2.94-4.239-4.569-5.871-.329-7.17-.653-2.614-3.266-4.245-4.566a3.636,3.636,0,0,1,0-5.218,4.506,4.506,0,0,0,1.632-5.545c-.982-2.937-1.632-9.463,1.635-10.754,3.26-1.311,11.083,0,14.99,0,3.928,0,10.628,1.352,11.742-.664A15.508,15.508,0,0,0,263.886,285.025Zm122.965-57.4c-1.108,3.075,7.505,5.545,9.125,3.26C397.617,228.6,388.474,223.062,386.852,227.622Zm-11.089,78.932c.653,1.3,3.913-1.961,6.518-1.961s8.484.982,10.113-1.3,6.841-2.611,11.092-1.961,7.829,3.593,10.769,3.919a60.06,60.06,0,0,0,13.367-.979c2.6-.656,1.952-5.224-2.29-7.5s-7.826-5.868-11.736-7.176-5.224-2.611-2.937-3.266,5.215-3.257,1.955-3.257-6.194.979-6.533,2.611c-.312,1.629-2.275,3.587-3.575,4.242s-4.566,3.255-5.547,1.3-4.566-7.826-6.194-8.149-4.236,0-6.2,3.257-4.233,6.529-6.2,7.829-4.56,5.218-2.6,5.874S375.762,306.554,375.762,306.554Zm74.69-22.837c-3.948,2.643-5.224,6.206-3.593,8.484s6.2,9.458,8.479,10.11,10.436,1.958,7.179,4.895-3.91,3.913-6.853,3.584-1.632,7.829.656,8.479,9.134,2.94,11.41,3.263,9.79-.653,9.46-2.6-1.632-9.787-4.23-11.742c-2.625-1.961,3.587-3.916,1.949-5.547s-3.907-.979-5.221-2.934-1.958-3.91-3.913-5.218-3.581,1.308-3.257-2.284,4.889-5.874,6.847-3.913,7.826.979,9.137,0-2.617-3.919-3.593-5.877-7.5-3.581-8.478-2.934-3.584,2.613-6.2,4.239S452.41,282.412,450.452,283.717Z" transform="translate(404.789 -122.464)"/><path class="a" d="M332.536,190.121c-2.4,2.414-7.488,1.626-11.08-.326s-7.829-2.278-9.775-2.937c-1.964-.647.315-4.563,2.6-5.539s8.484-3.919,13.062-5.874c4.545-1.955,5.859-5.868,9.122-5.868s18.915-3.263,20.87-2.6,11.407,1.3,13.382-1.314c1.949-2.608,8.8-.976,7.17,1.314s-7.508,7.494-11.418,6.518-15-.65-19.894,0-9.46,3.587-13.706,5.871-3.269,4.895-1.62,5.218C332.865,184.9,334.491,188.166,332.536,190.121Z" transform="translate(560.201 -121.167)"/><path class="a" d="M434.487,195.255c-1.888.532-7.5-.656-5.548,3.91a21.637,21.637,0,0,1,1.958,11.415c-.32,3.6,0,11.089.656,12.062s3.251,3.266,4.892,2.611c1.623-.647-.659-7.17-.659-8.476s2.281-3.266,3.6-3.59,0-5.871-1.649-8.152c-1.623-2.287-3.907-3.587-2.6-3.916s2.931-2.931,1.955-3.592S436.763,194.6,434.487,195.255Z" transform="translate(788.325 -61.39)"/><path class="a" d="M436.077,206.541c-2.414.594-3.257,3.916-3.257,4.892s-9.134,2.931-6.209,5.545,5.883.65,10.442.323a44.947,44.947,0,0,0,8.8-1.626s6.85.317,5.874-2.934-8.152-3.592-9.457-3.26S438.675,205.891,436.077,206.541Z" transform="translate(783.475 -39.411)"/><path class="a" d="M454.317,211.142c-2.408,1.446-.982,7.185-2.94,11.1s-3.592,7.5-4.889,7.5-8.152,2.608-10.113,4.566-11.407-1.632-12.706,0a39.075,39.075,0,0,1-5.553,4.889c-1.638,1.305-6.194.329-5.218,4.242s3.26,7.5,5.218,7.5a4.526,4.526,0,0,0,4.571-4.895c0-3.59,4.557,0,6.841-.323s3.587-2.613,4.56-5.221-1.3,1.311,2.611,2.284c3.925.979,5.221-1.635,5.221-2.614s7.176-2.6,8.487-3.581,6.524-2.608,6.853-3.916,0-8.808,1.629-9.455,3.907-.659,1.3-5.218S457.578,209.184,454.317,211.142Z" transform="translate(757.732 -31.294)"/><path class="a" d="M406.262,232.69c-4.833.756-7.829,11.1-3.919,10.769S410.5,232.043,406.262,232.69Z" transform="translate(734.034 11.403)"/><path class="a" d="M471.617,311.463c-1.305.641,0,4.236,1.3,5.53,1.311,1.314,1.964,5.874,1.623,7.182-.312,1.308-5.865,2.94-3.254,4.577s7.5,0,6.85,1.946-3.254,4.574-.323,5.218,3.907-2.29,5.215-4.56c1.314-2.29,2.29-4.242,4.56-5.545s0-4.245-1.3-4.245-1.949,1.638-4.9,0c-2.928-1.629-2.278-.982-4.233-4.236S474.884,309.825,471.617,311.463Z" transform="translate(869.915 163.559)"/><path class="a" d="M486.4,318.412c-.52,1.579-3.249,1.958-5.206,3.584s0,2.284-5.545,5.548-12.4,6.844-13.7,9.778,1.3,4.577,6.521,4.9,3.91,1.3,7.506-2.619c3.584-3.9,6.847-6.183,11.083-9.446A11.1,11.1,0,0,0,491.31,322S486.732,317.436,486.4,318.412Z" transform="translate(852.512 177.479)"/><path class="a" d="M433.664,320.366c-3.59,3.584,3.607,3.584,2.625,7.176s4.889,2.281,6.515,1.637c1.62-.661,5.542-8.164,4.88-10.128-.641-1.952-7.167,3.266-8.8,2.94S433.664,320.366,433.664,320.366Z" transform="translate(796.318 178.134)"/><path class="a" d="M489.6,371.494c0-3.331-1.958,3.581-3.257.647s1.3-7.832-1.958-5.874-4.895,3.59-5.218,5.227-6.2,2.273-5.877.647,2.611-5.545.329-7.17-6.2-2.29-9.137-3.266.341-4.239-7.5-2.619c-7.829,1.637-10.757,3.6-10.757,3.6s-7.188-2.287-9.458.32c-2.29,2.619-5.547,7.505-5.547,7.505s-9.125.338-11.095.659-5.224,2.928-8.143,3.91c-2.946.976-7.841,1.955-9.787.329s-5.218-4.56-4.239-6.518,8.143-4.577,5.536-7.844c-2.608-3.249-4.227-3.91-4.563-5.862s.982-2.94-2.931-6.85-2.937-8.481-1.311-9.125-.988-4.569-2.275-6.2c-1.308-1.638-1.308-7.506,1.288-9.14,2.625-1.62,10.442-7.823,12.73-7.823s5.865.982,8.155-.653,9.134-.976,9.134-2.287.656-6.515,2.278-8.146,8.481-3.266,9.463-4.577,2.608-6.844,4.56-7.82,3.6-3.254,6.544,0c2.922,3.266,5.865,4.572,7.147,1.308,1.32-3.26.341-2.284,3.272-5.218s-.332-7.832,2.611-4.9c2.934,2.946,4.889,5.224,4.889,5.224s-.312-6.515,1.64-6.515,3.907,3.26,4.883,3.26,9.79-1.97,11.424.32-4.577,8.481-2.287,10.766,6.847,3.578,10.107,5.542,7.17,6.524,8.8,2.614,4.895-9.778,2.608-12.718.661-12.4,1.638-13.059c.982-.635,2.608,7.511,5.871,11.1s6.527,6.194,8.152,10.1c1.634,3.922,1.946,10.766,4.886,13.053s8.808,2.284,8.478,5.218c-.312,2.94,6.527,8.481,10.113,14.035s3.916,17.61,3.916,22.822-3.916,12.071-6.853,15.987-3.91,9.122-5.209,11.08-.656,1.632-5.55,2.94-8.476,5.227-9.781,3.916-5.871-3.587-7.176-1.958-2.937,5.215-5.221,1.3-7.505-3.257-8.484-3.916-.97-2.608-.97-5.874-4.239-3.578-4.574-4.56C490.58,373.452,489.6,372.47,489.6,371.494Z" transform="translate(716.581 101.569)"/><path class="a" d="M476.04,293.381c4.254,1.629,11.748-5.868,8.814-6.844S476.04,293.381,476.04,293.381Z" transform="translate(880.482 115.747)"/><path class="a" d="M468.311,298.044c-.644,3.175-4.574,1.635-6.521-1.3-1.97-2.934-5.883-5.218,0-3.916C467.656,294.137,468.626,296.425,468.311,298.044Z" transform="translate(846.809 127.391)"/><path class="a" d="M369.071,258.231c-4.054.805,5.871,7.835,6.85,8.811s9.781,8.479,9.781,12.068,5.865,12.065,7.5,13.362,9.793,6.2,11.1,8.808,4.236,3.272,4.236-.326.653-7.826,2.272-9.778c1.638-1.964.982-4.9-1.62-4.571s-4.889-4.239-9.134-7.167c-4.242-2.946-7.5-4.9-11.413-9.134s-8.808-6.85-11.416-9.134S370.694,257.905,369.071,258.231Z" transform="translate(671.099 60.884)"/><path class="a" d="M374.178,252.313c-2.6.32-2.6,5.218-1.311,6.85,1.311,1.629,3.928.647,5.553,6.515a66.739,66.739,0,0,0,6.194,14.029c1.308,2.278,6.856,5.542,8.814,7.176s4.883-.658,3.593-2.616-3.925-4.886-4.257-7.173-1.955-5.874-4.56-9.784-4.889-4.892-6.518-7.5S374.178,252.313,374.178,252.313Z" transform="translate(678.704 49.521)"/><path class="a" d="M382.664,274.021c-2.375,2.975.65,5.221,1.62,5.868s4.577,1.305,7.841.976,7.817-1.3,4.236-3.254-7.832,0-9.137-2.608S383.969,272.387,382.664,274.021Z" transform="translate(697.621 89.45)"/><path class="a" d="M391.265,274.168c-2.29.976-5.865,1.62-3.266,3.9s4.248,3.263,8.161,2.94,9.784,1.958,10.1,0-3.587-4.9-5.209-4.9S391.265,274.168,391.265,274.168Z" transform="translate(707.934 91.917)"/><path class="a" d="M399.426,278.975c-.732,2.91,4.889,4.245,5.215.982S400.082,276.368,399.426,278.975Z" transform="translate(731.735 97.87)"/><path class="a" d="M405.28,284.237c.5,3.563,7.159-1.958,7.159-1.958s5.23-.656,5.23-2.937-5.23-5.224-7.182-2.617S404.951,281.949,405.28,284.237Z" transform="translate(743.176 94.896)"/><path class="a" d="M403.234,266.18c-1.955.647-1.632,2.29-2.281,5.536-.656,3.266-3.584,5.545-.982,7.182s7.5-5.542,8.811-3.26-.332,3.26,1.958,6.188,6.524,2.613,6.524,2.613-.329-7.826-3.919-9.784-5.871-4.233-1.635-3.589,6.529-.97,5.553-2.928-7.176-.982-9.149-.65C406.162,267.8,403.234,266.18,403.234,266.18Z" transform="translate(730.865 76.421)"/><path class="a" d="M401.738,264.818c-2.272,2.284-.65,4.571,2.928,4.248,3.6-.326,11.1-1.308,12.73-1.308s3.907-4.242,2.613-4.242-10.436,1.635-11.412,1.964S401.738,264.818,401.738,264.818Z" transform="translate(734.313 71.254)"/><path class="a" d="M416.265,262.468c-2.987-1.273-8.47,10.76-4.557,11.742S418.558,263.444,416.265,262.468Z" transform="translate(753.05 69.038)"/><path class="a" d="M418.428,257.077c-.129-2.3-5.221.653-5.559,2.931-.309,2.293,3.6,4.245-2.593,4.245-6.212,0-6.524,4.892-7.832,5.88s-2.6,1.3-5.23,1.952c-2.6.656-3.246,3.254-3.9,4.892s-5.218-2.934-6.526-1.637-.321,7.511,1.955,12.724,8.155,8.476,9.781,8.476a29,29,0,0,1,7.191.661c2.27.65,9.772,1.3,9.455-1.637-.335-2.928-.982-7.5,2.275-10.439s6.526-4.557,4.9-8.808c-1.635-4.23-4.9-6.844-2.619-8.8s4.895-2.611,4.895-4.242S419.083,267.849,418.428,257.077Z" transform="translate(706.214 57.144)"/><path class="a" d="M408.134,240.885c-2.284,0,.329,3.59-2.934,5.874s-6.853,3.251-4.9,7.167,8.814,6.847,7.17,8.487c-1.623,1.626-6.512,4.892-7.17,7.823s7.832-4.569,10.119-7.508,6.841-1.293,7.829-2.934l.97-1.629a56.875,56.875,0,0,1-6.518-1.626c-2.94-.982-6.518,2.608-4.895-2.614s6.521-4.233,5.545-8.146A6.119,6.119,0,0,0,408.134,240.885Z" transform="translate(732.488 27.353)"/><path class="a" d="M404.977,250.675c-1.108.4-3.91,6.2-.318,6.2s9.775.976,8.47-.656S408.57,249.364,404.977,250.675Z" transform="translate(738.579 45.938)"/><path class="a" d="M409.048,248.875c-1.308-.1-5.553,6.841.323,6.515S413.6,249.192,409.048,248.875Z" transform="translate(745.274 42.85)"/><path class="a" d="M417.578,252.977c-4.566,5.883-4.248,4.574-7.505,3.266s-8.484,2.928-7.5,4.566,8.161-.329,9.778,2.6c1.635,2.931,1.635,3.266,4.895,2.611s6.53-5.212,5.548-7.5S417.578,252.977,417.578,252.977Z" transform="translate(737.726 50.81)"/><path class="a" d="M416.48,267.358c-2.452,2.452-3.6,2.625,1.958,3.6,5.533.982,7.164.982,4.883,3.584s-3.907,5.874-1.955,6.194,7.826-1.3,8.476,0-1.3,1.632,5.221,2.608,7.829,3.278,9.134,4.571,5.215,5.545,2.608,5.545-5.547,3.257-3.589,3.59,7.829-.976,8.167,0c.318.976,3.581,7.179,6.835,6.85s5.212-6.2,6.835-7.826c1.649-1.638,8.164-2.614,8.814.32a11.606,11.606,0,0,0,6.535,7.835c3.907,1.958,8.479,3.91,8.808,2.278s-1.967-7.826-4.577-8.808-7.164-6.518-7.164-8.808c0-2.27-3.913-2.934-5.865-4.56-1.973-1.632-3.6-6.2-8.5-7.176s-6.191-2.614-11.407-5.215c-5.23-2.619-16.96-2.619-17.292-.982-.314,1.626,0,0-3.91-1.3s-6.847,0-7.826-2.293C421.7,265.085,419.414,264.43,416.48,267.358Z" transform="translate(761.006 74.909)"/></svg>