<svg xmlns="http://www.w3.org/2000/svg" xmlns:xlink="http://www.w3.org/1999/xlink" viewBox="0 0 306 73.61"><defs><style>.cls-1{fill:none;}.cls-2{fill:#fff;}.cls-3{clip-path:url(#clip-path);}.cls-4{fill:#ca3089;}.cls-5{clip-path:url(#clip-path-2);}.cls-6{fill:#6f539e;}.cls-7{fill:#70539d;}.cls-8{fill:#71539d;}.cls-9{fill:#72539d;}.cls-10{fill:#73529c;}.cls-11{fill:#74529b;}.cls-12{fill:#75529b;}.cls-13{fill:#76529a;}.cls-14{fill:#775299;}.cls-15{fill:#785299;}.cls-16{fill:#785298;}.cls-17{fill:#795298;}.cls-18{fill:#7a5297;}.cls-19{fill:#7b5297;}.cls-20{fill:#7c5296;}.cls-21{fill:#7d5196;}.cls-22{fill:#7e5195;}.cls-23{fill:#7f5194;}.cls-24{fill:#805194;}.cls-25{fill:#805193;}.cls-26{fill:#815193;}.cls-27{fill:#825192;}.cls-28{fill:#835192;}.cls-29{fill:#835191;}.cls-30{fill:#845191;}.cls-31{fill:#855090;}.cls-32{fill:#86508f;}.cls-33{fill:#87508f;}.cls-34{fill:#87508e;}.cls-35{fill:#88508e;}.cls-36{fill:#89508d;}.cls-37{fill:#8a508c;}.cls-38{fill:#8b508c;}.cls-39{fill:#8c4f8b;}.cls-40{fill:#8d4f8a;}.cls-41{fill:#8e4f8a;}.cls-42{fill:#8e4f89;}.cls-43{fill:#8f4f89;}.cls-44{fill:#904f89;}.cls-45{fill:#904f88;}.cls-46{fill:#914f88;}.cls-47{fill:#914e87;}.cls-48{fill:#924e87;}.cls-49{fill:#934e86;}.cls-50{fill:#944e85;}.cls-51{fill:#954e84;}.cls-52{fill:#964e84;}.cls-53{fill:#964d83;}.cls-54{fill:#974d83;}.cls-55{fill:#984d82;}.cls-56{fill:#984d81;}.cls-57{fill:#994d81;}.cls-58{fill:#994d80;}.cls-59{fill:#9a4d80;}.cls-60{fill:#9b4d7f;}.cls-61{fill:#9b4c7f;}.cls-62{fill:#9c4c7e;}.cls-63{fill:#9d4c7d;}.cls-64{fill:#9e4c7d;}.cls-65{fill:#9e4c7c;}.cls-66{fill:#9f4c7c;}.cls-67{fill:#9f4b7b;}.cls-68{fill:#a04b7b;}.cls-69{fill:#a04b7a;}.cls-70{fill:#a14b7a;}.cls-71{fill:#a24b79;}.cls-72{fill:#a34b78;}.cls-73{fill:#a34a78;}.cls-74{fill:#a44a77;}.cls-75{fill:#a54a76;}.cls-76{fill:#a64a76;}.cls-77{fill:#a64a75;}.cls-78{fill:#a74975;}.cls-79{fill:#a74974;}.cls-80{fill:#a84973;}.cls-81{fill:#a94972;}.cls-82{fill:#aa4871;}.cls-83{fill:#ab4871;}.cls-84{fill:#ab4870;}.cls-85{fill:#ac4870;}.cls-86{fill:#ac486f;}.cls-87{fill:#ad486f;}.cls-88{fill:#ad476e;}.cls-89{fill:#ae476e;}.cls-90{fill:#af476d;}.cls-91{fill:#b0476c;}.cls-92{fill:#b0466c;}.cls-93{fill:#b1466b;}.cls-94{fill:#b1466a;}.cls-95{fill:#b2466a;}.cls-96{fill:#b24669;}.cls-97{fill:#b34669;}.cls-98{fill:#b44568;}.cls-99{fill:#b54567;}.cls-100{fill:#b64566;}.cls-101{fill:#b64466;}.cls-102{fill:#b74465;}.cls-103{fill:#b74464;}.cls-104{fill:#b84464;}.cls-105{fill:#b84463;}.cls-106{fill:#b94463;}.cls-107{fill:#b94362;}.cls-108{fill:#ba4362;}.cls-109{fill:#bb4361;}.cls-110{fill:#bc4260;}.cls-111{fill:#bd425f;}.cls-112{fill:#be425e;}.cls-113{fill:#be415e;}.cls-114{fill:#bf415d;}.cls-115{fill:#bf415c;}.cls-116{fill:#c0415c;}.cls-117{fill:#c0415b;}.cls-118{fill:#c1405b;}.cls-119{fill:#c1405a;}.cls-120{fill:#c2405a;}.cls-121{fill:#c24059;}.cls-122{fill:#c34059;}.cls-123{fill:#c33f58;}.cls-124{fill:#c43f58;}.cls-125{fill:#c43f57;}.cls-126{fill:#c53f56;}.cls-127{fill:#c53e56;}.cls-128{fill:#c53e55;}.cls-129{fill:#c63e55;}.cls-130{fill:#c63e54;}.cls-131{fill:#c73e54;}.cls-132{fill:#c73d53;}.cls-133{fill:#c83d53;}.cls-134{fill:#c83d52;}.cls-135{fill:#c93d51;}.cls-136{fill:#c93c51;}.cls-137{fill:#ca3c50;}.cls-138{fill:#cb3c4f;}.cls-139{fill:#cb3b4f;}.cls-140{fill:#cc3b4e;}.cls-141{fill:#cc3b4d;}.cls-142{fill:#cd3b4d;}.cls-143{fill:#cd3a4c;}.cls-144{fill:#ce3a4c;}.cls-145{fill:#ce3a4b;}.cls-146{fill:#cf3a4b;}.cls-147{fill:#cf394a;}.cls-148{fill:#d03949;}.cls-149{fill:#d13948;}.cls-150{fill:#d13848;}.cls-151{fill:#d23847;}.cls-152{fill:#d23846;}.cls-153{fill:#d33745;}.cls-154{fill:#d43744;}.cls-155{fill:#d43644;}.cls-156{fill:#d53643;}.cls-157{fill:#d53642;}.cls-158{fill:#d63642;}.cls-159{fill:#d63541;}.cls-160{fill:#d73541;}.cls-161{fill:#d73540;}.cls-162{fill:#d7343f;}.cls-163{fill:#d8343f;}.cls-164{fill:#d8343e;}.cls-165{fill:#d9343e;}.cls-166{fill:#d9333d;}.cls-167{fill:#da333c;}.cls-168{fill:#db323b;}.cls-169{fill:#dc323a;}.cls-170{fill:#dc3139;}.cls-171{fill:#dd3139;}.cls-172{fill:#dd3138;}.cls-173{fill:#dd3038;}.cls-174{fill:#de3037;}.cls-175{fill:#de3036;}.cls-176{fill:#df2f36;}.cls-177{fill:#df2f35;}.cls-178{fill:#e02f34;}.cls-179{fill:#e02e34;}.cls-180{fill:#e12e33;}.cls-181{fill:#e12e32;}.cls-182{fill:#e12d32;}.cls-183{fill:#e22d31;}.cls-184{fill:#e22d30;}.cls-185{fill:#e32c30;}.cls-186{fill:#e32c2f;}.cls-187{fill:#e42b2f;}.cls-188{fill:#e42b2e;}.cls-189{fill:#e42b2d;}.cls-190{fill:#e52a2d;}.cls-191{fill:#e52a2c;}.cls-192{fill:#e6292b;}.cls-193{fill:#e62a2c;}.cls-194{fill:#e62a2d;}.cls-195{fill:#e62a2e;}.cls-196{fill:#e52a2f;}.cls-197{fill:#e52b2f;}.cls-198{fill:#e52b30;}.cls-199{fill:#e52b31;}.cls-200{fill:#e52b32;}.cls-201{fill:#e52b33;}.cls-202{fill:#e52c33;}.cls-203{fill:#e52c34;}.cls-204{fill:#e52c35;}.cls-205{fill:#e52c36;}.cls-206{fill:#e52d37;}.cls-207{fill:#e52d38;}.cls-208{fill:#e52d39;}.cls-209{fill:#e52d3a;}.cls-210{fill:#e52e3b;}.cls-211{fill:#e52e3c;}.cls-212{fill:#e52e3d;}.cls-213{fill:#e42e3e;}.cls-214{fill:#e42f3e;}.cls-215{fill:#e42f3f;}.cls-216{fill:#e42f40;}.cls-217{fill:#e42f41;}.cls-218{fill:#e43042;}.cls-219{fill:#e43043;}.cls-220{fill:#e43044;}.cls-221{fill:#e43045;}.cls-222{fill:#e43145;}.cls-223{fill:#e43146;}.cls-224{fill:#e43147;}.cls-225{fill:#e43148;}.cls-226{fill:#e43149;}.cls-227{fill:#e33249;}.cls-228{fill:#e3324a;}.cls-229{fill:#e3324b;}.cls-230{fill:#e3324c;}.cls-231{fill:#e3334d;}.cls-232{fill:#e3334e;}.cls-233{fill:#e3334f;}.cls-234{fill:#e33350;}.cls-235{fill:#e33450;}.cls-236{fill:#e33451;}.cls-237{fill:#e33452;}.cls-238{fill:#e23453;}.cls-239{fill:#e23554;}.cls-240{fill:#e23555;}.cls-241{fill:#e23556;}.cls-242{fill:#e23557;}.cls-243{fill:#e23658;}.cls-244{fill:#e23659;}.cls-245{fill:#e2365a;}.cls-246{fill:#e2365b;}.cls-247{fill:#e2375b;}.cls-248{fill:#e2375c;}.cls-249{fill:#e1375c;}.cls-250{fill:#e1375d;}.cls-251{fill:#e1375e;}.cls-252{fill:#e1375f;}.cls-253{fill:#e1385f;}.cls-254{fill:#e13860;}.cls-255{fill:#e13861;}.cls-256{fill:#e13862;}.cls-257{fill:#e13963;}.cls-258{fill:#e13964;}.cls-259{fill:#e03964;}.cls-260{fill:#e03965;}.cls-261{fill:#e03966;}.cls-262{fill:#e03a67;}.cls-263{fill:#e03a68;}.cls-264{fill:#e03a69;}.cls-265{fill:#e03a6a;}.cls-266{fill:#e03b6b;}.cls-267{fill:#e03b6c;}.cls-268{fill:#df3b6c;}.cls-269{fill:#df3b6d;}.cls-270{fill:#df3b6e;}.cls-271{fill:#df3c6f;}.cls-272{fill:#df3c70;}.cls-273{fill:#df3c71;}.cls-274{fill:#df3c72;}.cls-275{fill:#df3d73;}.cls-276{fill:#de3d74;}.cls-277{fill:#de3d75;}.cls-278{fill:#de3d76;}.cls-279{fill:#de3e77;}.cls-280{fill:#de3e78;}.cls-281{fill:#de3e79;}.cls-282{fill:#de3e7a;}.cls-283{fill:#de3f7a;}.cls-284{fill:#de3f7b;}.cls-285{fill:#de3f7c;}.cls-286{fill:#dd3f7c;}.cls-287{fill:#dd3f7d;}.cls-288{fill:#dd3f7e;}.cls-289{fill:#dd407e;}.cls-290{fill:#dd407f;}.cls-291{fill:#dd4080;}.cls-292{fill:#dd4081;}.cls-293{fill:#dd4181;}.cls-294{fill:#dd4182;}.cls-295{fill:#dd4183;}.cls-296{fill:#dc4184;}.cls-297{fill:#dc4284;}.cls-298{fill:#dc4285;}.cls-299{fill:#dc4286;}.cls-300{fill:#dc4287;}.cls-301{fill:#dc4288;}.cls-302{fill:#dc4388;}.cls-303{fill:#dc4389;}.cls-304{fill:#dc438a;}.cls-305{fill:#db438b;}.cls-306{fill:#db448c;}.cls-307{fill:#db448d;}.cls-308{fill:#db448e;}.cls-309{fill:#db448f;}.cls-310{fill:#db458f;}.cls-311{fill:#db4590;}.cls-312{fill:#db4591;}.cls-313{fill:#da4591;}.cls-314{fill:#da4592;}</style><clipPath id="clip-path" transform="translate(0 0)"><rect class="cls-1" x="234.75" width="71.25" height="13.41"/></clipPath><clipPath id="clip-path-2" transform="translate(0 0)"><rect class="cls-1" x="234.75" width="71.25" height="13.41"/></clipPath></defs><g id="Layer_2" data-name="Layer 2"><g id="Layer_1-2" data-name="Layer 1"><path class="cls-2" d="M24.06,25.21Q33.6,25.3,38.93,29T44.26,43V73.6H31.5V44.49q0-5-1.66-6.79C28.74,36.53,26.47,36,23.05,36l-10.28-.1V73.6H0V25.21Z" transform="translate(0 0)"/><path class="cls-2" d="M74,73.6q-9.29,0-14.69-3.67T53.9,56V25.22H66.66V54.87c0,3.24.61,5.42,1.84,6.52s3.4,1.66,6.52,1.66L85.3,63V25.22H98.06V73.6Z" transform="translate(0 0)"/><path class="cls-2" d="M135.44,63.23H149V73.6H131.68a44.45,44.45,0,0,1-9.69-1,17.9,17.9,0,0,1-8.49-4.64,21.57,21.57,0,0,1-4.87-7.11,29.19,29.19,0,0,1-2.2-8.4c0-.43,0-.87-.05-1.34s0-.9,0-1.33,0-1.1,0-1.65.08-1.1.14-1.65a26.27,26.27,0,0,1,2.12-8.26,21.57,21.57,0,0,1,4.86-7.08A18.23,18.23,0,0,1,122,26.41a43.31,43.31,0,0,1,9.69-1.1L149,25.22V35.69H135.44a1.71,1.71,0,0,1-.6.09h-2.61a22.54,22.54,0,0,0-3.58.28,9,9,0,0,0-3.3,1.2,9.91,9.91,0,0,0-4.55,5.41,21.82,21.82,0,0,0-1.15,7.07,21.26,21.26,0,0,0,1.29,6.84,9.9,9.9,0,0,0,4.41,5.19,9.21,9.21,0,0,0,3.3,1.19,32.89,32.89,0,0,0,3.58.37h3.21Z" transform="translate(0 0)"/><rect class="cls-2" x="158.99" y="0.06" width="13.31" height="73.55"/><g id="Path_12" data-name="Path 12"><path class="cls-2" d="M196.54,72.37a17.4,17.4,0,0,1-8.5-5.2,19.59,19.59,0,0,1-4.27-7.34,34.76,34.76,0,0,1-1.6-8.45V48.31a8.52,8.52,0,0,1,.09-1.24,32.19,32.19,0,0,1,1.6-8.13A19.79,19.79,0,0,1,188,31.82a17.09,17.09,0,0,1,8.5-5.27,39.79,39.79,0,0,1,10-1.25l18.65-.09v10.1h-16.9a21.33,21.33,0,0,0-8.54,1.6c-2.15,1-3.28,3.54-3.4,7.58l28.83-.09V54.5H196.3q.19,6.33,3.22,7.71a21.35,21.35,0,0,0,8.63,1.38l17-.09V73.6H206.49a39.78,39.78,0,0,1-10-1.24" transform="translate(0 0)"/></g><path class="cls-2" d="M283.35,36.23a14.09,14.09,0,0,0-3.72-6.06,14.31,14.31,0,0,0-7-4,41.12,41.12,0,0,0-8.12-1H238.31v10l21.3.09a21.47,21.47,0,0,1,8.5,1.47c2.23,1,3.26,3.46,3.07,7.44l-16.8.09a30.88,30.88,0,0,0-13.13,2.57q-5.5,2.58-6.15,11.3-.36,7.26,3.58,11.34t11.39,4.09H284.4V43.4A24.55,24.55,0,0,0,283.35,36.23ZM271.27,63.87h-16V64a19.92,19.92,0,0,1-4.92-.74c-1.44-.43-2.09-1.84-2-4.22.07-2.14.83-3.51,2.3-4.09a14.17,14.17,0,0,1,4.77-1h.37a.92.92,0,0,0,.37-.09h15Z" transform="translate(0 0)"/><rect class="cls-2" x="292.59" y="25.21" width="13.41" height="48.39"/><g id="Rectangle_518" data-name="Rectangle 518"><g class="cls-3"><rect class="cls-4" x="234.75" width="71.25" height="13.41"/></g></g><g class="cls-5"><path class="cls-6" d="M234.75,0V0Z" transform="translate(0 0)"/><rect class="cls-6" x="234.75" width="0.18" height="13.41"/><rect class="cls-7" x="234.93" width="0.18" height="13.41"/><rect class="cls-8" x="235.11" width="0.18" height="13.41"/><rect class="cls-9" x="235.28" width="0.18" height="13.41"/><rect class="cls-10" x="235.46" width="0.18" height="13.41"/><rect class="cls-10" x="235.63" width="0.18" height="13.41"/><rect class="cls-11" x="235.81" width="0.18" height="13.41"/><rect class="cls-12" x="235.99" width="0.18" height="13.41"/><rect class="cls-13" x="236.16" width="0.18" height="13.41"/><rect class="cls-13" x="236.34" width="0.18" height="13.41"/><rect class="cls-14" x="236.51" width="0.18" height="13.41"/><rect class="cls-15" x="236.69" width="0.18" height="13.41"/><rect class="cls-16" x="236.87" width="0.18" height="13.41"/><rect class="cls-17" x="237.04" width="0.18" height="13.41"/><rect class="cls-18" x="237.22" width="0.18" height="13.41"/><rect class="cls-19" x="237.39" width="0.18" height="13.41"/><rect class="cls-19" x="237.57" width="0.18" height="13.41"/><rect class="cls-20" x="237.75" width="0.18" height="13.41"/><rect class="cls-21" x="237.92" width="0.18" height="13.41"/><rect class="cls-22" x="238.1" width="0.18" height="13.41"/><rect class="cls-22" x="238.27" width="0.18" height="13.41"/><rect class="cls-23" x="238.45" width="0.18" height="13.41"/><rect class="cls-24" x="238.62" width="0.18" height="13.41"/><rect class="cls-25" x="238.8" width="0.18" height="13.41"/><rect class="cls-26" x="238.98" width="0.18" height="13.41"/><rect class="cls-27" x="239.15" width="0.18" height="13.41"/><rect class="cls-28" x="239.33" width="0.18" height="13.41"/><rect class="cls-29" x="239.5" width="0.18" height="13.41"/><rect class="cls-30" x="239.68" width="0.18" height="13.41"/><rect class="cls-31" x="239.86" width="0.18" height="13.41"/><rect class="cls-31" x="240.03" width="0.18" height="13.41"/><rect class="cls-32" x="240.21" width="0.18" height="13.41"/><rect class="cls-33" x="240.38" width="0.18" height="13.41"/><rect class="cls-34" x="240.56" width="0.18" height="13.41"/><rect class="cls-35" x="240.74" width="0.18" height="13.41"/><rect class="cls-36" x="240.91" width="0.18" height="13.41"/><rect class="cls-36" x="241.09" width="0.18" height="13.41"/><rect class="cls-37" x="241.26" width="0.18" height="13.41"/><rect class="cls-38" x="241.44" width="0.18" height="13.41"/><rect class="cls-39" x="241.62" width="0.18" height="13.41"/><rect class="cls-39" x="241.79" width="0.18" height="13.41"/><rect class="cls-40" x="241.97" width="0.18" height="13.41"/><rect class="cls-41" x="242.14" width="0.18" height="13.41"/><rect class="cls-42" x="242.32" width="0.18" height="13.41"/><rect class="cls-43" x="242.5" width="0.18" height="13.41"/><rect class="cls-44" x="242.67" width="0.18" height="13.41"/><rect class="cls-45" x="242.85" width="0.18" height="13.41"/><rect class="cls-46" x="243.02" width="0.18" height="13.41"/><rect class="cls-47" x="243.2" width="0.18" height="13.41"/><rect class="cls-48" x="243.38" width="0.18" height="13.41"/><rect class="cls-49" x="243.55" width="0.18" height="13.41"/><rect class="cls-49" x="243.73" width="0.18" height="13.41"/><rect class="cls-50" x="243.9" width="0.18" height="13.41"/><rect class="cls-50" x="244.08" width="0.18" height="13.41"/><rect class="cls-51" x="244.26" width="0.18" height="13.41"/><rect class="cls-52" x="244.43" width="0.18" height="13.41"/><rect class="cls-53" x="244.61" width="0.18" height="13.41"/><rect class="cls-54" x="244.78" width="0.18" height="13.41"/><rect class="cls-55" x="244.96" width="0.18" height="13.41"/><rect class="cls-56" x="245.13" width="0.18" height="13.41"/><rect class="cls-57" x="245.31" width="0.18" height="13.41"/><rect class="cls-58" x="245.49" width="0.18" height="13.41"/><rect class="cls-59" x="245.66" width="0.18" height="13.41"/><rect class="cls-60" x="245.84" width="0.18" height="13.41"/><rect class="cls-61" x="246.01" width="0.18" height="13.41"/><rect class="cls-62" x="246.19" width="0.18" height="13.41"/><rect class="cls-62" x="246.37" width="0.18" height="13.41"/><rect class="cls-63" x="246.54" width="0.18" height="13.41"/><rect class="cls-64" x="246.72" width="0.18" height="13.41"/><rect class="cls-65" x="246.89" width="0.18" height="13.41"/><rect class="cls-66" x="247.07" width="0.18" height="13.41"/><rect class="cls-67" x="247.25" width="0.18" height="13.41"/><rect class="cls-68" x="247.42" width="0.18" height="13.41"/><rect class="cls-69" x="247.6" width="0.18" height="13.41"/><rect class="cls-70" x="247.77" width="0.18" height="13.41"/><rect class="cls-71" x="247.95" width="0.18" height="13.41"/><rect class="cls-71" x="248.13" width="0.18" height="13.41"/><rect class="cls-72" x="248.3" width="0.18" height="13.41"/><rect class="cls-73" x="248.48" width="0.18" height="13.41"/><rect class="cls-74" x="248.65" width="0.18" height="13.41"/><rect class="cls-74" x="248.83" width="0.18" height="13.41"/><rect class="cls-75" x="249.01" width="0.18" height="13.41"/><rect class="cls-76" x="249.18" width="0.18" height="13.41"/><rect class="cls-77" x="249.36" width="0.18" height="13.41"/><rect class="cls-78" x="249.53" width="0.18" height="13.41"/><rect class="cls-79" x="249.71" width="0.18" height="13.41"/><rect class="cls-80" x="249.89" width="0.18" height="13.41"/><rect class="cls-80" x="250.06" width="0.18" height="13.41"/><rect class="cls-81" x="250.24" width="0.18" height="13.41"/><rect class="cls-81" x="250.41" width="0.18" height="13.41"/><rect class="cls-82" x="250.59" width="0.18" height="13.41"/><rect class="cls-83" x="250.77" width="0.18" height="13.41"/><rect class="cls-84" x="250.94" width="0.18" height="13.41"/><rect class="cls-85" x="251.12" width="0.18" height="13.41"/><rect class="cls-86" x="251.29" width="0.18" height="13.41"/><rect class="cls-87" x="251.47" width="0.18" height="13.41"/><rect class="cls-88" x="251.64" width="0.18" height="13.41"/><rect class="cls-89" x="251.82" width="0.18" height="13.41"/><rect class="cls-90" x="252" width="0.18" height="13.41"/><rect class="cls-90" x="252.17" width="0.18" height="13.41"/><rect class="cls-91" x="252.35" width="0.18" height="13.41"/><rect class="cls-92" x="252.52" width="0.18" height="13.41"/><rect class="cls-93" x="252.7" width="0.18" height="13.41"/><rect class="cls-94" x="252.88" width="0.18" height="13.41"/><rect class="cls-95" x="253.05" width="0.18" height="13.41"/><rect class="cls-96" x="253.23" width="0.18" height="13.41"/><rect class="cls-97" x="253.4" width="0.18" height="13.41"/><rect class="cls-98" x="253.58" width="0.18" height="13.41"/><rect class="cls-98" x="253.76" width="0.18" height="13.41"/><rect class="cls-99" x="253.93" width="0.18" height="13.41"/><rect class="cls-99" x="254.11" width="0.18" height="13.41"/><rect class="cls-100" x="254.28" width="0.18" height="13.41"/><rect class="cls-101" x="254.46" width="0.18" height="13.41"/><rect class="cls-102" x="254.64" width="0.18" height="13.41"/><rect class="cls-103" x="254.81" width="0.18" height="13.41"/><rect class="cls-104" x="254.99" width="0.18" height="13.41"/><rect class="cls-105" x="255.16" width="0.18" height="13.41"/><rect class="cls-106" x="255.34" width="0.18" height="13.41"/><rect class="cls-107" x="255.52" width="0.18" height="13.41"/><rect class="cls-108" x="255.69" width="0.18" height="13.41"/><rect class="cls-109" x="255.87" width="0.18" height="13.41"/><rect class="cls-109" x="256.04" width="0.18" height="13.41"/><rect class="cls-110" x="256.22" width="0.18" height="13.41"/><rect class="cls-110" x="256.4" width="0.18" height="13.41"/><rect class="cls-111" x="256.57" width="0.18" height="13.41"/><rect class="cls-111" x="256.75" width="0.18" height="13.41"/><rect class="cls-112" x="256.92" width="0.18" height="13.41"/><rect class="cls-113" x="257.1" width="0.18" height="13.41"/><rect class="cls-114" x="257.28" width="0.18" height="13.41"/><rect class="cls-115" x="257.45" width="0.18" height="13.41"/><rect class="cls-116" x="257.63" width="0.18" height="13.41"/><rect class="cls-117" x="257.8" width="0.18" height="13.41"/><rect class="cls-118" x="257.98" width="0.18" height="13.41"/><rect class="cls-119" x="258.15" width="0.18" height="13.41"/><rect class="cls-120" x="258.33" width="0.18" height="13.41"/><rect class="cls-121" x="258.51" width="0.18" height="13.41"/><rect class="cls-122" x="258.68" width="0.18" height="13.41"/><rect class="cls-123" x="258.86" width="0.18" height="13.41"/><rect class="cls-124" x="259.03" width="0.18" height="13.41"/><rect class="cls-125" x="259.21" width="0.18" height="13.41"/><rect class="cls-126" x="259.39" width="0.18" height="13.41"/><rect class="cls-127" x="259.56" width="0.18" height="13.41"/><rect class="cls-128" x="259.74" width="0.18" height="13.41"/><rect class="cls-129" x="259.91" width="0.18" height="13.41"/><rect class="cls-130" x="260.09" width="0.18" height="13.41"/><rect class="cls-131" x="260.27" width="0.18" height="13.41"/><rect class="cls-132" x="260.44" width="0.18" height="13.41"/><rect class="cls-133" x="260.62" width="0.18" height="13.41"/><rect class="cls-134" x="260.79" width="0.18" height="13.41"/><rect class="cls-135" x="260.97" width="0.18" height="13.41"/><rect class="cls-136" x="261.15" width="0.18" height="13.41"/><rect class="cls-137" x="261.32" width="0.18" height="13.41"/><rect class="cls-137" x="261.5" width="0.18" height="13.41"/><rect class="cls-138" x="261.67" width="0.18" height="13.41"/><rect class="cls-139" x="261.85" width="0.18" height="13.41"/><rect class="cls-140" x="262.03" width="0.18" height="13.41"/><rect class="cls-141" x="262.2" width="0.18" height="13.41"/><rect class="cls-142" x="262.38" width="0.18" height="13.41"/><rect class="cls-143" x="262.55" width="0.18" height="13.41"/><rect class="cls-144" x="262.73" width="0.18" height="13.41"/><rect class="cls-145" x="262.91" width="0.18" height="13.41"/><rect class="cls-146" x="263.08" width="0.18" height="13.41"/><rect class="cls-147" x="263.26" width="0.18" height="13.41"/><rect class="cls-148" x="263.43" width="0.18" height="13.41"/><rect class="cls-148" x="263.61" width="0.18" height="13.41"/><rect class="cls-149" x="263.79" width="0.18" height="13.41"/><rect class="cls-150" x="263.96" width="0.18" height="13.41"/><rect class="cls-151" x="264.14" width="0.18" height="13.41"/><rect class="cls-152" x="264.31" width="0.18" height="13.41"/><rect class="cls-152" x="264.49" width="0.18" height="13.41"/><rect class="cls-153" x="264.66" width="0.18" height="13.41"/><rect class="cls-153" x="264.84" width="0.18" height="13.41"/><rect class="cls-154" x="265.02" width="0.18" height="13.41"/><rect class="cls-155" x="265.19" width="0.18" height="13.41"/><rect class="cls-156" x="265.37" width="0.18" height="13.41"/><rect class="cls-157" x="265.54" width="0.18" height="13.41"/><rect class="cls-158" x="265.72" width="0.18" height="13.41"/><rect class="cls-159" x="265.9" width="0.18" height="13.41"/><rect class="cls-160" x="266.07" width="0.18" height="13.41"/><rect class="cls-161" x="266.25" width="0.18" height="13.41"/><rect class="cls-162" x="266.42" width="0.18" height="13.41"/><rect class="cls-163" x="266.6" width="0.18" height="13.41"/><rect class="cls-164" x="266.78" width="0.18" height="13.41"/><rect class="cls-165" x="266.95" width="0.18" height="13.41"/><rect class="cls-166" x="267.13" width="0.18" height="13.41"/><rect class="cls-167" x="267.3" width="0.18" height="13.41"/><rect class="cls-167" x="267.48" width="0.18" height="13.41"/><rect class="cls-168" x="267.66" width="0.18" height="13.41"/><rect class="cls-168" x="267.83" width="0.18" height="13.41"/><rect class="cls-169" x="268.01" width="0.18" height="13.41"/><rect class="cls-170" x="268.18" width="0.18" height="13.41"/><rect class="cls-171" x="268.36" width="0.18" height="13.41"/><rect class="cls-172" x="268.54" width="0.18" height="13.41"/><rect class="cls-173" x="268.71" width="0.18" height="13.41"/><rect class="cls-174" x="268.89" width="0.18" height="13.41"/><rect class="cls-175" x="269.06" width="0.18" height="13.41"/><rect class="cls-176" x="269.24" width="0.18" height="13.41"/><rect class="cls-177" x="269.42" width="0.18" height="13.41"/><rect class="cls-178" x="269.59" width="0.18" height="13.41"/><rect class="cls-179" x="269.77" width="0.18" height="13.41"/><rect class="cls-180" x="269.94" width="0.18" height="13.41"/><rect class="cls-181" x="270.12" width="0.18" height="13.41"/><rect class="cls-182" x="270.3" width="0.18" height="13.41"/><rect class="cls-183" x="270.47" width="0.18" height="13.41"/><rect class="cls-184" x="270.65" width="0.18" height="13.41"/><rect class="cls-185" x="270.82" width="0.18" height="13.41"/><rect class="cls-186" x="271" width="0.18" height="13.41"/><rect class="cls-187" x="271.17" width="0.18" height="13.41"/><rect class="cls-188" x="271.35" width="0.18" height="13.41"/><rect class="cls-189" x="271.53" width="0.18" height="13.41"/><rect class="cls-190" x="271.7" width="0.18" height="13.41"/><rect class="cls-191" x="271.88" width="0.18" height="13.41"/><rect class="cls-192" x="272.05" width="0.18" height="13.41"/><rect class="cls-192" x="272.23" width="0.16" height="13.41"/><rect class="cls-193" x="272.39" width="0.16" height="13.41"/><rect class="cls-193" x="272.55" width="0.16" height="13.41"/><rect class="cls-194" x="272.71" width="0.16" height="13.41"/><rect class="cls-195" x="272.86" width="0.16" height="13.41"/><rect class="cls-195" x="273.02" width="0.16" height="13.41"/><rect class="cls-196" x="273.18" width="0.16" height="13.41"/><rect class="cls-197" x="273.34" width="0.16" height="13.41"/><rect class="cls-198" x="273.5" width="0.16" height="13.41"/><rect class="cls-198" x="273.66" width="0.16" height="13.41"/><rect class="cls-199" x="273.82" width="0.16" height="13.41"/><rect class="cls-200" x="273.97" width="0.16" height="13.41"/><rect class="cls-200" x="274.13" width="0.16" height="13.41"/><rect class="cls-201" x="274.29" width="0.16" height="13.41"/><rect class="cls-202" x="274.45" width="0.16" height="13.41"/><rect class="cls-203" x="274.61" width="0.16" height="13.41"/><rect class="cls-203" x="274.77" width="0.16" height="13.41"/><rect class="cls-204" x="274.93" width="0.16" height="13.41"/><rect class="cls-205" x="275.08" width="0.16" height="13.41"/><rect class="cls-205" x="275.24" width="0.16" height="13.41"/><rect class="cls-206" x="275.4" width="0.16" height="13.41"/><rect class="cls-206" x="275.56" width="0.16" height="13.41"/><rect class="cls-207" x="275.72" width="0.16" height="13.41"/><rect class="cls-207" x="275.88" width="0.16" height="13.41"/><rect class="cls-208" x="276.04" width="0.16" height="13.41"/><rect class="cls-209" x="276.19" width="0.16" height="13.41"/><rect class="cls-209" x="276.35" width="0.16" height="13.41"/><rect class="cls-210" x="276.51" width="0.16" height="13.41"/><rect class="cls-210" x="276.67" width="0.16" height="13.41"/><rect class="cls-211" x="276.83" width="0.16" height="13.41"/><rect class="cls-211" x="276.99" width="0.16" height="13.41"/><rect class="cls-212" x="277.15" width="0.16" height="13.41"/><rect class="cls-212" x="277.3" width="0.16" height="13.41"/><rect class="cls-213" x="277.46" width="0.16" height="13.41"/><rect class="cls-214" x="277.62" width="0.16" height="13.41"/><rect class="cls-215" x="277.78" width="0.16" height="13.41"/><rect class="cls-216" x="277.94" width="0.16" height="13.41"/><rect class="cls-216" x="278.1" width="0.16" height="13.41"/><rect class="cls-217" x="278.26" width="0.16" height="13.41"/><rect class="cls-217" x="278.41" width="0.16" height="13.41"/><rect class="cls-218" x="278.57" width="0.16" height="13.41"/><rect class="cls-218" x="278.73" width="0.16" height="13.41"/><rect class="cls-219" x="278.89" width="0.16" height="13.41"/><rect class="cls-219" x="279.05" width="0.16" height="13.41"/><rect class="cls-220" x="279.21" width="0.16" height="13.41"/><rect class="cls-220" x="279.37" width="0.16" height="13.41"/><rect class="cls-221" x="279.52" width="0.16" height="13.41"/><rect class="cls-222" x="279.68" width="0.16" height="13.41"/><rect class="cls-223" x="279.84" width="0.16" height="13.41"/><rect class="cls-223" x="280" width="0.16" height="13.41"/><rect class="cls-224" x="280.16" width="0.16" height="13.41"/><rect class="cls-225" x="280.32" width="0.16" height="13.41"/><rect class="cls-225" x="280.48" width="0.16" height="13.41"/><rect class="cls-226" x="280.63" width="0.16" height="13.41"/><rect class="cls-227" x="280.79" width="0.16" height="13.41"/><rect class="cls-228" x="280.95" width="0.16" height="13.41"/><rect class="cls-228" x="281.11" width="0.16" height="13.41"/><rect class="cls-229" x="281.27" width="0.16" height="13.41"/><rect class="cls-229" x="281.43" width="0.16" height="13.41"/><rect class="cls-230" x="281.59" width="0.16" height="13.41"/><rect class="cls-230" x="281.74" width="0.16" height="13.41"/><rect class="cls-231" x="281.9" width="0.16" height="13.41"/><rect class="cls-231" x="282.06" width="0.16" height="13.41"/><rect class="cls-232" x="282.22" width="0.16" height="13.41"/><rect class="cls-232" x="282.38" width="0.16" height="13.41"/><rect class="cls-233" x="282.54" width="0.16" height="13.41"/><rect class="cls-233" x="282.69" width="0.16" height="13.41"/><rect class="cls-234" x="282.85" width="0.16" height="13.41"/><rect class="cls-235" x="283.01" width="0.16" height="13.41"/><rect class="cls-236" x="283.17" width="0.16" height="13.41"/><rect class="cls-236" x="283.33" width="0.16" height="13.41"/><rect class="cls-237" x="283.49" width="0.16" height="13.41"/><rect class="cls-237" x="283.65" width="0.16" height="13.41"/><rect class="cls-238" x="283.8" width="0.16" height="13.41"/><rect class="cls-238" x="283.96" width="0.16" height="13.41"/><rect class="cls-239" x="284.12" width="0.16" height="13.41"/><rect class="cls-239" x="284.28" width="0.16" height="13.41"/><rect class="cls-240" x="284.44" width="0.16" height="13.41"/><rect class="cls-240" x="284.6" width="0.16" height="13.41"/><rect class="cls-241" x="284.76" width="0.16" height="13.41"/><rect class="cls-241" x="284.91" width="0.16" height="13.41"/><rect class="cls-242" x="285.07" width="0.16" height="13.41"/><rect class="cls-242" x="285.23" width="0.16" height="13.41"/><rect class="cls-243" x="285.39" width="0.16" height="13.41"/><rect class="cls-243" x="285.55" width="0.16" height="13.41"/><rect class="cls-244" x="285.71" width="0.16" height="13.41"/><rect class="cls-244" x="285.87" width="0.16" height="13.41"/><rect class="cls-245" x="286.02" width="0.16" height="13.41"/><rect class="cls-245" x="286.18" width="0.16" height="13.41"/><rect class="cls-246" x="286.34" width="0.16" height="13.41"/><rect class="cls-247" x="286.5" width="0.16" height="13.41"/><rect class="cls-248" x="286.66" width="0.16" height="13.41"/><rect class="cls-249" x="286.82" width="0.16" height="13.41"/><rect class="cls-250" x="286.98" width="0.16" height="13.41"/><rect class="cls-250" x="287.13" width="0.16" height="13.41"/><rect class="cls-251" x="287.29" width="0.16" height="13.41"/><rect class="cls-251" x="287.45" width="0.16" height="13.41"/><rect class="cls-252" x="287.61" width="0.16" height="13.41"/><rect class="cls-253" x="287.77" width="0.16" height="13.41"/><rect class="cls-253" x="287.93" width="0.16" height="13.41"/><rect class="cls-254" x="288.09" width="0.16" height="13.41"/><rect class="cls-254" x="288.24" width="0.16" height="13.41"/><rect class="cls-255" x="288.4" width="0.16" height="13.41"/><rect class="cls-255" x="288.56" width="0.16" height="13.41"/><rect class="cls-256" x="288.72" width="0.16" height="13.41"/><rect class="cls-256" x="288.88" width="0.16" height="13.41"/><rect class="cls-257" x="289.04" width="0.16" height="13.41"/><rect class="cls-257" x="289.2" width="0.16" height="13.41"/><rect class="cls-258" x="289.35" width="0.16" height="13.41"/><rect class="cls-259" x="289.51" width="0.16" height="13.41"/><rect class="cls-260" x="289.67" width="0.16" height="13.41"/><rect class="cls-260" x="289.83" width="0.16" height="13.41"/><rect class="cls-261" x="289.99" width="0.16" height="13.41"/><rect class="cls-261" x="290.15" width="0.16" height="13.41"/><rect class="cls-262" x="290.31" width="0.16" height="13.41"/><rect class="cls-262" x="290.46" width="0.16" height="13.41"/><rect class="cls-263" x="290.62" width="0.16" height="13.41"/><rect class="cls-263" x="290.78" width="0.16" height="13.41"/><rect class="cls-263" x="290.94" width="0.16" height="13.41"/><rect class="cls-264" x="291.1" width="0.16" height="13.41"/><rect class="cls-264" x="291.26" width="0.16" height="13.41"/><rect class="cls-265" x="291.42" width="0.16" height="13.41"/><rect class="cls-265" x="291.57" width="0.16" height="13.41"/><rect class="cls-266" x="291.73" width="0.16" height="13.41"/><rect class="cls-266" x="291.89" width="0.16" height="13.41"/><rect class="cls-267" x="292.05" width="0.16" height="13.41"/><rect class="cls-268" x="292.21" width="0.16" height="13.41"/><rect class="cls-269" x="292.37" width="0.16" height="13.41"/><rect class="cls-269" x="292.53" width="0.16" height="13.41"/><rect class="cls-270" x="292.68" width="0.16" height="13.41"/><rect class="cls-270" x="292.84" width="0.16" height="13.41"/><rect class="cls-270" x="293" width="0.16" height="13.41"/><rect class="cls-271" x="293.16" width="0.16" height="13.41"/><rect class="cls-271" x="293.32" width="0.16" height="13.41"/><rect class="cls-272" x="293.48" width="0.16" height="13.41"/><rect class="cls-272" x="293.63" width="0.16" height="13.41"/><rect class="cls-273" x="293.79" width="0.16" height="13.41"/><rect class="cls-273" x="293.95" width="0.16" height="13.41"/><rect class="cls-274" x="294.11" width="0.16" height="13.41"/><rect class="cls-274" x="294.27" width="0.16" height="13.41"/><rect class="cls-275" x="294.43" width="0.16" height="13.41"/><rect class="cls-275" x="294.59" width="0.16" height="13.41"/><rect class="cls-275" x="294.74" width="0.16" height="13.41"/><rect class="cls-276" x="294.9" width="0.16" height="13.41"/><rect class="cls-276" x="295.06" width="0.16" height="13.41"/><rect class="cls-277" x="295.22" width="0.16" height="13.41"/><rect class="cls-277" x="295.38" width="0.16" height="13.41"/><rect class="cls-278" x="295.54" width="0.16" height="13.41"/><rect class="cls-278" x="295.7" width="0.16" height="13.41"/><rect class="cls-279" x="295.85" width="0.16" height="13.41"/><rect class="cls-279" x="296.01" width="0.16" height="13.41"/><rect class="cls-280" x="296.17" width="0.16" height="13.41"/><rect class="cls-280" x="296.33" width="0.16" height="13.41"/><rect class="cls-281" x="296.49" width="0.16" height="13.41"/><rect class="cls-281" x="296.65" width="0.16" height="13.41"/><rect class="cls-281" x="296.81" width="0.16" height="13.41"/><rect class="cls-282" x="296.96" width="0.16" height="13.41"/><rect class="cls-283" x="297.12" width="0.16" height="13.41"/><rect class="cls-284" x="297.28" width="0.16" height="13.41"/><rect class="cls-284" x="297.44" width="0.16" height="13.41"/><rect class="cls-285" x="297.6" width="0.16" height="13.41"/><rect class="cls-286" x="297.76" width="0.16" height="13.41"/><rect class="cls-287" x="297.92" width="0.16" height="13.41"/><rect class="cls-287" x="298.07" width="0.16" height="13.41"/><rect class="cls-288" x="298.23" width="0.16" height="13.41"/><rect class="cls-289" x="298.39" width="0.16" height="13.41"/><rect class="cls-289" x="298.55" width="0.16" height="13.41"/><rect class="cls-290" x="298.71" width="0.16" height="13.41"/><rect class="cls-290" x="298.87" width="0.16" height="13.41"/><rect class="cls-291" x="299.03" width="0.16" height="13.41"/><rect class="cls-291" x="299.18" width="0.16" height="13.41"/><rect class="cls-292" x="299.34" width="0.16" height="13.41"/><rect class="cls-292" x="299.5" width="0.16" height="13.41"/><rect class="cls-293" x="299.66" width="0.16" height="13.41"/><rect class="cls-294" x="299.82" width="0.16" height="13.41"/><rect class="cls-294" x="299.98" width="0.16" height="13.41"/><rect class="cls-295" x="300.14" width="0.16" height="13.41"/><rect class="cls-295" x="300.29" width="0.16" height="13.41"/><rect class="cls-296" x="300.45" width="0.16" height="13.41"/><rect class="cls-296" x="300.61" width="0.16" height="13.41"/><rect class="cls-297" x="300.77" width="0.16" height="13.41"/><rect class="cls-298" x="300.93" width="0.16" height="13.41"/><rect class="cls-298" x="301.09" width="0.16" height="13.41"/><rect class="cls-299" x="301.25" width="0.16" height="13.41"/><rect class="cls-299" x="301.4" width="0.16" height="13.41"/><rect class="cls-300" x="301.56" width="0.16" height="13.41"/><rect class="cls-300" x="301.72" width="0.16" height="13.41"/><rect class="cls-300" x="301.88" width="0.16" height="13.41"/><rect class="cls-301" x="302.04" width="0.16" height="13.41"/><rect class="cls-302" x="302.2" width="0.16" height="13.41"/><rect class="cls-303" x="302.36" width="0.16" height="13.41"/><rect class="cls-303" x="302.51" width="0.16" height="13.41"/><rect class="cls-304" x="302.67" width="0.16" height="13.41"/><rect class="cls-304" x="302.83" width="0.16" height="13.41"/><rect class="cls-304" x="302.99" width="0.16" height="13.41"/><rect class="cls-305" x="303.15" width="0.16" height="13.41"/><rect class="cls-305" x="303.31" width="0.16" height="13.41"/><rect class="cls-306" x="303.47" width="0.16" height="13.41"/><rect class="cls-306" x="303.62" width="0.16" height="13.41"/><rect class="cls-307" x="303.78" width="0.16" height="13.41"/><rect class="cls-307" x="303.94" width="0.16" height="13.41"/><rect class="cls-307" x="304.1" width="0.16" height="13.41"/><rect class="cls-308" x="304.26" width="0.16" height="13.41"/><rect class="cls-308" x="304.42" width="0.16" height="13.41"/><rect class="cls-309" x="304.58" width="0.16" height="13.41"/><rect class="cls-310" x="304.73" width="0.16" height="13.41"/><rect class="cls-311" x="304.89" width="0.16" height="13.41"/><rect class="cls-311" x="305.05" width="0.16" height="13.41"/><rect class="cls-311" x="305.21" width="0.16" height="13.41"/><rect class="cls-312" x="305.37" width="0.16" height="13.41"/><rect class="cls-313" x="305.53" width="0.16" height="13.41"/><rect class="cls-314" x="305.68" width="0.16" height="13.41"/><rect class="cls-314" x="305.84" width="0.16" height="13.41"/></g></g></g></svg>