<svg xmlns="http://www.w3.org/2000/svg" width="195.877" height="49.048" viewBox="0 0 195.877 49.048"><defs><style>.a{fill:none;stroke:#000;stroke-linecap:round;stroke-linejoin:round;stroke-width:3px;}</style></defs><g transform="translate(-71.057 -56.09)"><g transform="translate(69 53.777)"><g transform="translate(11.225 19.157)"><path class="a" d="M168.939,361.682a15.351,15.351,0,1,1,13.292-23.024" transform="translate(-153.583 -330.979)"/></g><path d="M7.684,15.356A7.675,7.675,0,1,1,11.738,1.165a3.119,3.119,0,1,0,3.331,4.417,7.671,7.671,0,0,1-7.384,9.774Z" transform="translate(18.896 19.155)"/><g transform="translate(3.557 3.813)"><path class="a" d="M144.953,336.714a23.024,23.024,0,1,1,23.024,23.024,23.024,23.024,0,0,1-23.024-23.024Z" transform="translate(-144.953 -313.691)"/></g><g transform="translate(13.288 3.813)"><path class="a" d="M169.215,313.69a15.349,15.349,0,1,1-13.292,23.023" transform="translate(-155.923 -313.69)"/></g><g transform="translate(13.288 28.592)"><path class="a" d="M191.881,342.6c-3.783,9.217-14.741,13.941-24.477,10.55a17.767,17.767,0,0,1-11.482-12" transform="translate(-155.921 -340.961)"/></g><g transform="translate(4.278 10.558)"><path class="a" d="M145.766,332.3a18.462,18.462,0,0,1,34.971,3.741" transform="translate(-145.766 -321.301)"/></g><g transform="translate(11.225 19.157)"><path class="a" d="M168.939,361.682a15.351,15.351,0,1,1,13.292-23.024" transform="translate(-153.583 -330.979)"/></g></g><path d="M4.05-6.712a5.685,5.685,0,0,0,.835,2.875Q6.287-1.77,9.827-1.77a8.747,8.747,0,0,0,2.889-.453,3.21,3.21,0,0,0,2.521-3.144,2.714,2.714,0,0,0-1.062-2.421A10.723,10.723,0,0,0,10.8-9.02L7.986-9.657a12.76,12.76,0,0,1-3.908-1.374A4.351,4.351,0,0,1,2.1-14.925a6,6,0,0,1,1.94-4.6,7.783,7.783,0,0,1,5.494-1.8,9.543,9.543,0,0,1,5.558,1.579A5.7,5.7,0,0,1,17.375-14.7H14.727a5.212,5.212,0,0,0-.906-2.563Q12.532-18.89,9.445-18.89a5.062,5.062,0,0,0-3.583,1.048,3.279,3.279,0,0,0-1.09,2.436,2.378,2.378,0,0,0,1.274,2.237,18.7,18.7,0,0,0,3.781,1.133l2.917.666A8.937,8.937,0,0,1,16-10.054,4.931,4.931,0,0,1,17.983-5.82,5.285,5.285,0,0,1,15.47-.878,11.256,11.256,0,0,1,9.629.609,8.734,8.734,0,0,1,3.554-1.374,6.689,6.689,0,0,1,1.4-6.712ZM25.2-4.036A2.1,2.1,0,0,0,26-2.294a2.993,2.993,0,0,0,1.912.637A5.812,5.812,0,0,0,30.52-2.28a3.506,3.506,0,0,0,2.124-3.384V-7.717a4.361,4.361,0,0,1-1.2.5A10.256,10.256,0,0,1,30-6.938l-1.543.2a5.9,5.9,0,0,0-2.082.581A2.262,2.262,0,0,0,25.2-4.036ZM31.37-9.19a1.385,1.385,0,0,0,1.175-.736,2.24,2.24,0,0,0,.17-.977,2.07,2.07,0,0,0-.927-1.89,4.976,4.976,0,0,0-2.655-.588A3.374,3.374,0,0,0,26.3-12.305a3.541,3.541,0,0,0-.609,1.77H23.313a4.379,4.379,0,0,1,1.82-3.9,7.471,7.471,0,0,1,4.057-1.1,8.255,8.255,0,0,1,4.347,1.02,3.459,3.459,0,0,1,1.657,3.172v8.737a1.119,1.119,0,0,0,.163.637.785.785,0,0,0,.687.241q.17,0,.382-.021t.453-.064V.071a7.1,7.1,0,0,1-.906.212,6.623,6.623,0,0,1-.85.042,2.1,2.1,0,0,1-1.912-.935,3.607,3.607,0,0,1-.439-1.4,6.485,6.485,0,0,1-2.237,1.77A6.921,6.921,0,0,1,27.32.51,4.78,4.78,0,0,1,23.872-.772a4.257,4.257,0,0,1-1.338-3.207A4.131,4.131,0,0,1,23.851-7.25a6.266,6.266,0,0,1,3.455-1.43ZM41.4-15.166h2.421v2.152a6.792,6.792,0,0,1,2.28-1.912,6.08,6.08,0,0,1,2.676-.581q3.229,0,4.361,2.251a8,8,0,0,1,.623,3.526V0H51.171V-9.558A5.176,5.176,0,0,0,50.76-11.8,2.49,2.49,0,0,0,48.3-13.211a5.017,5.017,0,0,0-1.487.184,3.829,3.829,0,0,0-1.841,1.246,3.751,3.751,0,0,0-.828,1.551,10.437,10.437,0,0,0-.191,2.287V0H41.4ZM65.577-1.643a3.515,3.515,0,0,0,3.476-1.919,9.559,9.559,0,0,0,.942-4.269,7.6,7.6,0,0,0-.68-3.455,3.824,3.824,0,0,0-3.71-2.1,3.658,3.658,0,0,0-3.4,1.784,8.27,8.27,0,0,0-1.062,4.3,7.194,7.194,0,0,0,1.062,4.036A3.74,3.74,0,0,0,65.577-1.643Zm.1-13.962a6.867,6.867,0,0,1,4.956,1.954A7.631,7.631,0,0,1,72.657-7.9a9.864,9.864,0,0,1-1.784,6.061A6.454,6.454,0,0,1,65.336.552a6.25,6.25,0,0,1-4.97-2.117A8.362,8.362,0,0,1,58.525-7.25a9.046,9.046,0,0,1,1.94-6.089A6.511,6.511,0,0,1,65.676-15.6Zm17.889,0a6.612,6.612,0,0,1,4.17,1.246,5.97,5.97,0,0,1,1.933,4.291H87.19A4.575,4.575,0,0,0,86.157-12.4a3.265,3.265,0,0,0-2.591-.927,3.581,3.581,0,0,0-3.483,2.379,9.45,9.45,0,0,0-.68,3.809A7.168,7.168,0,0,0,80.365-3.3,3.3,3.3,0,0,0,83.4-1.742a3.314,3.314,0,0,0,2.513-.97A5.334,5.334,0,0,0,87.19-5.367h2.478A6.652,6.652,0,0,1,87.544-.956,6.627,6.627,0,0,1,83.2.439a5.8,5.8,0,0,1-4.744-2.174,8.319,8.319,0,0,1-1.77-5.43,9.149,9.149,0,0,1,1.94-6.216A6.269,6.269,0,0,1,83.565-15.6Zm13.231.439V-5.1a4.245,4.245,0,0,0,.368,1.9A2.569,2.569,0,0,0,99.7-1.841a3.583,3.583,0,0,0,3.625-2.379,9.438,9.438,0,0,0,.524-3.5v-7.448H106.4V0h-2.407l.028-2.237a5.142,5.142,0,0,1-1.232,1.458A5.421,5.421,0,0,1,99.246.411Q96,.411,94.828-1.756a6.452,6.452,0,0,1-.637-3.1V-15.166Zm15.68-5.636h2.549V0h-2.549Zm8.4,5.707h2.591V0h-2.591Zm0-5.707h2.591v2.889h-2.591Zm9.988,16.043A3.706,3.706,0,0,0,131.5-2.8a4,4,0,0,0,3.342,1.232,4.928,4.928,0,0,0,2.492-.616,2.045,2.045,0,0,0,1.076-1.9,1.629,1.629,0,0,0-.864-1.487,10.27,10.27,0,0,0-2.181-.722l-2.025-.51a9.878,9.878,0,0,1-2.86-1.076,3.216,3.216,0,0,1-1.643-2.86,4.37,4.37,0,0,1,1.551-3.483,6.186,6.186,0,0,1,4.17-1.331q3.427,0,4.942,2.011a4.364,4.364,0,0,1,.92,2.747h-2.407a2.949,2.949,0,0,0-.609-1.572,3.883,3.883,0,0,0-3.044-1.005,3.639,3.639,0,0,0-2.188.552,1.731,1.731,0,0,0-.743,1.458,1.8,1.8,0,0,0,.977,1.586,5.871,5.871,0,0,0,1.671.623l1.685.411a13.029,13.029,0,0,1,3.682,1.289,3.412,3.412,0,0,1,1.487,3.073,4.683,4.683,0,0,1-1.536,3.5,6.54,6.54,0,0,1-4.68,1.473q-3.384,0-4.793-1.536a5.81,5.81,0,0,1-1.508-3.8Z" transform="translate(126 100)"/></g></svg>