<svg xmlns="http://www.w3.org/2000/svg" width="230.452" height="28.121" viewBox="0 0 230.452 28.121"><defs><style>.a{fill:#06003b;}.b{fill:#f1f5f8;}</style></defs><g transform="translate(-102.21 -61.287)"><path class="a" d="M9.99-25.53c3.626,0,5.735,3.071,7.622,6.993h.074l-.222-7.733a2.83,2.83,0,0,1-2,1c-1.406,0-3.034-1-5.624-1C4.7-26.27,1-23.236,1-18.426c0,4.773,3.33,6.512,6.66,7.918,3.33,1.369,6.66,2.405,6.66,5.772,0,2.775-1.739,4.366-4.551,4.366-3.33,0-6.623-3.4-8.88-8.214H.814L1.369.37a3.708,3.708,0,0,1,2.4-1.036C5.217-.666,7.1.37,9.879.37c4.958,0,9.25-2.96,9.25-8.1,0-5.7-4.107-7.215-7.733-8.621C8.51-17.5,5.957-18.537,5.957-21.534A3.856,3.856,0,0,1,9.99-25.53ZM39.479-1.517a2.882,2.882,0,0,1-.777.148c-1.443,0-1.739-1.11-1.739-2.96,0-3.108.037-5.846.037-8.177,0-4.588-3.108-6.179-8.288-6.179-4.218,0-7.178,1.739-7.178,4.588A3.075,3.075,0,0,0,24.9-11.026a3.656,3.656,0,0,0,3.626-2.183,1.64,1.64,0,0,1-.555.111c-.962,0-1.554-.74-1.554-2.257s.74-2.664,2.146-2.664c1.591,0,2.183,1.443,2.183,3.145v4.255l-2.405.481c-4,.851-7.733,1.813-7.733,5.846,0,3.034,2.257,4.551,4.958,4.551a5.019,5.019,0,0,0,5.254-3.848c0,.111.074.7.074.777C31.3-.851,32.708.333,35.335.333a5.311,5.311,0,0,0,4.144-1.776ZM30.747-9.953v4.107c-.037,2.072-.814,3.589-2.257,3.589-1.147,0-1.776-1.147-1.776-3.071,0-2.442.962-3.811,2.923-4.366Zm8.51-8.362v.074c1.406.925,1.628,1.48,1.628,4.033V-3.959c0,2.442-.111,2.96-1.443,3.885V0h9.176V-.074c-1.3-.925-1.443-1.443-1.443-3.885v-7.363c0-2.886,1.11-4.255,2.59-4.255,1.443,0,2,1.11,2,2.553v9.065c0,2.442-.111,2.96-1.406,3.885V0h9.176V-.074C58.2-1,58.09-1.517,58.09-3.959v-8.917c0-3.33-1.665-5.809-5.217-5.809-2.775,0-4.884,1.665-5.7,4.736v-4.366ZM69.782.37a9.09,9.09,0,0,0,9.25-9.509c0-5.772-4.144-9.546-9.25-9.546-5.069,0-9.213,3.774-9.213,9.546A9.082,9.082,0,0,0,69.782.37Zm0-.629c-1.924,0-2.553-3.145-2.553-8.88,0-5.772.629-8.917,2.553-8.917s2.59,3.145,2.59,8.917C72.372-3.4,71.706-.259,69.782-.259Zm20.683-17.8c1.48,0,2.22,1,2.22,2.7,0,1.406-.555,2.553-1.813,2.553a1.336,1.336,0,0,1-.629-.111c.148,1.11,1.258,2.072,3.034,2.072A3.132,3.132,0,0,0,96.57-14.1c0-2.96-2.627-4.588-6.216-4.588A9.475,9.475,0,0,0,80.66-8.806C80.66-3.071,84.508.37,89.17.37a7.28,7.28,0,0,0,7.622-6.4l-.222-.074a4.566,4.566,0,0,1-4.477,3.293c-3.145,0-5.032-2.812-5.032-7.659C87.061-14.874,88.245-18.056,90.465-18.056ZM109.742-7.067c0,2.923-1.073,4.292-2.516,4.292-1.369,0-1.961-1.184-1.961-2.59v-12.95H97.31v.074c1.406.925,1.628,1.48,1.628,4.033v8.732c0,3.367,1.665,5.846,5.18,5.846,2.775,0,4.847-1.7,5.624-4.773V0h7.844V-.074c-1.295-.888-1.517-1.48-1.517-3.885V-18.315h-7.955v.074c1.406.925,1.628,1.48,1.628,4.033Zm16.539-20.646h-8.066v.074c1.406.851,1.739,1.48,1.739,4.033V-3.959c0,2.442-.111,2.96-1.406,3.885V0h9.176V-.074c-1.332-.925-1.443-1.443-1.443-3.885Zm3.515,3.737a3.468,3.468,0,0,0,3.552,3.478,3.5,3.5,0,0,0,3.589-3.478,3.477,3.477,0,0,0-3.589-3.478A3.445,3.445,0,0,0,129.8-23.976Zm6.734,5.661h-7.918v.074c1.406.925,1.628,1.48,1.628,4.033V-3.959c0,2.442-.111,2.96-1.443,3.885V0h9.176V-.074C136.678-1,136.53-1.517,136.53-3.959Zm9.213.3c2.4,0,4.773,2.22,6.29,5.439h.074v-6.142a2.748,2.748,0,0,1-1.924.888c-1.221,0-2.4-.851-4.551-.851-3.441,0-6.216,2.331-6.216,5.809s1.924,5.217,5.994,6.7c2.516.888,3.811,1.517,3.811,3.293a2.539,2.539,0,0,1-2.812,2.627c-2.775,0-5.106-2.368-6.993-6.327h-.074l.37,6.993a2.606,2.606,0,0,1,1.813-.814c1.221,0,2.664.777,4.995.777,4.033,0,6.956-2.405,6.956-6.179,0-3.441-1.924-5.143-6.179-6.7-3.034-1.11-4-1.7-4-3.33A2.176,2.176,0,0,1,145.743-18.019Z" transform="translate(179.186 89)"/><path class="a" d="M91.589,199.6a14.92,14.92,0,0,0,1.2,22.33l23.387-6.872a14.954,14.954,0,0,0-1.864-13.33Z" transform="translate(33.386 -137.433)"/><path class="b" d="M96.5,200.155a13.471,13.471,0,0,0,.983,21.632l19.887-5.846a13.476,13.476,0,0,0-2.081-14.029Z" transform="translate(30.444 -137.807)"/><path class="a" d="M125.006,217.367a7.117,7.117,0,1,1-7.118-7.119,7.119,7.119,0,0,1,7.118,7.119" transform="translate(17.554 -144.567)"/><path class="b" d="M145.337,207.166a2.7,2.7,0,1,1-2.694-2.7,2.7,2.7,0,0,1,2.694,2.7" transform="translate(-1.987 -140.696)"/><path class="a" d="M97.468,217.933c-.429-1.415-7.077-.754-16.691,1.406a.811.811,0,0,1,.015.087c6.787-1.417,11.325-1.785,11.641-.75.538,1.771-11.48,6.98-26.836,11.632s-28.24,7-28.777,5.228c-.363-1.2,5.039-3.983,13.34-7.1-.009-.023-.018-.047-.029-.068-11.313,4.1-18.914,7.9-18.428,9.505.66,2.168,15.912-.537,34.075-6.042s32.347-11.729,31.69-13.9" transform="translate(70.529 -149.214)"/><path class="a" d="M84.355,197.352c-14.634-1.354-26.793.756-27.158,4.712-.2,2.169,3.194,4.446,8.716,6.283,0-.056.005-.1.005-.161-3.492-1.47-5.537-3.156-5.374-4.762.348-3.453,10.76-5.228,23.257-3.968,8.069.814,15.033,2.7,18.86,4.86,1.854-.356,3.534-.631,5.014-.824-4.14-2.744-12.96-5.183-23.32-6.14" transform="translate(53.444 -135.655)"/></g></svg>