<svg xmlns="http://www.w3.org/2000/svg" width="101.878" height="18.766" viewBox="0 0 101.878 18.766"><defs><style>.a{fill:#06003b;}</style></defs><path class="a" d="M7.246-36.742c2.42,0,3.827,2.049,5.086,4.667h.049l-.148-5.161a1.889,1.889,0,0,1-1.333.667c-.938,0-2.025-.667-3.753-.667-3.432,0-5.9,2.025-5.9,5.235,0,3.185,2.222,4.346,4.445,5.284,2.222.914,4.445,1.6,4.445,3.852A2.734,2.734,0,0,1,7.1-19.952c-2.222,0-4.42-2.272-5.926-5.482H1.122l.37,5.975a2.475,2.475,0,0,1,1.6-.691c.963,0,2.222.691,4.074.691,3.309,0,6.173-1.975,6.173-5.407,0-3.8-2.741-4.815-5.161-5.753-1.926-.765-3.63-1.457-3.63-3.457A2.573,2.573,0,0,1,7.246-36.742ZM26.925-20.717a1.923,1.923,0,0,1-.519.1c-.963,0-1.161-.741-1.161-1.975,0-2.074.025-3.9.025-5.457,0-3.062-2.074-4.124-5.531-4.124-2.815,0-4.79,1.161-4.79,3.062A2.052,2.052,0,0,0,17.2-27.063a2.44,2.44,0,0,0,2.42-1.457,1.1,1.1,0,0,1-.37.074c-.642,0-1.037-.494-1.037-1.506s.494-1.778,1.432-1.778c1.062,0,1.457.963,1.457,2.1v2.84l-1.6.321c-2.667.568-5.161,1.21-5.161,3.9,0,2.025,1.506,3.037,3.309,3.037A3.35,3.35,0,0,0,21.147-22.1c0,.074.049.469.049.519.272,1.309,1.21,2.1,2.963,2.1a3.544,3.544,0,0,0,2.765-1.185ZM21.1-26.347v2.741c-.025,1.383-.543,2.4-1.506,2.4-.765,0-1.185-.765-1.185-2.049,0-1.63.642-2.543,1.951-2.914Zm5.679-5.58v.049c.938.617,1.086.988,1.086,2.691v6.84c0,1.63-.074,1.975-.963,2.593v.049h6.124v-.049c-.864-.617-.963-.963-.963-2.593v-4.914c0-1.926.741-2.84,1.728-2.84.963,0,1.333.741,1.333,1.7v6.049c0,1.63-.074,1.975-.938,2.593v.049h6.124v-.049c-.889-.617-.963-.963-.963-2.593V-28.3c0-2.222-1.111-3.877-3.482-3.877a3.825,3.825,0,0,0-3.8,3.161v-2.914ZM47.147-19.458A6.066,6.066,0,0,0,53.32-25.8a6.073,6.073,0,0,0-6.173-6.37A6.068,6.068,0,0,0,41-25.8,6.061,6.061,0,0,0,47.147-19.458Zm0-.42c-1.284,0-1.7-2.1-1.7-5.926,0-3.852.42-5.951,1.7-5.951s1.728,2.1,1.728,5.951C48.876-21.977,48.431-19.878,47.147-19.878Zm13.8-11.877c.988,0,1.482.667,1.482,1.8,0,.938-.37,1.7-1.21,1.7a.891.891,0,0,1-.42-.074,1.84,1.84,0,0,0,2.025,1.383,2.09,2.09,0,0,0,2.2-2.173c0-1.975-1.753-3.062-4.148-3.062a6.323,6.323,0,0,0-6.469,6.593c0,3.827,2.568,6.124,5.679,6.124a4.858,4.858,0,0,0,5.086-4.272l-.148-.049a3.047,3.047,0,0,1-2.988,2.2c-2.1,0-3.358-1.877-3.358-5.111C58.678-29.631,59.469-31.754,60.95-31.754Zm12.864,7.333c0,1.951-.716,2.864-1.679,2.864-.914,0-1.309-.79-1.309-1.728v-8.642H65.518v.049c.938.617,1.086.988,1.086,2.691v5.827c0,2.247,1.111,3.9,3.457,3.9a3.78,3.78,0,0,0,3.753-3.185V-19.7h5.235v-.049c-.864-.593-1.012-.988-1.012-2.593v-9.58H72.728v.049c.938.617,1.086.988,1.086,2.691ZM84.852-38.2H79.469v.049c.938.568,1.161.988,1.161,2.691v13.111c0,1.63-.074,1.975-.938,2.593v.049h6.124v-.049c-.889-.617-.963-.963-.963-2.593ZM87.2-35.705a2.314,2.314,0,0,0,2.37,2.321,2.335,2.335,0,0,0,2.4-2.321,2.32,2.32,0,0,0-2.4-2.321A2.3,2.3,0,0,0,87.2-35.705Zm4.494,3.778H86.407v.049c.938.617,1.086.988,1.086,2.691v6.84c0,1.63-.074,1.975-.963,2.593v.049h6.124v-.049c-.864-.617-.963-.963-.963-2.593Zm6.148.2c1.6,0,3.185,1.482,4.2,3.63h.049v-4.1a1.834,1.834,0,0,1-1.284.593c-.815,0-1.6-.568-3.037-.568A3.9,3.9,0,0,0,93.617-28.3c0,2.321,1.284,3.482,4,4.469,1.679.593,2.543,1.012,2.543,2.2a1.694,1.694,0,0,1-1.877,1.753c-1.852,0-3.407-1.58-4.667-4.222h-.049l.247,4.667a1.739,1.739,0,0,1,1.21-.543,32.458,32.458,0,0,0,3.333.519c2.691,0,4.642-1.6,4.642-4.124,0-2.3-1.284-3.432-4.124-4.469-2.025-.741-2.667-1.136-2.667-2.222A1.452,1.452,0,0,1,97.839-31.73Z" transform="translate(-1.122 38.199)"/></svg>