<svg xmlns="http://www.w3.org/2000/svg" width="470.355" height="448.06" viewBox="0 0 470.355 448.06"><defs><style>.a{font-size:32px;font-family:Helvetica;}.b{fill-rule:evenodd;}</style></defs><g transform="translate(-679.645 -86.22)"><path d="M1.56,15V.6H3.64L8.36,13.3H8.4L13.04.6H15.1V15H13.74V2.16H13.7L8.98,15H7.7L2.96,2.16H2.92V15Zm19.12,0V4.64h1.2V15ZM20.62,2.38V.6h1.32V2.38ZM28.54,15h-1.2V4.64h1.2V6.08a7.621,7.621,0,0,1,1.49-1.24,3.428,3.428,0,0,1,1.85-.48,4.724,4.724,0,0,1,1.78.33,3.037,3.037,0,0,1,1.38,1.15,2.579,2.579,0,0,1,.45,1.15,10.441,10.441,0,0,1,.07,1.23V15h-1.2V8.24a3.086,3.086,0,0,0-.62-2.1,2.633,2.633,0,0,0-2.06-.7,2.923,2.923,0,0,0-1.02.17,3.21,3.21,0,0,0-.83.45,3.014,3.014,0,0,0-.63.64,2.97,2.97,0,0,0-.4.76,3.814,3.814,0,0,0-.22.96q-.04.46-.04,1Zm12.5,0V4.64h1.2V15ZM40.98,2.38V.6H42.3V2.38ZM48.74,15h-1.2V4.64h1.2V6.2h.04A3.159,3.159,0,0,1,50.1,4.83a3.856,3.856,0,0,1,1.88-.47,4.04,4.04,0,0,1,1.22.16,2.751,2.751,0,0,1,.85.43,2.475,2.475,0,0,1,.58.63,4.262,4.262,0,0,1,.39.78,3.489,3.489,0,0,1,1.39-1.51,3.985,3.985,0,0,1,1.99-.49,3.483,3.483,0,0,1,1.69.35,2.532,2.532,0,0,1,.97.92,3.548,3.548,0,0,1,.45,1.31,10.326,10.326,0,0,1,.11,1.52V15h-1.2V7.84a2.919,2.919,0,0,0-.47-1.76,2.047,2.047,0,0,0-1.75-.64,2.9,2.9,0,0,0-2.34,1.18,2.314,2.314,0,0,0-.33.61,5.127,5.127,0,0,0-.21.73,5.965,5.965,0,0,0-.11.76q-.03.38-.03.7V15h-1.2V7.84a2.919,2.919,0,0,0-.47-1.76,2.047,2.047,0,0,0-1.75-.64,2.9,2.9,0,0,0-2.34,1.18,2.314,2.314,0,0,0-.33.61,5.127,5.127,0,0,0-.21.73,5.965,5.965,0,0,0-.11.76q-.03.38-.03.7Zm24.8-5.44A5.884,5.884,0,0,1,72,9.98q-.78.1-1.56.16a4.4,4.4,0,0,0-2.15.62,1.777,1.777,0,0,0-.77,1.58,1.715,1.715,0,0,0,.19.83,1.754,1.754,0,0,0,.5.58,2.114,2.114,0,0,0,.72.34,3.19,3.19,0,0,0,.83.11,5.448,5.448,0,0,0,1.4-.18,3.786,3.786,0,0,0,1.21-.55,2.806,2.806,0,0,0,.85-.94,2.714,2.714,0,0,0,.32-1.35Zm-2.02-.6q.34-.04.81-.12a3.059,3.059,0,0,0,.77-.22.637.637,0,0,0,.37-.47,2.954,2.954,0,0,0,.07-.61,2.045,2.045,0,0,0-.59-1.51,2.752,2.752,0,0,0-1.99-.59,5.513,5.513,0,0,0-1.14.11,2.482,2.482,0,0,0-.91.38,2.1,2.1,0,0,0-.64.72,3.056,3.056,0,0,0-.33,1.13H66.72a3.706,3.706,0,0,1,.42-1.57,3.184,3.184,0,0,1,.93-1.06,3.858,3.858,0,0,1,1.32-.6,6.454,6.454,0,0,1,1.59-.19,6.128,6.128,0,0,1,1.47.17,3.408,3.408,0,0,1,1.2.54,2.508,2.508,0,0,1,.8.99,3.574,3.574,0,0,1,.29,1.52v5.64q0,.7.25.89T76,14.02v.94l-.41.12a1.86,1.86,0,0,1-.53.08,2.394,2.394,0,0,1-.54-.06.924.924,0,0,1-.48-.19,1.171,1.171,0,0,1-.29-.36,1.492,1.492,0,0,1-.15-.46,3.355,3.355,0,0,1-.04-.53,5.21,5.21,0,0,1-1.74,1.28,5.116,5.116,0,0,1-2.12.44,4.745,4.745,0,0,1-1.31-.18,3.17,3.17,0,0,1-1.11-.56,2.781,2.781,0,0,1-.76-.93,2.856,2.856,0,0,1-.28-1.31q0-2.64,3.62-3.12ZM80.46,15V.6h1.2V15Zm6.84,0V.6h1.2V15Zm6.58,2.82.49.08a3.223,3.223,0,0,0,.51.04,1.11,1.11,0,0,0,.82-.32,2.678,2.678,0,0,0,.53-.77,6.333,6.333,0,0,0,.35-.94,4.324,4.324,0,0,1,.32-.83L92.88,4.64h1.34l3.32,8.9,3.32-8.9h1.3L98.3,14.86q-.36.98-.69,1.76a7.913,7.913,0,0,1-.7,1.33,2.906,2.906,0,0,1-.82.84,1.932,1.932,0,0,1-1.07.29,4.465,4.465,0,0,1-.61-.04,5.023,5.023,0,0,1-.53-.1ZM114.98,15V.6h1.36V15Zm8.5,0h-1.2V4.64h1.2V6.08a7.622,7.622,0,0,1,1.49-1.24,3.428,3.428,0,0,1,1.85-.48,4.724,4.724,0,0,1,1.78.33,3.037,3.037,0,0,1,1.38,1.15,2.58,2.58,0,0,1,.45,1.15,10.441,10.441,0,0,1,.07,1.23V15h-1.2V8.24a3.086,3.086,0,0,0-.62-2.1,2.633,2.633,0,0,0-2.06-.7,2.923,2.923,0,0,0-1.02.17,3.21,3.21,0,0,0-.83.45,3.014,3.014,0,0,0-.63.64,2.97,2.97,0,0,0-.4.76,3.814,3.814,0,0,0-.22.96q-.04.46-.04,1ZM134.7,4.64H136l3.36,8.88,3.36-8.88h1.3L140,15h-1.34Zm20.28,4.92a5.884,5.884,0,0,1-1.54.42q-.78.1-1.56.16a4.4,4.4,0,0,0-2.15.62,1.777,1.777,0,0,0-.77,1.58,1.715,1.715,0,0,0,.19.83,1.753,1.753,0,0,0,.5.58,2.114,2.114,0,0,0,.72.34,3.19,3.19,0,0,0,.83.11,5.448,5.448,0,0,0,1.4-.18,3.786,3.786,0,0,0,1.21-.55,2.806,2.806,0,0,0,.85-.94,2.714,2.714,0,0,0,.32-1.35Zm-2.02-.6q.34-.04.81-.12a3.059,3.059,0,0,0,.77-.22.637.637,0,0,0,.37-.47,2.953,2.953,0,0,0,.07-.61,2.045,2.045,0,0,0-.59-1.51,2.752,2.752,0,0,0-1.99-.59,5.514,5.514,0,0,0-1.14.11,2.482,2.482,0,0,0-.91.38,2.1,2.1,0,0,0-.64.72,3.056,3.056,0,0,0-.33,1.13h-1.22a3.706,3.706,0,0,1,.42-1.57,3.184,3.184,0,0,1,.93-1.06,3.858,3.858,0,0,1,1.32-.6,6.454,6.454,0,0,1,1.59-.19,6.129,6.129,0,0,1,1.47.17,3.407,3.407,0,0,1,1.2.54,2.508,2.508,0,0,1,.8.99,3.574,3.574,0,0,1,.29,1.52v5.64q0,.7.25.89t1.01-.09v.94l-.41.12a1.86,1.86,0,0,1-.53.08,2.394,2.394,0,0,1-.54-.06.924.924,0,0,1-.48-.19,1.171,1.171,0,0,1-.29-.36,1.491,1.491,0,0,1-.15-.46,3.356,3.356,0,0,1-.04-.53,5.211,5.211,0,0,1-1.74,1.28,5.116,5.116,0,0,1-2.12.44,4.745,4.745,0,0,1-1.31-.18,3.17,3.17,0,0,1-1.11-.56,2.781,2.781,0,0,1-.76-.93,2.856,2.856,0,0,1-.28-1.31q0-2.64,3.62-3.12Zm9.46,2.8a3.045,3.045,0,0,0,1.01,1.89,3.422,3.422,0,0,0,2.09.55,3.618,3.618,0,0,0,1.14-.16,2.29,2.29,0,0,0,.79-.43,1.855,1.855,0,0,0,.47-.61,1.67,1.67,0,0,0,.16-.72,1.325,1.325,0,0,0-.49-1.13,3.7,3.7,0,0,0-1.23-.58,15.839,15.839,0,0,0-1.6-.36,7.827,7.827,0,0,1-1.6-.45,3.2,3.2,0,0,1-1.23-.86,2.323,2.323,0,0,1-.49-1.58,2.7,2.7,0,0,1,.95-2.13,3.961,3.961,0,0,1,2.69-.83,4.591,4.591,0,0,1,2.73.75,3.43,3.43,0,0,1,1.27,2.51h-1.22a2.243,2.243,0,0,0-.91-1.69,3.389,3.389,0,0,0-1.89-.49,2.692,2.692,0,0,0-1.74.49,1.584,1.584,0,0,0-.6,1.29,1.259,1.259,0,0,0,.49,1.07,3.993,3.993,0,0,0,1.23.6q.74.23,1.6.41a7.881,7.881,0,0,1,1.6.51,3.5,3.5,0,0,1,1.23.89,2.291,2.291,0,0,1,.49,1.56,2.63,2.63,0,0,1-.32,1.31,2.785,2.785,0,0,1-.88.95,4.093,4.093,0,0,1-1.33.57,7.051,7.051,0,0,1-1.69.19,4.566,4.566,0,0,1-1.63-.27,3.539,3.539,0,0,1-1.21-.75,3.459,3.459,0,0,1-.78-1.12,3.945,3.945,0,0,1-.32-1.38ZM174.3,15V4.64h1.2V15Zm-.06-12.62V.6h1.32V2.38Zm5.62,2.26h1.3l3.36,8.88,3.36-8.88h1.3L185.16,15h-1.34Zm21,4.46a4.755,4.755,0,0,0-.21-1.43,3.342,3.342,0,0,0-.62-1.16A2.951,2.951,0,0,0,199,5.73a3.315,3.315,0,0,0-1.42-.29,3.157,3.157,0,0,0-1.41.3,3.242,3.242,0,0,0-1.04.8,4.024,4.024,0,0,0-.69,1.16,5.378,5.378,0,0,0-.34,1.4Zm-6.76,1a5.622,5.622,0,0,0,.22,1.59,3.841,3.841,0,0,0,.65,1.3,3.147,3.147,0,0,0,1.09.88,3.355,3.355,0,0,0,1.52.33,3.307,3.307,0,0,0,2.02-.62,2.986,2.986,0,0,0,1.12-1.76h1.34a6.461,6.461,0,0,1-.58,1.37,4.227,4.227,0,0,1-.9,1.1,3.89,3.89,0,0,1-1.28.73,5.185,5.185,0,0,1-1.72.26,5.022,5.022,0,0,1-2.14-.42,4.036,4.036,0,0,1-1.48-1.15,4.853,4.853,0,0,1-.86-1.72,7.8,7.8,0,0,1-.28-2.13,6.787,6.787,0,0,1,.33-2.14,5.449,5.449,0,0,1,.94-1.75,4.368,4.368,0,0,1,1.49-1.18,4.5,4.5,0,0,1,2-.43,4.131,4.131,0,0,1,3.36,1.47,6.458,6.458,0,0,1,1.2,4.27ZM214.96,15V.6h2.08l4.72,12.7h.04L226.44.6h2.06V15h-1.36V2.16h-.04L222.38,15H221.1L216.36,2.16h-.04V15Zm19.12,0V4.64h1.2V15Zm-.06-12.62V.6h1.32V2.38ZM248.08,7.9a3.484,3.484,0,0,0-1.1-1.81A2.988,2.988,0,0,0,245,5.44a3.115,3.115,0,0,0-1.58.38,3.2,3.2,0,0,0-1.08,1.01,4.55,4.55,0,0,0-.62,1.42,6.455,6.455,0,0,0-.2,1.59,6.736,6.736,0,0,0,.19,1.6,4.277,4.277,0,0,0,.61,1.4,3.141,3.141,0,0,0,1.08.99,3.226,3.226,0,0,0,1.6.37,3.064,3.064,0,0,0,2.15-.74,3.441,3.441,0,0,0,1.03-2.04h1.28a6.026,6.026,0,0,1-.51,1.57,4.143,4.143,0,0,1-.9,1.22,3.868,3.868,0,0,1-1.31.79,5.61,5.61,0,0,1-3.88-.14,4.036,4.036,0,0,1-1.48-1.15,4.844,4.844,0,0,1-.86-1.73,7.906,7.906,0,0,1-.28-2.14,6.887,6.887,0,0,1,.31-2.07,5.4,5.4,0,0,1,.91-1.75,4.4,4.4,0,0,1,1.49-1.21A4.483,4.483,0,0,1,245,4.36a4.62,4.62,0,0,1,2.91.86A3.992,3.992,0,0,1,249.3,7.9Zm7.44,7.1h-1.2V4.64h1.2V6.58h.04a3.473,3.473,0,0,1,1.29-1.73,3.927,3.927,0,0,1,2.09-.49v1.3a3.5,3.5,0,0,0-1.68.32,2.762,2.762,0,0,0-1.05.92,3.643,3.643,0,0,0-.54,1.37,8.83,8.83,0,0,0-.15,1.65Zm11.56.28a5.393,5.393,0,0,1-1.87-.36,4.188,4.188,0,0,1-1.52-1.02,4.9,4.9,0,0,1-1.03-1.7,6.8,6.8,0,0,1-.38-2.38,7.311,7.311,0,0,1,.3-2.13,5.029,5.029,0,0,1,.9-1.73,4.271,4.271,0,0,1,1.5-1.17,4.821,4.821,0,0,1,2.1-.43,4.871,4.871,0,0,1,2.12.43,4.324,4.324,0,0,1,1.5,1.16,4.788,4.788,0,0,1,.89,1.73,7.651,7.651,0,0,1,.29,2.14,6.931,6.931,0,0,1-.34,2.24,5.042,5.042,0,0,1-.97,1.72,4.271,4.271,0,0,1-1.52,1.11A4.856,4.856,0,0,1,267.08,15.28Zm3.52-5.46a7.076,7.076,0,0,0-.2-1.72,4.075,4.075,0,0,0-.62-1.39,2.978,2.978,0,0,0-1.08-.93,3.508,3.508,0,0,0-1.62-.34,3.284,3.284,0,0,0-1.61.37,3.151,3.151,0,0,0-1.09.98,4.309,4.309,0,0,0-.62,1.4,6.616,6.616,0,0,0-.2,1.63,6.463,6.463,0,0,0,.23,1.77,4.15,4.15,0,0,0,.67,1.39,3.008,3.008,0,0,0,1.1.9,3.443,3.443,0,0,0,1.52.32,3.284,3.284,0,0,0,1.61-.37,3.114,3.114,0,0,0,1.09-.99,4.439,4.439,0,0,0,.62-1.4A6.5,6.5,0,0,0,270.6,9.82Zm14.58.88a4.267,4.267,0,0,0,.43,1.63,3.225,3.225,0,0,0,.9,1.09,3.567,3.567,0,0,0,1.27.61,6.016,6.016,0,0,0,1.54.19,5.132,5.132,0,0,0,1.66-.24,3.14,3.14,0,0,0,1.14-.65,2.549,2.549,0,0,0,.65-.95,3.117,3.117,0,0,0,.21-1.14,2.251,2.251,0,0,0-.38-1.36,2.931,2.931,0,0,0-.99-.85,6.059,6.059,0,0,0-1.4-.53q-.79-.2-1.62-.39t-1.62-.45a5.1,5.1,0,0,1-1.4-.7,3.383,3.383,0,0,1-.99-1.13,3.6,3.6,0,0,1-.38-1.75,3.522,3.522,0,0,1,.31-1.44,3.586,3.586,0,0,1,.92-1.24,4.516,4.516,0,0,1,1.53-.86,6.443,6.443,0,0,1,2.12-.32,6.076,6.076,0,0,1,2.13.34,4.23,4.23,0,0,1,1.51.93,3.828,3.828,0,0,1,.9,1.37,4.584,4.584,0,0,1,.3,1.66h-1.3a3.232,3.232,0,0,0-.29-1.42,2.664,2.664,0,0,0-.79-.98,3.373,3.373,0,0,0-1.14-.56,4.852,4.852,0,0,0-1.32-.18,4.641,4.641,0,0,0-1.75.29,3.074,3.074,0,0,0-1.13.75,2.533,2.533,0,0,0-.58,1.02,2.455,2.455,0,0,0-.06,1.12,1.954,1.954,0,0,0,.56,1.12,3.534,3.534,0,0,0,1.08.69,8.138,8.138,0,0,0,1.41.44q.77.17,1.57.36a16.055,16.055,0,0,1,1.55.45,4.764,4.764,0,0,1,1.33.7,3.224,3.224,0,0,1,.93,1.13,3.806,3.806,0,0,1,.35,1.73,3.738,3.738,0,0,1-1.38,3.1,6.081,6.081,0,0,1-3.88,1.1,7.162,7.162,0,0,1-2.08-.29,4.609,4.609,0,0,1-1.66-.88,4.043,4.043,0,0,1-1.09-1.46,4.977,4.977,0,0,1-.39-2.05ZM306.4,7.9a3.484,3.484,0,0,0-1.1-1.81,2.988,2.988,0,0,0-1.98-.65,3.115,3.115,0,0,0-1.58.38,3.2,3.2,0,0,0-1.08,1.01,4.55,4.55,0,0,0-.62,1.42,6.455,6.455,0,0,0-.2,1.59,6.735,6.735,0,0,0,.19,1.6,4.277,4.277,0,0,0,.61,1.4,3.141,3.141,0,0,0,1.08.99,3.226,3.226,0,0,0,1.6.37,3.064,3.064,0,0,0,2.15-.74,3.441,3.441,0,0,0,1.03-2.04h1.28a6.025,6.025,0,0,1-.51,1.57,4.143,4.143,0,0,1-.9,1.22,3.868,3.868,0,0,1-1.31.79,5.61,5.61,0,0,1-3.88-.14,4.036,4.036,0,0,1-1.48-1.15,4.845,4.845,0,0,1-.86-1.73,7.906,7.906,0,0,1-.28-2.14,6.887,6.887,0,0,1,.31-2.07,5.4,5.4,0,0,1,.91-1.75,4.4,4.4,0,0,1,1.49-1.21,4.483,4.483,0,0,1,2.05-.45,4.62,4.62,0,0,1,2.91.86,3.992,3.992,0,0,1,1.39,2.68Zm6.36,7.1V.6h1.2V15Zm14.16-5.9a4.756,4.756,0,0,0-.21-1.43,3.342,3.342,0,0,0-.62-1.16,2.951,2.951,0,0,0-1.03-.78,3.315,3.315,0,0,0-1.42-.29,3.156,3.156,0,0,0-1.41.3,3.242,3.242,0,0,0-1.04.8,4.024,4.024,0,0,0-.69,1.16,5.38,5.38,0,0,0-.34,1.4Zm-6.76,1a5.622,5.622,0,0,0,.22,1.59,3.841,3.841,0,0,0,.65,1.3,3.148,3.148,0,0,0,1.09.88,3.355,3.355,0,0,0,1.52.33,3.307,3.307,0,0,0,2.02-.62,2.986,2.986,0,0,0,1.12-1.76h1.34a6.46,6.46,0,0,1-.58,1.37,4.227,4.227,0,0,1-.9,1.1,3.89,3.89,0,0,1-1.28.73,5.185,5.185,0,0,1-1.72.26,5.022,5.022,0,0,1-2.14-.42,4.036,4.036,0,0,1-1.48-1.15,4.852,4.852,0,0,1-.86-1.72,7.8,7.8,0,0,1-.28-2.13,6.787,6.787,0,0,1,.33-2.14,5.449,5.449,0,0,1,.94-1.75,4.368,4.368,0,0,1,1.49-1.18,4.5,4.5,0,0,1,2-.43A4.13,4.13,0,0,1,327,5.83a6.458,6.458,0,0,1,1.2,4.27ZM334.2,15H333V4.64h1.2V6.58h.04a3.473,3.473,0,0,1,1.29-1.73,3.927,3.927,0,0,1,2.09-.49v1.3a3.5,3.5,0,0,0-1.68.32,2.762,2.762,0,0,0-1.05.92,3.643,3.643,0,0,0-.54,1.37,8.83,8.83,0,0,0-.15,1.65Zm11.56.28a5.393,5.393,0,0,1-1.87-.36,4.188,4.188,0,0,1-1.52-1.02,4.9,4.9,0,0,1-1.03-1.7,6.8,6.8,0,0,1-.38-2.38,7.311,7.311,0,0,1,.3-2.13,5.029,5.029,0,0,1,.9-1.73,4.271,4.271,0,0,1,1.5-1.17,4.821,4.821,0,0,1,2.1-.43,4.871,4.871,0,0,1,2.12.43,4.324,4.324,0,0,1,1.5,1.16,4.788,4.788,0,0,1,.89,1.73,7.651,7.651,0,0,1,.29,2.14,6.932,6.932,0,0,1-.34,2.24,5.042,5.042,0,0,1-.97,1.72,4.271,4.271,0,0,1-1.52,1.11A4.856,4.856,0,0,1,345.76,15.28Zm3.52-5.46a7.076,7.076,0,0,0-.2-1.72,4.075,4.075,0,0,0-.62-1.39,2.978,2.978,0,0,0-1.08-.93,3.508,3.508,0,0,0-1.62-.34,3.284,3.284,0,0,0-1.61.37,3.151,3.151,0,0,0-1.09.98,4.309,4.309,0,0,0-.62,1.4,6.616,6.616,0,0,0-.2,1.63,6.463,6.463,0,0,0,.23,1.77,4.15,4.15,0,0,0,.67,1.39,3.008,3.008,0,0,0,1.1.9,3.443,3.443,0,0,0,1.52.32,3.284,3.284,0,0,0,1.61-.37,3.114,3.114,0,0,0,1.09-.99,4.439,4.439,0,0,0,.62-1.4A6.5,6.5,0,0,0,349.28,9.82Zm6.58,1.94a3.045,3.045,0,0,0,1.01,1.89,3.422,3.422,0,0,0,2.09.55,3.618,3.618,0,0,0,1.14-.16,2.29,2.29,0,0,0,.79-.43,1.855,1.855,0,0,0,.47-.61,1.67,1.67,0,0,0,.16-.72,1.325,1.325,0,0,0-.49-1.13,3.7,3.7,0,0,0-1.23-.58,15.837,15.837,0,0,0-1.6-.36,7.827,7.827,0,0,1-1.6-.45,3.2,3.2,0,0,1-1.23-.86,2.323,2.323,0,0,1-.49-1.58,2.7,2.7,0,0,1,.95-2.13,3.961,3.961,0,0,1,2.69-.83,4.591,4.591,0,0,1,2.73.75,3.43,3.43,0,0,1,1.27,2.51H361.3a2.243,2.243,0,0,0-.91-1.69,3.389,3.389,0,0,0-1.89-.49,2.692,2.692,0,0,0-1.74.49,1.584,1.584,0,0,0-.6,1.29,1.259,1.259,0,0,0,.49,1.07,3.994,3.994,0,0,0,1.23.6q.74.23,1.6.41a7.88,7.88,0,0,1,1.6.51,3.5,3.5,0,0,1,1.23.89,2.291,2.291,0,0,1,.49,1.56,2.63,2.63,0,0,1-.32,1.31,2.786,2.786,0,0,1-.88.95,4.093,4.093,0,0,1-1.33.57,7.05,7.05,0,0,1-1.69.19,4.566,4.566,0,0,1-1.63-.27,3.539,3.539,0,0,1-1.21-.75,3.459,3.459,0,0,1-.78-1.12,3.944,3.944,0,0,1-.32-1.38Zm15.34,3.28q-.22.04-.58.14a2.986,2.986,0,0,1-.8.1,1.906,1.906,0,0,1-1.37-.45,2.191,2.191,0,0,1-.47-1.61V5.64h-1.46v-1h1.46V1.76h1.2V4.64h1.94v1h-1.94v7.1q0,.38.02.66a1.106,1.106,0,0,0,.12.46.574.574,0,0,0,.31.26,1.718,1.718,0,0,0,.59.08,3.1,3.1,0,0,0,.49-.04q.25-.04.49-.1Zm8.44.24a5.393,5.393,0,0,1-1.87-.36,4.188,4.188,0,0,1-1.52-1.02,4.9,4.9,0,0,1-1.03-1.7,6.8,6.8,0,0,1-.38-2.38,7.311,7.311,0,0,1,.3-2.13,5.029,5.029,0,0,1,.9-1.73,4.271,4.271,0,0,1,1.5-1.17,4.821,4.821,0,0,1,2.1-.43,4.871,4.871,0,0,1,2.12.43,4.324,4.324,0,0,1,1.5,1.16,4.788,4.788,0,0,1,.89,1.73,7.651,7.651,0,0,1,.29,2.14,6.932,6.932,0,0,1-.34,2.24,5.042,5.042,0,0,1-.97,1.72,4.271,4.271,0,0,1-1.52,1.11A4.856,4.856,0,0,1,379.64,15.28Zm3.52-5.46a7.076,7.076,0,0,0-.2-1.72,4.075,4.075,0,0,0-.62-1.39,2.978,2.978,0,0,0-1.08-.93,3.508,3.508,0,0,0-1.62-.34,3.284,3.284,0,0,0-1.61.37,3.151,3.151,0,0,0-1.09.98,4.309,4.309,0,0,0-.62,1.4,6.616,6.616,0,0,0-.2,1.63,6.463,6.463,0,0,0,.23,1.77,4.15,4.15,0,0,0,.67,1.39,3.008,3.008,0,0,0,1.1.9,3.443,3.443,0,0,0,1.52.32,3.284,3.284,0,0,0,1.61-.37,3.114,3.114,0,0,0,1.09-.99,4.439,4.439,0,0,0,.62-1.4A6.5,6.5,0,0,0,383.16,9.82ZM390.08,15h-1.2V4.64h1.2V6.2h.04a3.159,3.159,0,0,1,1.32-1.37,3.856,3.856,0,0,1,1.88-.47,4.04,4.04,0,0,1,1.22.16,2.751,2.751,0,0,1,.85.43,2.475,2.475,0,0,1,.58.63,4.26,4.26,0,0,1,.39.78,3.489,3.489,0,0,1,1.39-1.51,3.985,3.985,0,0,1,1.99-.49,3.483,3.483,0,0,1,1.69.35,2.532,2.532,0,0,1,.97.92,3.548,3.548,0,0,1,.45,1.31,10.326,10.326,0,0,1,.11,1.52V15h-1.2V7.84a2.919,2.919,0,0,0-.47-1.76,2.047,2.047,0,0,0-1.75-.64,2.9,2.9,0,0,0-2.34,1.18,2.315,2.315,0,0,0-.33.61,5.124,5.124,0,0,0-.21.73,5.966,5.966,0,0,0-.11.76q-.03.38-.03.7V15h-1.2V7.84a2.919,2.919,0,0,0-.47-1.76,2.047,2.047,0,0,0-1.75-.64,2.9,2.9,0,0,0-2.34,1.18,2.315,2.315,0,0,0-.33.61,5.132,5.132,0,0,0-.21.73,5.966,5.966,0,0,0-.11.76q-.03.38-.03.7Zm17.94,2.82.49.08a3.223,3.223,0,0,0,.51.04,1.11,1.11,0,0,0,.82-.32,2.677,2.677,0,0,0,.53-.77,6.33,6.33,0,0,0,.35-.94,4.326,4.326,0,0,1,.32-.83L407.02,4.64h1.34l3.32,8.9L415,4.64h1.3l-3.86,10.22q-.36.98-.69,1.76a7.913,7.913,0,0,1-.7,1.33,2.906,2.906,0,0,1-.82.84,1.932,1.932,0,0,1-1.07.29,4.464,4.464,0,0,1-.61-.04,5.025,5.025,0,0,1-.53-.1Z" transform="translate(683 86)"/><path d="M2.18,10.7a4.266,4.266,0,0,0,.43,1.63,3.225,3.225,0,0,0,.9,1.09,3.567,3.567,0,0,0,1.27.61,6.016,6.016,0,0,0,1.54.19,5.132,5.132,0,0,0,1.66-.24,3.14,3.14,0,0,0,1.14-.65,2.549,2.549,0,0,0,.65-.95,3.117,3.117,0,0,0,.21-1.14A2.251,2.251,0,0,0,9.6,9.88a2.931,2.931,0,0,0-.99-.85,6.06,6.06,0,0,0-1.4-.53q-.79-.2-1.62-.39T3.97,7.66a5.1,5.1,0,0,1-1.4-.7,3.383,3.383,0,0,1-.99-1.13A3.6,3.6,0,0,1,1.2,4.08a3.522,3.522,0,0,1,.31-1.44A3.586,3.586,0,0,1,2.43,1.4,4.515,4.515,0,0,1,3.96.54,6.443,6.443,0,0,1,6.08.22,6.076,6.076,0,0,1,8.21.56a4.23,4.23,0,0,1,1.51.93,3.828,3.828,0,0,1,.9,1.37,4.584,4.584,0,0,1,.3,1.66H9.62A3.232,3.232,0,0,0,9.33,3.1a2.664,2.664,0,0,0-.79-.98A3.373,3.373,0,0,0,7.4,1.56a4.852,4.852,0,0,0-1.32-.18,4.641,4.641,0,0,0-1.75.29,3.074,3.074,0,0,0-1.13.75,2.533,2.533,0,0,0-.58,1.02,2.455,2.455,0,0,0-.06,1.12,1.954,1.954,0,0,0,.56,1.12,3.534,3.534,0,0,0,1.08.69,8.138,8.138,0,0,0,1.41.44q.77.17,1.57.36a16.056,16.056,0,0,1,1.55.45,4.764,4.764,0,0,1,1.33.7,3.224,3.224,0,0,1,.93,1.13,3.806,3.806,0,0,1,.35,1.73,3.738,3.738,0,0,1-1.38,3.1,6.081,6.081,0,0,1-3.88,1.1A7.162,7.162,0,0,1,4,15.09a4.608,4.608,0,0,1-1.66-.88,4.042,4.042,0,0,1-1.09-1.46A4.977,4.977,0,0,1,.86,10.7ZM17.3,15.04q-.22.04-.58.14a2.986,2.986,0,0,1-.8.1,1.906,1.906,0,0,1-1.37-.45,2.191,2.191,0,0,1-.47-1.61V5.64H12.62v-1h1.46V1.76h1.2V4.64h1.94v1H15.28v7.1q0,.38.02.66a1.107,1.107,0,0,0,.12.46.574.574,0,0,0,.31.26,1.719,1.719,0,0,0,.59.08,3.1,3.1,0,0,0,.49-.04q.25-.04.49-.1ZM26,9.56a5.884,5.884,0,0,1-1.54.42q-.78.1-1.56.16a4.4,4.4,0,0,0-2.15.62,1.777,1.777,0,0,0-.77,1.58,1.715,1.715,0,0,0,.19.83,1.753,1.753,0,0,0,.5.58,2.114,2.114,0,0,0,.72.34,3.19,3.19,0,0,0,.83.11,5.448,5.448,0,0,0,1.4-.18,3.786,3.786,0,0,0,1.21-.55,2.806,2.806,0,0,0,.85-.94A2.714,2.714,0,0,0,26,11.18Zm-2.02-.6q.34-.04.81-.12a3.059,3.059,0,0,0,.77-.22.637.637,0,0,0,.37-.47A2.954,2.954,0,0,0,26,7.54a2.045,2.045,0,0,0-.59-1.51,2.752,2.752,0,0,0-1.99-.59,5.514,5.514,0,0,0-1.14.11,2.482,2.482,0,0,0-.91.38,2.1,2.1,0,0,0-.64.72,3.056,3.056,0,0,0-.33,1.13H19.18a3.706,3.706,0,0,1,.42-1.57,3.184,3.184,0,0,1,.93-1.06,3.858,3.858,0,0,1,1.32-.6,6.454,6.454,0,0,1,1.59-.19,6.128,6.128,0,0,1,1.47.17,3.408,3.408,0,0,1,1.2.54,2.508,2.508,0,0,1,.8.99,3.574,3.574,0,0,1,.29,1.52v5.64q0,.7.25.89t1.01-.09v.94l-.41.12a1.86,1.86,0,0,1-.53.08,2.394,2.394,0,0,1-.54-.06.924.924,0,0,1-.48-.19,1.171,1.171,0,0,1-.29-.36,1.492,1.492,0,0,1-.15-.46,3.355,3.355,0,0,1-.04-.53,5.211,5.211,0,0,1-1.74,1.28,5.116,5.116,0,0,1-2.12.44,4.745,4.745,0,0,1-1.31-.18,3.17,3.17,0,0,1-1.11-.56,2.781,2.781,0,0,1-.76-.93,2.856,2.856,0,0,1-.28-1.31q0-2.64,3.62-3.12Zm6.28,8.86.49.08a3.223,3.223,0,0,0,.51.04,1.11,1.11,0,0,0,.82-.32,2.678,2.678,0,0,0,.53-.77,6.333,6.333,0,0,0,.35-.94,4.324,4.324,0,0,1,.32-.83L29.26,4.64H30.6l3.32,8.9,3.32-8.9h1.3L34.68,14.86q-.36.98-.69,1.76a7.913,7.913,0,0,1-.7,1.33,2.906,2.906,0,0,1-.82.84,1.932,1.932,0,0,1-1.07.29,4.465,4.465,0,0,1-.61-.04,5.024,5.024,0,0,1-.53-.1ZM52.92,4.64h1.2V15h-1.2V13.56q-.24.28-.54.58a4.1,4.1,0,0,1-.69.55,3.96,3.96,0,0,1-.91.42,3.862,3.862,0,0,1-1.2.17,4.563,4.563,0,0,1-1.74-.29,2.848,2.848,0,0,1-1.13-.81,3.211,3.211,0,0,1-.62-1.21,5.675,5.675,0,0,1-.19-1.51V4.64h1.2v6.8a3.026,3.026,0,0,0,.62,2.05,2.582,2.582,0,0,0,2.04.71,2.975,2.975,0,0,0,1.33-.29,2.78,2.78,0,0,0,.99-.81,3.864,3.864,0,0,0,.62-1.24,5.388,5.388,0,0,0,.22-1.58Zm5.44,5.22a5.715,5.715,0,0,0,.24,1.67,4.324,4.324,0,0,0,.69,1.38,3.39,3.39,0,0,0,1.1.94,3.051,3.051,0,0,0,1.47.35,3.357,3.357,0,0,0,1.61-.37,3.168,3.168,0,0,0,1.13-1.01,4.368,4.368,0,0,0,.64-1.49A6.764,6.764,0,0,0,65.4,9.5a5.1,5.1,0,0,0-.27-1.73,3.687,3.687,0,0,0-.75-1.27,3.2,3.2,0,0,0-1.12-.79,3.565,3.565,0,0,0-1.4-.27,3.228,3.228,0,0,0-1.5.34,3.158,3.158,0,0,0-1.1.93,4.266,4.266,0,0,0-.67,1.4A6.384,6.384,0,0,0,58.36,9.86Zm0,9.22h-1.2V4.64h1.2V6.46h.04a3.519,3.519,0,0,1,.67-.9,3.907,3.907,0,0,1,.9-.66,4.827,4.827,0,0,1,1.01-.4A3.913,3.913,0,0,1,62,4.36a4.939,4.939,0,0,1,2.14.42,3.986,3.986,0,0,1,1.45,1.15,4.691,4.691,0,0,1,.83,1.73,8.479,8.479,0,0,1,.26,2.14,7.678,7.678,0,0,1-.28,2.08,5.157,5.157,0,0,1-.85,1.75,4.21,4.21,0,0,1-1.44,1.2,4.406,4.406,0,0,1-2.05.45,4.776,4.776,0,0,1-2.11-.49,3.714,3.714,0,0,1-1.59-1.45Zm18.88-9.3A5.714,5.714,0,0,0,77,8.11a4.324,4.324,0,0,0-.69-1.38,3.39,3.39,0,0,0-1.1-.94,3.051,3.051,0,0,0-1.47-.35,3.342,3.342,0,0,0-1.62.37A3.193,3.193,0,0,0,71,6.82a4.368,4.368,0,0,0-.64,1.49,6.764,6.764,0,0,0-.16,1.83,5.1,5.1,0,0,0,.27,1.73,3.687,3.687,0,0,0,.75,1.27,3.2,3.2,0,0,0,1.12.79,3.565,3.565,0,0,0,1.4.27,3.228,3.228,0,0,0,1.5-.34,3.158,3.158,0,0,0,1.1-.93,4.266,4.266,0,0,0,.67-1.4A6.384,6.384,0,0,0,77.24,9.78Zm0-9.18h1.2V15h-1.2V13.18H77.2a3.252,3.252,0,0,1-.67.91,4.067,4.067,0,0,1-.9.65,4.827,4.827,0,0,1-1.01.4,3.913,3.913,0,0,1-1.02.14,4.939,4.939,0,0,1-2.14-.42,3.986,3.986,0,0,1-1.45-1.15,4.691,4.691,0,0,1-.83-1.73,8.479,8.479,0,0,1-.26-2.14,7.678,7.678,0,0,1,.28-2.08,5.157,5.157,0,0,1,.85-1.75,4.21,4.21,0,0,1,1.44-1.2,4.406,4.406,0,0,1,2.05-.45,4.776,4.776,0,0,1,2.11.49A3.714,3.714,0,0,1,77.24,6.3Zm11,8.96a5.884,5.884,0,0,1-1.54.42q-.78.1-1.56.16a4.4,4.4,0,0,0-2.15.62,1.777,1.777,0,0,0-.77,1.58,1.715,1.715,0,0,0,.19.83,1.754,1.754,0,0,0,.5.58,2.114,2.114,0,0,0,.72.34,3.19,3.19,0,0,0,.83.11,5.448,5.448,0,0,0,1.4-.18,3.786,3.786,0,0,0,1.21-.55,2.806,2.806,0,0,0,.85-.94,2.714,2.714,0,0,0,.32-1.35Zm-2.02-.6q.34-.04.81-.12a3.059,3.059,0,0,0,.77-.22.637.637,0,0,0,.37-.47,2.954,2.954,0,0,0,.07-.61,2.045,2.045,0,0,0-.59-1.51,2.752,2.752,0,0,0-1.99-.59,5.513,5.513,0,0,0-1.14.11,2.482,2.482,0,0,0-.91.38,2.1,2.1,0,0,0-.64.72,3.056,3.056,0,0,0-.33,1.13H81.42a3.706,3.706,0,0,1,.42-1.57,3.184,3.184,0,0,1,.93-1.06,3.858,3.858,0,0,1,1.32-.6,6.454,6.454,0,0,1,1.59-.19,6.128,6.128,0,0,1,1.47.17,3.408,3.408,0,0,1,1.2.54,2.508,2.508,0,0,1,.8.99,3.574,3.574,0,0,1,.29,1.52v5.64q0,.7.25.89t1.01-.09v.94l-.41.12a1.86,1.86,0,0,1-.53.08,2.394,2.394,0,0,1-.54-.06.924.924,0,0,1-.48-.19,1.171,1.171,0,0,1-.29-.36,1.492,1.492,0,0,1-.15-.46,3.355,3.355,0,0,1-.04-.53,5.21,5.21,0,0,1-1.74,1.28,5.116,5.116,0,0,1-2.12.44,4.745,4.745,0,0,1-1.31-.18,3.17,3.17,0,0,1-1.11-.56,2.781,2.781,0,0,1-.76-.93,2.856,2.856,0,0,1-.28-1.31q0-2.64,3.62-3.12Zm10,6.08q-.22.04-.58.14a2.986,2.986,0,0,1-.8.1,1.906,1.906,0,0,1-1.37-.45A2.191,2.191,0,0,1,93,13.22V5.64H91.54v-1H93V1.76h1.2V4.64h1.94v1H94.2v7.1q0,.38.02.66a1.107,1.107,0,0,0,.12.46.574.574,0,0,0,.31.26,1.719,1.719,0,0,0,.59.08,3.1,3.1,0,0,0,.49-.04q.25-.04.49-.1Zm9.42-5.94a4.755,4.755,0,0,0-.21-1.43,3.342,3.342,0,0,0-.62-1.16,2.951,2.951,0,0,0-1.03-.78,3.315,3.315,0,0,0-1.42-.29,3.157,3.157,0,0,0-1.41.3,3.242,3.242,0,0,0-1.04.8,4.024,4.024,0,0,0-.69,1.16,5.379,5.379,0,0,0-.34,1.4Zm-6.76,1a5.622,5.622,0,0,0,.22,1.59,3.841,3.841,0,0,0,.65,1.3,3.147,3.147,0,0,0,1.09.88,3.355,3.355,0,0,0,1.52.33,3.307,3.307,0,0,0,2.02-.62,2.986,2.986,0,0,0,1.12-1.76h1.34a6.461,6.461,0,0,1-.58,1.37,4.227,4.227,0,0,1-.9,1.1,3.89,3.89,0,0,1-1.28.73,5.185,5.185,0,0,1-1.72.26,5.022,5.022,0,0,1-2.14-.42,4.036,4.036,0,0,1-1.48-1.15,4.853,4.853,0,0,1-.86-1.72,7.8,7.8,0,0,1-.28-2.13,6.787,6.787,0,0,1,.33-2.14,5.449,5.449,0,0,1,.94-1.75,4.368,4.368,0,0,1,1.49-1.18,4.5,4.5,0,0,1,2-.43,4.131,4.131,0,0,1,3.36,1.47,6.458,6.458,0,0,1,1.2,4.27Zm18.38-.32a5.714,5.714,0,0,0-.24-1.67,4.324,4.324,0,0,0-.69-1.38,3.39,3.39,0,0,0-1.1-.94,3.051,3.051,0,0,0-1.47-.35,3.342,3.342,0,0,0-1.62.37,3.193,3.193,0,0,0-1.12,1.01,4.368,4.368,0,0,0-.64,1.49,6.764,6.764,0,0,0-.16,1.83,5.1,5.1,0,0,0,.27,1.73,3.687,3.687,0,0,0,.75,1.27,3.2,3.2,0,0,0,1.12.79,3.565,3.565,0,0,0,1.4.27,3.228,3.228,0,0,0,1.5-.34,3.158,3.158,0,0,0,1.1-.93,4.266,4.266,0,0,0,.67-1.4A6.384,6.384,0,0,0,117.26,9.78Zm0-9.18h1.2V15h-1.2V13.18h-.04a3.252,3.252,0,0,1-.67.91,4.067,4.067,0,0,1-.9.65,4.827,4.827,0,0,1-1.01.4,3.913,3.913,0,0,1-1.02.14,4.939,4.939,0,0,1-2.14-.42,3.986,3.986,0,0,1-1.45-1.15,4.691,4.691,0,0,1-.83-1.73,8.479,8.479,0,0,1-.26-2.14,7.678,7.678,0,0,1,.28-2.08,5.157,5.157,0,0,1,.85-1.75,4.21,4.21,0,0,1,1.44-1.2,4.406,4.406,0,0,1,2.05-.45,4.776,4.776,0,0,1,2.11.49,3.714,3.714,0,0,1,1.59,1.45Zm13.9,14.68a5.393,5.393,0,0,1-1.87-.36,4.188,4.188,0,0,1-1.52-1.02,4.9,4.9,0,0,1-1.03-1.7,6.8,6.8,0,0,1-.38-2.38,7.311,7.311,0,0,1,.3-2.13,5.029,5.029,0,0,1,.9-1.73,4.271,4.271,0,0,1,1.5-1.17,4.821,4.821,0,0,1,2.1-.43,4.871,4.871,0,0,1,2.12.43,4.324,4.324,0,0,1,1.5,1.16,4.788,4.788,0,0,1,.89,1.73,7.651,7.651,0,0,1,.29,2.14,6.931,6.931,0,0,1-.34,2.24,5.043,5.043,0,0,1-.97,1.72,4.271,4.271,0,0,1-1.52,1.11A4.856,4.856,0,0,1,131.16,15.28Zm3.52-5.46a7.076,7.076,0,0,0-.2-1.72,4.075,4.075,0,0,0-.62-1.39,2.978,2.978,0,0,0-1.08-.93,3.508,3.508,0,0,0-1.62-.34,3.284,3.284,0,0,0-1.61.37,3.151,3.151,0,0,0-1.09.98,4.309,4.309,0,0,0-.62,1.4,6.616,6.616,0,0,0-.2,1.63,6.462,6.462,0,0,0,.23,1.77,4.15,4.15,0,0,0,.67,1.39,3.008,3.008,0,0,0,1.1.9,3.443,3.443,0,0,0,1.52.32,3.284,3.284,0,0,0,1.61-.37,3.114,3.114,0,0,0,1.09-.99,4.439,4.439,0,0,0,.62-1.4A6.5,6.5,0,0,0,134.68,9.82ZM139.36,15h-1.2V4.64h1.2V6.08a7.621,7.621,0,0,1,1.49-1.24,3.428,3.428,0,0,1,1.85-.48,4.724,4.724,0,0,1,1.78.33,3.037,3.037,0,0,1,1.38,1.15,2.579,2.579,0,0,1,.45,1.15,10.438,10.438,0,0,1,.07,1.23V15h-1.2V8.24a3.086,3.086,0,0,0-.62-2.1,2.633,2.633,0,0,0-2.06-.7,2.923,2.923,0,0,0-1.02.17,3.21,3.21,0,0,0-.83.45,3.014,3.014,0,0,0-.63.64,2.97,2.97,0,0,0-.4.76,3.815,3.815,0,0,0-.22.96q-.04.46-.04,1Zm22.82-7.1a3.484,3.484,0,0,0-1.1-1.81,2.988,2.988,0,0,0-1.98-.65,3.115,3.115,0,0,0-1.58.38,3.2,3.2,0,0,0-1.08,1.01,4.55,4.55,0,0,0-.62,1.42,6.455,6.455,0,0,0-.2,1.59,6.736,6.736,0,0,0,.19,1.6,4.277,4.277,0,0,0,.61,1.4,3.141,3.141,0,0,0,1.08.99,3.226,3.226,0,0,0,1.6.37,3.064,3.064,0,0,0,2.15-.74,3.441,3.441,0,0,0,1.03-2.04h1.28a6.026,6.026,0,0,1-.51,1.57,4.143,4.143,0,0,1-.9,1.22,3.868,3.868,0,0,1-1.31.79,5.61,5.61,0,0,1-3.88-.14,4.036,4.036,0,0,1-1.48-1.15,4.844,4.844,0,0,1-.86-1.73,7.906,7.906,0,0,1-.28-2.14,6.887,6.887,0,0,1,.31-2.07,5.4,5.4,0,0,1,.91-1.75,4.4,4.4,0,0,1,1.49-1.21,4.483,4.483,0,0,1,2.05-.45,4.62,4.62,0,0,1,2.91.86A3.992,3.992,0,0,1,163.4,7.9Zm7.9,7.38a5.393,5.393,0,0,1-1.87-.36,4.188,4.188,0,0,1-1.52-1.02,4.9,4.9,0,0,1-1.03-1.7,6.8,6.8,0,0,1-.38-2.38,7.311,7.311,0,0,1,.3-2.13,5.029,5.029,0,0,1,.9-1.73,4.271,4.271,0,0,1,1.5-1.17,4.821,4.821,0,0,1,2.1-.43,4.871,4.871,0,0,1,2.12.43,4.324,4.324,0,0,1,1.5,1.16,4.788,4.788,0,0,1,.89,1.73,7.65,7.65,0,0,1,.29,2.14,6.931,6.931,0,0,1-.34,2.24,5.043,5.043,0,0,1-.97,1.72,4.271,4.271,0,0,1-1.52,1.11A4.856,4.856,0,0,1,170.08,15.28Zm3.52-5.46a7.076,7.076,0,0,0-.2-1.72,4.075,4.075,0,0,0-.62-1.39,2.978,2.978,0,0,0-1.08-.93,3.508,3.508,0,0,0-1.62-.34,3.284,3.284,0,0,0-1.61.37,3.151,3.151,0,0,0-1.09.98,4.309,4.309,0,0,0-.62,1.4,6.615,6.615,0,0,0-.2,1.63,6.462,6.462,0,0,0,.23,1.77,4.149,4.149,0,0,0,.67,1.39,3.009,3.009,0,0,0,1.1.9,3.443,3.443,0,0,0,1.52.32,3.284,3.284,0,0,0,1.61-.37,3.114,3.114,0,0,0,1.09-.99,4.44,4.44,0,0,0,.62-1.4A6.5,6.5,0,0,0,173.6,9.82ZM178.28,15h-1.2V4.64h1.2V6.08a7.621,7.621,0,0,1,1.49-1.24,3.428,3.428,0,0,1,1.85-.48,4.724,4.724,0,0,1,1.78.33,3.037,3.037,0,0,1,1.38,1.15,2.579,2.579,0,0,1,.45,1.15,10.438,10.438,0,0,1,.07,1.23V15h-1.2V8.24a3.086,3.086,0,0,0-.62-2.1,2.633,2.633,0,0,0-2.06-.7,2.923,2.923,0,0,0-1.02.17,3.21,3.21,0,0,0-.83.45,3.014,3.014,0,0,0-.63.64,2.97,2.97,0,0,0-.4.76,3.815,3.815,0,0,0-.22.96q-.04.46-.04,1Zm13.56.04q-.22.04-.58.14a2.986,2.986,0,0,1-.8.1,1.906,1.906,0,0,1-1.37-.45,2.191,2.191,0,0,1-.47-1.61V5.64h-1.46v-1h1.46V1.76h1.2V4.64h1.94v1h-1.94v7.1q0,.38.02.66a1.107,1.107,0,0,0,.12.46.574.574,0,0,0,.31.26,1.719,1.719,0,0,0,.59.08,3.1,3.1,0,0,0,.49-.04q.25-.04.49-.1Zm2.1-.04V4.64h1.2V15Zm-.06-12.62V.6h1.32V2.38ZM199.4,15h-1.2V4.64h1.2V6.08a7.621,7.621,0,0,1,1.49-1.24,3.428,3.428,0,0,1,1.85-.48,4.724,4.724,0,0,1,1.78.33,3.037,3.037,0,0,1,1.38,1.15,2.579,2.579,0,0,1,.45,1.15,10.438,10.438,0,0,1,.07,1.23V15h-1.2V8.24a3.086,3.086,0,0,0-.62-2.1,2.633,2.633,0,0,0-2.06-.7,2.923,2.923,0,0,0-1.02.17,3.21,3.21,0,0,0-.83.45,3.014,3.014,0,0,0-.63.64,2.97,2.97,0,0,0-.4.76,3.815,3.815,0,0,0-.22.96q-.04.46-.04,1ZM216.34,4.64h1.2V15h-1.2V13.56q-.24.28-.54.58a4.1,4.1,0,0,1-.69.55,3.96,3.96,0,0,1-.91.42,3.862,3.862,0,0,1-1.2.17,4.563,4.563,0,0,1-1.74-.29,2.848,2.848,0,0,1-1.13-.81,3.21,3.21,0,0,1-.62-1.21,5.675,5.675,0,0,1-.19-1.51V4.64h1.2v6.8a3.026,3.026,0,0,0,.62,2.05,2.583,2.583,0,0,0,2.04.71,2.975,2.975,0,0,0,1.33-.29,2.78,2.78,0,0,0,.99-.81,3.864,3.864,0,0,0,.62-1.24,5.388,5.388,0,0,0,.22-1.58ZM220.62,15V4.64h1.2V15Zm-.06-12.62V.6h1.32V2.38ZM226.08,15h-1.2V4.64h1.2V6.08a7.621,7.621,0,0,1,1.49-1.24,3.428,3.428,0,0,1,1.85-.48,4.724,4.724,0,0,1,1.78.33,3.037,3.037,0,0,1,1.38,1.15,2.579,2.579,0,0,1,.45,1.15,10.438,10.438,0,0,1,.07,1.23V15h-1.2V8.24a3.086,3.086,0,0,0-.62-2.1,2.633,2.633,0,0,0-2.06-.7,2.923,2.923,0,0,0-1.02.17,3.21,3.21,0,0,0-.83.45,3.014,3.014,0,0,0-.63.64,2.97,2.97,0,0,0-.4.76,3.815,3.815,0,0,0-.22.96q-.04.46-.04,1ZM244,9.86a6.384,6.384,0,0,0-.23-1.75,4.266,4.266,0,0,0-.67-1.4,3.157,3.157,0,0,0-1.1-.93,3.228,3.228,0,0,0-1.5-.34,3.565,3.565,0,0,0-1.4.27,3.2,3.2,0,0,0-1.12.79,3.687,3.687,0,0,0-.75,1.27,5.1,5.1,0,0,0-.27,1.73,6.764,6.764,0,0,0,.16,1.83,4.368,4.368,0,0,0,.64,1.49,3.193,3.193,0,0,0,1.12,1.01,3.342,3.342,0,0,0,1.62.37,3.051,3.051,0,0,0,1.47-.35,3.39,3.39,0,0,0,1.1-.94,4.324,4.324,0,0,0,.69-1.38A5.714,5.714,0,0,0,244,9.86Zm0-5.22h1.2V14a9.2,9.2,0,0,1-.21,1.99,4.287,4.287,0,0,1-.75,1.67,3.757,3.757,0,0,1-1.48,1.15,6.908,6.908,0,0,1-4.38.14,4.248,4.248,0,0,1-1.34-.73,3.149,3.149,0,0,1-.79-.97,2.433,2.433,0,0,1-.29-.99h1.28a2.369,2.369,0,0,0,.44.95,2.2,2.2,0,0,0,.71.58,3.034,3.034,0,0,0,.91.29,6.576,6.576,0,0,0,1.04.08,3.959,3.959,0,0,0,1.96-.42,2.868,2.868,0,0,0,1.12-1.1,4.223,4.223,0,0,0,.49-1.54,11.79,11.79,0,0,0,.09-1.76,3.714,3.714,0,0,1-1.59,1.45,4.776,4.776,0,0,1-2.11.49,4.406,4.406,0,0,1-2.05-.45,4.21,4.21,0,0,1-1.44-1.2,5.157,5.157,0,0,1-.85-1.75,7.678,7.678,0,0,1-.28-2.08,8.479,8.479,0,0,1,.26-2.14,4.691,4.691,0,0,1,.83-1.73,3.986,3.986,0,0,1,1.45-1.15,4.939,4.939,0,0,1,2.14-.42,3.913,3.913,0,0,1,1.02.14,4.827,4.827,0,0,1,1.01.4,3.907,3.907,0,0,1,.9.66,3.519,3.519,0,0,1,.67.9H244ZM261.12,7.9a3.484,3.484,0,0,0-1.1-1.81,2.988,2.988,0,0,0-1.98-.65,3.115,3.115,0,0,0-1.58.38,3.2,3.2,0,0,0-1.08,1.01,4.55,4.55,0,0,0-.62,1.42,6.455,6.455,0,0,0-.2,1.59,6.736,6.736,0,0,0,.19,1.6,4.277,4.277,0,0,0,.61,1.4,3.141,3.141,0,0,0,1.08.99,3.226,3.226,0,0,0,1.6.37,3.064,3.064,0,0,0,2.15-.74,3.441,3.441,0,0,0,1.03-2.04h1.28a6.025,6.025,0,0,1-.51,1.57,4.143,4.143,0,0,1-.9,1.22,3.868,3.868,0,0,1-1.31.79,5.61,5.61,0,0,1-3.88-.14,4.036,4.036,0,0,1-1.48-1.15,4.844,4.844,0,0,1-.86-1.73,7.906,7.906,0,0,1-.28-2.14,6.887,6.887,0,0,1,.31-2.07,5.4,5.4,0,0,1,.91-1.75,4.4,4.4,0,0,1,1.49-1.21,4.483,4.483,0,0,1,2.05-.45,4.62,4.62,0,0,1,2.91.86,3.992,3.992,0,0,1,1.39,2.68Zm3.96,7.1V.6h1.2V15Zm4.44,0V4.64h1.2V15Zm-.06-12.62V.6h1.32V2.38ZM274.98,15h-1.2V4.64h1.2V6.08a7.621,7.621,0,0,1,1.49-1.24,3.428,3.428,0,0,1,1.85-.48,4.724,4.724,0,0,1,1.78.33,3.037,3.037,0,0,1,1.38,1.15,2.579,2.579,0,0,1,.45,1.15A10.441,10.441,0,0,1,282,8.22V15h-1.2V8.24a3.086,3.086,0,0,0-.62-2.1,2.633,2.633,0,0,0-2.06-.7,2.923,2.923,0,0,0-1.02.17,3.21,3.21,0,0,0-.83.45,3.014,3.014,0,0,0-.63.64,2.971,2.971,0,0,0-.4.76,3.815,3.815,0,0,0-.22.96q-.04.46-.04,1Zm10.1,0V4.64h1.2V15Zm-.06-12.62V.6h1.32V2.38ZM296.68,7.9a3.484,3.484,0,0,0-1.1-1.81,2.988,2.988,0,0,0-1.98-.65,3.115,3.115,0,0,0-1.58.38,3.2,3.2,0,0,0-1.08,1.01,4.55,4.55,0,0,0-.62,1.42,6.455,6.455,0,0,0-.2,1.59,6.735,6.735,0,0,0,.19,1.6,4.277,4.277,0,0,0,.61,1.4,3.141,3.141,0,0,0,1.08.99,3.226,3.226,0,0,0,1.6.37,3.064,3.064,0,0,0,2.15-.74,3.441,3.441,0,0,0,1.03-2.04h1.28a6.025,6.025,0,0,1-.51,1.57,4.143,4.143,0,0,1-.9,1.22,3.868,3.868,0,0,1-1.31.79,5.61,5.61,0,0,1-3.88-.14,4.036,4.036,0,0,1-1.48-1.15,4.845,4.845,0,0,1-.86-1.73,7.906,7.906,0,0,1-.28-2.14,6.887,6.887,0,0,1,.31-2.07,5.4,5.4,0,0,1,.91-1.75,4.4,4.4,0,0,1,1.49-1.21,4.483,4.483,0,0,1,2.05-.45,4.62,4.62,0,0,1,2.91.86A3.992,3.992,0,0,1,297.9,7.9Zm10.56,1.66a5.884,5.884,0,0,1-1.54.42q-.78.1-1.56.16a4.4,4.4,0,0,0-2.15.62,1.777,1.777,0,0,0-.77,1.58,1.715,1.715,0,0,0,.19.83,1.753,1.753,0,0,0,.5.58,2.114,2.114,0,0,0,.72.34,3.19,3.19,0,0,0,.83.11,5.448,5.448,0,0,0,1.4-.18,3.786,3.786,0,0,0,1.21-.55,2.806,2.806,0,0,0,.85-.94,2.714,2.714,0,0,0,.32-1.35Zm-2.02-.6q.34-.04.81-.12a3.059,3.059,0,0,0,.77-.22.637.637,0,0,0,.37-.47,2.954,2.954,0,0,0,.07-.61,2.045,2.045,0,0,0-.59-1.51,2.752,2.752,0,0,0-1.99-.59,5.513,5.513,0,0,0-1.14.11,2.482,2.482,0,0,0-.91.38,2.1,2.1,0,0,0-.64.72,3.056,3.056,0,0,0-.33,1.13h-1.22a3.706,3.706,0,0,1,.42-1.57,3.184,3.184,0,0,1,.93-1.06,3.858,3.858,0,0,1,1.32-.6,6.454,6.454,0,0,1,1.59-.19,6.129,6.129,0,0,1,1.47.17,3.408,3.408,0,0,1,1.2.54,2.508,2.508,0,0,1,.8.99,3.574,3.574,0,0,1,.29,1.52v5.64q0,.7.25.89t1.01-.09v.94l-.41.12a1.86,1.86,0,0,1-.53.08,2.394,2.394,0,0,1-.54-.06.924.924,0,0,1-.48-.19,1.171,1.171,0,0,1-.29-.36,1.492,1.492,0,0,1-.15-.46,3.354,3.354,0,0,1-.04-.53,5.21,5.21,0,0,1-1.74,1.28,5.116,5.116,0,0,1-2.12.44,4.745,4.745,0,0,1-1.31-.18,3.17,3.17,0,0,1-1.11-.56,2.781,2.781,0,0,1-.76-.93,2.855,2.855,0,0,1-.28-1.31q0-2.64,3.62-3.12ZM311.76,15V.6h1.2V15Zm13.46.04q-.22.04-.58.14a2.986,2.986,0,0,1-.8.1,1.906,1.906,0,0,1-1.37-.45,2.191,2.191,0,0,1-.47-1.61V5.64h-1.46v-1H322V1.76h1.2V4.64h1.94v1H323.2v7.1q0,.38.02.66a1.106,1.106,0,0,0,.12.46.574.574,0,0,0,.31.26,1.718,1.718,0,0,0,.59.08,3.1,3.1,0,0,0,.49-.04q.25-.04.49-.1ZM328.4,15h-1.2V4.64h1.2V6.58h.04a3.473,3.473,0,0,1,1.29-1.73,3.927,3.927,0,0,1,2.09-.49v1.3a3.5,3.5,0,0,0-1.68.32,2.762,2.762,0,0,0-1.05.92,3.643,3.643,0,0,0-.54,1.37,8.83,8.83,0,0,0-.15,1.65Zm5.58,0V4.64h1.2V15Zm-.06-12.62V.6h1.32V2.38Zm11.1,7.18a5.884,5.884,0,0,1-1.54.42q-.78.1-1.56.16a4.4,4.4,0,0,0-2.15.62,1.777,1.777,0,0,0-.77,1.58,1.715,1.715,0,0,0,.19.83,1.753,1.753,0,0,0,.5.58,2.114,2.114,0,0,0,.72.34,3.19,3.19,0,0,0,.83.11,5.448,5.448,0,0,0,1.4-.18,3.786,3.786,0,0,0,1.21-.55,2.806,2.806,0,0,0,.85-.94,2.714,2.714,0,0,0,.32-1.35ZM343,8.96q.34-.04.81-.12a3.059,3.059,0,0,0,.77-.22.637.637,0,0,0,.37-.47,2.954,2.954,0,0,0,.07-.61,2.045,2.045,0,0,0-.59-1.51,2.752,2.752,0,0,0-1.99-.59,5.513,5.513,0,0,0-1.14.11,2.482,2.482,0,0,0-.91.38,2.1,2.1,0,0,0-.64.72,3.056,3.056,0,0,0-.33,1.13H338.2a3.706,3.706,0,0,1,.42-1.57,3.184,3.184,0,0,1,.93-1.06,3.858,3.858,0,0,1,1.32-.6,6.454,6.454,0,0,1,1.59-.19,6.129,6.129,0,0,1,1.47.17,3.408,3.408,0,0,1,1.2.54,2.508,2.508,0,0,1,.8.99,3.574,3.574,0,0,1,.29,1.52v5.64q0,.7.25.89t1.01-.09v.94l-.41.12a1.86,1.86,0,0,1-.53.08,2.394,2.394,0,0,1-.54-.06.924.924,0,0,1-.48-.19,1.171,1.171,0,0,1-.29-.36,1.492,1.492,0,0,1-.15-.46,3.354,3.354,0,0,1-.04-.53,5.21,5.21,0,0,1-1.74,1.28,5.116,5.116,0,0,1-2.12.44,4.745,4.745,0,0,1-1.31-.18,3.17,3.17,0,0,1-1.11-.56,2.781,2.781,0,0,1-.76-.93,2.855,2.855,0,0,1-.28-1.31q0-2.64,3.62-3.12ZM349.54,15V.6h1.2V15ZM2.78,45.86a5.715,5.715,0,0,0,.24,1.67,4.324,4.324,0,0,0,.69,1.38,3.39,3.39,0,0,0,1.1.94,3.051,3.051,0,0,0,1.47.35,3.357,3.357,0,0,0,1.61-.37,3.168,3.168,0,0,0,1.13-1.01,4.368,4.368,0,0,0,.64-1.49,6.763,6.763,0,0,0,.16-1.83,5.1,5.1,0,0,0-.27-1.73A3.687,3.687,0,0,0,8.8,42.5a3.2,3.2,0,0,0-1.12-.79,3.565,3.565,0,0,0-1.4-.27,3.228,3.228,0,0,0-1.5.34,3.158,3.158,0,0,0-1.1.93,4.266,4.266,0,0,0-.67,1.4A6.384,6.384,0,0,0,2.78,45.86Zm0,9.22H1.58V40.64h1.2v1.82h.04a3.519,3.519,0,0,1,.67-.9,3.907,3.907,0,0,1,.9-.66,4.827,4.827,0,0,1,1.01-.4,3.913,3.913,0,0,1,1.02-.14,4.939,4.939,0,0,1,2.14.42,3.986,3.986,0,0,1,1.45,1.15,4.691,4.691,0,0,1,.83,1.73,8.479,8.479,0,0,1,.26,2.14,7.678,7.678,0,0,1-.28,2.08,5.157,5.157,0,0,1-.85,1.75,4.21,4.21,0,0,1-1.44,1.2,4.406,4.406,0,0,1-2.05.45,4.776,4.776,0,0,1-2.11-.49,3.714,3.714,0,0,1-1.59-1.45ZM14.92,51h-1.2V40.64h1.2v1.94h.04a3.473,3.473,0,0,1,1.29-1.73,3.927,3.927,0,0,1,2.09-.49v1.3a3.5,3.5,0,0,0-1.68.32,2.763,2.763,0,0,0-1.05.92,3.644,3.644,0,0,0-.54,1.37,8.831,8.831,0,0,0-.15,1.65Zm9.16.28a5.393,5.393,0,0,1-1.87-.36,4.188,4.188,0,0,1-1.52-1.02,4.9,4.9,0,0,1-1.03-1.7,6.8,6.8,0,0,1-.38-2.38,7.311,7.311,0,0,1,.3-2.13,5.029,5.029,0,0,1,.9-1.73,4.271,4.271,0,0,1,1.5-1.17,4.821,4.821,0,0,1,2.1-.43,4.871,4.871,0,0,1,2.12.43,4.324,4.324,0,0,1,1.5,1.16,4.788,4.788,0,0,1,.89,1.73,7.65,7.65,0,0,1,.29,2.14,6.931,6.931,0,0,1-.34,2.24,5.043,5.043,0,0,1-.97,1.72,4.271,4.271,0,0,1-1.52,1.11A4.856,4.856,0,0,1,24.08,51.28Zm3.52-5.46a7.076,7.076,0,0,0-.2-1.72,4.075,4.075,0,0,0-.62-1.39,2.978,2.978,0,0,0-1.08-.93,3.508,3.508,0,0,0-1.62-.34,3.284,3.284,0,0,0-1.61.37,3.151,3.151,0,0,0-1.09.98,4.309,4.309,0,0,0-.62,1.4,6.616,6.616,0,0,0-.2,1.63,6.462,6.462,0,0,0,.23,1.77,4.149,4.149,0,0,0,.67,1.39,3.008,3.008,0,0,0,1.1.9,3.443,3.443,0,0,0,1.52.32,3.284,3.284,0,0,0,1.61-.37,3.114,3.114,0,0,0,1.09-.99,4.439,4.439,0,0,0,.62-1.4A6.5,6.5,0,0,0,27.6,45.82Zm11.48.04a6.384,6.384,0,0,0-.23-1.75,4.266,4.266,0,0,0-.67-1.4,3.158,3.158,0,0,0-1.1-.93,3.228,3.228,0,0,0-1.5-.34,3.565,3.565,0,0,0-1.4.27,3.2,3.2,0,0,0-1.12.79,3.687,3.687,0,0,0-.75,1.27,5.1,5.1,0,0,0-.27,1.73,6.763,6.763,0,0,0,.16,1.83,4.368,4.368,0,0,0,.64,1.49,3.193,3.193,0,0,0,1.12,1.01,3.342,3.342,0,0,0,1.62.37,3.051,3.051,0,0,0,1.47-.35,3.39,3.39,0,0,0,1.1-.94,4.324,4.324,0,0,0,.69-1.38A5.715,5.715,0,0,0,39.08,45.86Zm0-5.22h1.2V50a9.2,9.2,0,0,1-.21,1.99,4.287,4.287,0,0,1-.75,1.67,3.757,3.757,0,0,1-1.48,1.15,6.908,6.908,0,0,1-4.38.14,4.248,4.248,0,0,1-1.34-.73,3.149,3.149,0,0,1-.79-.97,2.433,2.433,0,0,1-.29-.99h1.28a2.369,2.369,0,0,0,.44.95,2.2,2.2,0,0,0,.71.58,3.034,3.034,0,0,0,.91.29,6.576,6.576,0,0,0,1.04.08,3.959,3.959,0,0,0,1.96-.42,2.868,2.868,0,0,0,1.12-1.1,4.223,4.223,0,0,0,.49-1.54,11.791,11.791,0,0,0,.09-1.76,3.714,3.714,0,0,1-1.59,1.45,4.776,4.776,0,0,1-2.11.49,4.406,4.406,0,0,1-2.05-.45,4.21,4.21,0,0,1-1.44-1.2,5.157,5.157,0,0,1-.85-1.75,7.678,7.678,0,0,1-.28-2.08,8.479,8.479,0,0,1,.26-2.14,4.691,4.691,0,0,1,.83-1.73,3.986,3.986,0,0,1,1.45-1.15,4.939,4.939,0,0,1,2.14-.42,3.913,3.913,0,0,1,1.02.14,4.827,4.827,0,0,1,1.01.4,3.907,3.907,0,0,1,.9.66,3.519,3.519,0,0,1,.67.9h.04ZM44.56,51h-1.2V40.64h1.2v1.94h.04a3.473,3.473,0,0,1,1.29-1.73,3.927,3.927,0,0,1,2.09-.49v1.3a3.5,3.5,0,0,0-1.68.32,2.763,2.763,0,0,0-1.05.92,3.644,3.644,0,0,0-.54,1.37,8.831,8.831,0,0,0-.15,1.65ZM57.1,45.1a4.755,4.755,0,0,0-.21-1.43,3.342,3.342,0,0,0-.62-1.16,2.951,2.951,0,0,0-1.03-.78,3.315,3.315,0,0,0-1.42-.29,3.157,3.157,0,0,0-1.41.3,3.242,3.242,0,0,0-1.04.8,4.024,4.024,0,0,0-.69,1.16,5.378,5.378,0,0,0-.34,1.4Zm-6.76,1a5.622,5.622,0,0,0,.22,1.59,3.841,3.841,0,0,0,.65,1.3,3.147,3.147,0,0,0,1.09.88,3.355,3.355,0,0,0,1.52.33,3.307,3.307,0,0,0,2.02-.62,2.986,2.986,0,0,0,1.12-1.76H58.3a6.461,6.461,0,0,1-.58,1.37,4.227,4.227,0,0,1-.9,1.1,3.89,3.89,0,0,1-1.28.73,5.185,5.185,0,0,1-1.72.26,5.022,5.022,0,0,1-2.14-.42,4.036,4.036,0,0,1-1.48-1.15,4.852,4.852,0,0,1-.86-1.72,7.8,7.8,0,0,1-.28-2.13,6.787,6.787,0,0,1,.33-2.14,5.449,5.449,0,0,1,.94-1.75,4.368,4.368,0,0,1,1.49-1.18,4.5,4.5,0,0,1,2-.43,4.131,4.131,0,0,1,3.36,1.47,6.458,6.458,0,0,1,1.2,4.27Zm11.08,1.66a3.045,3.045,0,0,0,1.01,1.89,3.422,3.422,0,0,0,2.09.55,3.618,3.618,0,0,0,1.14-.16,2.29,2.29,0,0,0,.79-.43,1.855,1.855,0,0,0,.47-.61,1.67,1.67,0,0,0,.16-.72,1.325,1.325,0,0,0-.49-1.13,3.7,3.7,0,0,0-1.23-.58,15.84,15.84,0,0,0-1.6-.36,7.827,7.827,0,0,1-1.6-.45,3.2,3.2,0,0,1-1.23-.86,2.323,2.323,0,0,1-.49-1.58,2.7,2.7,0,0,1,.95-2.13,3.961,3.961,0,0,1,2.69-.83,4.591,4.591,0,0,1,2.73.75,3.43,3.43,0,0,1,1.27,2.51H66.86a2.243,2.243,0,0,0-.91-1.69,3.389,3.389,0,0,0-1.89-.49,2.692,2.692,0,0,0-1.74.49,1.584,1.584,0,0,0-.6,1.29,1.259,1.259,0,0,0,.49,1.07,3.993,3.993,0,0,0,1.23.6q.74.23,1.6.41a7.881,7.881,0,0,1,1.6.51,3.5,3.5,0,0,1,1.23.89,2.291,2.291,0,0,1,.49,1.56,2.63,2.63,0,0,1-.32,1.31,2.785,2.785,0,0,1-.88.95,4.093,4.093,0,0,1-1.33.57,7.05,7.05,0,0,1-1.69.19,4.566,4.566,0,0,1-1.63-.27,3.539,3.539,0,0,1-1.21-.75,3.459,3.459,0,0,1-.78-1.12,3.945,3.945,0,0,1-.32-1.38Zm10,0a3.045,3.045,0,0,0,1.01,1.89,3.422,3.422,0,0,0,2.09.55,3.618,3.618,0,0,0,1.14-.16,2.29,2.29,0,0,0,.79-.43,1.855,1.855,0,0,0,.47-.61,1.67,1.67,0,0,0,.16-.72,1.325,1.325,0,0,0-.49-1.13,3.7,3.7,0,0,0-1.23-.58,15.84,15.84,0,0,0-1.6-.36,7.827,7.827,0,0,1-1.6-.45,3.2,3.2,0,0,1-1.23-.86,2.323,2.323,0,0,1-.49-1.58,2.7,2.7,0,0,1,.95-2.13,3.961,3.961,0,0,1,2.69-.83,4.591,4.591,0,0,1,2.73.75,3.43,3.43,0,0,1,1.27,2.51H76.86a2.243,2.243,0,0,0-.91-1.69,3.389,3.389,0,0,0-1.89-.49,2.692,2.692,0,0,0-1.74.49,1.584,1.584,0,0,0-.6,1.29,1.259,1.259,0,0,0,.49,1.07,3.993,3.993,0,0,0,1.23.6q.74.23,1.6.41a7.881,7.881,0,0,1,1.6.51,3.5,3.5,0,0,1,1.23.89,2.291,2.291,0,0,1,.49,1.56,2.63,2.63,0,0,1-.32,1.31,2.785,2.785,0,0,1-.88.95,4.093,4.093,0,0,1-1.33.57,7.05,7.05,0,0,1-1.69.19,4.566,4.566,0,0,1-1.63-.27,3.539,3.539,0,0,1-1.21-.75,3.459,3.459,0,0,1-.78-1.12,3.945,3.945,0,0,1-.32-1.38ZM82.78,51.6a2.243,2.243,0,0,1-.41,1.41,2.083,2.083,0,0,1-1.05.73V53a2.022,2.022,0,0,0,.46-.44,1.423,1.423,0,0,0,.22-.88V51h-.68V49.24h1.46Zm15.84-6.04a5.883,5.883,0,0,1-1.54.42q-.78.1-1.56.16a4.4,4.4,0,0,0-2.15.62,1.777,1.777,0,0,0-.77,1.58,1.715,1.715,0,0,0,.19.83,1.754,1.754,0,0,0,.5.58,2.114,2.114,0,0,0,.72.34,3.19,3.19,0,0,0,.83.11,5.448,5.448,0,0,0,1.4-.18,3.786,3.786,0,0,0,1.21-.55,2.806,2.806,0,0,0,.85-.94,2.714,2.714,0,0,0,.32-1.35Zm-2.02-.6q.34-.04.81-.12a3.059,3.059,0,0,0,.77-.22.637.637,0,0,0,.37-.47,2.954,2.954,0,0,0,.07-.61,2.045,2.045,0,0,0-.59-1.51,2.752,2.752,0,0,0-1.99-.59,5.514,5.514,0,0,0-1.14.11,2.482,2.482,0,0,0-.91.38,2.1,2.1,0,0,0-.64.72,3.056,3.056,0,0,0-.33,1.13H91.8a3.706,3.706,0,0,1,.42-1.57,3.184,3.184,0,0,1,.93-1.06,3.858,3.858,0,0,1,1.32-.6,6.454,6.454,0,0,1,1.59-.19,6.129,6.129,0,0,1,1.47.17,3.408,3.408,0,0,1,1.2.54,2.508,2.508,0,0,1,.8.99,3.574,3.574,0,0,1,.29,1.52v5.64q0,.7.25.89t1.01-.09v.94l-.41.12a1.86,1.86,0,0,1-.53.08,2.394,2.394,0,0,1-.54-.06.924.924,0,0,1-.48-.19,1.171,1.171,0,0,1-.29-.36,1.492,1.492,0,0,1-.15-.46,3.355,3.355,0,0,1-.04-.53,5.21,5.21,0,0,1-1.74,1.28,5.116,5.116,0,0,1-2.12.44,4.745,4.745,0,0,1-1.31-.18,3.17,3.17,0,0,1-1.11-.56,2.781,2.781,0,0,1-.76-.93,2.856,2.856,0,0,1-.28-1.31q0-2.64,3.62-3.12Zm5.26-4.32h1.3l3.36,8.88,3.36-8.88h1.3L107.16,51h-1.34Zm17.88,4.92a5.883,5.883,0,0,1-1.54.42q-.78.1-1.56.16a4.4,4.4,0,0,0-2.15.62,1.777,1.777,0,0,0-.77,1.58,1.715,1.715,0,0,0,.19.83,1.754,1.754,0,0,0,.5.58,2.114,2.114,0,0,0,.72.34,3.19,3.19,0,0,0,.83.11,5.448,5.448,0,0,0,1.4-.18,3.786,3.786,0,0,0,1.21-.55,2.806,2.806,0,0,0,.85-.94,2.714,2.714,0,0,0,.32-1.35Zm-2.02-.6q.34-.04.81-.12a3.059,3.059,0,0,0,.77-.22.637.637,0,0,0,.37-.47,2.954,2.954,0,0,0,.07-.61,2.045,2.045,0,0,0-.59-1.51,2.752,2.752,0,0,0-1.99-.59,5.514,5.514,0,0,0-1.14.11,2.482,2.482,0,0,0-.91.38,2.1,2.1,0,0,0-.64.72,3.056,3.056,0,0,0-.33,1.13h-1.22a3.706,3.706,0,0,1,.42-1.57,3.184,3.184,0,0,1,.93-1.06,3.858,3.858,0,0,1,1.32-.6,6.454,6.454,0,0,1,1.59-.19,6.129,6.129,0,0,1,1.47.17,3.408,3.408,0,0,1,1.2.54,2.508,2.508,0,0,1,.8.99,3.574,3.574,0,0,1,.29,1.52v5.64q0,.7.25.89t1.01-.09v.94l-.41.12a1.86,1.86,0,0,1-.53.08,2.394,2.394,0,0,1-.54-.06.924.924,0,0,1-.48-.19,1.171,1.171,0,0,1-.29-.36,1.492,1.492,0,0,1-.15-.46,3.355,3.355,0,0,1-.04-.53,5.21,5.21,0,0,1-1.74,1.28,5.116,5.116,0,0,1-2.12.44,4.745,4.745,0,0,1-1.31-.18,3.17,3.17,0,0,1-1.11-.56,2.781,2.781,0,0,1-.76-.93,2.856,2.856,0,0,1-.28-1.31q0-2.64,3.62-3.12ZM124.26,51V40.64h1.2V51Zm-.06-12.62V36.6h1.32v1.78ZM128.7,51V36.6h1.2V51Zm11.04-5.44a5.883,5.883,0,0,1-1.54.42q-.78.1-1.56.16a4.4,4.4,0,0,0-2.15.62,1.777,1.777,0,0,0-.77,1.58,1.715,1.715,0,0,0,.19.83,1.753,1.753,0,0,0,.5.58,2.114,2.114,0,0,0,.72.34,3.19,3.19,0,0,0,.83.11,5.448,5.448,0,0,0,1.4-.18,3.786,3.786,0,0,0,1.21-.55,2.806,2.806,0,0,0,.85-.94,2.714,2.714,0,0,0,.32-1.35Zm-2.02-.6q.34-.04.81-.12a3.059,3.059,0,0,0,.77-.22.637.637,0,0,0,.37-.47,2.953,2.953,0,0,0,.07-.61,2.045,2.045,0,0,0-.59-1.51,2.752,2.752,0,0,0-1.99-.59,5.514,5.514,0,0,0-1.14.11,2.482,2.482,0,0,0-.91.38,2.1,2.1,0,0,0-.64.72,3.056,3.056,0,0,0-.33,1.13h-1.22a3.706,3.706,0,0,1,.42-1.57,3.184,3.184,0,0,1,.93-1.06,3.858,3.858,0,0,1,1.32-.6,6.454,6.454,0,0,1,1.59-.19,6.129,6.129,0,0,1,1.47.17,3.407,3.407,0,0,1,1.2.54,2.508,2.508,0,0,1,.8.99,3.574,3.574,0,0,1,.29,1.52v5.64q0,.7.25.89t1.01-.09v.94l-.41.12a1.86,1.86,0,0,1-.53.08,2.394,2.394,0,0,1-.54-.06.924.924,0,0,1-.48-.19,1.171,1.171,0,0,1-.29-.36,1.491,1.491,0,0,1-.15-.46,3.356,3.356,0,0,1-.04-.53,5.211,5.211,0,0,1-1.74,1.28,5.116,5.116,0,0,1-2.12.44,4.745,4.745,0,0,1-1.31-.18,3.17,3.17,0,0,1-1.11-.56,2.781,2.781,0,0,1-.76-.93,2.856,2.856,0,0,1-.28-1.31q0-2.64,3.62-3.12Zm7.7.82a6.384,6.384,0,0,0,.23,1.75,4.266,4.266,0,0,0,.67,1.4,3.158,3.158,0,0,0,1.1.93,3.228,3.228,0,0,0,1.5.34,3.565,3.565,0,0,0,1.4-.27,3.2,3.2,0,0,0,1.12-.79,3.687,3.687,0,0,0,.75-1.27,5.1,5.1,0,0,0,.27-1.73,6.763,6.763,0,0,0-.16-1.83,4.368,4.368,0,0,0-.64-1.49,3.168,3.168,0,0,0-1.13-1.01,3.357,3.357,0,0,0-1.61-.37,3.051,3.051,0,0,0-1.47.35,3.39,3.39,0,0,0-1.1.94,4.324,4.324,0,0,0-.69,1.38A5.714,5.714,0,0,0,145.42,45.78Zm0,5.22h-1.2V36.6h1.2v5.7a3.714,3.714,0,0,1,1.59-1.45,4.776,4.776,0,0,1,2.11-.49,4.406,4.406,0,0,1,2.05.45,4.21,4.21,0,0,1,1.44,1.2,5.157,5.157,0,0,1,.85,1.75,7.678,7.678,0,0,1,.28,2.08,8.479,8.479,0,0,1-.26,2.14,4.691,4.691,0,0,1-.83,1.73,3.986,3.986,0,0,1-1.45,1.15,4.939,4.939,0,0,1-2.14.42,3.913,3.913,0,0,1-1.02-.14,4.828,4.828,0,0,1-1.01-.4,4.067,4.067,0,0,1-.9-.65,3.251,3.251,0,0,1-.67-.91h-.04Zm11.06,0V40.64h1.2V51Zm-.06-12.62V36.6h1.32v1.78ZM160.92,51V36.6h1.2V51Zm4.44,0V40.64h1.2V51Zm-.06-12.62V36.6h1.32v1.78Zm7.96,12.66q-.22.04-.58.14a2.986,2.986,0,0,1-.8.1,1.906,1.906,0,0,1-1.37-.45,2.191,2.191,0,0,1-.47-1.61V41.64h-1.46v-1h1.46V37.76h1.2v2.88h1.94v1h-1.94v7.1q0,.38.02.66a1.107,1.107,0,0,0,.12.46.574.574,0,0,0,.31.26,1.719,1.719,0,0,0,.59.08,3.1,3.1,0,0,0,.49-.04q.25-.04.49-.1Zm1.84,2.78.49.08a3.223,3.223,0,0,0,.51.04,1.11,1.11,0,0,0,.82-.32,2.678,2.678,0,0,0,.53-.77,6.333,6.333,0,0,0,.35-.94,4.324,4.324,0,0,1,.32-.83L174.1,40.64h1.34l3.32,8.9,3.32-8.9h1.3l-3.86,10.22q-.36.98-.69,1.76a7.914,7.914,0,0,1-.7,1.33,2.905,2.905,0,0,1-.82.84,1.932,1.932,0,0,1-1.07.29,4.465,4.465,0,0,1-.61-.04,5.024,5.024,0,0,1-.53-.1ZM190.92,51V40.64h1.2V51Zm-.06-12.62V36.6h1.32v1.78ZM196.38,51h-1.2V40.64h1.2v1.44a7.621,7.621,0,0,1,1.49-1.24,3.428,3.428,0,0,1,1.85-.48,4.724,4.724,0,0,1,1.78.33,3.037,3.037,0,0,1,1.38,1.15,2.579,2.579,0,0,1,.45,1.15,10.438,10.438,0,0,1,.07,1.23V51h-1.2V44.24a3.086,3.086,0,0,0-.62-2.1,2.633,2.633,0,0,0-2.06-.7,2.923,2.923,0,0,0-1.02.17,3.21,3.21,0,0,0-.83.45,3.014,3.014,0,0,0-.63.64,2.97,2.97,0,0,0-.4.76,3.815,3.815,0,0,0-.22.96q-.04.46-.04,1Zm19.12.04q-.22.04-.58.14a2.986,2.986,0,0,1-.8.1,1.906,1.906,0,0,1-1.37-.45,2.191,2.191,0,0,1-.47-1.61V41.64h-1.46v-1h1.46V37.76h1.2v2.88h1.94v1h-1.94v7.1q0,.38.02.66a1.107,1.107,0,0,0,.12.46.574.574,0,0,0,.31.26,1.719,1.719,0,0,0,.59.08,3.1,3.1,0,0,0,.49-.04q.25-.04.49-.1Zm1.92-.04V36.6h1.2v5.48a7.621,7.621,0,0,1,1.49-1.24,3.428,3.428,0,0,1,1.85-.48,4.724,4.724,0,0,1,1.78.33,3.037,3.037,0,0,1,1.38,1.15,2.579,2.579,0,0,1,.45,1.15,10.438,10.438,0,0,1,.07,1.23V51h-1.2V44.24a3.086,3.086,0,0,0-.62-2.1,2.633,2.633,0,0,0-2.06-.7,2.923,2.923,0,0,0-1.02.17,3.21,3.21,0,0,0-.83.45,3.014,3.014,0,0,0-.63.64,2.97,2.97,0,0,0-.4.76,3.815,3.815,0,0,0-.22.96q-.04.46-.04,1V51Zm18.62-5.9a4.755,4.755,0,0,0-.21-1.43,3.342,3.342,0,0,0-.62-1.16,2.951,2.951,0,0,0-1.03-.78,3.315,3.315,0,0,0-1.42-.29,3.157,3.157,0,0,0-1.41.3,3.242,3.242,0,0,0-1.04.8,4.024,4.024,0,0,0-.69,1.16,5.378,5.378,0,0,0-.34,1.4Zm-6.76,1a5.622,5.622,0,0,0,.22,1.59,3.841,3.841,0,0,0,.65,1.3,3.147,3.147,0,0,0,1.09.88,3.355,3.355,0,0,0,1.52.33,3.307,3.307,0,0,0,2.02-.62,2.986,2.986,0,0,0,1.12-1.76h1.34a6.461,6.461,0,0,1-.58,1.37,4.227,4.227,0,0,1-.9,1.1,3.89,3.89,0,0,1-1.28.73,5.185,5.185,0,0,1-1.72.26,5.022,5.022,0,0,1-2.14-.42,4.036,4.036,0,0,1-1.48-1.15,4.853,4.853,0,0,1-.86-1.72,7.8,7.8,0,0,1-.28-2.13,6.787,6.787,0,0,1,.33-2.14,5.449,5.449,0,0,1,.94-1.75,4.368,4.368,0,0,1,1.49-1.18,4.5,4.5,0,0,1,2-.43,4.131,4.131,0,0,1,3.36,1.47,6.458,6.458,0,0,1,1.2,4.27ZM245.4,51V36.6h9.58v1.16h-8.22v5.2h7.42v1.16h-7.42v5.72h8.42V51Zm12.24-14.4H259v8.58a5.956,5.956,0,0,0,1,3.86,4,4,0,0,0,3.22,1.18,5.529,5.529,0,0,0,1.97-.31,3,3,0,0,0,1.31-.94,3.926,3.926,0,0,0,.72-1.57,9.839,9.839,0,0,0,.22-2.22V36.6h1.36v8.98a6.092,6.092,0,0,1-1.39,4.31,5.463,5.463,0,0,1-4.19,1.49,5.4,5.4,0,0,1-4.2-1.52,6.142,6.142,0,0,1-1.38-4.28Zm23.34,6.9a5.992,5.992,0,0,0-1.11.67,4.733,4.733,0,0,0-.88.87,4.291,4.291,0,0,0-.59,1.03,3.017,3.017,0,0,0-.22,1.13,3.181,3.181,0,0,0,.25,1.29,2.894,2.894,0,0,0,.68.97,3.036,3.036,0,0,0,1.02.62,3.665,3.665,0,0,0,1.29.22,3.929,3.929,0,0,0,2.05-.53,6.311,6.311,0,0,0,1.61-1.39Zm2.58-3.3a1.806,1.806,0,0,0-.11-1.67,1.8,1.8,0,0,0-1.59-.85,2.147,2.147,0,0,0-.72.12,2.023,2.023,0,0,0-.61.34,1.625,1.625,0,0,0-.43.54,1.588,1.588,0,0,0-.16.72,1.818,1.818,0,0,0,.16.7,4.919,4.919,0,0,0,.39.74q.23.36.49.69t.46.57q.6-.36,1.21-.79A2.636,2.636,0,0,0,283.56,40.2Zm2.2,7.08a3.748,3.748,0,0,0,.49-1.35,9.457,9.457,0,0,0,.11-1.45h1.18a11.4,11.4,0,0,1-.25,1.95,5.457,5.457,0,0,1-.75,1.81L288.88,51h-1.62l-1.4-1.7a5.7,5.7,0,0,1-2.02,1.6,6.158,6.158,0,0,1-2.52.48,4.936,4.936,0,0,1-1.76-.31,4.38,4.38,0,0,1-1.43-.87,4.017,4.017,0,0,1-.96-1.35,4.273,4.273,0,0,1-.35-1.75,3.849,3.849,0,0,1,.28-1.48,4.7,4.7,0,0,1,.75-1.24,5.525,5.525,0,0,1,1.09-.99,8.543,8.543,0,0,1,1.32-.75,11.3,11.3,0,0,1-1.06-1.47,3.3,3.3,0,0,1-.48-1.75,2.713,2.713,0,0,1,.26-1.21,2.63,2.63,0,0,1,.7-.89,2.979,2.979,0,0,1,1.03-.54,4.261,4.261,0,0,1,1.25-.18,3.308,3.308,0,0,1,1.22.22,2.933,2.933,0,0,1,.96.6,2.7,2.7,0,0,1,.84,1.96,3.122,3.122,0,0,1-.23,1.25,3.2,3.2,0,0,1-.62.94,5.1,5.1,0,0,1-.91.75q-.52.34-1.08.68Zm20.98-6.5a4.12,4.12,0,0,0-1.56-2.62,5.179,5.179,0,0,0-2.98-.78,4.379,4.379,0,0,0-3.79,1.92,6.179,6.179,0,0,0-.9,2.03,9.906,9.906,0,0,0-.29,2.43,11.171,11.171,0,0,0,.25,2.36,6.274,6.274,0,0,0,.83,2.07,4.408,4.408,0,0,0,1.56,1.47,4.9,4.9,0,0,0,2.46.56,4.538,4.538,0,0,0,1.68-.3,4.192,4.192,0,0,0,1.33-.83,4.837,4.837,0,0,0,.96-1.25,6.293,6.293,0,0,0,.59-1.58h1.42a8.982,8.982,0,0,1-.7,1.97,5.616,5.616,0,0,1-1.21,1.63,5.533,5.533,0,0,1-1.82,1.11,7,7,0,0,1-2.51.41,6.118,6.118,0,0,1-2.84-.61,5.393,5.393,0,0,1-1.93-1.65,6.925,6.925,0,0,1-1.09-2.41,12.047,12.047,0,0,1-.34-2.91,10.543,10.543,0,0,1,.51-3.5,6.248,6.248,0,0,1,1.41-2.35,5.328,5.328,0,0,1,2.12-1.32,8.3,8.3,0,0,1,2.66-.41,6.989,6.989,0,0,1,2.05.29,5.033,5.033,0,0,1,1.68.87,4.721,4.721,0,0,1,1.2,1.43,6.013,6.013,0,0,1,.65,1.97ZM310.96,51V36.6h9.58v1.16h-8.22v5.2h7.42v1.16h-7.42v5.72h8.42V51Zm24.38-5.44a5.884,5.884,0,0,1-1.54.42q-.78.1-1.56.16a4.4,4.4,0,0,0-2.15.62,1.777,1.777,0,0,0-.77,1.58,1.715,1.715,0,0,0,.19.83,1.753,1.753,0,0,0,.5.58,2.114,2.114,0,0,0,.72.34,3.19,3.19,0,0,0,.83.11,5.448,5.448,0,0,0,1.4-.18,3.786,3.786,0,0,0,1.21-.55,2.806,2.806,0,0,0,.85-.94,2.714,2.714,0,0,0,.32-1.35Zm-2.02-.6q.34-.04.81-.12a3.059,3.059,0,0,0,.77-.22.637.637,0,0,0,.37-.47,2.954,2.954,0,0,0,.07-.61,2.045,2.045,0,0,0-.59-1.51,2.752,2.752,0,0,0-1.99-.59,5.514,5.514,0,0,0-1.14.11,2.482,2.482,0,0,0-.91.38,2.1,2.1,0,0,0-.64.72,3.056,3.056,0,0,0-.33,1.13h-1.22a3.706,3.706,0,0,1,.42-1.57,3.184,3.184,0,0,1,.93-1.06,3.858,3.858,0,0,1,1.32-.6,6.454,6.454,0,0,1,1.59-.19,6.129,6.129,0,0,1,1.47.17,3.408,3.408,0,0,1,1.2.54,2.508,2.508,0,0,1,.8.99,3.574,3.574,0,0,1,.29,1.52v5.64q0,.7.25.89t1.01-.09v.94l-.41.12a1.86,1.86,0,0,1-.53.08,2.394,2.394,0,0,1-.54-.06.924.924,0,0,1-.48-.19,1.171,1.171,0,0,1-.29-.36,1.492,1.492,0,0,1-.15-.46,3.354,3.354,0,0,1-.04-.53,5.21,5.21,0,0,1-1.74,1.28,5.116,5.116,0,0,1-2.12.44,4.745,4.745,0,0,1-1.31-.18,3.17,3.17,0,0,1-1.11-.56,2.781,2.781,0,0,1-.76-.93,2.855,2.855,0,0,1-.28-1.31q0-2.64,3.62-3.12Zm7.4,6.04h-1.2V40.64h1.2V42.2h.04a3.159,3.159,0,0,1,1.32-1.37,3.856,3.856,0,0,1,1.88-.47,4.04,4.04,0,0,1,1.22.16,2.751,2.751,0,0,1,.85.43,2.475,2.475,0,0,1,.58.63,4.26,4.26,0,0,1,.39.78,3.489,3.489,0,0,1,1.39-1.51,3.985,3.985,0,0,1,1.99-.49,3.483,3.483,0,0,1,1.69.35,2.532,2.532,0,0,1,.97.92,3.548,3.548,0,0,1,.45,1.31,10.326,10.326,0,0,1,.11,1.52V51h-1.2V43.84a2.919,2.919,0,0,0-.47-1.76,2.047,2.047,0,0,0-1.75-.64,2.9,2.9,0,0,0-2.34,1.18,2.315,2.315,0,0,0-.33.61,5.132,5.132,0,0,0-.21.73,5.966,5.966,0,0,0-.11.76q-.03.38-.03.7V51h-1.2V43.84a2.919,2.919,0,0,0-.47-1.76,2.047,2.047,0,0,0-1.75-.64,2.9,2.9,0,0,0-2.34,1.18,2.315,2.315,0,0,0-.33.61,5.132,5.132,0,0,0-.21.73,5.966,5.966,0,0,0-.11.76q-.03.38-.03.7Zm23.12-5.9a4.756,4.756,0,0,0-.21-1.43,3.342,3.342,0,0,0-.62-1.16,2.951,2.951,0,0,0-1.03-.78,3.315,3.315,0,0,0-1.42-.29,3.157,3.157,0,0,0-1.41.3,3.242,3.242,0,0,0-1.04.8,4.024,4.024,0,0,0-.69,1.16,5.38,5.38,0,0,0-.34,1.4Zm-6.76,1a5.622,5.622,0,0,0,.22,1.59,3.841,3.841,0,0,0,.65,1.3,3.148,3.148,0,0,0,1.09.88,3.355,3.355,0,0,0,1.52.33,3.307,3.307,0,0,0,2.02-.62,2.986,2.986,0,0,0,1.12-1.76h1.34a6.46,6.46,0,0,1-.58,1.37,4.227,4.227,0,0,1-.9,1.1,3.89,3.89,0,0,1-1.28.73,5.185,5.185,0,0,1-1.72.26,5.022,5.022,0,0,1-2.14-.42,4.036,4.036,0,0,1-1.48-1.15,4.852,4.852,0,0,1-.86-1.72,7.8,7.8,0,0,1-.28-2.13,6.787,6.787,0,0,1,.33-2.14,5.449,5.449,0,0,1,.94-1.75,4.368,4.368,0,0,1,1.49-1.18,4.5,4.5,0,0,1,2-.43,4.13,4.13,0,0,1,3.36,1.47,6.458,6.458,0,0,1,1.2,4.27ZM368.66,51h-1.2V40.64h1.2v1.44a7.621,7.621,0,0,1,1.49-1.24,3.428,3.428,0,0,1,1.85-.48,4.724,4.724,0,0,1,1.78.33,3.037,3.037,0,0,1,1.38,1.15,2.579,2.579,0,0,1,.45,1.15,10.441,10.441,0,0,1,.07,1.23V51h-1.2V44.24a3.086,3.086,0,0,0-.62-2.1,2.633,2.633,0,0,0-2.06-.7,2.923,2.923,0,0,0-1.02.17,3.21,3.21,0,0,0-.83.45,3.014,3.014,0,0,0-.63.64,2.971,2.971,0,0,0-.4.76,3.815,3.815,0,0,0-.22.96q-.04.46-.04,1Zm17.92-5.22a5.714,5.714,0,0,0-.24-1.67,4.324,4.324,0,0,0-.69-1.38,3.39,3.39,0,0,0-1.1-.94,3.051,3.051,0,0,0-1.47-.35,3.342,3.342,0,0,0-1.62.37,3.193,3.193,0,0,0-1.12,1.01,4.368,4.368,0,0,0-.64,1.49,6.763,6.763,0,0,0-.16,1.83,5.1,5.1,0,0,0,.27,1.73,3.686,3.686,0,0,0,.75,1.27,3.2,3.2,0,0,0,1.12.79,3.565,3.565,0,0,0,1.4.27,3.228,3.228,0,0,0,1.5-.34,3.158,3.158,0,0,0,1.1-.93,4.265,4.265,0,0,0,.67-1.4A6.383,6.383,0,0,0,386.58,45.78Zm0-9.18h1.2V51h-1.2V49.18h-.04a3.251,3.251,0,0,1-.67.91,4.067,4.067,0,0,1-.9.65,4.827,4.827,0,0,1-1.01.4,3.913,3.913,0,0,1-1.02.14,4.939,4.939,0,0,1-2.14-.42,3.986,3.986,0,0,1-1.45-1.15,4.692,4.692,0,0,1-.83-1.73,8.479,8.479,0,0,1-.26-2.14,7.678,7.678,0,0,1,.28-2.08,5.157,5.157,0,0,1,.85-1.75,4.211,4.211,0,0,1,1.44-1.2,4.406,4.406,0,0,1,2.05-.45,4.776,4.776,0,0,1,2.11.49,3.714,3.714,0,0,1,1.59,1.45ZM391.84,51h-1.2V40.64h1.2V42.2h.04a3.159,3.159,0,0,1,1.32-1.37,3.856,3.856,0,0,1,1.88-.47,4.04,4.04,0,0,1,1.22.16,2.751,2.751,0,0,1,.85.43,2.475,2.475,0,0,1,.58.63,4.26,4.26,0,0,1,.39.78,3.489,3.489,0,0,1,1.39-1.51,3.985,3.985,0,0,1,1.99-.49,3.483,3.483,0,0,1,1.69.35,2.532,2.532,0,0,1,.97.92,3.548,3.548,0,0,1,.45,1.31,10.326,10.326,0,0,1,.11,1.52V51h-1.2V43.84a2.919,2.919,0,0,0-.47-1.76,2.047,2.047,0,0,0-1.75-.64,2.9,2.9,0,0,0-2.34,1.18,2.315,2.315,0,0,0-.33.61,5.132,5.132,0,0,0-.21.73,5.966,5.966,0,0,0-.11.76q-.03.38-.03.7V51h-1.2V43.84a2.919,2.919,0,0,0-.47-1.76,2.047,2.047,0,0,0-1.75-.64,2.9,2.9,0,0,0-2.34,1.18,2.315,2.315,0,0,0-.33.61,5.132,5.132,0,0,0-.21.73,5.966,5.966,0,0,0-.11.76q-.03.38-.03.7Zm23.12-5.9a4.756,4.756,0,0,0-.21-1.43,3.342,3.342,0,0,0-.62-1.16,2.951,2.951,0,0,0-1.03-.78,3.315,3.315,0,0,0-1.42-.29,3.157,3.157,0,0,0-1.41.3,3.242,3.242,0,0,0-1.04.8,4.024,4.024,0,0,0-.69,1.16,5.38,5.38,0,0,0-.34,1.4Zm-6.76,1a5.622,5.622,0,0,0,.22,1.59,3.841,3.841,0,0,0,.65,1.3,3.148,3.148,0,0,0,1.09.88,3.355,3.355,0,0,0,1.52.33,3.307,3.307,0,0,0,2.02-.62,2.986,2.986,0,0,0,1.12-1.76h1.34a6.46,6.46,0,0,1-.58,1.37,4.227,4.227,0,0,1-.9,1.1,3.89,3.89,0,0,1-1.28.73,5.185,5.185,0,0,1-1.72.26,5.022,5.022,0,0,1-2.14-.42,4.036,4.036,0,0,1-1.48-1.15,4.852,4.852,0,0,1-.86-1.72,7.8,7.8,0,0,1-.28-2.13,6.787,6.787,0,0,1,.33-2.14,5.449,5.449,0,0,1,.94-1.75,4.368,4.368,0,0,1,1.49-1.18,4.5,4.5,0,0,1,2-.43,4.13,4.13,0,0,1,3.36,1.47,6.458,6.458,0,0,1,1.2,4.27ZM419.78,51h-1.2V40.64h1.2v1.44a7.621,7.621,0,0,1,1.49-1.24,3.428,3.428,0,0,1,1.85-.48,4.724,4.724,0,0,1,1.78.33,3.037,3.037,0,0,1,1.38,1.15,2.579,2.579,0,0,1,.45,1.15,10.441,10.441,0,0,1,.07,1.23V51h-1.2V44.24a3.086,3.086,0,0,0-.62-2.1,2.633,2.633,0,0,0-2.06-.7,2.923,2.923,0,0,0-1.02.17,3.21,3.21,0,0,0-.83.45,3.014,3.014,0,0,0-.63.64,2.971,2.971,0,0,0-.4.76,3.815,3.815,0,0,0-.22.96q-.04.46-.04,1Zm13.56.04q-.22.04-.58.14a2.986,2.986,0,0,1-.8.1,1.906,1.906,0,0,1-1.37-.45,2.191,2.191,0,0,1-.47-1.61V41.64h-1.46v-1h1.46V37.76h1.2v2.88h1.94v1h-1.94v7.1q0,.38.02.66a1.106,1.106,0,0,0,.12.46.574.574,0,0,0,.31.26,1.718,1.718,0,0,0,.59.08,3.1,3.1,0,0,0,.49-.04q.25-.04.49-.1ZM2.14,83.76a3.045,3.045,0,0,0,1.01,1.89,3.422,3.422,0,0,0,2.09.55,3.618,3.618,0,0,0,1.14-.16,2.29,2.29,0,0,0,.79-.43A1.855,1.855,0,0,0,7.64,85a1.67,1.67,0,0,0,.16-.72,1.325,1.325,0,0,0-.49-1.13,3.7,3.7,0,0,0-1.23-.58,15.838,15.838,0,0,0-1.6-.36,7.827,7.827,0,0,1-1.6-.45,3.2,3.2,0,0,1-1.23-.86,2.323,2.323,0,0,1-.49-1.58,2.7,2.7,0,0,1,.95-2.13,3.961,3.961,0,0,1,2.69-.83,4.591,4.591,0,0,1,2.73.75A3.43,3.43,0,0,1,8.8,79.62H7.58a2.243,2.243,0,0,0-.91-1.69,3.389,3.389,0,0,0-1.89-.49,2.692,2.692,0,0,0-1.74.49,1.584,1.584,0,0,0-.6,1.29,1.259,1.259,0,0,0,.49,1.07,3.993,3.993,0,0,0,1.23.6q.74.23,1.6.41a7.881,7.881,0,0,1,1.6.51,3.5,3.5,0,0,1,1.23.89,2.291,2.291,0,0,1,.49,1.56,2.63,2.63,0,0,1-.32,1.31,2.785,2.785,0,0,1-.88.95,4.093,4.093,0,0,1-1.33.57,7.05,7.05,0,0,1-1.69.19,4.566,4.566,0,0,1-1.63-.27,3.539,3.539,0,0,1-1.21-.75,3.459,3.459,0,0,1-.78-1.12,3.945,3.945,0,0,1-.32-1.38Zm12.94,3.28q-.22.04-.58.14a2.986,2.986,0,0,1-.8.1,1.906,1.906,0,0,1-1.37-.45,2.191,2.191,0,0,1-.47-1.61V77.64H10.4v-1h1.46V73.76h1.2v2.88H15v1H13.06v7.1q0,.38.02.66a1.107,1.107,0,0,0,.12.46.574.574,0,0,0,.31.26,1.719,1.719,0,0,0,.59.08,3.1,3.1,0,0,0,.49-.04q.25-.04.49-.1Zm8.7-5.48a5.884,5.884,0,0,1-1.54.42q-.78.1-1.56.16a4.4,4.4,0,0,0-2.15.62,1.777,1.777,0,0,0-.77,1.58,1.715,1.715,0,0,0,.19.83,1.754,1.754,0,0,0,.5.58,2.114,2.114,0,0,0,.72.34,3.19,3.19,0,0,0,.83.11,5.448,5.448,0,0,0,1.4-.18,3.786,3.786,0,0,0,1.21-.55,2.806,2.806,0,0,0,.85-.94,2.714,2.714,0,0,0,.32-1.35Zm-2.02-.6q.34-.04.81-.12a3.059,3.059,0,0,0,.77-.22.637.637,0,0,0,.37-.47,2.954,2.954,0,0,0,.07-.61,2.045,2.045,0,0,0-.59-1.51,2.752,2.752,0,0,0-1.99-.59,5.513,5.513,0,0,0-1.14.11,2.482,2.482,0,0,0-.91.38,2.1,2.1,0,0,0-.64.72,3.056,3.056,0,0,0-.33,1.13H16.96a3.706,3.706,0,0,1,.42-1.57,3.184,3.184,0,0,1,.93-1.06,3.858,3.858,0,0,1,1.32-.6,6.454,6.454,0,0,1,1.59-.19,6.128,6.128,0,0,1,1.47.17,3.408,3.408,0,0,1,1.2.54,2.508,2.508,0,0,1,.8.99,3.574,3.574,0,0,1,.29,1.52v5.64q0,.7.25.89t1.01-.09v.94l-.41.12a1.86,1.86,0,0,1-.53.08,2.394,2.394,0,0,1-.54-.06.924.924,0,0,1-.48-.19,1.171,1.171,0,0,1-.29-.36,1.492,1.492,0,0,1-.15-.46,3.355,3.355,0,0,1-.04-.53,5.21,5.21,0,0,1-1.74,1.28,5.116,5.116,0,0,1-2.12.44,4.745,4.745,0,0,1-1.31-.18,3.17,3.17,0,0,1-1.11-.56,2.781,2.781,0,0,1-.76-.93,2.856,2.856,0,0,1-.28-1.31q0-2.64,3.62-3.12Zm10,6.08q-.22.04-.58.14a2.986,2.986,0,0,1-.8.1,1.906,1.906,0,0,1-1.37-.45,2.191,2.191,0,0,1-.47-1.61V77.64H27.08v-1h1.46V73.76h1.2v2.88h1.94v1H29.74v7.1q0,.38.02.66a1.107,1.107,0,0,0,.12.46.574.574,0,0,0,.31.26,1.719,1.719,0,0,0,.59.08,3.1,3.1,0,0,0,.49-.04q.25-.04.49-.1Zm8.94-10.4h1.2V87H40.7V85.56q-.24.28-.54.58a4.1,4.1,0,0,1-.69.55,3.96,3.96,0,0,1-.91.42,3.862,3.862,0,0,1-1.2.17,4.563,4.563,0,0,1-1.74-.29,2.848,2.848,0,0,1-1.13-.81,3.21,3.21,0,0,1-.62-1.21,5.675,5.675,0,0,1-.19-1.51V76.64h1.2v6.8a3.026,3.026,0,0,0,.62,2.05,2.582,2.582,0,0,0,2.04.71,2.975,2.975,0,0,0,1.33-.29,2.78,2.78,0,0,0,.99-.81,3.864,3.864,0,0,0,.62-1.24,5.388,5.388,0,0,0,.22-1.58Zm4.8,7.12a3.045,3.045,0,0,0,1.01,1.89,3.422,3.422,0,0,0,2.09.55,3.618,3.618,0,0,0,1.14-.16,2.29,2.29,0,0,0,.79-.43A1.855,1.855,0,0,0,51,85a1.67,1.67,0,0,0,.16-.72,1.325,1.325,0,0,0-.49-1.13,3.7,3.7,0,0,0-1.23-.58,15.839,15.839,0,0,0-1.6-.36,7.827,7.827,0,0,1-1.6-.45,3.2,3.2,0,0,1-1.23-.86,2.323,2.323,0,0,1-.49-1.58,2.7,2.7,0,0,1,.95-2.13,3.961,3.961,0,0,1,2.69-.83,4.591,4.591,0,0,1,2.73.75,3.43,3.43,0,0,1,1.27,2.51H50.94a2.243,2.243,0,0,0-.91-1.69,3.389,3.389,0,0,0-1.89-.49,2.692,2.692,0,0,0-1.74.49,1.584,1.584,0,0,0-.6,1.29,1.259,1.259,0,0,0,.49,1.07,3.993,3.993,0,0,0,1.23.6q.74.23,1.6.41a7.881,7.881,0,0,1,1.6.51,3.5,3.5,0,0,1,1.23.89,2.291,2.291,0,0,1,.49,1.56,2.63,2.63,0,0,1-.32,1.31,2.785,2.785,0,0,1-.88.95,4.093,4.093,0,0,1-1.33.57,7.05,7.05,0,0,1-1.69.19,4.566,4.566,0,0,1-1.63-.27,3.539,3.539,0,0,1-1.21-.75,3.459,3.459,0,0,1-.78-1.12,3.945,3.945,0,0,1-.32-1.38Z" transform="translate(683 447)"/><path d="M14.377,9.789H38.889L75.183,116.606,111.218,9.789h24.253v126.34H119.217V61.563q0-3.87.172-12.815t.172-19.179L83.525,136.129H66.582L30.288,29.57v3.87q0,4.644.215,14.148t.215,13.976v74.566H14.377Zm151.024,0h17.287v126.34H165.4Zm44.636,0h24.511l36.294,106.817L306.878,9.789h24.253v126.34H314.877V61.563q0-3.87.172-12.815t.172-19.179L279.185,136.129H262.242L225.948,29.57v3.87q0,4.644.215,14.148t.215,13.976v74.566H210.037ZM368.372,95.363q.6,10.751,5.074,17.459,8.514,12.557,30.016,12.557a53.129,53.129,0,0,0,17.545-2.752q15.309-5.332,15.309-19.093,0-10.321-6.45-14.707-6.536-4.3-20.469-7.482l-17.115-3.87q-16.771-3.784-23.737-8.342Q356.5,61.219,356.5,45.48q0-17.029,11.783-27.951t33.37-10.923q19.867,0,33.757,9.589T449.3,46.857H433.219q-1.29-10.149-5.5-15.567Q419.888,21.4,401.139,21.4,386,21.4,379.38,27.764a19.919,19.919,0,0,0-6.622,14.793q0,9.288,7.74,13.589,5.074,2.752,22.963,6.88l17.717,4.042q12.815,2.924,19.781,8Q453,83.924,453,100.781q0,20.985-15.266,30.016t-35.477,9.03q-23.565,0-36.9-12.041-13.331-11.955-13.073-32.424Z" transform="translate(669 139.463)"/><text class="a" transform="translate(1126 169)"><tspan x="0" y="0"></tspan></text><path d="M23.965,2.211v5.1H15.352V31H9.3V7.309H.645v-5.1ZM36.406,9.2q.156,0,.264.01t.479.029v5.7q-.527-.059-.937-.078t-.664-.02q-3.359,0-4.512,2.188a8.51,8.51,0,0,0-.645,3.789V31H24.785V9.711H30.1v3.711a11.769,11.769,0,0,1,2.246-2.91A6.115,6.115,0,0,1,36.406,9.2Zm12.4,4.531a3.781,3.781,0,0,0-3,1.211,6.044,6.044,0,0,0-1.338,3.281h8.652a4.846,4.846,0,0,0-1.338-3.35A4.154,4.154,0,0,0,48.809,13.734Zm0-4.59a11.157,11.157,0,0,1,4.785,1,8.383,8.383,0,0,1,3.516,3.145A10.729,10.729,0,0,1,58.73,17.68a28.38,28.38,0,0,1,.176,4.219H44.336q.117,3.2,2.012,4.492a4.738,4.738,0,0,0,2.773.8,3.991,3.991,0,0,0,2.793-.977,4.638,4.638,0,0,0,1.035-1.465h5.684A7.061,7.061,0,0,1,56.66,28.6,9.665,9.665,0,0,1,49,31.7a10.8,10.8,0,0,1-7.168-2.617Q38.73,26.469,38.73,20.57q0-5.527,2.8-8.477A9.583,9.583,0,0,1,48.809,9.145Zm25.586,11.5a6.049,6.049,0,0,1-1.064.537,8.9,8.9,0,0,1-1.475.381l-1.25.234a8.072,8.072,0,0,0-2.52.762A2.553,2.553,0,0,0,66.8,24.926a2.488,2.488,0,0,0,.791,2.061,2.977,2.977,0,0,0,1.924.635,5.669,5.669,0,0,0,3.311-1.055q1.514-1.055,1.572-3.848Zm-3.379-2.6a8.688,8.688,0,0,0,2.207-.488,1.673,1.673,0,0,0,1.191-1.582,1.877,1.877,0,0,0-.908-1.807,5.673,5.673,0,0,0-2.666-.5,3.473,3.473,0,0,0-2.793.977,4.059,4.059,0,0,0-.781,1.953H61.895a8.169,8.169,0,0,1,1.563-4.59Q65.664,9.2,71.035,9.2a13.464,13.464,0,0,1,6.211,1.387q2.715,1.387,2.715,5.234V25.59q0,1.016.039,2.461a3.094,3.094,0,0,0,.332,1.484,2,2,0,0,0,.82.645V31H75.1a6.2,6.2,0,0,1-.352-1.211q-.1-.566-.156-1.289a11.437,11.437,0,0,1-2.656,2.129,7.99,7.99,0,0,1-4.062,1.035,6.985,6.985,0,0,1-4.775-1.65,5.886,5.886,0,0,1-1.885-4.678,6.072,6.072,0,0,1,3.027-5.684,13.442,13.442,0,0,1,4.883-1.367Zm11.7-4.18V9.906h2.969V3.969h5.508V9.906h3.457v3.965H91.191v11.25a2.534,2.534,0,0,0,.332,1.631,3.656,3.656,0,0,0,2.031.322q.254,0,.537-.01t.557-.029V31.2l-2.637.1q-3.945.137-5.391-1.367a4.071,4.071,0,0,1-.937-2.949V13.871Zm21.23-6.7H98.3V2.035h5.645ZM98.3,9.711h5.645V31H98.3ZM121.133,9.2a8.218,8.218,0,0,1,5.4,1.729q2.1,1.729,2.1,5.732V31h-5.7V18.051a5.909,5.909,0,0,0-.449-2.578,3.16,3.16,0,0,0-3.125-1.641,3.876,3.876,0,0,0-3.887,2.4,8.252,8.252,0,0,0-.547,3.242V31h-5.547V9.75h5.371v3.105a9.45,9.45,0,0,1,2.031-2.363A7.059,7.059,0,0,1,121.133,9.2ZM142.91,26.43a4.3,4.3,0,0,0,3.3-1.475q1.348-1.475,1.348-4.7a7.188,7.188,0,0,0-1.279-4.609,4.182,4.182,0,0,0-3.428-1.582,4.039,4.039,0,0,0-4.043,2.754,9.766,9.766,0,0,0-.586,3.613,8.245,8.245,0,0,0,.625,3.3A4.074,4.074,0,0,0,142.91,26.43ZM141.523,9.2a7.333,7.333,0,0,1,2.793.488,6.688,6.688,0,0,1,3.281,3.086V9.711h5.41v20.2a11.31,11.31,0,0,1-1.387,6.211q-2.383,3.594-9.141,3.594a12.455,12.455,0,0,1-6.66-1.6,5.909,5.909,0,0,1-2.852-4.785h6.055a2.507,2.507,0,0,0,.762,1.406,4.7,4.7,0,0,0,3.027.762q3.008,0,4.023-2.012a10.189,10.189,0,0,0,.664-4.336V27.777a6.788,6.788,0,0,1-1.719,2.051,6.911,6.911,0,0,1-4.316,1.27,8.168,8.168,0,0,1-6.553-2.881,11.647,11.647,0,0,1-2.451-7.8,13.152,13.152,0,0,1,2.363-7.979A7.808,7.808,0,0,1,141.523,9.2Zm47.6,1.992a5.636,5.636,0,0,0-3.34-4.121,8.2,8.2,0,0,0-3.3-.645,7.169,7.169,0,0,0-5.713,2.627q-2.236,2.627-2.236,7.9,0,5.312,2.422,7.52a7.953,7.953,0,0,0,5.508,2.207,7.115,7.115,0,0,0,4.961-1.748,7.557,7.557,0,0,0,2.383-4.58h-6.66v-4.8h11.992V31h-3.984l-.605-3.594a13.794,13.794,0,0,1-3.125,2.891,10.991,10.991,0,0,1-5.859,1.465,12.174,12.174,0,0,1-9.375-3.965q-3.809-3.984-3.809-10.9,0-6.992,3.848-11.211A13.113,13.113,0,0,1,182.4,1.469a13.3,13.3,0,0,1,8.818,2.783,10.348,10.348,0,0,1,3.818,6.943ZM206.113,31h-5.566V2.211h5.566Zm17.168-10.352a6.049,6.049,0,0,1-1.064.537,8.9,8.9,0,0,1-1.475.381l-1.25.234a8.072,8.072,0,0,0-2.52.762,2.553,2.553,0,0,0-1.289,2.363,2.488,2.488,0,0,0,.791,2.061,2.977,2.977,0,0,0,1.924.635,5.669,5.669,0,0,0,3.311-1.055q1.514-1.055,1.572-3.848Zm-3.379-2.6a8.688,8.688,0,0,0,2.207-.488A1.673,1.673,0,0,0,223.3,15.98a1.877,1.877,0,0,0-.908-1.807,5.673,5.673,0,0,0-2.666-.5,3.473,3.473,0,0,0-2.793.977,4.059,4.059,0,0,0-.781,1.953h-5.371a8.169,8.169,0,0,1,1.563-4.59Q214.551,9.2,219.922,9.2a13.464,13.464,0,0,1,6.211,1.387q2.715,1.387,2.715,5.234V25.59q0,1.016.039,2.461a3.094,3.094,0,0,0,.332,1.484,2,2,0,0,0,.82.645V31h-6.055a6.2,6.2,0,0,1-.352-1.211q-.1-.566-.156-1.289a11.437,11.437,0,0,1-2.656,2.129,7.99,7.99,0,0,1-4.062,1.035,6.985,6.985,0,0,1-4.775-1.65,5.886,5.886,0,0,1-1.885-4.678,6.072,6.072,0,0,1,3.027-5.684,13.442,13.442,0,0,1,4.883-1.367Zm19.434-8.34V22.543a6.717,6.717,0,0,0,.43,2.734,2.974,2.974,0,0,0,2.988,1.621,3.906,3.906,0,0,0,3.906-2.3,8.343,8.343,0,0,0,.547-3.3V9.711h5.645V31h-5.41V27.992q-.078.1-.391.586a3.921,3.921,0,0,1-.742.859,7.751,7.751,0,0,1-2.529,1.6,8.62,8.62,0,0,1-2.861.43q-4.727,0-6.367-3.4a13,13,0,0,1-.918-5.527V9.711Zm31.6,7.637a4.94,4.94,0,0,0-.8-2.148,3.357,3.357,0,0,0-2.91-1.289,3.832,3.832,0,0,0-3.848,2.793,11.677,11.677,0,0,0-.547,3.945,10.737,10.737,0,0,0,.547,3.77,3.714,3.714,0,0,0,3.75,2.656A3.306,3.306,0,0,0,269.9,26.02a5.25,5.25,0,0,0,1-2.734h5.684a9.313,9.313,0,0,1-1.836,4.8,8.925,8.925,0,0,1-7.754,3.652q-5.137,0-7.559-3.047a12.329,12.329,0,0,1-2.422-7.91q0-5.488,2.676-8.535A9.314,9.314,0,0,1,267.07,9.2a11.117,11.117,0,0,1,6.553,1.8q2.549,1.8,3.018,6.348Zm19.082,9.727a4.412,4.412,0,0,0,3.75-1.738,8.087,8.087,0,0,0,1.309-4.941,8.042,8.042,0,0,0-1.309-4.932,4.943,4.943,0,0,0-7.51,0,8,8,0,0,0-1.318,4.932,8.043,8.043,0,0,0,1.318,4.941A4.438,4.438,0,0,0,290.02,27.074Zm10.9-6.68a12.341,12.341,0,0,1-2.7,8.018q-2.7,3.33-8.184,3.33t-8.184-3.33a12.341,12.341,0,0,1-2.7-8.018,12.423,12.423,0,0,1,2.7-7.988q2.7-3.379,8.184-3.379t8.184,3.379A12.423,12.423,0,0,1,300.918,20.395ZM328.691,9.242a7.41,7.41,0,0,1,2.773.547,6.187,6.187,0,0,1,2.48,1.914,6.116,6.116,0,0,1,1.211,2.734,18.9,18.9,0,0,1,.2,3.145L335.313,31h-5.7V17.445a4.449,4.449,0,0,0-.391-1.992,2.775,2.775,0,0,0-2.734-1.484,3.2,3.2,0,0,0-3.184,1.914,6.011,6.011,0,0,0-.449,2.441V31h-5.605V18.324a7.119,7.119,0,0,0-.391-2.754,2.727,2.727,0,0,0-2.754-1.543,3.287,3.287,0,0,0-3.2,1.543,5.945,5.945,0,0,0-.449,2.617V31H304.8V9.75h5.41v3.105a8.958,8.958,0,0,1,1.953-2.363,7.728,7.728,0,0,1,8.145-.176,6.249,6.249,0,0,1,1.836,2.559,7.078,7.078,0,0,1,2.715-2.754A8.285,8.285,0,0,1,328.691,9.242Zm23.516,11.406a6.049,6.049,0,0,1-1.064.537,8.9,8.9,0,0,1-1.475.381l-1.25.234a8.072,8.072,0,0,0-2.52.762,2.553,2.553,0,0,0-1.289,2.363,2.488,2.488,0,0,0,.791,2.061,2.977,2.977,0,0,0,1.924.635,5.669,5.669,0,0,0,3.311-1.055q1.514-1.055,1.572-3.848Zm-3.379-2.6a8.688,8.688,0,0,0,2.207-.488,1.673,1.673,0,0,0,1.191-1.582,1.877,1.877,0,0,0-.908-1.807,5.673,5.673,0,0,0-2.666-.5,3.473,3.473,0,0,0-2.793.977,4.059,4.059,0,0,0-.781,1.953h-5.371a8.169,8.169,0,0,1,1.563-4.59Q343.477,9.2,348.848,9.2a13.464,13.464,0,0,1,6.211,1.387q2.715,1.387,2.715,5.234V25.59q0,1.016.039,2.461a3.094,3.094,0,0,0,.332,1.484,2,2,0,0,0,.82.645V31H352.91a6.2,6.2,0,0,1-.352-1.211q-.1-.566-.156-1.289a11.437,11.437,0,0,1-2.656,2.129,7.99,7.99,0,0,1-4.062,1.035,6.985,6.985,0,0,1-4.775-1.65,5.886,5.886,0,0,1-1.885-4.678,6.072,6.072,0,0,1,3.027-5.684,13.442,13.442,0,0,1,4.883-1.367Zm31.855,2.07h7.3L384.395,8.793Zm.371-17.91h6.8L398.047,31h-6.523l-1.855-5.918H379.063L377.07,31h-6.289ZM405.586,24.2a3.717,3.717,0,0,0,.762,2.109q1.035,1.113,3.828,1.113a5.835,5.835,0,0,0,2.607-.488,1.638,1.638,0,0,0,.186-2.891,31.783,31.783,0,0,0-5.8-1.68,12.081,12.081,0,0,1-5.1-2.246,4.869,4.869,0,0,1-1.484-3.828,6.64,6.64,0,0,1,2.314-5.068,9.3,9.3,0,0,1,6.514-2.119,11.95,11.95,0,0,1,6.494,1.592q2.51,1.592,2.881,5.5h-5.566a3.293,3.293,0,0,0-.605-1.7,3.809,3.809,0,0,0-3.125-1.133,4.49,4.49,0,0,0-2.588.566,1.63,1.63,0,0,0-.771,1.328,1.454,1.454,0,0,0,.82,1.387,35.511,35.511,0,0,0,5.8,1.543,10.655,10.655,0,0,1,4.98,2.363,5.366,5.366,0,0,1,1.641,4,6.47,6.47,0,0,1-2.354,5.166q-2.354,2-7.275,2-5.02,0-7.412-2.119a6.894,6.894,0,0,1-2.393-5.4ZM7.4,70.113a5.912,5.912,0,0,0,1.074,2.949Q9.941,74.84,13.5,74.84a10.594,10.594,0,0,0,3.457-.469,3.341,3.341,0,0,0,2.52-3.34,2.464,2.464,0,0,0-1.25-2.207A13.442,13.442,0,0,0,14.3,67.477l-3.047-.684a19.254,19.254,0,0,1-6.211-2.207q-2.91-1.992-2.91-6.23A8.32,8.32,0,0,1,4.941,51.93q2.813-2.559,8.262-2.559a12.561,12.561,0,0,1,7.764,2.412,8.612,8.612,0,0,1,3.369,7H18.555a4.13,4.13,0,0,0-2.266-3.691,7.6,7.6,0,0,0-3.5-.723,6.527,6.527,0,0,0-3.711.938A2.985,2.985,0,0,0,7.7,57.926a2.477,2.477,0,0,0,1.367,2.3,16.736,16.736,0,0,0,3.75,1.191l4.961,1.191A12.826,12.826,0,0,1,22.7,64.7a7.039,7.039,0,0,1,2.578,5.879,8.3,8.3,0,0,1-3.018,6.553q-3.018,2.607-8.525,2.607-5.625,0-8.848-2.568A8.535,8.535,0,0,1,1.66,70.113Zm31.426,4.961a4.412,4.412,0,0,0,3.75-1.738,8.087,8.087,0,0,0,1.309-4.941,8.042,8.042,0,0,0-1.309-4.932,4.421,4.421,0,0,0-3.75-1.729,4.448,4.448,0,0,0-3.76,1.729,8,8,0,0,0-1.318,4.932,8.043,8.043,0,0,0,1.318,4.941A4.438,4.438,0,0,0,38.828,75.074Zm10.9-6.68a12.341,12.341,0,0,1-2.7,8.018q-2.7,3.33-8.184,3.33t-8.184-3.33a13.229,13.229,0,0,1,0-16.006q2.7-3.379,8.184-3.379t8.184,3.379A12.423,12.423,0,0,1,49.727,68.395Zm13.535,6.68a4.412,4.412,0,0,0,3.75-1.738,8.087,8.087,0,0,0,1.309-4.941,8.042,8.042,0,0,0-1.309-4.932,4.943,4.943,0,0,0-7.51,0,8,8,0,0,0-1.318,4.932A8.043,8.043,0,0,0,59.5,73.336,4.438,4.438,0,0,0,63.262,75.074Zm10.9-6.68a12.341,12.341,0,0,1-2.7,8.018q-2.7,3.33-8.184,3.33T55.1,76.412a13.229,13.229,0,0,1,0-16.006q2.7-3.379,8.184-3.379t8.184,3.379A12.423,12.423,0,0,1,74.16,68.395ZM89.941,57.2a8.218,8.218,0,0,1,5.4,1.729q2.1,1.729,2.1,5.732V79h-5.7V66.051a5.909,5.909,0,0,0-.449-2.578,3.16,3.16,0,0,0-3.125-1.641,3.876,3.876,0,0,0-3.887,2.4,8.252,8.252,0,0,0-.547,3.242V79H78.184V57.75h5.371v3.105a9.45,9.45,0,0,1,2.031-2.363A7.059,7.059,0,0,1,89.941,57.2Zm23.32,14.2a7.609,7.609,0,0,1,1.289-4.453,14.11,14.11,0,0,1,4.219-3.672l.605-.371a11.967,11.967,0,0,1-1.934-2.871,7.125,7.125,0,0,1-.684-3.047,6.06,6.06,0,0,1,2.109-4.912,8.227,8.227,0,0,1,5.469-1.768,7.279,7.279,0,0,1,5.068,1.807,5.944,5.944,0,0,1,2,4.619,6.633,6.633,0,0,1-1.2,4.121,11.741,11.741,0,0,1-3.525,2.93l4.082,5.039a8.288,8.288,0,0,0,1.084-2.207,8.647,8.647,0,0,0,.4-2.52h4.941a15.28,15.28,0,0,1-1.25,5.293,15,15,0,0,1-2.031,3.32L139.141,79h-6.758l-1.992-2.441a12.465,12.465,0,0,1-2.7,1.992,11.019,11.019,0,0,1-5.137,1.152,9,9,0,0,1-6.836-2.578A8.11,8.11,0,0,1,113.262,71.4Zm8.613-14.609a3.073,3.073,0,0,0,.547,1.641,24.379,24.379,0,0,0,1.523,2.012,10.231,10.231,0,0,0,1.68-1.387,3.308,3.308,0,0,0,.977-2.285,2.433,2.433,0,0,0-.586-1.6,2.182,2.182,0,0,0-1.777-.7,2.536,2.536,0,0,0-1.387.41A2.087,2.087,0,0,0,121.875,56.793Zm-3.066,14.434a3.681,3.681,0,0,0,1.162,2.617,3.98,3.98,0,0,0,2.979,1.191,5.531,5.531,0,0,0,2.588-.635,7.71,7.71,0,0,0,1.982-1.416l-5.273-6.523a9.667,9.667,0,0,0-2.764,2.441A4.23,4.23,0,0,0,118.809,71.227ZM158.5,70.113a5.912,5.912,0,0,0,1.074,2.949q1.465,1.777,5.02,1.777a10.594,10.594,0,0,0,3.457-.469,3.341,3.341,0,0,0,2.52-3.34,2.464,2.464,0,0,0-1.25-2.207,13.442,13.442,0,0,0-3.926-1.348l-3.047-.684a19.254,19.254,0,0,1-6.211-2.207q-2.91-1.992-2.91-6.23a8.32,8.32,0,0,1,2.813-6.426q2.813-2.559,8.262-2.559a12.561,12.561,0,0,1,7.764,2.412,8.612,8.612,0,0,1,3.369,7h-5.781a4.13,4.13,0,0,0-2.266-3.691,7.6,7.6,0,0,0-3.5-.723,6.527,6.527,0,0,0-3.711.938,2.985,2.985,0,0,0-1.387,2.617,2.477,2.477,0,0,0,1.367,2.3,16.736,16.736,0,0,0,3.75,1.191l4.961,1.191a12.826,12.826,0,0,1,4.922,2.09,7.039,7.039,0,0,1,2.578,5.879,8.3,8.3,0,0,1-3.018,6.553q-3.018,2.607-8.525,2.607-5.625,0-8.848-2.568a8.535,8.535,0,0,1-3.223-7.061Zm33.613-1.465a6.049,6.049,0,0,1-1.064.537,8.9,8.9,0,0,1-1.475.381l-1.25.234a8.072,8.072,0,0,0-2.52.762,2.553,2.553,0,0,0-1.289,2.363,2.488,2.488,0,0,0,.791,2.061,2.977,2.977,0,0,0,1.924.635,5.669,5.669,0,0,0,3.311-1.055q1.514-1.055,1.572-3.848Zm-3.379-2.6a8.689,8.689,0,0,0,2.207-.488,1.673,1.673,0,0,0,1.191-1.582,1.877,1.877,0,0,0-.908-1.807,5.673,5.673,0,0,0-2.666-.5,3.473,3.473,0,0,0-2.793.977,4.059,4.059,0,0,0-.781,1.953h-5.371a8.169,8.169,0,0,1,1.563-4.59q2.207-2.812,7.578-2.812a13.464,13.464,0,0,1,6.211,1.387q2.715,1.387,2.715,5.234V73.59q0,1.016.039,2.461a3.094,3.094,0,0,0,.332,1.484,2,2,0,0,0,.82.645V79h-6.055a6.2,6.2,0,0,1-.352-1.211q-.1-.566-.156-1.289a11.437,11.437,0,0,1-2.656,2.129,7.99,7.99,0,0,1-4.062,1.035,6.985,6.985,0,0,1-4.775-1.65,5.886,5.886,0,0,1-1.885-4.678,6.072,6.072,0,0,1,3.027-5.684,13.442,13.442,0,0,1,4.883-1.367Zm21.738-16.133q.527,0,.957.029t1.172.088v4.531q-.469-.059-1.572-.088a1.809,1.809,0,0,0-1.523.488,1.772,1.772,0,0,0-.42,1.143v1.8h3.652v3.926h-3.652V79h-5.547V61.832H200.43V57.906h3.047V56.539q0-3.418,1.152-4.707Q205.84,49.918,210.469,49.918Zm13.867,11.816a3.781,3.781,0,0,0-3,1.211A6.044,6.044,0,0,0,220,66.227h8.652a4.846,4.846,0,0,0-1.338-3.35A4.154,4.154,0,0,0,224.336,61.734Zm0-4.59a11.157,11.157,0,0,1,4.785,1,8.383,8.383,0,0,1,3.516,3.145,10.729,10.729,0,0,1,1.621,4.395,28.379,28.379,0,0,1,.176,4.219h-14.57q.117,3.2,2.012,4.492a4.738,4.738,0,0,0,2.773.8,3.991,3.991,0,0,0,2.793-.977,4.638,4.638,0,0,0,1.035-1.465h5.684a7.061,7.061,0,0,1-1.973,3.848,9.665,9.665,0,0,1-7.656,3.105,10.8,10.8,0,0,1-7.168-2.617q-3.105-2.617-3.105-8.516,0-5.527,2.8-8.477A9.583,9.583,0,0,1,224.336,57.145Zm31.816,10.977h7.3l-3.594-11.328Zm.371-17.91h6.8L273.516,79h-6.523l-1.855-5.918H254.531L252.539,79H246.25ZM281.055,72.2a3.717,3.717,0,0,0,.762,2.109q1.035,1.113,3.828,1.113a5.835,5.835,0,0,0,2.607-.488,1.638,1.638,0,0,0,.186-2.891,31.783,31.783,0,0,0-5.8-1.68,12.081,12.081,0,0,1-5.1-2.246,4.869,4.869,0,0,1-1.484-3.828,6.64,6.64,0,0,1,2.314-5.068,9.3,9.3,0,0,1,6.514-2.119,11.95,11.95,0,0,1,6.494,1.592q2.51,1.592,2.881,5.5h-5.566a3.293,3.293,0,0,0-.605-1.7,3.809,3.809,0,0,0-3.125-1.133,4.49,4.49,0,0,0-2.588.566,1.63,1.63,0,0,0-.771,1.328,1.454,1.454,0,0,0,.82,1.387,35.511,35.511,0,0,0,5.8,1.543,10.655,10.655,0,0,1,4.98,2.363,5.366,5.366,0,0,1,1.641,4,6.47,6.47,0,0,1-2.354,5.166q-2.354,2-7.275,2-5.02,0-7.412-2.119a6.894,6.894,0,0,1-2.393-5.4Z" transform="translate(679 316)"/><g transform="translate(1126 261.857)"><path class="b" d="M9.429,17.1a8.571,8.571,0,1,1,0-17.057V2.614a6,6,0,0,0-.857-.043,6,6,0,1,0,0,12,6,6,0,0,0,.857-.043Z" transform="translate(0 0)"/><path class="b" d="M179.429,17.1a8.571,8.571,0,1,1,0-17.057V2.614a6.153,6.153,0,0,0-6.718,4.672h5V9.857h-5a6.153,6.153,0,0,0,6.718,4.671Z" transform="translate(-155.429)"/></g></g></svg>