<svg xmlns="http://www.w3.org/2000/svg" width="478.137" height="409.648" viewBox="0 0 478.137 409.648"><defs><style>.a,.b{fill:#06003b;}.b{font-size:19px;font-family:OpenSans, Open Sans;}.c{fill:#ff4f26;}</style></defs><g transform="translate(-684.863 -135)"><path class="a" d="M8.281,21,3.438,8.344H3.359q.137,1.5.137,3.574V21H1.963V6.723h2.5L8.984,18.5h.078L13.623,6.723H16.1V21h-1.66V11.8q0-1.582.137-3.437H14.5L9.619,21ZM21.4,21H19.775V10.3H21.4ZM19.639,7.4a1.077,1.077,0,0,1,.273-.815,1.012,1.012,0,0,1,1.357,0,1.057,1.057,0,0,1,.283.811,1.074,1.074,0,0,1-.283.815.992.992,0,0,1-1.357,0A1.1,1.1,0,0,1,19.639,7.4ZM32.158,21V14.076a2.793,2.793,0,0,0-.6-1.953,2.427,2.427,0,0,0-1.865-.645,3.076,3.076,0,0,0-2.461.908,4.585,4.585,0,0,0-.781,3V21H24.834V10.3h1.318l.264,1.465h.078a3.31,3.31,0,0,1,1.4-1.226,4.537,4.537,0,0,1,2-.435,4.065,4.065,0,0,1,2.91.933,3.969,3.969,0,0,1,.977,2.983V21Zm6.572,0H37.109V10.3H38.73ZM36.973,7.4a1.077,1.077,0,0,1,.273-.815,1.012,1.012,0,0,1,1.357,0,1.057,1.057,0,0,1,.283.811,1.074,1.074,0,0,1-.283.815.992.992,0,0,1-1.357,0A1.1,1.1,0,0,1,36.973,7.4ZM55.811,21V14.037a2.89,2.89,0,0,0-.547-1.919,2.115,2.115,0,0,0-1.7-.64,2.743,2.743,0,0,0-2.236.869,4.131,4.131,0,0,0-.723,2.676V21H48.984V14.037a2.89,2.89,0,0,0-.547-1.919,2.128,2.128,0,0,0-1.709-.64,2.647,2.647,0,0,0-2.231.913,4.942,4.942,0,0,0-.708,2.993V21H42.168V10.3h1.318l.264,1.465h.078a3.186,3.186,0,0,1,1.294-1.221,3.953,3.953,0,0,1,1.87-.439q2.51,0,3.281,1.816h.078a3.413,3.413,0,0,1,1.387-1.328,4.3,4.3,0,0,1,2.07-.488,3.624,3.624,0,0,1,2.72.933,4.172,4.172,0,0,1,.9,2.983V21Zm11.543,0-.322-1.523h-.078a4.5,4.5,0,0,1-1.6,1.362,4.867,4.867,0,0,1-1.987.356,3.575,3.575,0,0,1-2.5-.82,2.992,2.992,0,0,1-.9-2.334q0-3.242,5.186-3.4l1.816-.059V13.92a2.714,2.714,0,0,0-.542-1.86,2.229,2.229,0,0,0-1.733-.6,7.063,7.063,0,0,0-3.027.82l-.5-1.24a7.618,7.618,0,0,1,1.733-.674,7.507,7.507,0,0,1,1.89-.244,4.077,4.077,0,0,1,2.837.85,3.546,3.546,0,0,1,.923,2.725V21Zm-3.662-1.143a3.29,3.29,0,0,0,2.378-.83,3.071,3.071,0,0,0,.864-2.324v-.967l-1.621.068a5.9,5.9,0,0,0-2.788.6,1.811,1.811,0,0,0-.854,1.655A1.67,1.67,0,0,0,62.2,19.4,2.209,2.209,0,0,0,63.691,19.857ZM73.516,21H71.895V5.8h1.621Zm5.059,0H76.953V5.8h1.621Zm1.738-10.7h1.738l2.344,6.1a23.216,23.216,0,0,1,.957,3.018h.078q.127-.5.532-1.7T88.613,10.3h1.738l-4.6,12.188a6.08,6.08,0,0,1-1.6,2.563,3.4,3.4,0,0,1-2.241.757,6.522,6.522,0,0,1-1.465-.166v-1.3a5.651,5.651,0,0,0,1.2.117,2.476,2.476,0,0,0,2.383-1.875l.6-1.523ZM97.529,21V6.723h1.66V21Zm12.656,0V14.076a2.793,2.793,0,0,0-.6-1.953,2.427,2.427,0,0,0-1.865-.645,3.076,3.076,0,0,0-2.461.908,4.585,4.585,0,0,0-.781,3V21h-1.621V10.3h1.318l.264,1.465h.078a3.31,3.31,0,0,1,1.4-1.226,4.537,4.537,0,0,1,2-.435,4.065,4.065,0,0,1,2.91.933,3.969,3.969,0,0,1,.977,2.983V21Zm7.295,0-4.062-10.7h1.738l2.3,6.348a30.044,30.044,0,0,1,.918,2.891h.078a21.834,21.834,0,0,1,.679-2.144q.571-1.626,2.563-7.095h1.738L119.375,21Zm14.258,0-.322-1.523h-.078a4.5,4.5,0,0,1-1.6,1.362,4.867,4.867,0,0,1-1.987.356,3.575,3.575,0,0,1-2.5-.82,2.992,2.992,0,0,1-.9-2.334q0-3.242,5.186-3.4l1.816-.059V13.92a2.714,2.714,0,0,0-.542-1.86,2.229,2.229,0,0,0-1.733-.6,7.063,7.063,0,0,0-3.027.82l-.5-1.24a7.618,7.618,0,0,1,1.733-.674,7.507,7.507,0,0,1,1.89-.244,4.077,4.077,0,0,1,2.837.85,3.546,3.546,0,0,1,.923,2.725V21Zm-3.662-1.143a3.29,3.29,0,0,0,2.378-.83,3.071,3.071,0,0,0,.864-2.324v-.967L129.7,15.8a5.9,5.9,0,0,0-2.788.6,1.811,1.811,0,0,0-.854,1.655,1.67,1.67,0,0,0,.532,1.338A2.209,2.209,0,0,0,128.076,19.857Zm15.107-1.777a2.681,2.681,0,0,1-1.113,2.3,5.233,5.233,0,0,1-3.125.811,6.8,6.8,0,0,1-3.32-.674v-1.5a8.03,8.03,0,0,0,1.655.615,6.912,6.912,0,0,0,1.7.225,3.864,3.864,0,0,0,1.953-.405,1.4,1.4,0,0,0,.142-2.3,8.526,8.526,0,0,0-2.114-1.05,11.465,11.465,0,0,1-2.124-.972,2.9,2.9,0,0,1-.937-.942,2.458,2.458,0,0,1-.308-1.26,2.4,2.4,0,0,1,1.064-2.065,4.96,4.96,0,0,1,2.92-.757,8.544,8.544,0,0,1,3.379.7l-.576,1.318a7.756,7.756,0,0,0-2.92-.664,3.359,3.359,0,0,0-1.738.361,1.117,1.117,0,0,0-.586,1,1.213,1.213,0,0,0,.22.732,2.168,2.168,0,0,0,.708.576,15.821,15.821,0,0,0,1.875.791,7,7,0,0,1,2.573,1.4A2.463,2.463,0,0,1,143.184,18.08ZM147.441,21H145.82V10.3h1.621ZM145.684,7.4a1.077,1.077,0,0,1,.273-.815,1.012,1.012,0,0,1,1.357,0,1.057,1.057,0,0,1,.283.811,1.074,1.074,0,0,1-.283.815.992.992,0,0,1-1.357,0A1.1,1.1,0,0,1,145.684,7.4ZM153.223,21,149.16,10.3H150.9l2.3,6.348a30.044,30.044,0,0,1,.918,2.891h.078a21.832,21.832,0,0,1,.679-2.144q.571-1.626,2.563-7.095h1.738L155.117,21Zm12.2.2a4.918,4.918,0,0,1-3.745-1.445,5.6,5.6,0,0,1-1.372-4.014,6.205,6.205,0,0,1,1.274-4.111A4.233,4.233,0,0,1,165,10.1a4.036,4.036,0,0,1,3.184,1.323,5.072,5.072,0,0,1,1.172,3.491v1.025h-7.373a4.243,4.243,0,0,0,.952,2.861,3.293,3.293,0,0,0,2.544.977,8.621,8.621,0,0,0,3.418-.723V20.5a8.579,8.579,0,0,1-1.626.532A9.138,9.138,0,0,1,165.42,21.2Zm-.439-9.736a2.647,2.647,0,0,0-2.056.84,3.871,3.871,0,0,0-.9,2.324h5.6a3.564,3.564,0,0,0-.684-2.349A2.406,2.406,0,0,0,164.98,11.459ZM183.877,21,179.033,8.344h-.078q.137,1.5.137,3.574V21h-1.533V6.723h2.5L184.58,18.5h.078l4.561-11.777h2.48V21h-1.66V11.8q0-1.582.137-3.437H190.1L185.215,21Zm13.115,0h-1.621V10.3h1.621ZM195.234,7.4a1.077,1.077,0,0,1,.273-.815,1.012,1.012,0,0,1,1.357,0,1.057,1.057,0,0,1,.283.811,1.074,1.074,0,0,1-.283.815.992.992,0,0,1-1.357,0A1.1,1.1,0,0,1,195.234,7.4Zm9.473,13.8a4.568,4.568,0,0,1-3.6-1.431,5.883,5.883,0,0,1-1.274-4.048,6.067,6.067,0,0,1,1.294-4.15,4.659,4.659,0,0,1,3.687-1.465,7.316,7.316,0,0,1,1.543.166,5.083,5.083,0,0,1,1.211.391l-.5,1.377a7.623,7.623,0,0,0-1.172-.356,5.232,5.232,0,0,0-1.123-.142q-3.262,0-3.262,4.16a4.954,4.954,0,0,0,.8,3.027,2.769,2.769,0,0,0,2.358,1.055,7.211,7.211,0,0,0,2.744-.576v1.436A5.849,5.849,0,0,1,204.707,21.2ZM214.834,10.1a6.343,6.343,0,0,1,1.279.117l-.225,1.5a5.522,5.522,0,0,0-1.172-.146,2.853,2.853,0,0,0-2.222,1.055,3.846,3.846,0,0,0-.923,2.627V21h-1.621V10.3h1.338l.186,1.982h.078a4.705,4.705,0,0,1,1.436-1.611A3.232,3.232,0,0,1,214.834,10.1Zm12.119,5.537a5.9,5.9,0,0,1-1.318,4.087,4.643,4.643,0,0,1-3.643,1.47,4.824,4.824,0,0,1-2.549-.674,4.447,4.447,0,0,1-1.719-1.934,6.739,6.739,0,0,1-.605-2.949,5.9,5.9,0,0,1,1.309-4.077,4.628,4.628,0,0,1,3.633-1.46A4.528,4.528,0,0,1,225.63,11.6,5.879,5.879,0,0,1,226.953,15.639Zm-8.154,0a5.08,5.08,0,0,0,.82,3.125,3.256,3.256,0,0,0,4.829,0,5.054,5.054,0,0,0,.825-3.13,4.973,4.973,0,0,0-.825-3.1,2.9,2.9,0,0,0-2.437-1.06,2.853,2.853,0,0,0-2.4,1.045A5.029,5.029,0,0,0,218.8,15.639ZM243.291,17.2a3.5,3.5,0,0,1-1.367,2.939,5.928,5.928,0,0,1-3.711,1.055,9.3,9.3,0,0,1-3.906-.654v-1.6a10.284,10.284,0,0,0,1.914.586,10.071,10.071,0,0,0,2.051.215,4.138,4.138,0,0,0,2.5-.63,2.067,2.067,0,0,0,.84-1.753,2.25,2.25,0,0,0-.3-1.216,2.767,2.767,0,0,0-1-.874,13.936,13.936,0,0,0-2.124-.908,6.78,6.78,0,0,1-2.847-1.689,3.73,3.73,0,0,1-.854-2.549,3.17,3.17,0,0,1,1.24-2.627,5.154,5.154,0,0,1,3.281-.977,9.67,9.67,0,0,1,3.916.781l-.518,1.445A8.85,8.85,0,0,0,238.975,8a3.327,3.327,0,0,0-2.061.566,1.867,1.867,0,0,0-.742,1.572,2.41,2.41,0,0,0,.273,1.216,2.575,2.575,0,0,0,.923.869,11.466,11.466,0,0,0,1.987.874,7.868,7.868,0,0,1,3.091,1.719A3.38,3.38,0,0,1,243.291,17.2Zm6.953,3.994a4.568,4.568,0,0,1-3.6-1.431,5.883,5.883,0,0,1-1.274-4.048,6.067,6.067,0,0,1,1.294-4.15,4.659,4.659,0,0,1,3.687-1.465,7.316,7.316,0,0,1,1.543.166,5.083,5.083,0,0,1,1.211.391l-.5,1.377a7.623,7.623,0,0,0-1.172-.356,5.232,5.232,0,0,0-1.123-.142q-3.262,0-3.262,4.16a4.954,4.954,0,0,0,.8,3.027,2.769,2.769,0,0,0,2.358,1.055,7.211,7.211,0,0,0,2.744-.576v1.436A5.849,5.849,0,0,1,250.244,21.2Zm6.865-.2h-1.621V5.8h1.621Zm7.959.2a4.917,4.917,0,0,1-3.745-1.445,5.6,5.6,0,0,1-1.372-4.014,6.205,6.205,0,0,1,1.274-4.111,4.233,4.233,0,0,1,3.423-1.523,4.036,4.036,0,0,1,3.184,1.323A5.072,5.072,0,0,1,269,14.916v1.025h-7.373a4.243,4.243,0,0,0,.952,2.861,3.293,3.293,0,0,0,2.544.977,8.621,8.621,0,0,0,3.418-.723V20.5a8.578,8.578,0,0,1-1.626.532A9.138,9.138,0,0,1,265.068,21.2Zm-.439-9.736a2.647,2.647,0,0,0-2.056.84,3.871,3.871,0,0,0-.9,2.324h5.6a3.564,3.564,0,0,0-.684-2.349A2.406,2.406,0,0,0,264.629,11.459ZM276.65,10.1a6.343,6.343,0,0,1,1.279.117l-.225,1.5a5.522,5.522,0,0,0-1.172-.146,2.853,2.853,0,0,0-2.222,1.055,3.846,3.846,0,0,0-.923,2.627V21h-1.621V10.3h1.338l.186,1.982h.078a4.7,4.7,0,0,1,1.436-1.611A3.232,3.232,0,0,1,276.65,10.1Zm12.119,5.537a5.9,5.9,0,0,1-1.318,4.087,4.643,4.643,0,0,1-3.643,1.47,4.824,4.824,0,0,1-2.549-.674,4.447,4.447,0,0,1-1.719-1.934,6.739,6.739,0,0,1-.605-2.949,5.9,5.9,0,0,1,1.309-4.077,4.628,4.628,0,0,1,3.633-1.46,4.528,4.528,0,0,1,3.569,1.494A5.879,5.879,0,0,1,288.77,15.639Zm-8.154,0a5.08,5.08,0,0,0,.82,3.125,3.256,3.256,0,0,0,4.829,0,5.054,5.054,0,0,0,.825-3.13,4.973,4.973,0,0,0-.825-3.1,2.9,2.9,0,0,0-2.437-1.06,2.853,2.853,0,0,0-2.4,1.045A5.029,5.029,0,0,0,280.615,15.639Zm17.9,2.441a2.681,2.681,0,0,1-1.113,2.3,5.233,5.233,0,0,1-3.125.811,6.8,6.8,0,0,1-3.32-.674v-1.5a8.029,8.029,0,0,0,1.655.615,6.912,6.912,0,0,0,1.7.225,3.864,3.864,0,0,0,1.953-.405,1.4,1.4,0,0,0,.142-2.3A8.525,8.525,0,0,0,294.3,16.1a11.465,11.465,0,0,1-2.124-.972,2.9,2.9,0,0,1-.937-.942,2.458,2.458,0,0,1-.308-1.26,2.4,2.4,0,0,1,1.064-2.065,4.96,4.96,0,0,1,2.92-.757,8.543,8.543,0,0,1,3.379.7l-.576,1.318a7.756,7.756,0,0,0-2.92-.664,3.359,3.359,0,0,0-1.738.361,1.117,1.117,0,0,0-.586,1,1.213,1.213,0,0,0,.22.732,2.168,2.168,0,0,0,.708.576,15.824,15.824,0,0,0,1.875.791,7,7,0,0,1,2.573,1.4A2.463,2.463,0,0,1,298.516,18.08Zm6.094,1.777a5.3,5.3,0,0,0,.83-.063,5.373,5.373,0,0,0,.635-.132V20.9a2.963,2.963,0,0,1-.776.21,5.83,5.83,0,0,1-.923.083q-3.105,0-3.105-3.271V11.557h-1.533v-.781l1.533-.674.684-2.285h.938V10.3H306v1.26h-3.105v6.3a2.167,2.167,0,0,0,.459,1.484A1.6,1.6,0,0,0,304.609,19.857Zm12.842-4.219a5.9,5.9,0,0,1-1.318,4.087,4.643,4.643,0,0,1-3.643,1.47,4.824,4.824,0,0,1-2.549-.674,4.447,4.447,0,0,1-1.719-1.934,6.739,6.739,0,0,1-.605-2.949,5.9,5.9,0,0,1,1.309-4.077,4.628,4.628,0,0,1,3.633-1.46,4.528,4.528,0,0,1,3.569,1.494A5.879,5.879,0,0,1,317.451,15.639Zm-8.154,0a5.08,5.08,0,0,0,.82,3.125,3.256,3.256,0,0,0,4.829,0,5.054,5.054,0,0,0,.825-3.13,4.973,4.973,0,0,0-.825-3.1,2.9,2.9,0,0,0-2.437-1.06,2.853,2.853,0,0,0-2.4,1.045A5.029,5.029,0,0,0,309.3,15.639ZM333.936,21V14.037a2.89,2.89,0,0,0-.547-1.919,2.115,2.115,0,0,0-1.7-.64,2.743,2.743,0,0,0-2.236.869,4.131,4.131,0,0,0-.723,2.676V21h-1.621V14.037a2.89,2.89,0,0,0-.547-1.919,2.128,2.128,0,0,0-1.709-.64,2.647,2.647,0,0,0-2.231.913,4.942,4.942,0,0,0-.708,2.993V21h-1.621V10.3h1.318l.264,1.465h.078a3.186,3.186,0,0,1,1.294-1.221,3.953,3.953,0,0,1,1.87-.439q2.51,0,3.281,1.816h.078a3.413,3.413,0,0,1,1.387-1.328,4.3,4.3,0,0,1,2.07-.488,3.624,3.624,0,0,1,2.72.933,4.172,4.172,0,0,1,.9,2.983V21ZM337.2,10.3h1.738l2.344,6.1a23.216,23.216,0,0,1,.957,3.018h.078q.127-.5.532-1.7T345.5,10.3h1.738l-4.6,12.188a6.08,6.08,0,0,1-1.6,2.563,3.4,3.4,0,0,1-2.241.757,6.522,6.522,0,0,1-1.465-.166v-1.3a5.65,5.65,0,0,0,1.2.117,2.476,2.476,0,0,0,2.383-1.875l.6-1.523Z" transform="translate(683 334)"/><text class="b" transform="translate(1147 177)"><tspan x="0" y="0">®</tspan></text><path class="a" d="M22.755,130.275V30.235l47.97,132.02h.82l44.9-132.02V134.58c0,13.53-3.485,20.5-13.12,25.01V160h49.405v-.41c-9.43-4.51-13.12-11.48-13.12-25.01V41.51c0-13.53,1.845-20.09,11.48-24.6V16.5h-35.67L80.36,119.205,43.05,16.5H5.535v.41c9.43,4.51,11.07,11.07,11.07,24.6V131.3c0,15.58-5.125,23.78-14.76,28.29V160H38.13v-.41C27.88,155.08,22.755,146.88,22.755,130.275ZM197,134.99V41.51c0-13.53,1.845-20.09,11.275-24.6V16.5H161.95v.41c9.43,4.51,11.07,11.07,11.07,24.6v93.48c0,13.53-1.64,20.09-11.07,24.6V160h46.33v-.41C198.85,155.08,197,148.52,197,134.99Zm39.36-4.715V30.235l47.97,132.02h.82L330.05,30.235V134.58c0,13.53-3.485,20.5-13.12,25.01V160h49.405v-.41c-9.43-4.51-13.12-11.48-13.12-25.01V41.51c0-13.53,1.845-20.09,11.48-24.6V16.5h-35.67L293.97,119.205,256.66,16.5H219.145v.41c9.43,4.51,11.07,11.07,11.07,24.6V131.3c0,15.58-5.125,23.78-14.76,28.29V160H251.74v-.41C241.49,155.08,236.365,146.88,236.365,130.275ZM420.865,18.96c20.5,0,31.365,18.04,39.975,38.745h.41L459.815,14.45c-2.46,3.075-5.125,5.945-10.25,5.945-6.56,0-14.76-5.945-28.9-5.945-23.78,0-43.255,15.58-43.255,39.975,0,25.215,18.655,34.03,36.9,42.025,17.425,7.585,34.44,14.35,34.44,33.825,0,17.425-11.275,27.265-26.855,27.265-17.835,0-34.85-16.6-45.51-43.46h-.41l2.665,47.97c3.485-3.9,6.765-6.56,11.685-6.56,7.38,0,16.81,6.56,31.775,6.56,23.37,0,45.715-14.145,45.715-41.41,0-28.7-22.345-37.1-42.025-45.305-15.375-6.56-29.315-13.53-29.315-30.75C396.47,28.6,407.54,18.96,420.865,18.96Z" transform="translate(685 163)"/><circle class="c" cx="12" cy="12" r="12" transform="translate(858 135)"/><path class="a" d="M18.035,31.162a6.3,6.3,0,0,1-2.461,5.291,10.671,10.671,0,0,1-6.68,1.9,16.73,16.73,0,0,1-7.031-1.178V34.291a18.512,18.512,0,0,0,3.445,1.055A18.127,18.127,0,0,0,9,35.732,7.448,7.448,0,0,0,13.5,34.6a3.721,3.721,0,0,0,1.512-3.155,4.05,4.05,0,0,0-.536-2.188,4.981,4.981,0,0,0-1.793-1.573,25.083,25.083,0,0,0-3.823-1.635,12.2,12.2,0,0,1-5.124-3.041A6.714,6.714,0,0,1,2.2,18.418,5.706,5.706,0,0,1,4.43,13.689a9.277,9.277,0,0,1,5.906-1.758,17.406,17.406,0,0,1,7.049,1.406l-.932,2.6A15.93,15.93,0,0,0,10.266,14.6a5.988,5.988,0,0,0-3.709,1.02,3.36,3.36,0,0,0-1.336,2.83,4.337,4.337,0,0,0,.492,2.188,4.634,4.634,0,0,0,1.661,1.564,20.639,20.639,0,0,0,3.577,1.573,14.162,14.162,0,0,1,5.563,3.094A6.085,6.085,0,0,1,18.035,31.162Zm11.039,4.781a9.532,9.532,0,0,0,1.494-.114,9.672,9.672,0,0,0,1.143-.237v2.232a5.334,5.334,0,0,1-1.4.378,10.494,10.494,0,0,1-1.661.149q-5.59,0-5.59-5.889V21H20.3V19.6l2.76-1.213,1.23-4.113H25.98v4.465h5.59V21H25.98V32.34a3.9,3.9,0,0,0,.826,2.672A2.875,2.875,0,0,0,29.074,35.943ZM43.7,38.352a8.851,8.851,0,0,1-6.741-2.6,10.071,10.071,0,0,1-2.47-7.225,11.169,11.169,0,0,1,2.294-7.4,7.62,7.62,0,0,1,6.161-2.742,7.265,7.265,0,0,1,5.73,2.382,9.129,9.129,0,0,1,2.109,6.284v1.846H37.512a7.637,7.637,0,0,0,1.714,5.15A5.928,5.928,0,0,0,43.8,35.8a15.517,15.517,0,0,0,6.152-1.3v2.6a15.442,15.442,0,0,1-2.927.958A16.448,16.448,0,0,1,43.7,38.352Zm-.791-17.525a4.765,4.765,0,0,0-3.7,1.512,6.968,6.968,0,0,0-1.626,4.184H47.654a6.416,6.416,0,0,0-1.23-4.228A4.331,4.331,0,0,0,42.908,20.826ZM68.941,38V25.537a5.028,5.028,0,0,0-1.072-3.516,4.368,4.368,0,0,0-3.357-1.16,5.537,5.537,0,0,0-4.43,1.635q-1.406,1.635-1.406,5.4V38H55.758V18.734h2.373l.475,2.637h.141a5.958,5.958,0,0,1,2.514-2.206,8.167,8.167,0,0,1,3.6-.782A7.318,7.318,0,0,1,70.1,20.062q1.758,1.679,1.758,5.37V38Zm15.135-2.057a9.532,9.532,0,0,0,1.494-.114,9.672,9.672,0,0,0,1.143-.237v2.232a5.334,5.334,0,0,1-1.4.378,10.494,10.494,0,0,1-1.661.149q-5.59,0-5.59-5.889V21H75.3V19.6l2.76-1.213,1.23-4.113h1.688v4.465h5.59V21h-5.59V32.34a3.9,3.9,0,0,0,.826,2.672A2.875,2.875,0,0,0,84.076,35.943Zm4.869-6.258V27.014h8.631v2.672ZM102.586,38V12.3h2.988V35.293h11.338V38Zm26.385.352a8.851,8.851,0,0,1-6.741-2.6,10.071,10.071,0,0,1-2.47-7.225,11.169,11.169,0,0,1,2.294-7.4,7.62,7.62,0,0,1,6.161-2.742,7.265,7.265,0,0,1,5.73,2.382,9.129,9.129,0,0,1,2.109,6.284v1.846H122.783a7.637,7.637,0,0,0,1.714,5.15,5.928,5.928,0,0,0,4.579,1.758,15.517,15.517,0,0,0,6.152-1.3v2.6a15.442,15.442,0,0,1-2.927.958A16.448,16.448,0,0,1,128.971,38.352Zm-.791-17.525a4.765,4.765,0,0,0-3.7,1.512,6.968,6.968,0,0,0-1.626,4.184h10.072a6.416,6.416,0,0,0-1.23-4.228A4.331,4.331,0,0,0,128.18,20.826Zm25.277,11.918a4.826,4.826,0,0,1-2,4.148,9.419,9.419,0,0,1-5.625,1.459,12.231,12.231,0,0,1-5.977-1.213V34.432a14.453,14.453,0,0,0,2.979,1.107,12.442,12.442,0,0,0,3.067.4,6.956,6.956,0,0,0,3.516-.729,2.512,2.512,0,0,0,.255-4.148,15.346,15.346,0,0,0-3.806-1.89,20.636,20.636,0,0,1-3.823-1.749,5.222,5.222,0,0,1-1.687-1.7,4.424,4.424,0,0,1-.554-2.268,4.323,4.323,0,0,1,1.916-3.718,8.928,8.928,0,0,1,5.256-1.362,15.378,15.378,0,0,1,6.082,1.266l-1.037,2.373a13.961,13.961,0,0,0-5.256-1.2,6.047,6.047,0,0,0-3.129.65,2.011,2.011,0,0,0-1.055,1.793,2.184,2.184,0,0,0,.4,1.318,3.9,3.9,0,0,0,1.274,1.037,28.48,28.48,0,0,0,3.375,1.424,12.608,12.608,0,0,1,4.632,2.514A4.433,4.433,0,0,1,153.457,32.744Zm17.174,0a4.826,4.826,0,0,1-2,4.148A9.419,9.419,0,0,1,163,38.352a12.231,12.231,0,0,1-5.977-1.213V34.432A14.453,14.453,0,0,0,160,35.539a12.442,12.442,0,0,0,3.067.4,6.956,6.956,0,0,0,3.516-.729,2.512,2.512,0,0,0,.255-4.148,15.346,15.346,0,0,0-3.806-1.89,20.636,20.636,0,0,1-3.823-1.749,5.222,5.222,0,0,1-1.687-1.7,4.424,4.424,0,0,1-.554-2.268,4.323,4.323,0,0,1,1.916-3.718,8.928,8.928,0,0,1,5.256-1.362,15.378,15.378,0,0,1,6.082,1.266l-1.037,2.373a13.961,13.961,0,0,0-5.256-1.2,6.047,6.047,0,0,0-3.129.65,2.011,2.011,0,0,0-1.055,1.793,2.184,2.184,0,0,0,.4,1.318,3.9,3.9,0,0,0,1.274,1.037,28.48,28.48,0,0,0,3.375,1.424,12.608,12.608,0,0,1,4.632,2.514A4.433,4.433,0,0,1,170.631,32.744Zm7.8,1.072.264.4q-.457,1.758-1.318,4.087t-1.793,4.333h-2.2q.475-1.828,1.046-4.518t.8-4.307Zm30.059-2.654a6.3,6.3,0,0,1-2.461,5.291,10.671,10.671,0,0,1-6.68,1.9,16.73,16.73,0,0,1-7.031-1.178V34.291a18.512,18.512,0,0,0,3.445,1.055,18.127,18.127,0,0,0,3.691.387,7.448,7.448,0,0,0,4.5-1.134,3.721,3.721,0,0,0,1.512-3.155,4.05,4.05,0,0,0-.536-2.188,4.981,4.981,0,0,0-1.793-1.573,25.083,25.083,0,0,0-3.823-1.635,12.2,12.2,0,0,1-5.124-3.041,6.714,6.714,0,0,1-1.538-4.588,5.706,5.706,0,0,1,2.232-4.729,9.277,9.277,0,0,1,5.906-1.758,17.406,17.406,0,0,1,7.049,1.406l-.932,2.6a15.93,15.93,0,0,0-6.187-1.336,5.988,5.988,0,0,0-3.709,1.02,3.36,3.36,0,0,0-1.336,2.83,4.337,4.337,0,0,0,.492,2.188,4.634,4.634,0,0,0,1.661,1.564,20.639,20.639,0,0,0,3.577,1.573,14.162,14.162,0,0,1,5.563,3.094A6.085,6.085,0,0,1,208.494,31.162ZM216.229,38h-2.918V18.734h2.918Zm-3.164-24.486a1.938,1.938,0,0,1,.492-1.468,1.822,1.822,0,0,1,2.443.009,1.9,1.9,0,0,1,.51,1.459,1.933,1.933,0,0,1-.51,1.468,1.785,1.785,0,0,1-2.443,0A1.974,1.974,0,0,1,213.064,13.514ZM246.973,38V25.467a5.2,5.2,0,0,0-.984-3.454,3.807,3.807,0,0,0-3.059-1.151,4.938,4.938,0,0,0-4.025,1.564,7.435,7.435,0,0,0-1.3,4.816V38h-2.918V25.467a5.2,5.2,0,0,0-.984-3.454,3.831,3.831,0,0,0-3.076-1.151,4.765,4.765,0,0,0-4.017,1.644q-1.274,1.644-1.274,5.388V38h-2.918V18.734h2.373l.475,2.637h.141a5.735,5.735,0,0,1,2.329-2.2,7.116,7.116,0,0,1,3.366-.791q4.518,0,5.906,3.27h.141a6.143,6.143,0,0,1,2.5-2.391,7.745,7.745,0,0,1,3.727-.879,6.524,6.524,0,0,1,4.9,1.679q1.626,1.679,1.626,5.37V38Zm17.895.352a8.337,8.337,0,0,1-3.437-.694,6.463,6.463,0,0,1-2.61-2.136h-.211a25.841,25.841,0,0,1,.211,3.2v7.928H255.9V18.734h2.373l.4,2.637h.141a6.777,6.777,0,0,1,2.619-2.285,7.962,7.962,0,0,1,3.428-.7A7.121,7.121,0,0,1,270.782,21q2.083,2.619,2.083,7.348,0,4.746-2.118,7.374A7.133,7.133,0,0,1,264.867,38.352Zm-.422-17.49a5.171,5.171,0,0,0-4.271,1.635q-1.318,1.635-1.354,5.2v.65q0,4.061,1.354,5.81a5.148,5.148,0,0,0,4.342,1.749,4.515,4.515,0,0,0,3.911-2.021,9.586,9.586,0,0,0,1.415-5.572,9.226,9.226,0,0,0-1.415-5.528A4.654,4.654,0,0,0,264.445,20.861ZM280.881,38h-2.918V10.648h2.918Zm14.326.352a8.851,8.851,0,0,1-6.741-2.6A10.071,10.071,0,0,1,286,28.525a11.169,11.169,0,0,1,2.294-7.4,7.62,7.62,0,0,1,6.161-2.742,7.265,7.265,0,0,1,5.73,2.382,9.129,9.129,0,0,1,2.109,6.284v1.846H289.02a7.637,7.637,0,0,0,1.714,5.15,5.928,5.928,0,0,0,4.579,1.758,15.517,15.517,0,0,0,6.152-1.3v2.6a15.442,15.442,0,0,1-2.927.958A16.448,16.448,0,0,1,295.207,38.352Zm-.791-17.525a4.765,4.765,0,0,0-3.7,1.512,6.968,6.968,0,0,0-1.626,4.184h10.072a6.416,6.416,0,0,0-1.23-4.228A4.331,4.331,0,0,0,294.416,20.826Zm26.385-3.41a4.563,4.563,0,0,0,.633,2.312,14.017,14.017,0,0,0,2.162,2.646,11.448,11.448,0,0,0,3.155-2.435,4.02,4.02,0,0,0,.888-2.575,2.893,2.893,0,0,0-.905-2.206,3.382,3.382,0,0,0-2.417-.853,3.745,3.745,0,0,0-2.54.844A2.846,2.846,0,0,0,320.8,17.416Zm2.725,18.316a9.7,9.7,0,0,0,7.031-2.707l-7.682-7.453a17,17,0,0,0-2.76,1.978,5.224,5.224,0,0,0-1.2,1.679,5.1,5.1,0,0,0-.387,2.039,4.131,4.131,0,0,0,1.362,3.261A5.281,5.281,0,0,0,323.525,35.732Zm-8.016-4.395a6.91,6.91,0,0,1,1.222-4.043,13.234,13.234,0,0,1,4.386-3.551,21.058,21.058,0,0,1-2.03-2.531,8.648,8.648,0,0,1-.853-1.793,5.972,5.972,0,0,1-.316-1.934,5.127,5.127,0,0,1,1.723-4.113,7.145,7.145,0,0,1,4.8-1.477,6.466,6.466,0,0,1,4.482,1.468,5.21,5.21,0,0,1,1.635,4.087,5.656,5.656,0,0,1-1.2,3.472,13.563,13.563,0,0,1-3.955,3.226l7.154,6.873a8.492,8.492,0,0,0,1.573-2.558,21.962,21.962,0,0,0,.993-3.208h2.953a16.8,16.8,0,0,1-3.6,7.629L339.732,38h-4.025l-3.252-3.129a12.477,12.477,0,0,1-9,3.48,8.493,8.493,0,0,1-5.862-1.863A6.556,6.556,0,0,1,315.51,31.338ZM355.676,38h-2.988V12.3h14.326v2.654H355.676v9.4h10.652v2.654H355.676Zm27,0-.58-2.742h-.141a8.107,8.107,0,0,1-2.874,2.452,8.76,8.76,0,0,1-3.577.642,6.435,6.435,0,0,1-4.491-1.477,5.386,5.386,0,0,1-1.626-4.2q0-5.836,9.334-6.117l3.27-.105v-1.2a4.884,4.884,0,0,0-.976-3.349,4.012,4.012,0,0,0-3.12-1.081,12.713,12.713,0,0,0-5.449,1.477l-.9-2.232a13.712,13.712,0,0,1,3.12-1.213,13.513,13.513,0,0,1,3.4-.439,7.339,7.339,0,0,1,5.106,1.529q1.661,1.529,1.661,4.9V38Zm-6.592-2.057a5.923,5.923,0,0,0,4.28-1.494,5.527,5.527,0,0,0,1.556-4.184v-1.74L379,28.648a10.614,10.614,0,0,0-5.019,1.081,3.26,3.26,0,0,0-1.538,2.979,3.006,3.006,0,0,0,.958,2.408A3.977,3.977,0,0,0,376.084,35.943Zm27.193-3.2a4.826,4.826,0,0,1-2,4.148,9.419,9.419,0,0,1-5.625,1.459,12.231,12.231,0,0,1-5.977-1.213V34.432a14.453,14.453,0,0,0,2.979,1.107,12.442,12.442,0,0,0,3.067.4,6.956,6.956,0,0,0,3.516-.729,2.512,2.512,0,0,0,.255-4.148,15.346,15.346,0,0,0-3.806-1.89,20.636,20.636,0,0,1-3.823-1.749,5.222,5.222,0,0,1-1.687-1.7,4.424,4.424,0,0,1-.554-2.268,4.323,4.323,0,0,1,1.916-3.718,8.928,8.928,0,0,1,5.256-1.362,15.378,15.378,0,0,1,6.082,1.266l-1.037,2.373a13.961,13.961,0,0,0-5.256-1.2,6.047,6.047,0,0,0-3.129.65A2.011,2.011,0,0,0,392.4,23.27a2.184,2.184,0,0,0,.4,1.318,3.9,3.9,0,0,0,1.274,1.037,28.48,28.48,0,0,0,3.375,1.424,12.608,12.608,0,0,1,4.632,2.514A4.433,4.433,0,0,1,403.277,32.744Zm10.969,3.2a9.532,9.532,0,0,0,1.494-.114,9.672,9.672,0,0,0,1.143-.237v2.232a5.334,5.334,0,0,1-1.4.378,10.494,10.494,0,0,1-1.661.149q-5.59,0-5.59-5.889V21h-2.76V19.6l2.76-1.213,1.23-4.113h1.688v4.465h5.59V21h-5.59V32.34a3.9,3.9,0,0,0,.826,2.672A2.875,2.875,0,0,0,414.246,35.943ZM14.836,73.535h8.736v12.5a28.086,28.086,0,0,1-4.148.984,31.583,31.583,0,0,1-4.887.334q-5.836,0-9.088-3.472T2.2,74.15a14.7,14.7,0,0,1,1.608-7.022,10.878,10.878,0,0,1,4.632-4.605,15,15,0,0,1,7.084-1.591,19.359,19.359,0,0,1,7.664,1.512l-1.16,2.637a17.121,17.121,0,0,0-6.7-1.477A9.59,9.59,0,0,0,8,66.4Q5.361,69.193,5.361,74.15q0,5.2,2.54,7.893t7.462,2.689a22.171,22.171,0,0,0,5.221-.615v-7.91H14.836ZM32.221,87H29.3V59.648h2.918Zm18.035,0-.58-2.742h-.141a8.107,8.107,0,0,1-2.874,2.452,8.76,8.76,0,0,1-3.577.642,6.435,6.435,0,0,1-4.491-1.477,5.386,5.386,0,0,1-1.626-4.2q0-5.836,9.334-6.117l3.27-.105v-1.2a4.884,4.884,0,0,0-.976-3.349,4.012,4.012,0,0,0-3.12-1.081A12.713,12.713,0,0,0,40.025,71.3l-.9-2.232a13.712,13.712,0,0,1,3.12-1.213,13.513,13.513,0,0,1,3.4-.439,7.339,7.339,0,0,1,5.106,1.529q1.661,1.529,1.661,4.9V87Zm-6.592-2.057a5.923,5.923,0,0,0,4.28-1.494A5.527,5.527,0,0,0,49.5,79.266v-1.74l-2.918.123a10.614,10.614,0,0,0-5.019,1.081,3.26,3.26,0,0,0-1.538,2.979,3.006,3.006,0,0,0,.958,2.408A3.977,3.977,0,0,0,43.664,84.943ZM61.172,67.734v12.5a5.028,5.028,0,0,0,1.072,3.516,4.368,4.368,0,0,0,3.357,1.16,5.478,5.478,0,0,0,4.421-1.652q1.4-1.652,1.4-5.4V67.734h2.918V87H71.93l-.422-2.584H71.35a5.816,5.816,0,0,1-2.487,2.18,8.36,8.36,0,0,1-3.63.756,7.365,7.365,0,0,1-5.265-1.67q-1.749-1.67-1.749-5.344v-12.6ZM88.225,87.352a8.222,8.222,0,0,1-6.478-2.575Q79.453,82.2,79.453,77.49q0-4.834,2.329-7.471a8.386,8.386,0,0,1,6.636-2.637,13.168,13.168,0,0,1,2.777.3,9.149,9.149,0,0,1,2.18.7l-.9,2.479a13.72,13.72,0,0,0-2.109-.642,9.418,9.418,0,0,0-2.021-.255q-5.871,0-5.871,7.488A8.916,8.916,0,0,0,83.909,82.9a4.984,4.984,0,0,0,4.245,1.9,12.979,12.979,0,0,0,4.939-1.037V86.35A10.527,10.527,0,0,1,88.225,87.352Zm26.068-10q0,4.711-2.373,7.356a8.357,8.357,0,0,1-6.557,2.646,8.684,8.684,0,0,1-4.588-1.213,8.005,8.005,0,0,1-3.094-3.48,12.13,12.13,0,0,1-1.09-5.309q0-4.711,2.355-7.339a8.33,8.33,0,0,1,6.539-2.628,8.15,8.15,0,0,1,6.425,2.689A10.582,10.582,0,0,1,114.293,77.35Zm-14.678,0a9.145,9.145,0,0,0,1.477,5.625,5.86,5.86,0,0,0,8.692.009,9.1,9.1,0,0,0,1.485-5.634,8.951,8.951,0,0,0-1.485-5.581,5.219,5.219,0,0,0-4.386-1.907,5.136,5.136,0,0,0-4.324,1.881A9.052,9.052,0,0,0,99.615,77.35ZM143.965,87V74.467a5.2,5.2,0,0,0-.984-3.454,3.807,3.807,0,0,0-3.059-1.151,4.938,4.938,0,0,0-4.025,1.564,7.435,7.435,0,0,0-1.3,4.816V87h-2.918V74.467a5.2,5.2,0,0,0-.984-3.454,3.831,3.831,0,0,0-3.076-1.151A4.765,4.765,0,0,0,123.6,71.5q-1.274,1.644-1.274,5.388V87h-2.918V67.734h2.373l.475,2.637h.141a5.735,5.735,0,0,1,2.329-2.2,7.116,7.116,0,0,1,3.366-.791q4.518,0,5.906,3.27h.141a6.143,6.143,0,0,1,2.5-2.391,7.745,7.745,0,0,1,3.727-.879,6.524,6.524,0,0,1,4.9,1.679q1.626,1.679,1.626,5.37V87Zm20.777,0-.58-2.742h-.141a8.107,8.107,0,0,1-2.874,2.452,8.76,8.76,0,0,1-3.577.642,6.435,6.435,0,0,1-4.491-1.477,5.386,5.386,0,0,1-1.626-4.2q0-5.836,9.334-6.117l3.27-.105v-1.2a4.884,4.884,0,0,0-.976-3.349,4.012,4.012,0,0,0-3.12-1.081,12.713,12.713,0,0,0-5.449,1.477l-.9-2.232a13.712,13.712,0,0,1,3.12-1.213,13.513,13.513,0,0,1,3.4-.439,7.339,7.339,0,0,1,5.106,1.529q1.661,1.529,1.661,4.9V87Zm-6.592-2.057a5.923,5.923,0,0,0,4.28-1.494,5.527,5.527,0,0,0,1.556-4.184v-1.74l-2.918.123a10.614,10.614,0,0,0-5.019,1.081,3.26,3.26,0,0,0-1.538,2.979,3.006,3.006,0,0,0,.958,2.408A3.977,3.977,0,0,0,158.15,84.943Zm39.059-4.781a6.3,6.3,0,0,1-2.461,5.291,10.671,10.671,0,0,1-6.68,1.9,16.73,16.73,0,0,1-7.031-1.178V83.291a18.512,18.512,0,0,0,3.445,1.055,18.127,18.127,0,0,0,3.691.387,7.448,7.448,0,0,0,4.5-1.134,3.721,3.721,0,0,0,1.512-3.155,4.05,4.05,0,0,0-.536-2.188,4.981,4.981,0,0,0-1.793-1.573,25.083,25.083,0,0,0-3.823-1.635,12.2,12.2,0,0,1-5.124-3.041,6.714,6.714,0,0,1-1.538-4.588,5.706,5.706,0,0,1,2.232-4.729,9.277,9.277,0,0,1,5.906-1.758,17.406,17.406,0,0,1,7.049,1.406l-.932,2.6a15.93,15.93,0,0,0-6.187-1.336,5.988,5.988,0,0,0-3.709,1.02,3.36,3.36,0,0,0-1.336,2.83,4.337,4.337,0,0,0,.492,2.188,4.634,4.634,0,0,0,1.661,1.564,20.639,20.639,0,0,0,3.577,1.573,14.162,14.162,0,0,1,5.563,3.094A6.085,6.085,0,0,1,197.209,80.162Zm7.559-12.428v12.5a5.028,5.028,0,0,0,1.072,3.516,4.368,4.368,0,0,0,3.357,1.16,5.478,5.478,0,0,0,4.421-1.652q1.4-1.652,1.4-5.4V67.734h2.918V87h-2.408l-.422-2.584h-.158a5.816,5.816,0,0,1-2.487,2.18,8.36,8.36,0,0,1-3.63.756,7.365,7.365,0,0,1-5.265-1.67q-1.749-1.67-1.749-5.344v-12.6Zm28.143-.352a11.418,11.418,0,0,1,2.3.211l-.4,2.707a9.94,9.94,0,0,0-2.109-.264,5.135,5.135,0,0,0-4,1.9,6.922,6.922,0,0,0-1.661,4.729V87h-2.918V67.734h2.408l.334,3.568H227a8.469,8.469,0,0,1,2.584-2.9A5.817,5.817,0,0,1,232.91,67.383Zm21.322.352V69.58L250.664,70a6.267,6.267,0,0,1,1.266,3.85A5.7,5.7,0,0,1,250,78.369a7.8,7.8,0,0,1-5.309,1.688,8.84,8.84,0,0,1-1.617-.141,2.872,2.872,0,0,0-1.863,2.479,1.259,1.259,0,0,0,.65,1.169,4.751,4.751,0,0,0,2.232.378h3.41a7.636,7.636,0,0,1,4.808,1.318,4.581,4.581,0,0,1,1.679,3.832,5.47,5.47,0,0,1-2.566,4.878q-2.566,1.679-7.488,1.679a10.231,10.231,0,0,1-5.827-1.406,4.54,4.54,0,0,1-2.048-3.973,4.462,4.462,0,0,1,1.125-3.041,5.728,5.728,0,0,1,3.164-1.74,3.052,3.052,0,0,1-1.239-1.037,2.745,2.745,0,0,1-.5-1.635,3.1,3.1,0,0,1,.563-1.846,5.914,5.914,0,0,1,1.775-1.529,5.2,5.2,0,0,1-2.435-2.092,6.147,6.147,0,0,1-.94-3.375,6.234,6.234,0,0,1,1.9-4.878,7.751,7.751,0,0,1,5.379-1.714,9.781,9.781,0,0,1,2.725.352Zm-15.363,22.5a2.615,2.615,0,0,0,1.318,2.373,7.276,7.276,0,0,0,3.779.809,10.546,10.546,0,0,0,5.44-1.1,3.364,3.364,0,0,0,1.767-2.979,2.358,2.358,0,0,0-.967-2.171,7.509,7.509,0,0,0-3.639-.606h-3.5a4.607,4.607,0,0,0-3.094.949A3.392,3.392,0,0,0,238.869,90.234Zm1.582-16.33a3.922,3.922,0,0,0,1.143,3.059A4.562,4.562,0,0,0,244.775,78q4.271,0,4.271-4.148,0-4.342-4.324-4.342a4.281,4.281,0,0,0-3.164,1.107A4.46,4.46,0,0,0,240.451,73.9Zm25.875,13.447a8.851,8.851,0,0,1-6.741-2.6,10.071,10.071,0,0,1-2.47-7.225,11.169,11.169,0,0,1,2.294-7.4,7.62,7.62,0,0,1,6.161-2.742,7.265,7.265,0,0,1,5.73,2.382,9.129,9.129,0,0,1,2.109,6.284v1.846H260.139a7.637,7.637,0,0,0,1.714,5.15,5.928,5.928,0,0,0,4.579,1.758,15.517,15.517,0,0,0,6.152-1.3v2.6a15.442,15.442,0,0,1-2.927.958A16.448,16.448,0,0,1,266.326,87.352Zm-.791-17.525a4.765,4.765,0,0,0-3.7,1.512,6.968,6.968,0,0,0-1.626,4.184h10.072a6.416,6.416,0,0,0-1.23-4.228A4.331,4.331,0,0,0,265.535,69.826Zm21.639-2.443a11.418,11.418,0,0,1,2.3.211l-.4,2.707a9.94,9.94,0,0,0-2.109-.264,5.135,5.135,0,0,0-4,1.9,6.922,6.922,0,0,0-1.661,4.729V87h-2.918V67.734h2.408l.334,3.568h.141a8.469,8.469,0,0,1,2.584-2.9A5.817,5.817,0,0,1,287.174,67.383Zm2.848.352h3.129l4.219,10.986a41.788,41.788,0,0,1,1.723,5.432h.141q.229-.9.958-3.067t4.772-13.351h3.129l-8.279,21.938a10.944,10.944,0,0,1-2.874,4.614,6.112,6.112,0,0,1-4.034,1.362,11.739,11.739,0,0,1-2.637-.3V93.012a10.171,10.171,0,0,0,2.162.211q3.006,0,4.289-3.375l1.072-2.742Z" transform="translate(683 449)"/></g></svg>