<svg xmlns="http://www.w3.org/2000/svg" width="478.56" height="400.805" viewBox="0 0 478.56 400.805"><defs><style>.a,.b{fill:#06003b;}.b{font-size:18px;font-family:OpenSans, Open Sans;}.c{fill:#ff4f26;}</style></defs><g transform="translate(-683.44 -169)"><path class="a" d="M8.281,21,3.438,8.344H3.359q.137,1.5.137,3.574V21H1.963V6.723h2.5L8.984,18.5h.078L13.623,6.723H16.1V21h-1.66V11.8q0-1.582.137-3.437H14.5L9.619,21ZM21.4,21H19.775V10.3H21.4ZM19.639,7.4a1.077,1.077,0,0,1,.273-.815,1.012,1.012,0,0,1,1.357,0,1.057,1.057,0,0,1,.283.811,1.074,1.074,0,0,1-.283.815.992.992,0,0,1-1.357,0A1.1,1.1,0,0,1,19.639,7.4ZM32.158,21V14.076a2.793,2.793,0,0,0-.6-1.953,2.427,2.427,0,0,0-1.865-.645,3.076,3.076,0,0,0-2.461.908,4.585,4.585,0,0,0-.781,3V21H24.834V10.3h1.318l.264,1.465h.078a3.31,3.31,0,0,1,1.4-1.226,4.537,4.537,0,0,1,2-.435,4.065,4.065,0,0,1,2.91.933,3.969,3.969,0,0,1,.977,2.983V21Zm6.572,0H37.109V10.3H38.73ZM36.973,7.4a1.077,1.077,0,0,1,.273-.815,1.012,1.012,0,0,1,1.357,0,1.057,1.057,0,0,1,.283.811,1.074,1.074,0,0,1-.283.815.992.992,0,0,1-1.357,0A1.1,1.1,0,0,1,36.973,7.4ZM55.811,21V14.037a2.89,2.89,0,0,0-.547-1.919,2.115,2.115,0,0,0-1.7-.64,2.743,2.743,0,0,0-2.236.869,4.131,4.131,0,0,0-.723,2.676V21H48.984V14.037a2.89,2.89,0,0,0-.547-1.919,2.128,2.128,0,0,0-1.709-.64,2.647,2.647,0,0,0-2.231.913,4.942,4.942,0,0,0-.708,2.993V21H42.168V10.3h1.318l.264,1.465h.078a3.186,3.186,0,0,1,1.294-1.221,3.953,3.953,0,0,1,1.87-.439q2.51,0,3.281,1.816h.078a3.413,3.413,0,0,1,1.387-1.328,4.3,4.3,0,0,1,2.07-.488,3.624,3.624,0,0,1,2.72.933,4.172,4.172,0,0,1,.9,2.983V21Zm11.543,0-.322-1.523h-.078a4.5,4.5,0,0,1-1.6,1.362,4.867,4.867,0,0,1-1.987.356,3.575,3.575,0,0,1-2.5-.82,2.992,2.992,0,0,1-.9-2.334q0-3.242,5.186-3.4l1.816-.059V13.92a2.714,2.714,0,0,0-.542-1.86,2.229,2.229,0,0,0-1.733-.6,7.063,7.063,0,0,0-3.027.82l-.5-1.24a7.618,7.618,0,0,1,1.733-.674,7.507,7.507,0,0,1,1.89-.244,4.077,4.077,0,0,1,2.837.85,3.546,3.546,0,0,1,.923,2.725V21Zm-3.662-1.143a3.29,3.29,0,0,0,2.378-.83,3.071,3.071,0,0,0,.864-2.324v-.967l-1.621.068a5.9,5.9,0,0,0-2.788.6,1.811,1.811,0,0,0-.854,1.655A1.67,1.67,0,0,0,62.2,19.4,2.209,2.209,0,0,0,63.691,19.857ZM73.516,21H71.895V5.8h1.621Zm5.059,0H76.953V5.8h1.621Zm1.738-10.7h1.738l2.344,6.1a23.216,23.216,0,0,1,.957,3.018h.078q.127-.5.532-1.7T88.613,10.3h1.738l-4.6,12.188a6.08,6.08,0,0,1-1.6,2.563,3.4,3.4,0,0,1-2.241.757,6.522,6.522,0,0,1-1.465-.166v-1.3a5.651,5.651,0,0,0,1.2.117,2.476,2.476,0,0,0,2.383-1.875l.6-1.523ZM97.529,21V6.723h1.66V21Zm12.656,0V14.076a2.793,2.793,0,0,0-.6-1.953,2.427,2.427,0,0,0-1.865-.645,3.076,3.076,0,0,0-2.461.908,4.585,4.585,0,0,0-.781,3V21h-1.621V10.3h1.318l.264,1.465h.078a3.31,3.31,0,0,1,1.4-1.226,4.537,4.537,0,0,1,2-.435,4.065,4.065,0,0,1,2.91.933,3.969,3.969,0,0,1,.977,2.983V21Zm7.295,0-4.062-10.7h1.738l2.3,6.348a30.044,30.044,0,0,1,.918,2.891h.078a21.834,21.834,0,0,1,.679-2.144q.571-1.626,2.563-7.095h1.738L119.375,21Zm14.258,0-.322-1.523h-.078a4.5,4.5,0,0,1-1.6,1.362,4.867,4.867,0,0,1-1.987.356,3.575,3.575,0,0,1-2.5-.82,2.992,2.992,0,0,1-.9-2.334q0-3.242,5.186-3.4l1.816-.059V13.92a2.714,2.714,0,0,0-.542-1.86,2.229,2.229,0,0,0-1.733-.6,7.063,7.063,0,0,0-3.027.82l-.5-1.24a7.618,7.618,0,0,1,1.733-.674,7.507,7.507,0,0,1,1.89-.244,4.077,4.077,0,0,1,2.837.85,3.546,3.546,0,0,1,.923,2.725V21Zm-3.662-1.143a3.29,3.29,0,0,0,2.378-.83,3.071,3.071,0,0,0,.864-2.324v-.967L129.7,15.8a5.9,5.9,0,0,0-2.788.6,1.811,1.811,0,0,0-.854,1.655,1.67,1.67,0,0,0,.532,1.338A2.209,2.209,0,0,0,128.076,19.857Zm15.107-1.777a2.681,2.681,0,0,1-1.113,2.3,5.233,5.233,0,0,1-3.125.811,6.8,6.8,0,0,1-3.32-.674v-1.5a8.03,8.03,0,0,0,1.655.615,6.912,6.912,0,0,0,1.7.225,3.864,3.864,0,0,0,1.953-.405,1.4,1.4,0,0,0,.142-2.3,8.526,8.526,0,0,0-2.114-1.05,11.465,11.465,0,0,1-2.124-.972,2.9,2.9,0,0,1-.937-.942,2.458,2.458,0,0,1-.308-1.26,2.4,2.4,0,0,1,1.064-2.065,4.96,4.96,0,0,1,2.92-.757,8.544,8.544,0,0,1,3.379.7l-.576,1.318a7.756,7.756,0,0,0-2.92-.664,3.359,3.359,0,0,0-1.738.361,1.117,1.117,0,0,0-.586,1,1.213,1.213,0,0,0,.22.732,2.168,2.168,0,0,0,.708.576,15.821,15.821,0,0,0,1.875.791,7,7,0,0,1,2.573,1.4A2.463,2.463,0,0,1,143.184,18.08ZM147.441,21H145.82V10.3h1.621ZM145.684,7.4a1.077,1.077,0,0,1,.273-.815,1.012,1.012,0,0,1,1.357,0,1.057,1.057,0,0,1,.283.811,1.074,1.074,0,0,1-.283.815.992.992,0,0,1-1.357,0A1.1,1.1,0,0,1,145.684,7.4ZM153.223,21,149.16,10.3H150.9l2.3,6.348a30.044,30.044,0,0,1,.918,2.891h.078a21.832,21.832,0,0,1,.679-2.144q.571-1.626,2.563-7.095h1.738L155.117,21Zm12.2.2a4.918,4.918,0,0,1-3.745-1.445,5.6,5.6,0,0,1-1.372-4.014,6.205,6.205,0,0,1,1.274-4.111A4.233,4.233,0,0,1,165,10.1a4.036,4.036,0,0,1,3.184,1.323,5.072,5.072,0,0,1,1.172,3.491v1.025h-7.373a4.243,4.243,0,0,0,.952,2.861,3.293,3.293,0,0,0,2.544.977,8.621,8.621,0,0,0,3.418-.723V20.5a8.579,8.579,0,0,1-1.626.532A9.138,9.138,0,0,1,165.42,21.2Zm-.439-9.736a2.647,2.647,0,0,0-2.056.84,3.871,3.871,0,0,0-.9,2.324h5.6a3.564,3.564,0,0,0-.684-2.349A2.406,2.406,0,0,0,164.98,11.459ZM183.877,21,179.033,8.344h-.078q.137,1.5.137,3.574V21h-1.533V6.723h2.5L184.58,18.5h.078l4.561-11.777h2.48V21h-1.66V11.8q0-1.582.137-3.437H190.1L185.215,21Zm13.115,0h-1.621V10.3h1.621ZM195.234,7.4a1.077,1.077,0,0,1,.273-.815,1.012,1.012,0,0,1,1.357,0,1.057,1.057,0,0,1,.283.811,1.074,1.074,0,0,1-.283.815.992.992,0,0,1-1.357,0A1.1,1.1,0,0,1,195.234,7.4Zm9.473,13.8a4.568,4.568,0,0,1-3.6-1.431,5.883,5.883,0,0,1-1.274-4.048,6.067,6.067,0,0,1,1.294-4.15,4.659,4.659,0,0,1,3.687-1.465,7.316,7.316,0,0,1,1.543.166,5.083,5.083,0,0,1,1.211.391l-.5,1.377a7.623,7.623,0,0,0-1.172-.356,5.232,5.232,0,0,0-1.123-.142q-3.262,0-3.262,4.16a4.954,4.954,0,0,0,.8,3.027,2.769,2.769,0,0,0,2.358,1.055,7.211,7.211,0,0,0,2.744-.576v1.436A5.849,5.849,0,0,1,204.707,21.2ZM214.834,10.1a6.343,6.343,0,0,1,1.279.117l-.225,1.5a5.522,5.522,0,0,0-1.172-.146,2.853,2.853,0,0,0-2.222,1.055,3.846,3.846,0,0,0-.923,2.627V21h-1.621V10.3h1.338l.186,1.982h.078a4.705,4.705,0,0,1,1.436-1.611A3.232,3.232,0,0,1,214.834,10.1Zm12.119,5.537a5.9,5.9,0,0,1-1.318,4.087,4.643,4.643,0,0,1-3.643,1.47,4.824,4.824,0,0,1-2.549-.674,4.447,4.447,0,0,1-1.719-1.934,6.739,6.739,0,0,1-.605-2.949,5.9,5.9,0,0,1,1.309-4.077,4.628,4.628,0,0,1,3.633-1.46A4.528,4.528,0,0,1,225.63,11.6,5.879,5.879,0,0,1,226.953,15.639Zm-8.154,0a5.08,5.08,0,0,0,.82,3.125,3.256,3.256,0,0,0,4.829,0,5.054,5.054,0,0,0,.825-3.13,4.973,4.973,0,0,0-.825-3.1,2.9,2.9,0,0,0-2.437-1.06,2.853,2.853,0,0,0-2.4,1.045A5.029,5.029,0,0,0,218.8,15.639ZM243.291,17.2a3.5,3.5,0,0,1-1.367,2.939,5.928,5.928,0,0,1-3.711,1.055,9.3,9.3,0,0,1-3.906-.654v-1.6a10.284,10.284,0,0,0,1.914.586,10.071,10.071,0,0,0,2.051.215,4.138,4.138,0,0,0,2.5-.63,2.067,2.067,0,0,0,.84-1.753,2.25,2.25,0,0,0-.3-1.216,2.767,2.767,0,0,0-1-.874,13.936,13.936,0,0,0-2.124-.908,6.78,6.78,0,0,1-2.847-1.689,3.73,3.73,0,0,1-.854-2.549,3.17,3.17,0,0,1,1.24-2.627,5.154,5.154,0,0,1,3.281-.977,9.67,9.67,0,0,1,3.916.781l-.518,1.445A8.85,8.85,0,0,0,238.975,8a3.327,3.327,0,0,0-2.061.566,1.867,1.867,0,0,0-.742,1.572,2.41,2.41,0,0,0,.273,1.216,2.575,2.575,0,0,0,.923.869,11.466,11.466,0,0,0,1.987.874,7.868,7.868,0,0,1,3.091,1.719A3.38,3.38,0,0,1,243.291,17.2Zm6.953,3.994a4.568,4.568,0,0,1-3.6-1.431,5.883,5.883,0,0,1-1.274-4.048,6.067,6.067,0,0,1,1.294-4.15,4.659,4.659,0,0,1,3.687-1.465,7.316,7.316,0,0,1,1.543.166,5.083,5.083,0,0,1,1.211.391l-.5,1.377a7.623,7.623,0,0,0-1.172-.356,5.232,5.232,0,0,0-1.123-.142q-3.262,0-3.262,4.16a4.954,4.954,0,0,0,.8,3.027,2.769,2.769,0,0,0,2.358,1.055,7.211,7.211,0,0,0,2.744-.576v1.436A5.849,5.849,0,0,1,250.244,21.2Zm6.865-.2h-1.621V5.8h1.621Zm7.959.2a4.917,4.917,0,0,1-3.745-1.445,5.6,5.6,0,0,1-1.372-4.014,6.205,6.205,0,0,1,1.274-4.111,4.233,4.233,0,0,1,3.423-1.523,4.036,4.036,0,0,1,3.184,1.323A5.072,5.072,0,0,1,269,14.916v1.025h-7.373a4.243,4.243,0,0,0,.952,2.861,3.293,3.293,0,0,0,2.544.977,8.621,8.621,0,0,0,3.418-.723V20.5a8.578,8.578,0,0,1-1.626.532A9.138,9.138,0,0,1,265.068,21.2Zm-.439-9.736a2.647,2.647,0,0,0-2.056.84,3.871,3.871,0,0,0-.9,2.324h5.6a3.564,3.564,0,0,0-.684-2.349A2.406,2.406,0,0,0,264.629,11.459ZM276.65,10.1a6.343,6.343,0,0,1,1.279.117l-.225,1.5a5.522,5.522,0,0,0-1.172-.146,2.853,2.853,0,0,0-2.222,1.055,3.846,3.846,0,0,0-.923,2.627V21h-1.621V10.3h1.338l.186,1.982h.078a4.7,4.7,0,0,1,1.436-1.611A3.232,3.232,0,0,1,276.65,10.1Zm12.119,5.537a5.9,5.9,0,0,1-1.318,4.087,4.643,4.643,0,0,1-3.643,1.47,4.824,4.824,0,0,1-2.549-.674,4.447,4.447,0,0,1-1.719-1.934,6.739,6.739,0,0,1-.605-2.949,5.9,5.9,0,0,1,1.309-4.077,4.628,4.628,0,0,1,3.633-1.46,4.528,4.528,0,0,1,3.569,1.494A5.879,5.879,0,0,1,288.77,15.639Zm-8.154,0a5.08,5.08,0,0,0,.82,3.125,3.256,3.256,0,0,0,4.829,0,5.054,5.054,0,0,0,.825-3.13,4.973,4.973,0,0,0-.825-3.1,2.9,2.9,0,0,0-2.437-1.06,2.853,2.853,0,0,0-2.4,1.045A5.029,5.029,0,0,0,280.615,15.639Zm17.9,2.441a2.681,2.681,0,0,1-1.113,2.3,5.233,5.233,0,0,1-3.125.811,6.8,6.8,0,0,1-3.32-.674v-1.5a8.029,8.029,0,0,0,1.655.615,6.912,6.912,0,0,0,1.7.225,3.864,3.864,0,0,0,1.953-.405,1.4,1.4,0,0,0,.142-2.3A8.525,8.525,0,0,0,294.3,16.1a11.465,11.465,0,0,1-2.124-.972,2.9,2.9,0,0,1-.937-.942,2.458,2.458,0,0,1-.308-1.26,2.4,2.4,0,0,1,1.064-2.065,4.96,4.96,0,0,1,2.92-.757,8.543,8.543,0,0,1,3.379.7l-.576,1.318a7.756,7.756,0,0,0-2.92-.664,3.359,3.359,0,0,0-1.738.361,1.117,1.117,0,0,0-.586,1,1.213,1.213,0,0,0,.22.732,2.168,2.168,0,0,0,.708.576,15.824,15.824,0,0,0,1.875.791,7,7,0,0,1,2.573,1.4A2.463,2.463,0,0,1,298.516,18.08Zm6.094,1.777a5.3,5.3,0,0,0,.83-.063,5.373,5.373,0,0,0,.635-.132V20.9a2.963,2.963,0,0,1-.776.21,5.83,5.83,0,0,1-.923.083q-3.105,0-3.105-3.271V11.557h-1.533v-.781l1.533-.674.684-2.285h.938V10.3H306v1.26h-3.105v6.3a2.167,2.167,0,0,0,.459,1.484A1.6,1.6,0,0,0,304.609,19.857Zm12.842-4.219a5.9,5.9,0,0,1-1.318,4.087,4.643,4.643,0,0,1-3.643,1.47,4.824,4.824,0,0,1-2.549-.674,4.447,4.447,0,0,1-1.719-1.934,6.739,6.739,0,0,1-.605-2.949,5.9,5.9,0,0,1,1.309-4.077,4.628,4.628,0,0,1,3.633-1.46,4.528,4.528,0,0,1,3.569,1.494A5.879,5.879,0,0,1,317.451,15.639Zm-8.154,0a5.08,5.08,0,0,0,.82,3.125,3.256,3.256,0,0,0,4.829,0,5.054,5.054,0,0,0,.825-3.13,4.973,4.973,0,0,0-.825-3.1,2.9,2.9,0,0,0-2.437-1.06,2.853,2.853,0,0,0-2.4,1.045A5.029,5.029,0,0,0,309.3,15.639ZM333.936,21V14.037a2.89,2.89,0,0,0-.547-1.919,2.115,2.115,0,0,0-1.7-.64,2.743,2.743,0,0,0-2.236.869,4.131,4.131,0,0,0-.723,2.676V21h-1.621V14.037a2.89,2.89,0,0,0-.547-1.919,2.128,2.128,0,0,0-1.709-.64,2.647,2.647,0,0,0-2.231.913,4.942,4.942,0,0,0-.708,2.993V21h-1.621V10.3h1.318l.264,1.465h.078a3.186,3.186,0,0,1,1.294-1.221,3.953,3.953,0,0,1,1.87-.439q2.51,0,3.281,1.816h.078a3.413,3.413,0,0,1,1.387-1.328,4.3,4.3,0,0,1,2.07-.488,3.624,3.624,0,0,1,2.72.933,4.172,4.172,0,0,1,.9,2.983V21ZM337.2,10.3h1.738l2.344,6.1a23.216,23.216,0,0,1,.957,3.018h.078q.127-.5.532-1.7T345.5,10.3h1.738l-4.6,12.188a6.08,6.08,0,0,1-1.6,2.563,3.4,3.4,0,0,1-2.241.757,6.522,6.522,0,0,1-1.465-.166v-1.3a5.65,5.65,0,0,0,1.2.117,2.476,2.476,0,0,0,2.383-1.875l.6-1.523Z" transform="translate(683 334)"/><path class="a" d="M10.02,17.2a3.5,3.5,0,0,1-1.367,2.939A5.928,5.928,0,0,1,4.941,21.2a9.3,9.3,0,0,1-3.906-.654v-1.6a10.284,10.284,0,0,0,1.914.586A10.071,10.071,0,0,0,5,19.74a4.138,4.138,0,0,0,2.5-.63,2.067,2.067,0,0,0,.84-1.753,2.25,2.25,0,0,0-.3-1.216,2.767,2.767,0,0,0-1-.874,13.935,13.935,0,0,0-2.124-.908A6.78,6.78,0,0,1,2.075,12.67a3.73,3.73,0,0,1-.854-2.549,3.17,3.17,0,0,1,1.24-2.627,5.154,5.154,0,0,1,3.281-.977A9.67,9.67,0,0,1,9.658,7.3L9.141,8.744A8.85,8.85,0,0,0,5.7,8a3.327,3.327,0,0,0-2.061.566A1.867,1.867,0,0,0,2.9,10.141a2.41,2.41,0,0,0,.273,1.216,2.574,2.574,0,0,0,.923.869,11.466,11.466,0,0,0,1.987.874,7.868,7.868,0,0,1,3.091,1.719A3.38,3.38,0,0,1,10.02,17.2Zm6.133,2.656a5.3,5.3,0,0,0,.83-.063,5.373,5.373,0,0,0,.635-.132V20.9a2.963,2.963,0,0,1-.776.21,5.83,5.83,0,0,1-.923.083q-3.105,0-3.105-3.271V11.557H11.279v-.781l1.533-.674L13.5,7.816h.938V10.3h3.105v1.26H14.434v6.3a2.167,2.167,0,0,0,.459,1.484A1.6,1.6,0,0,0,16.152,19.857ZM26.338,21l-.322-1.523h-.078a4.5,4.5,0,0,1-1.6,1.362,4.867,4.867,0,0,1-1.987.356,3.575,3.575,0,0,1-2.5-.82,2.992,2.992,0,0,1-.9-2.334q0-3.242,5.186-3.4l1.816-.059V13.92a2.714,2.714,0,0,0-.542-1.86,2.229,2.229,0,0,0-1.733-.6,7.063,7.063,0,0,0-3.027.82l-.5-1.24a7.618,7.618,0,0,1,1.733-.674,7.507,7.507,0,0,1,1.89-.244,4.077,4.077,0,0,1,2.837.85,3.546,3.546,0,0,1,.923,2.725V21Zm-3.662-1.143a3.29,3.29,0,0,0,2.378-.83,3.071,3.071,0,0,0,.864-2.324v-.967L24.3,15.8a5.9,5.9,0,0,0-2.788.6,1.811,1.811,0,0,0-.854,1.655,1.67,1.67,0,0,0,.532,1.338A2.209,2.209,0,0,0,22.676,19.857Zm6.5-9.561h1.738l2.344,6.1a23.216,23.216,0,0,1,.957,3.018H34.3q.127-.5.532-1.7T37.48,10.3h1.738l-4.6,12.188a6.08,6.08,0,0,1-1.6,2.563,3.4,3.4,0,0,1-2.241.757,6.522,6.522,0,0,1-1.465-.166v-1.3a5.651,5.651,0,0,0,1.2.117A2.476,2.476,0,0,0,32.9,22.582l.6-1.523Zm18.5,0V17.24a2.793,2.793,0,0,0,.6,1.953,2.427,2.427,0,0,0,1.865.645,3.043,3.043,0,0,0,2.456-.918,4.631,4.631,0,0,0,.776-3V10.3H54.99V21H53.652l-.234-1.436H53.33a3.231,3.231,0,0,1-1.382,1.211,4.644,4.644,0,0,1-2.017.42,4.091,4.091,0,0,1-2.925-.928,3.949,3.949,0,0,1-.972-2.969v-7ZM63.408,21.2A4.632,4.632,0,0,1,61.5,20.81a3.59,3.59,0,0,1-1.45-1.187h-.117a14.356,14.356,0,0,1,.117,1.777v4.4H58.428V10.3h1.318l.225,1.465h.078a3.765,3.765,0,0,1,1.455-1.27,4.423,4.423,0,0,1,1.9-.391,3.956,3.956,0,0,1,3.286,1.455,6.406,6.406,0,0,1,1.157,4.082,6.369,6.369,0,0,1-1.177,4.1A3.963,3.963,0,0,1,63.408,21.2Zm-.234-9.717a2.873,2.873,0,0,0-2.373.908,4.673,4.673,0,0,0-.752,2.891v.361a5.356,5.356,0,0,0,.752,3.228,2.86,2.86,0,0,0,2.412.972,2.508,2.508,0,0,0,2.173-1.123,5.325,5.325,0,0,0,.786-3.1,5.126,5.126,0,0,0-.786-3.071A2.586,2.586,0,0,0,63.174,11.479Zm14.795,8.086h-.088A3.809,3.809,0,0,1,74.521,21.2a3.974,3.974,0,0,1-3.267-1.436,6.319,6.319,0,0,1-1.167-4.082,6.426,6.426,0,0,1,1.172-4.111A3.943,3.943,0,0,1,74.521,10.1a3.892,3.892,0,0,1,3.34,1.582h.127l-.068-.771-.039-.752V5.8H79.5V21H78.184Zm-3.242.273a2.951,2.951,0,0,0,2.407-.9,4.565,4.565,0,0,0,.747-2.915v-.342a5.371,5.371,0,0,0-.757-3.247,2.874,2.874,0,0,0-2.417-.972,2.481,2.481,0,0,0-2.183,1.108,5.511,5.511,0,0,0-.757,3.13,5.284,5.284,0,0,0,.752,3.1A2.547,2.547,0,0,0,74.727,19.838ZM89.521,21,89.2,19.477h-.078a4.5,4.5,0,0,1-1.6,1.362,4.867,4.867,0,0,1-1.987.356,3.575,3.575,0,0,1-2.5-.82,2.992,2.992,0,0,1-.9-2.334q0-3.242,5.186-3.4l1.816-.059V13.92a2.714,2.714,0,0,0-.542-1.86,2.229,2.229,0,0,0-1.733-.6,7.063,7.063,0,0,0-3.027.82l-.5-1.24a7.618,7.618,0,0,1,1.733-.674,7.507,7.507,0,0,1,1.89-.244,4.077,4.077,0,0,1,2.837.85,3.546,3.546,0,0,1,.923,2.725V21Zm-3.662-1.143a3.29,3.29,0,0,0,2.378-.83A3.071,3.071,0,0,0,89.1,16.7v-.967L87.48,15.8a5.9,5.9,0,0,0-2.788.6,1.811,1.811,0,0,0-.854,1.655A1.67,1.67,0,0,0,84.37,19.4,2.209,2.209,0,0,0,85.859,19.857Zm11.66,0a5.3,5.3,0,0,0,.83-.063,5.373,5.373,0,0,0,.635-.132V20.9a2.963,2.963,0,0,1-.776.21,5.83,5.83,0,0,1-.923.083q-3.105,0-3.105-3.271V11.557H92.646v-.781L94.18,10.1l.684-2.285H95.8V10.3h3.105v1.26H95.8v6.3a2.167,2.167,0,0,0,.459,1.484A1.6,1.6,0,0,0,97.52,19.857Zm8.125,1.338A4.917,4.917,0,0,1,101.9,19.75a5.6,5.6,0,0,1-1.372-4.014,6.205,6.205,0,0,1,1.274-4.111,4.233,4.233,0,0,1,3.423-1.523,4.036,4.036,0,0,1,3.184,1.323,5.072,5.072,0,0,1,1.172,3.491v1.025h-7.373a4.243,4.243,0,0,0,.952,2.861,3.293,3.293,0,0,0,2.544.977,8.621,8.621,0,0,0,3.418-.723V20.5a8.579,8.579,0,0,1-1.626.532A9.138,9.138,0,0,1,105.645,21.2Zm-.439-9.736a2.647,2.647,0,0,0-2.056.84,3.871,3.871,0,0,0-.9,2.324h5.6a3.564,3.564,0,0,0-.684-2.349A2.406,2.406,0,0,0,105.205,11.459Zm14.424,8.105h-.088a3.809,3.809,0,0,1-3.359,1.631,3.974,3.974,0,0,1-3.267-1.436,6.319,6.319,0,0,1-1.167-4.082,6.426,6.426,0,0,1,1.172-4.111,3.943,3.943,0,0,1,3.262-1.465,3.892,3.892,0,0,1,3.34,1.582h.127l-.068-.771-.039-.752V5.8h1.621V21h-1.318Zm-3.242.273a2.951,2.951,0,0,0,2.407-.9,4.565,4.565,0,0,0,.747-2.915v-.342a5.371,5.371,0,0,0-.757-3.247,2.874,2.874,0,0,0-2.417-.972,2.481,2.481,0,0,0-2.183,1.108,5.511,5.511,0,0,0-.757,3.13,5.284,5.284,0,0,0,.752,3.1A2.547,2.547,0,0,0,116.387,19.838Zm22.646-4.2a5.9,5.9,0,0,1-1.318,4.087,4.643,4.643,0,0,1-3.643,1.47,4.824,4.824,0,0,1-2.549-.674,4.447,4.447,0,0,1-1.719-1.934,6.739,6.739,0,0,1-.605-2.949,5.9,5.9,0,0,1,1.309-4.077,4.628,4.628,0,0,1,3.633-1.46A4.528,4.528,0,0,1,137.71,11.6,5.879,5.879,0,0,1,139.033,15.639Zm-8.154,0a5.08,5.08,0,0,0,.82,3.125,3.256,3.256,0,0,0,4.829,0,5.054,5.054,0,0,0,.825-3.13,4.973,4.973,0,0,0-.825-3.1,2.9,2.9,0,0,0-2.437-1.06,2.853,2.853,0,0,0-2.4,1.045A5.029,5.029,0,0,0,130.879,15.639ZM149.2,21V14.076a2.793,2.793,0,0,0-.6-1.953,2.427,2.427,0,0,0-1.865-.645,3.076,3.076,0,0,0-2.461.908,4.585,4.585,0,0,0-.781,3V21h-1.621V10.3h1.318l.264,1.465h.078a3.31,3.31,0,0,1,1.4-1.226,4.537,4.537,0,0,1,2-.435,4.065,4.065,0,0,1,2.91.933,3.969,3.969,0,0,1,.977,2.983V21Zm14.424.2a4.568,4.568,0,0,1-3.6-1.431,5.883,5.883,0,0,1-1.274-4.048,6.067,6.067,0,0,1,1.294-4.15A4.659,4.659,0,0,1,163.73,10.1a7.316,7.316,0,0,1,1.543.166,5.083,5.083,0,0,1,1.211.391l-.5,1.377a7.623,7.623,0,0,0-1.172-.356,5.232,5.232,0,0,0-1.123-.142q-3.262,0-3.262,4.16a4.954,4.954,0,0,0,.8,3.027,2.769,2.769,0,0,0,2.358,1.055,7.211,7.211,0,0,0,2.744-.576v1.436A5.849,5.849,0,0,1,163.623,21.2Zm14.482-5.557a5.9,5.9,0,0,1-1.318,4.087,4.643,4.643,0,0,1-3.643,1.47,4.824,4.824,0,0,1-2.549-.674,4.447,4.447,0,0,1-1.719-1.934,6.739,6.739,0,0,1-.605-2.949,5.9,5.9,0,0,1,1.309-4.077,4.628,4.628,0,0,1,3.633-1.46,4.528,4.528,0,0,1,3.569,1.494A5.879,5.879,0,0,1,178.105,15.639Zm-8.154,0a5.08,5.08,0,0,0,.82,3.125,3.256,3.256,0,0,0,4.829,0,5.054,5.054,0,0,0,.825-3.13,4.973,4.973,0,0,0-.825-3.1,2.9,2.9,0,0,0-2.437-1.06,2.853,2.853,0,0,0-2.4,1.045A5.029,5.029,0,0,0,169.951,15.639ZM188.271,21V14.076a2.793,2.793,0,0,0-.6-1.953,2.427,2.427,0,0,0-1.865-.645,3.076,3.076,0,0,0-2.461.908,4.585,4.585,0,0,0-.781,3V21h-1.621V10.3h1.318l.264,1.465h.078a3.31,3.31,0,0,1,1.4-1.226,4.537,4.537,0,0,1,2-.435,4.065,4.065,0,0,1,2.91.933,3.969,3.969,0,0,1,.977,2.983V21Zm8.408-1.143a5.3,5.3,0,0,0,.83-.063,5.374,5.374,0,0,0,.635-.132V20.9a2.963,2.963,0,0,1-.776.21,5.83,5.83,0,0,1-.923.083q-3.105,0-3.105-3.271V11.557h-1.533v-.781l1.533-.674.684-2.285h.938V10.3h3.105v1.26h-3.105v6.3a2.167,2.167,0,0,0,.459,1.484A1.6,1.6,0,0,0,196.68,19.857ZM201.9,21h-1.621V10.3H201.9ZM200.146,7.4a1.077,1.077,0,0,1,.273-.815,1.012,1.012,0,0,1,1.357,0,1.057,1.057,0,0,1,.283.811,1.074,1.074,0,0,1-.283.815.992.992,0,0,1-1.357,0A1.1,1.1,0,0,1,200.146,7.4ZM212.666,21V14.076a2.793,2.793,0,0,0-.6-1.953,2.427,2.427,0,0,0-1.865-.645,3.076,3.076,0,0,0-2.461.908,4.585,4.585,0,0,0-.781,3V21h-1.621V10.3h1.318l.264,1.465H207a3.31,3.31,0,0,1,1.4-1.226,4.537,4.537,0,0,1,2-.435,4.065,4.065,0,0,1,2.91.933,3.969,3.969,0,0,1,.977,2.983V21Zm6.475-10.7V17.24a2.793,2.793,0,0,0,.6,1.953,2.427,2.427,0,0,0,1.865.645,3.043,3.043,0,0,0,2.456-.918,4.631,4.631,0,0,0,.776-3V10.3h1.621V21h-1.338l-.234-1.436h-.088a3.231,3.231,0,0,1-1.382,1.211,4.644,4.644,0,0,1-2.017.42,4.091,4.091,0,0,1-2.925-.928A3.949,3.949,0,0,1,217.5,17.3v-7ZM231.514,21h-1.621V10.3h1.621ZM229.756,7.4a1.077,1.077,0,0,1,.273-.815,1.012,1.012,0,0,1,1.357,0,1.057,1.057,0,0,1,.283.811,1.074,1.074,0,0,1-.283.815.992.992,0,0,1-1.357,0A1.1,1.1,0,0,1,229.756,7.4ZM242.275,21V14.076a2.793,2.793,0,0,0-.6-1.953,2.427,2.427,0,0,0-1.865-.645,3.076,3.076,0,0,0-2.461.908,4.585,4.585,0,0,0-.781,3V21h-1.621V10.3h1.318l.264,1.465h.078a3.31,3.31,0,0,1,1.4-1.226,4.537,4.537,0,0,1,2-.435,4.065,4.065,0,0,1,2.91.933,3.969,3.969,0,0,1,.977,2.983V21Zm13.711-10.7v1.025L254,11.557a3.481,3.481,0,0,1,.7,2.139,3.164,3.164,0,0,1-1.074,2.51,4.333,4.333,0,0,1-2.949.938,4.911,4.911,0,0,1-.9-.078,1.6,1.6,0,0,0-1.035,1.377.7.7,0,0,0,.361.649,2.639,2.639,0,0,0,1.24.21h1.895a4.242,4.242,0,0,1,2.671.732,2.545,2.545,0,0,1,.933,2.129,3.039,3.039,0,0,1-1.426,2.71,7.631,7.631,0,0,1-4.16.933,5.684,5.684,0,0,1-3.237-.781,2.522,2.522,0,0,1-1.138-2.207,2.479,2.479,0,0,1,.625-1.689,3.182,3.182,0,0,1,1.758-.967,1.7,1.7,0,0,1-.688-.576,1.525,1.525,0,0,1-.278-.908,1.724,1.724,0,0,1,.313-1.025,3.285,3.285,0,0,1,.986-.85,2.891,2.891,0,0,1-1.353-1.162,3.415,3.415,0,0,1-.522-1.875,3.463,3.463,0,0,1,1.055-2.71,4.306,4.306,0,0,1,2.988-.952,5.434,5.434,0,0,1,1.514.2Zm-8.535,12.5a1.453,1.453,0,0,0,.732,1.318,4.042,4.042,0,0,0,2.1.449,5.859,5.859,0,0,0,3.022-.61,1.869,1.869,0,0,0,.981-1.655,1.31,1.31,0,0,0-.537-1.206,4.172,4.172,0,0,0-2.021-.337h-1.943a2.56,2.56,0,0,0-1.719.527A1.884,1.884,0,0,0,247.451,22.8Zm.879-9.072a2.179,2.179,0,0,0,.635,1.7,2.535,2.535,0,0,0,1.768.576,2.068,2.068,0,0,0,2.373-2.3,2.128,2.128,0,0,0-2.4-2.412,2.378,2.378,0,0,0-1.758.615A2.478,2.478,0,0,0,248.33,13.725ZM267.656,21.2a4.568,4.568,0,0,1-3.6-1.431,5.883,5.883,0,0,1-1.274-4.048,6.067,6.067,0,0,1,1.294-4.15,4.659,4.659,0,0,1,3.687-1.465,7.316,7.316,0,0,1,1.543.166,5.083,5.083,0,0,1,1.211.391l-.5,1.377a7.622,7.622,0,0,0-1.172-.356,5.232,5.232,0,0,0-1.123-.142q-3.262,0-3.262,4.16a4.954,4.954,0,0,0,.8,3.027,2.769,2.769,0,0,0,2.358,1.055,7.211,7.211,0,0,0,2.744-.576v1.436A5.849,5.849,0,0,1,267.656,21.2Zm6.865-.2H272.9V5.8h1.621Zm5.059,0h-1.621V10.3h1.621ZM277.822,7.4a1.077,1.077,0,0,1,.273-.815,1.012,1.012,0,0,1,1.357,0,1.057,1.057,0,0,1,.283.811,1.074,1.074,0,0,1-.283.815.992.992,0,0,1-1.357,0A1.1,1.1,0,0,1,277.822,7.4ZM290.342,21V14.076a2.794,2.794,0,0,0-.6-1.953,2.427,2.427,0,0,0-1.865-.645,3.076,3.076,0,0,0-2.461.908,4.585,4.585,0,0,0-.781,3V21h-1.621V10.3h1.318l.264,1.465h.078a3.31,3.31,0,0,1,1.4-1.226,4.537,4.537,0,0,1,2-.435,4.065,4.065,0,0,1,2.91.933,3.969,3.969,0,0,1,.977,2.983V21Zm6.572,0h-1.621V10.3h1.621ZM295.156,7.4a1.077,1.077,0,0,1,.273-.815,1.012,1.012,0,0,1,1.357,0,1.057,1.057,0,0,1,.283.811,1.074,1.074,0,0,1-.283.815.992.992,0,0,1-1.357,0A1.1,1.1,0,0,1,295.156,7.4Zm9.473,13.8a4.568,4.568,0,0,1-3.6-1.431,5.883,5.883,0,0,1-1.274-4.048,6.067,6.067,0,0,1,1.294-4.15,4.659,4.659,0,0,1,3.687-1.465,7.316,7.316,0,0,1,1.543.166,5.083,5.083,0,0,1,1.211.391l-.5,1.377a7.622,7.622,0,0,0-1.172-.356,5.232,5.232,0,0,0-1.123-.142q-3.262,0-3.262,4.16a4.954,4.954,0,0,0,.8,3.027,2.769,2.769,0,0,0,2.358,1.055,7.211,7.211,0,0,0,2.744-.576v1.436A5.849,5.849,0,0,1,304.629,21.2Zm11.826-.2-.322-1.523h-.078a4.5,4.5,0,0,1-1.6,1.362,4.867,4.867,0,0,1-1.987.356,3.575,3.575,0,0,1-2.5-.82,2.992,2.992,0,0,1-.9-2.334q0-3.242,5.186-3.4l1.816-.059V13.92a2.714,2.714,0,0,0-.542-1.86,2.229,2.229,0,0,0-1.733-.6,7.063,7.063,0,0,0-3.027.82l-.5-1.24a7.617,7.617,0,0,1,1.733-.674,7.508,7.508,0,0,1,1.89-.244,4.077,4.077,0,0,1,2.837.85,3.546,3.546,0,0,1,.923,2.725V21Zm-3.662-1.143a3.29,3.29,0,0,0,2.378-.83,3.071,3.071,0,0,0,.864-2.324v-.967l-1.621.068a5.9,5.9,0,0,0-2.788.6,1.811,1.811,0,0,0-.854,1.655A1.67,1.67,0,0,0,311.3,19.4,2.209,2.209,0,0,0,312.793,19.857ZM322.617,21H321V5.8h1.621Zm12.09-1.143a5.3,5.3,0,0,0,.83-.063,5.373,5.373,0,0,0,.635-.132V20.9a2.963,2.963,0,0,1-.776.21,5.83,5.83,0,0,1-.923.083q-3.105,0-3.105-3.271V11.557h-1.533v-.781l1.533-.674.684-2.285h.938V10.3h3.105v1.26h-3.105v6.3a2.167,2.167,0,0,0,.459,1.484A1.6,1.6,0,0,0,334.707,19.857Zm8.486-9.756a6.343,6.343,0,0,1,1.279.117l-.225,1.5a5.522,5.522,0,0,0-1.172-.146,2.853,2.853,0,0,0-2.222,1.055,3.846,3.846,0,0,0-.923,2.627V21h-1.621V10.3h1.338l.186,1.982h.078a4.7,4.7,0,0,1,1.436-1.611A3.232,3.232,0,0,1,343.193,10.1ZM348.1,21h-1.621V10.3H348.1ZM346.338,7.4a1.077,1.077,0,0,1,.273-.815,1.012,1.012,0,0,1,1.357,0,1.057,1.057,0,0,1,.283.811,1.074,1.074,0,0,1-.283.815.992.992,0,0,1-1.357,0A1.1,1.1,0,0,1,346.338,7.4ZM358.115,21l-.322-1.523h-.078a4.5,4.5,0,0,1-1.6,1.362,4.867,4.867,0,0,1-1.987.356,3.575,3.575,0,0,1-2.5-.82,2.992,2.992,0,0,1-.9-2.334q0-3.242,5.186-3.4l1.816-.059V13.92a2.714,2.714,0,0,0-.542-1.86,2.229,2.229,0,0,0-1.733-.6,7.063,7.063,0,0,0-3.027.82l-.5-1.24a7.617,7.617,0,0,1,1.733-.674,7.508,7.508,0,0,1,1.89-.244,4.077,4.077,0,0,1,2.837.85,3.546,3.546,0,0,1,.923,2.725V21Zm-3.662-1.143a3.29,3.29,0,0,0,2.378-.83A3.071,3.071,0,0,0,357.7,16.7v-.967l-1.621.068a5.9,5.9,0,0,0-2.788.6,1.811,1.811,0,0,0-.854,1.655,1.67,1.67,0,0,0,.532,1.338A2.209,2.209,0,0,0,354.453,19.857ZM364.277,21h-1.621V5.8h1.621Zm13.613.2a4.632,4.632,0,0,1-1.909-.386,3.59,3.59,0,0,1-1.45-1.187h-.117a14.356,14.356,0,0,1,.117,1.777v4.4H372.91V10.3h1.318l.225,1.465h.078a3.765,3.765,0,0,1,1.455-1.27,4.423,4.423,0,0,1,1.9-.391,3.956,3.956,0,0,1,3.286,1.455,6.406,6.406,0,0,1,1.157,4.082,6.369,6.369,0,0,1-1.177,4.1A3.963,3.963,0,0,1,377.891,21.2Zm-.234-9.717a2.873,2.873,0,0,0-2.373.908,4.673,4.673,0,0,0-.752,2.891v.361a5.356,5.356,0,0,0,.752,3.228,2.86,2.86,0,0,0,2.412.972,2.508,2.508,0,0,0,2.173-1.123,5.325,5.325,0,0,0,.786-3.1,5.126,5.126,0,0,0-.786-3.071A2.586,2.586,0,0,0,377.656,11.479ZM390.049,10.1a6.343,6.343,0,0,1,1.279.117l-.225,1.5a5.522,5.522,0,0,0-1.172-.146,2.853,2.853,0,0,0-2.222,1.055,3.846,3.846,0,0,0-.923,2.627V21h-1.621V10.3H386.5l.186,1.982h.078a4.7,4.7,0,0,1,1.436-1.611A3.232,3.232,0,0,1,390.049,10.1Zm12.119,5.537a5.9,5.9,0,0,1-1.318,4.087,4.643,4.643,0,0,1-3.643,1.47,4.824,4.824,0,0,1-2.549-.674,4.447,4.447,0,0,1-1.719-1.934,6.739,6.739,0,0,1-.605-2.949,5.9,5.9,0,0,1,1.309-4.077,4.628,4.628,0,0,1,3.633-1.46,4.528,4.528,0,0,1,3.569,1.494A5.879,5.879,0,0,1,402.168,15.639Zm-8.154,0a5.08,5.08,0,0,0,.82,3.125,3.256,3.256,0,0,0,4.829,0,5.054,5.054,0,0,0,.825-3.13,4.973,4.973,0,0,0-.825-3.1,2.9,2.9,0,0,0-2.437-1.06,2.853,2.853,0,0,0-2.4,1.045A5.029,5.029,0,0,0,394.014,15.639ZM413.77,10.3v1.025l-1.982.234a3.481,3.481,0,0,1,.7,2.139,3.164,3.164,0,0,1-1.074,2.51,4.333,4.333,0,0,1-2.949.938,4.911,4.911,0,0,1-.9-.078,1.6,1.6,0,0,0-1.035,1.377.7.7,0,0,0,.361.649,2.639,2.639,0,0,0,1.24.21h1.895a4.242,4.242,0,0,1,2.671.732,2.545,2.545,0,0,1,.933,2.129,3.039,3.039,0,0,1-1.426,2.71,7.631,7.631,0,0,1-4.16.933,5.684,5.684,0,0,1-3.237-.781,2.522,2.522,0,0,1-1.138-2.207,2.479,2.479,0,0,1,.625-1.689,3.182,3.182,0,0,1,1.758-.967,1.7,1.7,0,0,1-.688-.576,1.525,1.525,0,0,1-.278-.908,1.724,1.724,0,0,1,.313-1.025,3.286,3.286,0,0,1,.986-.85,2.891,2.891,0,0,1-1.353-1.162,3.415,3.415,0,0,1-.522-1.875,3.463,3.463,0,0,1,1.055-2.71,4.306,4.306,0,0,1,2.988-.952,5.434,5.434,0,0,1,1.514.2Zm-8.535,12.5a1.453,1.453,0,0,0,.732,1.318,4.042,4.042,0,0,0,2.1.449,5.859,5.859,0,0,0,3.022-.61,1.869,1.869,0,0,0,.981-1.655,1.31,1.31,0,0,0-.537-1.206,4.172,4.172,0,0,0-2.021-.337h-1.943a2.56,2.56,0,0,0-1.719.527A1.884,1.884,0,0,0,405.234,22.8Zm.879-9.072a2.179,2.179,0,0,0,.635,1.7,2.535,2.535,0,0,0,1.768.576,2.068,2.068,0,0,0,2.373-2.3,2.128,2.128,0,0,0-2.4-2.412,2.378,2.378,0,0,0-1.758.615A2.478,2.478,0,0,0,406.113,13.725ZM420.85,10.1a6.343,6.343,0,0,1,1.279.117l-.225,1.5a5.522,5.522,0,0,0-1.172-.146,2.853,2.853,0,0,0-2.222,1.055,3.846,3.846,0,0,0-.923,2.627V21h-1.621V10.3H417.3l.186,1.982h.078A4.7,4.7,0,0,1,419,10.668,3.232,3.232,0,0,1,420.85,10.1Zm7.4,11.094a4.917,4.917,0,0,1-3.745-1.445,5.6,5.6,0,0,1-1.372-4.014,6.205,6.205,0,0,1,1.274-4.111,4.233,4.233,0,0,1,3.423-1.523,4.036,4.036,0,0,1,3.184,1.323,5.072,5.072,0,0,1,1.172,3.491v1.025h-7.373a4.243,4.243,0,0,0,.952,2.861,3.293,3.293,0,0,0,2.544.977,8.621,8.621,0,0,0,3.418-.723V20.5a8.578,8.578,0,0,1-1.626.532A9.138,9.138,0,0,1,428.252,21.2Zm-.439-9.736a2.647,2.647,0,0,0-2.056.84,3.871,3.871,0,0,0-.9,2.324h5.6a3.564,3.564,0,0,0-.684-2.349A2.406,2.406,0,0,0,427.813,11.459Zm14.043,6.621a2.681,2.681,0,0,1-1.113,2.3,5.233,5.233,0,0,1-3.125.811,6.8,6.8,0,0,1-3.32-.674v-1.5a8.029,8.029,0,0,0,1.655.615,6.912,6.912,0,0,0,1.7.225,3.864,3.864,0,0,0,1.953-.405,1.4,1.4,0,0,0,.142-2.3,8.525,8.525,0,0,0-2.114-1.05,11.465,11.465,0,0,1-2.124-.972,2.9,2.9,0,0,1-.937-.942,2.458,2.458,0,0,1-.308-1.26,2.4,2.4,0,0,1,1.064-2.065,4.96,4.96,0,0,1,2.92-.757,8.543,8.543,0,0,1,3.379.7l-.576,1.318a7.756,7.756,0,0,0-2.92-.664,3.359,3.359,0,0,0-1.738.361,1.117,1.117,0,0,0-.586,1,1.213,1.213,0,0,0,.22.732,2.168,2.168,0,0,0,.708.576,15.824,15.824,0,0,0,1.875.791,7,7,0,0,1,2.573,1.4A2.463,2.463,0,0,1,441.855,18.08Zm9.541,0a2.681,2.681,0,0,1-1.113,2.3,5.233,5.233,0,0,1-3.125.811,6.8,6.8,0,0,1-3.32-.674v-1.5a8.029,8.029,0,0,0,1.655.615,6.912,6.912,0,0,0,1.7.225,3.864,3.864,0,0,0,1.953-.405,1.4,1.4,0,0,0,.142-2.3,8.525,8.525,0,0,0-2.114-1.05,11.465,11.465,0,0,1-2.124-.972,2.9,2.9,0,0,1-.937-.942,2.458,2.458,0,0,1-.308-1.26,2.4,2.4,0,0,1,1.064-2.065,4.96,4.96,0,0,1,2.92-.757,8.543,8.543,0,0,1,3.379.7l-.576,1.318a7.756,7.756,0,0,0-2.92-.664,3.359,3.359,0,0,0-1.738.361,1.117,1.117,0,0,0-.586,1,1.213,1.213,0,0,0,.22.732,2.168,2.168,0,0,0,.708.576,15.824,15.824,0,0,0,1.875.791,7,7,0,0,1,2.573,1.4A2.463,2.463,0,0,1,451.4,18.08Zm4.336.6.146.225q-.254.977-.732,2.271t-1,2.407H452.93q.264-1.016.581-2.51t.444-2.393ZM8.3,57l-.322-1.523H7.9a4.5,4.5,0,0,1-1.6,1.362,4.867,4.867,0,0,1-1.987.356,3.575,3.575,0,0,1-2.5-.82,2.992,2.992,0,0,1-.9-2.334q0-3.242,5.186-3.4l1.816-.059V49.92a2.714,2.714,0,0,0-.542-1.86,2.229,2.229,0,0,0-1.733-.6,7.063,7.063,0,0,0-3.027.82l-.5-1.24a7.618,7.618,0,0,1,1.733-.674,7.507,7.507,0,0,1,1.89-.244,4.077,4.077,0,0,1,2.837.85A3.546,3.546,0,0,1,9.5,49.7V57ZM4.639,55.857a3.29,3.29,0,0,0,2.378-.83A3.071,3.071,0,0,0,7.881,52.7v-.967L6.26,51.8a5.9,5.9,0,0,0-2.788.6,1.811,1.811,0,0,0-.854,1.655A1.67,1.67,0,0,0,3.149,55.4,2.209,2.209,0,0,0,4.639,55.857ZM15.186,57,11.123,46.3h1.738l2.3,6.348a30.044,30.044,0,0,1,.918,2.891h.078a21.834,21.834,0,0,1,.679-2.144q.571-1.626,2.563-7.095h1.738L17.08,57Zm14.258,0-.322-1.523h-.078a4.5,4.5,0,0,1-1.6,1.362,4.867,4.867,0,0,1-1.987.356,3.575,3.575,0,0,1-2.5-.82,2.992,2.992,0,0,1-.9-2.334q0-3.242,5.186-3.4l1.816-.059V49.92a2.714,2.714,0,0,0-.542-1.86,2.229,2.229,0,0,0-1.733-.6,7.063,7.063,0,0,0-3.027.82l-.5-1.24A7.618,7.618,0,0,1,25,46.365a7.507,7.507,0,0,1,1.89-.244,4.077,4.077,0,0,1,2.837.85,3.546,3.546,0,0,1,.923,2.725V57Zm-3.662-1.143a3.29,3.29,0,0,0,2.378-.83,3.071,3.071,0,0,0,.864-2.324v-.967L27.4,51.8a5.9,5.9,0,0,0-2.788.6,1.811,1.811,0,0,0-.854,1.655,1.67,1.67,0,0,0,.532,1.338A2.209,2.209,0,0,0,25.781,55.857ZM35.605,57H33.984V46.3h1.621ZM33.848,43.4a1.077,1.077,0,0,1,.273-.815,1.012,1.012,0,0,1,1.357,0,1.057,1.057,0,0,1,.283.811,1.074,1.074,0,0,1-.283.815.992.992,0,0,1-1.357,0A1.1,1.1,0,0,1,33.848,43.4ZM40.664,57H39.043V41.8h1.621Zm10.02,0-.322-1.523h-.078a4.5,4.5,0,0,1-1.6,1.362A4.867,4.867,0,0,1,46.7,57.2a3.575,3.575,0,0,1-2.5-.82,2.992,2.992,0,0,1-.9-2.334q0-3.242,5.186-3.4l1.816-.059V49.92a2.714,2.714,0,0,0-.542-1.86,2.229,2.229,0,0,0-1.733-.6,7.063,7.063,0,0,0-3.027.82l-.5-1.24a7.618,7.618,0,0,1,1.733-.674,7.507,7.507,0,0,1,1.89-.244,4.077,4.077,0,0,1,2.837.85,3.546,3.546,0,0,1,.923,2.725V57Zm-3.662-1.143a3.29,3.29,0,0,0,2.378-.83,3.071,3.071,0,0,0,.864-2.324v-.967l-1.621.068a5.9,5.9,0,0,0-2.788.6A1.811,1.811,0,0,0,45,54.061a1.67,1.67,0,0,0,.532,1.338A2.209,2.209,0,0,0,47.021,55.857Zm13.184-9.736a3.979,3.979,0,0,1,3.276,1.44,6.323,6.323,0,0,1,1.167,4.077,6.369,6.369,0,0,1-1.177,4.1,3.963,3.963,0,0,1-3.267,1.46A4.632,4.632,0,0,1,58.3,56.81a3.59,3.59,0,0,1-1.45-1.187h-.117L56.387,57H55.225V41.8h1.621V45.5q0,1.24-.078,2.227h.078A3.848,3.848,0,0,1,60.205,46.121Zm-.234,1.357a2.83,2.83,0,0,0-2.393.952,5.371,5.371,0,0,0-.732,3.208,5.356,5.356,0,0,0,.752,3.228,2.86,2.86,0,0,0,2.412.972,2.5,2.5,0,0,0,2.227-1.089,5.6,5.6,0,0,0,.732-3.13,5.378,5.378,0,0,0-.732-3.115A2.6,2.6,0,0,0,59.971,47.479ZM69.1,57H67.48V46.3H69.1ZM67.344,43.4a1.077,1.077,0,0,1,.273-.815,1.012,1.012,0,0,1,1.357,0,1.057,1.057,0,0,1,.283.811,1.074,1.074,0,0,1-.283.815.992.992,0,0,1-1.357,0A1.1,1.1,0,0,1,67.344,43.4ZM74.16,57H72.539V41.8H74.16Zm5.059,0H77.6V46.3h1.621ZM77.461,43.4a1.077,1.077,0,0,1,.273-.815,1.012,1.012,0,0,1,1.357,0,1.057,1.057,0,0,1,.283.811,1.074,1.074,0,0,1-.283.815.992.992,0,0,1-1.357,0A1.1,1.1,0,0,1,77.461,43.4Zm8.652,12.461a5.3,5.3,0,0,0,.83-.063,5.372,5.372,0,0,0,.635-.132V56.9a2.963,2.963,0,0,1-.776.21,5.83,5.83,0,0,1-.923.083q-3.105,0-3.105-3.271V47.557H81.24v-.781l1.533-.674.684-2.285h.938V46.3H87.5v1.26H84.395v6.3a2.167,2.167,0,0,0,.459,1.484A1.6,1.6,0,0,0,86.113,55.857Zm1.9-9.561h1.738L92.1,52.4a23.216,23.216,0,0,1,.957,3.018h.078q.127-.5.532-1.7T96.318,46.3h1.738l-4.6,12.188a6.08,6.08,0,0,1-1.6,2.563,3.4,3.4,0,0,1-2.241.757,6.522,6.522,0,0,1-1.465-.166v-1.3a5.651,5.651,0,0,0,1.2.117,2.476,2.476,0,0,0,2.383-1.875l.6-1.523ZM106.611,57H104.99V46.3h1.621Zm-1.758-13.6a1.077,1.077,0,0,1,.273-.815,1.012,1.012,0,0,1,1.357,0,1.057,1.057,0,0,1,.283.811,1.074,1.074,0,0,1-.283.815.992.992,0,0,1-1.357,0A1.1,1.1,0,0,1,104.854,43.4ZM117.373,57V50.076a2.793,2.793,0,0,0-.6-1.953,2.427,2.427,0,0,0-1.865-.645,3.076,3.076,0,0,0-2.461.908,4.585,4.585,0,0,0-.781,3V57h-1.621V46.3h1.318l.264,1.465h.078a3.31,3.31,0,0,1,1.4-1.226,4.537,4.537,0,0,1,2-.435,4.065,4.065,0,0,1,2.91.933,3.969,3.969,0,0,1,.977,2.983V57Zm13.6-1.143a5.3,5.3,0,0,0,.83-.063,5.373,5.373,0,0,0,.635-.132V56.9a2.963,2.963,0,0,1-.776.21,5.83,5.83,0,0,1-.923.083q-3.105,0-3.105-3.271V47.557H126.1v-.781l1.533-.674.684-2.285h.938V46.3h3.105v1.26h-3.105v6.3a2.167,2.167,0,0,0,.459,1.484A1.6,1.6,0,0,0,130.977,55.857ZM141.9,57V50.076a2.793,2.793,0,0,0-.6-1.953,2.427,2.427,0,0,0-1.865-.645,3.056,3.056,0,0,0-2.466.918A4.649,4.649,0,0,0,136.2,51.4V57H134.58V41.8H136.2v4.6a10.023,10.023,0,0,1-.078,1.377h.1a3.306,3.306,0,0,1,1.362-1.216,4.429,4.429,0,0,1,2.017-.444,4.13,4.13,0,0,1,2.944.933,3.928,3.928,0,0,1,.981,2.964V57Zm9.473.2a4.917,4.917,0,0,1-3.745-1.445,5.6,5.6,0,0,1-1.372-4.014,6.205,6.205,0,0,1,1.274-4.111,4.233,4.233,0,0,1,3.423-1.523,4.036,4.036,0,0,1,3.184,1.323,5.072,5.072,0,0,1,1.172,3.491v1.025h-7.373a4.243,4.243,0,0,0,.952,2.861,3.293,3.293,0,0,0,2.544.977,8.621,8.621,0,0,0,3.418-.723V56.5a8.579,8.579,0,0,1-1.626.532A9.138,9.138,0,0,1,151.377,57.2Zm-.439-9.736a2.647,2.647,0,0,0-2.056.84,3.871,3.871,0,0,0-.9,2.324h5.6a3.564,3.564,0,0,0-.684-2.349A2.406,2.406,0,0,0,150.938,47.459ZM171.475,57h-7.959V42.723h7.959V44.2h-6.3v4.6h5.918v1.465h-5.918v5.254h6.3ZM185.42,42.723v9.238a5.032,5.032,0,0,1-1.475,3.838,5.655,5.655,0,0,1-4.053,1.4,5.406,5.406,0,0,1-3.989-1.406,5.216,5.216,0,0,1-1.411-3.867v-9.2h1.66v9.316a3.67,3.67,0,0,0,.977,2.744A3.941,3.941,0,0,0,180,55.74a3.8,3.8,0,0,0,2.783-.962,3.7,3.7,0,0,0,.977-2.759v-9.3Zm11.055,2.842a2.535,2.535,0,0,0,.352,1.284,7.787,7.787,0,0,0,1.2,1.47,6.36,6.36,0,0,0,1.753-1.353,2.233,2.233,0,0,0,.493-1.431,1.607,1.607,0,0,0-.5-1.226,1.879,1.879,0,0,0-1.343-.474,2.08,2.08,0,0,0-1.411.469A1.581,1.581,0,0,0,196.475,45.564Zm1.514,10.176a5.388,5.388,0,0,0,3.906-1.5L197.627,50.1a9.447,9.447,0,0,0-1.533,1.1,2.9,2.9,0,0,0-.664.933,2.835,2.835,0,0,0-.215,1.133,2.3,2.3,0,0,0,.757,1.812A2.934,2.934,0,0,0,197.988,55.74ZM193.535,53.3a3.839,3.839,0,0,1,.679-2.246,7.352,7.352,0,0,1,2.437-1.973,11.7,11.7,0,0,1-1.128-1.406,4.8,4.8,0,0,1-.474-1,3.318,3.318,0,0,1-.176-1.074,2.848,2.848,0,0,1,.957-2.285,3.969,3.969,0,0,1,2.666-.82,3.592,3.592,0,0,1,2.49.815,2.9,2.9,0,0,1,.908,2.271,3.142,3.142,0,0,1-.664,1.929,7.535,7.535,0,0,1-2.2,1.792l3.975,3.818a4.718,4.718,0,0,0,.874-1.421,12.2,12.2,0,0,0,.552-1.782h1.641a9.331,9.331,0,0,1-2,4.238L206.992,57h-2.236l-1.807-1.738a6.932,6.932,0,0,1-5,1.934,4.718,4.718,0,0,1-3.257-1.035A3.642,3.642,0,0,1,193.535,53.3ZM220.3,44a4.668,4.668,0,0,0-3.716,1.567,6.322,6.322,0,0,0-1.362,4.292,6.448,6.448,0,0,0,1.313,4.331,4.669,4.669,0,0,0,3.745,1.528,12.787,12.787,0,0,0,3.408-.537v1.455a10.5,10.5,0,0,1-3.662.557,6.2,6.2,0,0,1-4.868-1.914,7.882,7.882,0,0,1-1.714-5.439,8.585,8.585,0,0,1,.825-3.867,5.924,5.924,0,0,1,2.383-2.559,7.212,7.212,0,0,1,3.667-.9,8.848,8.848,0,0,1,3.926.82l-.7,1.426A7.567,7.567,0,0,0,220.3,44Zm14.463,13h-7.959V42.723h7.959V44.2h-6.3v4.6h5.918v1.465h-5.918v5.254h6.3Zm14.7,0-.322-1.523h-.078a4.5,4.5,0,0,1-1.6,1.362,4.867,4.867,0,0,1-1.987.356,3.575,3.575,0,0,1-2.5-.82,2.992,2.992,0,0,1-.9-2.334q0-3.242,5.186-3.4l1.816-.059V49.92a2.714,2.714,0,0,0-.542-1.86,2.229,2.229,0,0,0-1.733-.6,7.063,7.063,0,0,0-3.027.82l-.5-1.24a7.618,7.618,0,0,1,1.733-.674,7.507,7.507,0,0,1,1.89-.244,4.077,4.077,0,0,1,2.837.85,3.546,3.546,0,0,1,.923,2.725V57ZM245.8,55.857a3.29,3.29,0,0,0,2.378-.83,3.071,3.071,0,0,0,.864-2.324v-.967l-1.621.068a5.9,5.9,0,0,0-2.788.6,1.811,1.811,0,0,0-.854,1.655,1.67,1.67,0,0,0,.532,1.338A2.209,2.209,0,0,0,245.8,55.857ZM267.646,57V50.037a2.89,2.89,0,0,0-.547-1.919,2.115,2.115,0,0,0-1.7-.64,2.743,2.743,0,0,0-2.236.869,4.131,4.131,0,0,0-.723,2.676V57H260.82V50.037a2.89,2.89,0,0,0-.547-1.919,2.128,2.128,0,0,0-1.709-.64,2.647,2.647,0,0,0-2.231.913,4.942,4.942,0,0,0-.708,2.993V57H254V46.3h1.318l.264,1.465h.078a3.186,3.186,0,0,1,1.294-1.221,3.953,3.953,0,0,1,1.87-.439q2.51,0,3.281,1.816h.078a3.413,3.413,0,0,1,1.387-1.328,4.3,4.3,0,0,1,2.07-.488,3.624,3.624,0,0,1,2.72.933,4.172,4.172,0,0,1,.9,2.983V57Zm9.482.2a4.917,4.917,0,0,1-3.745-1.445,5.6,5.6,0,0,1-1.372-4.014,6.205,6.205,0,0,1,1.274-4.111,4.233,4.233,0,0,1,3.423-1.523,4.036,4.036,0,0,1,3.184,1.323,5.072,5.072,0,0,1,1.172,3.491v1.025h-7.373a4.243,4.243,0,0,0,.952,2.861,3.293,3.293,0,0,0,2.544.977,8.621,8.621,0,0,0,3.418-.723V56.5a8.578,8.578,0,0,1-1.626.532A9.138,9.138,0,0,1,277.129,57.2Zm-.439-9.736a2.647,2.647,0,0,0-2.056.84,3.871,3.871,0,0,0-.9,2.324h5.6a3.564,3.564,0,0,0-.684-2.349A2.406,2.406,0,0,0,276.689,47.459ZM291.152,57V50.076a2.794,2.794,0,0,0-.6-1.953,2.427,2.427,0,0,0-1.865-.645,3.076,3.076,0,0,0-2.461.908,4.585,4.585,0,0,0-.781,3V57h-1.621V46.3h1.318l.264,1.465h.078a3.31,3.31,0,0,1,1.4-1.226,4.537,4.537,0,0,1,2-.435,4.065,4.065,0,0,1,2.91.933,3.969,3.969,0,0,1,.977,2.983V57Zm12.236-1.436H303.3a3.809,3.809,0,0,1-3.359,1.631,3.974,3.974,0,0,1-3.267-1.436,6.319,6.319,0,0,1-1.167-4.082,6.426,6.426,0,0,1,1.172-4.111,3.943,3.943,0,0,1,3.262-1.465,3.892,3.892,0,0,1,3.34,1.582h.127l-.068-.771-.039-.752V41.8h1.621V57H303.6Zm-3.242.273a2.951,2.951,0,0,0,2.407-.9,4.565,4.565,0,0,0,.747-2.915v-.342a5.371,5.371,0,0,0-.757-3.247,2.874,2.874,0,0,0-2.417-.972,2.481,2.481,0,0,0-2.183,1.108,5.511,5.511,0,0,0-.757,3.13,5.284,5.284,0,0,0,.752,3.1A2.547,2.547,0,0,0,300.146,55.838ZM322,57V50.037a2.89,2.89,0,0,0-.547-1.919,2.115,2.115,0,0,0-1.7-.64,2.743,2.743,0,0,0-2.236.869,4.131,4.131,0,0,0-.723,2.676V57h-1.621V50.037a2.89,2.89,0,0,0-.547-1.919,2.128,2.128,0,0,0-1.709-.64,2.647,2.647,0,0,0-2.231.913,4.942,4.942,0,0,0-.708,2.993V57h-1.621V46.3h1.318l.264,1.465h.078a3.186,3.186,0,0,1,1.294-1.221,3.953,3.953,0,0,1,1.87-.439q2.51,0,3.281,1.816h.078a3.413,3.413,0,0,1,1.387-1.328A4.3,4.3,0,0,1,320,46.1a3.624,3.624,0,0,1,2.72.933,4.172,4.172,0,0,1,.9,2.983V57Zm9.482.2a4.917,4.917,0,0,1-3.745-1.445,5.6,5.6,0,0,1-1.372-4.014,6.205,6.205,0,0,1,1.274-4.111,4.233,4.233,0,0,1,3.423-1.523,4.036,4.036,0,0,1,3.184,1.323,5.072,5.072,0,0,1,1.172,3.491v1.025h-7.373A4.243,4.243,0,0,0,329,54.8a3.293,3.293,0,0,0,2.544.977,8.621,8.621,0,0,0,3.418-.723V56.5a8.578,8.578,0,0,1-1.626.532A9.138,9.138,0,0,1,331.484,57.2Zm-.439-9.736a2.647,2.647,0,0,0-2.056.84,3.871,3.871,0,0,0-.9,2.324h5.6A3.564,3.564,0,0,0,333,48.274,2.406,2.406,0,0,0,331.045,47.459ZM345.508,57V50.076a2.794,2.794,0,0,0-.6-1.953,2.427,2.427,0,0,0-1.865-.645,3.076,3.076,0,0,0-2.461.908,4.585,4.585,0,0,0-.781,3V57h-1.621V46.3H339.5l.264,1.465h.078a3.31,3.31,0,0,1,1.4-1.226,4.537,4.537,0,0,1,2-.435,4.065,4.065,0,0,1,2.91.933,3.969,3.969,0,0,1,.977,2.983V57Zm8.408-1.143a5.3,5.3,0,0,0,.83-.063,5.372,5.372,0,0,0,.635-.132V56.9a2.963,2.963,0,0,1-.776.21,5.83,5.83,0,0,1-.923.083q-3.105,0-3.105-3.271V47.557h-1.533v-.781l1.533-.674.684-2.285h.938V46.3H355.3v1.26H352.2v6.3a2.167,2.167,0,0,0,.459,1.484A1.6,1.6,0,0,0,353.916,55.857Zm15.7-1.777a2.681,2.681,0,0,1-1.113,2.3,5.233,5.233,0,0,1-3.125.811,6.8,6.8,0,0,1-3.32-.674v-1.5a8.029,8.029,0,0,0,1.655.615,6.912,6.912,0,0,0,1.7.225,3.864,3.864,0,0,0,1.953-.405,1.4,1.4,0,0,0,.142-2.3A8.525,8.525,0,0,0,365.4,52.1a11.465,11.465,0,0,1-2.124-.972,2.9,2.9,0,0,1-.937-.942,2.458,2.458,0,0,1-.308-1.26,2.4,2.4,0,0,1,1.064-2.065,4.96,4.96,0,0,1,2.92-.757,8.543,8.543,0,0,1,3.379.7l-.576,1.318a7.756,7.756,0,0,0-2.92-.664,3.359,3.359,0,0,0-1.738.361,1.117,1.117,0,0,0-.586,1,1.213,1.213,0,0,0,.22.732,2.168,2.168,0,0,0,.708.576,15.823,15.823,0,0,0,1.875.791,7,7,0,0,1,2.573,1.4A2.463,2.463,0,0,1,369.619,54.08Zm6.094,1.777a5.3,5.3,0,0,0,.83-.063,5.372,5.372,0,0,0,.635-.132V56.9a2.963,2.963,0,0,1-.776.21,5.83,5.83,0,0,1-.923.083q-3.105,0-3.105-3.271V47.557H370.84v-.781l1.533-.674.684-2.285h.938V46.3H377.1v1.26h-3.105v6.3a2.167,2.167,0,0,0,.459,1.484A1.6,1.6,0,0,0,375.713,55.857ZM385.9,57l-.322-1.523H385.5a4.5,4.5,0,0,1-1.6,1.362,4.867,4.867,0,0,1-1.987.356,3.575,3.575,0,0,1-2.5-.82,2.992,2.992,0,0,1-.9-2.334q0-3.242,5.186-3.4l1.816-.059V49.92a2.714,2.714,0,0,0-.542-1.86,2.229,2.229,0,0,0-1.733-.6,7.063,7.063,0,0,0-3.027.82l-.5-1.24a7.618,7.618,0,0,1,1.733-.674,7.508,7.508,0,0,1,1.89-.244,4.077,4.077,0,0,1,2.837.85A3.546,3.546,0,0,1,387.1,49.7V57Zm-3.662-1.143a3.29,3.29,0,0,0,2.378-.83,3.071,3.071,0,0,0,.864-2.324v-.967l-1.621.068a5.9,5.9,0,0,0-2.788.6,1.811,1.811,0,0,0-.854,1.655,1.67,1.67,0,0,0,.532,1.338A2.209,2.209,0,0,0,382.236,55.857Zm11.66,0a5.3,5.3,0,0,0,.83-.063,5.372,5.372,0,0,0,.635-.132V56.9a2.963,2.963,0,0,1-.776.21,5.83,5.83,0,0,1-.923.083q-3.105,0-3.105-3.271V47.557h-1.533v-.781l1.533-.674.684-2.285h.938V46.3h3.105v1.26h-3.105v6.3a2.167,2.167,0,0,0,.459,1.484A1.6,1.6,0,0,0,393.9,55.857Zm5.127-9.561V53.24a2.794,2.794,0,0,0,.6,1.953,2.427,2.427,0,0,0,1.865.645,3.043,3.043,0,0,0,2.456-.918,4.631,4.631,0,0,0,.776-3V46.3h1.621V57H405l-.234-1.436h-.088a3.231,3.231,0,0,1-1.382,1.211,4.644,4.644,0,0,1-2.017.42,4.091,4.091,0,0,1-2.925-.928,3.949,3.949,0,0,1-.972-2.969v-7ZM416.68,54.08a2.681,2.681,0,0,1-1.113,2.3,5.233,5.233,0,0,1-3.125.811,6.8,6.8,0,0,1-3.32-.674v-1.5a8.029,8.029,0,0,0,1.655.615,6.912,6.912,0,0,0,1.7.225,3.864,3.864,0,0,0,1.953-.405,1.4,1.4,0,0,0,.142-2.3,8.525,8.525,0,0,0-2.114-1.05,11.465,11.465,0,0,1-2.124-.972,2.9,2.9,0,0,1-.937-.942,2.458,2.458,0,0,1-.308-1.26,2.4,2.4,0,0,1,1.064-2.065,4.96,4.96,0,0,1,2.92-.757,8.543,8.543,0,0,1,3.379.7l-.576,1.318a7.756,7.756,0,0,0-2.92-.664,3.359,3.359,0,0,0-1.738.361,1.117,1.117,0,0,0-.586,1,1.213,1.213,0,0,0,.22.732,2.168,2.168,0,0,0,.708.576,15.823,15.823,0,0,0,1.875.791,7,7,0,0,1,2.573,1.4A2.463,2.463,0,0,1,416.68,54.08Z" transform="translate(683 508)"/><path class="a" d="M23.865,136.825V31.9l50.31,138.46h.86L122.12,31.9V141.34c0,14.19-3.655,21.5-13.76,26.23V168h51.815v-.43c-9.89-4.73-13.76-12.04-13.76-26.23V43.73c0-14.19,1.935-21.07,12.04-25.8V17.5h-37.41L84.28,125.215,45.15,17.5H5.805v.43c9.89,4.73,11.61,11.61,11.61,25.8V137.9c0,16.34-5.375,24.94-15.48,29.67V168H39.99v-.43C29.24,162.84,23.865,154.24,23.865,136.825ZM202.96,62.865H167.7v.43c9.03,4.515,11.4,9.46,11.4,23.22v58.91c0,14.19-1.505,17.63-10.32,22.145V168H213.28v-.43c-8.815-4.515-10.32-7.955-10.32-22.145Zm111.37,25.37c-1.72-17.63-11.395-27.52-27.52-27.52-15.265,0-26.23,10.105-30.745,27.52V62.865H220.8v.43c9.03,4.515,11.4,9.46,11.4,23.22v58.91c0,14.19-1.505,17.63-10.32,22.145V168h44.505v-.43c-8.815-4.515-10.32-7.955-10.32-22.145v-39.56c0-21.285,8.6-32.035,19.78-32.035,12.04,0,14.62,9.245,14.62,20.425v51.17c0,14.19-1.29,17.63-10.105,22.145V168h44.29v-.43c-8.815-4.515-10.105-7.955-10.105-22.145v-39.56c0-21.285,8.385-32.035,19.565-32.035,12.255,0,14.835,9.245,14.835,20.425v51.17c0,14.19-1.505,17.63-10.32,22.145V168H383.13v-.43c-9.03-4.515-10.32-7.955-10.32-22.145V93.395c0-20.855-9.675-32.68-27.52-32.68C329.81,60.715,318.63,70.6,314.33,88.235ZM426.99,64.8c14.4,0,26.23,13.33,33.755,31.39h.43V60.715c-3.44,3.225-6.02,5.375-9.89,5.375-6.665,0-12.47-5.375-24.295-5.375-17.415,0-32.9,11.4-32.9,30.745,0,17.2,9.46,26.66,31.175,34.185,15.265,5.59,24.08,9.89,24.08,21.93,0,11.18-7.525,18.49-18.275,18.49-15.91,0-28.6-14.19-37.41-36.55h-.645l2.15,40.635c2.365-2.795,5.375-5.16,9.245-5.16,6.235,0,13.545,5.16,26.66,5.16,19.135,0,36.335-11.395,36.335-32.895,0-17.415-10.1-27.305-33.755-35.26-18.275-6.45-22.79-11.395-22.79-21.285C410.865,71.9,416.885,64.8,426.99,64.8Z" transform="translate(683 152)"/><text class="b" transform="translate(1147 212)"><tspan x="0" y="0">®</tspan></text><path class="a" d="M4.28,3a6.688,6.688,0,0,1-2.76-.36L.44,12.6H.52c3-5.84,4.6-8.64,8.52-8.64h1V26.32c0,2.64-.48,3.44-2.28,4.6V31H19.68v-.08c-1.8-1.16-2.28-1.96-2.28-4.6V3.96h1c3.92,0,5.56,2.8,8.52,8.64H27L25.96,2.64a7.029,7.029,0,0,1-2.8.36ZM40.64,18.76a2.2,2.2,0,0,0,1.44.4c2.08,0,3.92-1.56,3.92-4.32a3.832,3.832,0,0,0-4-4.04c-3.08,0-4.72,2.88-5.52,6.16V11.2H27.92v.08c1.52,1,1.76,1.6,1.76,4.36V26.72c0,2.64-.12,3.2-1.56,4.2V31H38.84v-.08c-1.68-.88-2.36-1.52-2.36-4.16v-6.8c0-3.32,1.52-5.24,3.24-5.24a1.907,1.907,0,0,1,2.12,2.08A1.992,1.992,0,0,1,40.64,18.76ZM56,10.8c-5.16,0-9.6,4.04-9.6,10.32,0,6.52,4.28,10.28,9.44,10.28,4.56,0,7.6-2.76,8.48-7.12l-.24-.08c-1.12,2.76-3.04,3.84-5.2,3.84-3.4,0-5.56-2.88-5.56-7.84H64.48C64.48,14.92,61.76,10.8,56,10.8Zm-2.68,8.56c.08-4.6.92-7.88,2.64-7.88,1.88,0,2.16,3.4,2.16,7.88Zm32.96,10a3.116,3.116,0,0,1-.84.16c-1.56,0-1.88-1.2-1.88-3.2,0-3.36.04-6.32.04-8.84,0-4.96-3.36-6.68-8.96-6.68-4.56,0-7.76,1.88-7.76,4.96a3.324,3.324,0,0,0,3.64,3.32,3.952,3.952,0,0,0,3.92-2.36,1.773,1.773,0,0,1-.6.12c-1.04,0-1.68-.8-1.68-2.44s.8-2.88,2.32-2.88c1.72,0,2.36,1.56,2.36,3.4v4.6l-2.6.52c-4.32.92-8.36,1.96-8.36,6.32,0,3.28,2.44,4.92,5.36,4.92a5.426,5.426,0,0,0,5.68-4.16c0,.12.08.76.08.84.44,2.12,1.96,3.4,4.8,3.4a5.741,5.741,0,0,0,4.48-1.92Zm-9.44-9.12v4.44c-.04,2.24-.88,3.88-2.44,3.88-1.24,0-1.92-1.24-1.92-3.32,0-2.64,1.04-4.12,3.16-4.72Zm22.52,3.84c-.4,2.64-1.48,4-3,4-1.4,0-2.04-1.04-2.04-3.08V12.2H99.2l.2-1H94.32V4.24h-.4a11.2,11.2,0,0,1-8.16,7.48v.48h1.8l-.08,12.56c0,4.56,2.4,6.64,5.88,6.64,4.24,0,5.96-3.28,6.44-7.24Zm2.48-19a3.861,3.861,0,1,0,3.84-3.76A3.749,3.749,0,0,0,101.84,5.08Zm7.28,6.12h-8.56v.08c1.52,1,1.76,1.6,1.76,4.36V26.72c0,2.64-.12,3.2-1.56,4.2V31h9.92v-.08c-1.4-1-1.56-1.56-1.56-4.2Zm2.56,0v.08c1.52,1,1.76,1.6,1.76,4.36V26.72c0,2.64-.12,3.2-1.56,4.2V31h9.92v-.08c-1.4-1-1.56-1.56-1.56-4.2V18.76c0-3.12,1.2-4.6,2.8-4.6,1.56,0,2.16,1.2,2.16,2.76v9.8c0,2.64-.12,3.2-1.52,4.2V31h9.92v-.08c-1.44-1-1.56-1.56-1.56-4.2V17.08c0-3.6-1.8-6.28-5.64-6.28-3,0-5.28,1.8-6.16,5.12V11.2Zm32.24.28c1.44,0,2,2.04,2,5.84s-.56,5.84-2,5.84c-1.4,0-1.96-2.04-1.96-5.84S142.52,11.48,143.92,11.48Zm10.84,20.84c0-3.84-2.76-5.92-7.36-5.92h-7.36c-1.2,0-1.92-.52-1.92-1.48,0-.84.68-1.4,1.6-1.76a12,12,0,0,0,4.2.68c5.44,0,8.48-2.76,8.48-6.52a5.7,5.7,0,0,0-2.8-5,2.315,2.315,0,0,1,1.92-1.2,1.721,1.721,0,0,1,1.8,1.88,1.763,1.763,0,0,1-.32,1.12l.04.08c1.4-.28,2.96-1.16,2.96-3.04a2.786,2.786,0,0,0-3.08-2.88c-1.96,0-3.2,1.76-3.8,3.76a10,10,0,0,0-5.2-1.24c-5.4,0-8.44,2.76-8.44,6.52a6,6,0,0,0,3.64,5.56c-2.24.72-4.24,2.56-4.24,5.08a4.668,4.668,0,0,0,3.96,4.64c-3,.16-4.68,1.56-4.68,3.28,0,3.24,4.8,4.28,9.16,4.28C149.28,40.16,154.76,37.68,154.76,32.32ZM143.4,39.44c-3.16,0-5.68-1.2-5.68-3.76,0-2,1.36-2.88,3.32-2.88h5.48c2.44,0,3.64.8,3.64,2.72C150.16,38.08,147.08,39.44,143.4,39.44ZM177.64,3.48c3.48,0,6.2,3.92,8.12,8.88h.12L185.6,2.6a3.016,3.016,0,0,1-2.32,1.12c-1.28,0-3.16-1.12-6.24-1.12-7.16,0-13.72,5.6-13.72,14.76,0,8.4,5.24,14.04,12.56,14.04a9.534,9.534,0,0,0,7.84-3.8l3.6,3.8h.04V22.64c0-2.64.28-3.64,1.8-4.72v-.08h-10.8v.08c1.68,1.12,2.12,2.2,2.12,4.76v2.24c0,3.44-1.52,5.44-3.96,5.44-3.68,0-5.28-5.72-5.28-13.12C171.24,8.68,173.36,3.48,177.64,3.48Zm20.8-2.44h-8.72v.08c1.52.92,1.88,1.6,1.88,4.36V26.72c0,2.64-.12,3.2-1.52,4.2V31H200v-.08c-1.44-1-1.56-1.56-1.56-4.2Zm23.2,28.32a3.116,3.116,0,0,1-.84.16c-1.56,0-1.88-1.2-1.88-3.2,0-3.36.04-6.32.04-8.84,0-4.96-3.36-6.68-8.96-6.68-4.56,0-7.76,1.88-7.76,4.96a3.324,3.324,0,0,0,3.64,3.32,3.952,3.952,0,0,0,3.92-2.36,1.773,1.773,0,0,1-.6.12c-1.04,0-1.68-.8-1.68-2.44s.8-2.88,2.32-2.88c1.72,0,2.36,1.56,2.36,3.4v4.6l-2.6.52c-4.32.92-8.36,1.96-8.36,6.32,0,3.28,2.44,4.92,5.36,4.92a5.426,5.426,0,0,0,5.68-4.16c0,.12.08.76.08.84.44,2.12,1.96,3.4,4.8,3.4a5.741,5.741,0,0,0,4.48-1.92Zm-9.44-9.12v4.44c-.04,2.24-.88,3.88-2.44,3.88-1.24,0-1.92-1.24-1.92-3.32,0-2.64,1.04-4.12,3.16-4.72Zm22.32,3.12c0,3.16-1.16,4.64-2.72,4.64-1.48,0-2.12-1.28-2.12-2.8v-14h-8.6v.08c1.52,1,1.76,1.6,1.76,4.36v9.44c0,3.64,1.8,6.32,5.6,6.32,3,0,5.24-1.84,6.08-5.16V31H243v-.08c-1.4-.96-1.64-1.6-1.64-4.2V11.2h-8.6v.08c1.52,1,1.76,1.6,1.76,4.36Zm20.2-11.88c1.6,0,2.4,1.08,2.4,2.92,0,1.52-.6,2.76-1.96,2.76a1.444,1.444,0,0,1-.68-.12c.16,1.2,1.36,2.24,3.28,2.24a3.386,3.386,0,0,0,3.56-3.52c0-3.2-2.84-4.96-6.72-4.96a10.243,10.243,0,0,0-10.48,10.68c0,6.2,4.16,9.92,9.2,9.92,4.32,0,7.4-2.44,8.24-6.92l-.24-.08c-1,2.56-2.76,3.56-4.84,3.56-3.4,0-5.44-3.04-5.44-8.28C251.04,14.92,252.32,11.48,254.72,11.48ZM272.6,31.4c5.52,0,10-4.08,10-10.28,0-6.24-4.48-10.32-10-10.32-5.48,0-9.96,4.08-9.96,10.32C262.64,27.32,267.12,31.4,272.6,31.4Zm0-.68c-2.08,0-2.76-3.4-2.76-9.6,0-6.24.68-9.64,2.76-9.64s2.8,3.4,2.8,9.64C275.4,27.32,274.68,30.72,272.6,30.72Zm31.08-14.84c-.36-3.08-2.16-5.08-5.48-5.08-2.92,0-5.04,1.8-5.88,5.12V11.2h-8.56v.08c1.52,1,1.76,1.6,1.76,4.36V26.72c0,2.64-.12,3.2-1.56,4.2V31h9.92v-.08c-1.4-1-1.56-1.56-1.56-4.2V18.76c0-3.12,1.08-4.6,2.56-4.6,1.56,0,2.04,1.2,2.04,2.76v9.8c0,2.64-.16,3.2-1.56,4.2V31h9.92v-.08c-1.44-1-1.56-1.56-1.56-4.2V18.76c0-3.12,1.08-4.6,2.52-4.6,1.6,0,2.04,1.2,2.04,2.76v9.8c0,2.64-.12,3.2-1.56,4.2V31h9.96v-.08c-1.44-1-1.56-1.56-1.56-4.2V17.08c0-3.6-1.68-6.28-5.52-6.28C306.68,10.8,304.52,12.6,303.68,15.88Zm34.56,13.48a3.116,3.116,0,0,1-.84.16c-1.56,0-1.88-1.2-1.88-3.2,0-3.36.04-6.32.04-8.84,0-4.96-3.36-6.68-8.96-6.68-4.56,0-7.76,1.88-7.76,4.96a3.324,3.324,0,0,0,3.64,3.32,3.952,3.952,0,0,0,3.92-2.36,1.773,1.773,0,0,1-.6.12c-1.04,0-1.68-.8-1.68-2.44s.8-2.88,2.32-2.88c1.72,0,2.36,1.56,2.36,3.4v4.6l-2.6.52c-4.32.92-8.36,1.96-8.36,6.32,0,3.28,2.44,4.92,5.36,4.92a5.426,5.426,0,0,0,5.68-4.16c0,.12.08.76.08.84.44,2.12,1.96,3.4,4.8,3.4a5.741,5.741,0,0,0,4.48-1.92Zm-9.44-9.12v4.44c-.04,2.24-.88,3.88-2.44,3.88-1.24,0-1.92-1.24-1.92-3.32,0-2.64,1.04-4.12,3.16-4.72Zm26.32-7.6,3.72,8.88h-7.32ZM351.4,30.92a3.179,3.179,0,0,1-2.12-2.96,5.525,5.525,0,0,1,.52-2.2l1.24-3.08h8.28l1.56,3.72a6.22,6.22,0,0,1,.52,2.2,2.635,2.635,0,0,1-1.52,2.32V31h11.96v-.08c-1.4-.96-1.92-1.92-3-4.4L358.44,2.6h-.16l-10,23.52c-1.04,2.52-1.92,3.84-3.36,4.8V31h6.48Zm28.28-19.4c2.6,0,5.16,2.4,6.8,5.88h.08V10.76a2.971,2.971,0,0,1-2.08.96c-1.32,0-2.6-.92-4.92-.92-3.72,0-6.72,2.52-6.72,6.28s2.08,5.64,6.48,7.24c2.72.96,4.12,1.64,4.12,3.56a2.745,2.745,0,0,1-3.04,2.84c-3,0-5.52-2.56-7.56-6.84h-.08l.4,7.56a2.818,2.818,0,0,1,1.96-.88c1.32,0,2.88.84,5.4.84,4.36,0,7.52-2.6,7.52-6.68,0-3.72-2.08-5.56-6.68-7.24-3.28-1.2-4.32-1.84-4.32-3.6A2.352,2.352,0,0,1,379.68,11.52ZM10.8,43.4c3.92,0,6.2,3.32,8.24,7.56h.08l-.24-8.36a3.06,3.06,0,0,1-2.16,1.08c-1.52,0-3.28-1.08-6.08-1.08-5.56,0-9.56,3.28-9.56,8.48,0,5.16,3.6,7.04,7.2,8.56,3.6,1.48,7.2,2.6,7.2,6.24,0,3-1.88,4.72-4.92,4.72-3.6,0-7.16-3.68-9.6-8.88H.88l.6,9.68a4.009,4.009,0,0,1,2.6-1.12c1.56,0,3.6,1.12,6.6,1.12,5.36,0,10-3.2,10-8.76,0-6.16-4.44-7.8-8.36-9.32-3.12-1.24-5.88-2.36-5.88-5.6A4.169,4.169,0,0,1,10.8,43.4Zm21.76,28c5.52,0,10-4.08,10-10.28,0-6.24-4.48-10.32-10-10.32-5.48,0-9.96,4.08-9.96,10.32C22.6,67.32,27.08,71.4,32.56,71.4Zm0-.68c-2.08,0-2.76-3.4-2.76-9.6,0-6.24.68-9.64,2.76-9.64s2.8,3.4,2.8,9.64C35.36,67.32,34.64,70.72,32.56,70.72Zm21.72.68c5.52,0,10-4.08,10-10.28,0-6.24-4.48-10.32-10-10.32-5.48,0-9.96,4.08-9.96,10.32C44.32,67.32,48.8,71.4,54.28,71.4Zm0-.68c-2.08,0-2.76-3.4-2.76-9.6,0-6.24.68-9.64,2.76-9.64s2.8,3.4,2.8,9.64C57.08,67.32,56.36,70.72,54.28,70.72ZM65.44,51.2v.08c1.52,1,1.76,1.6,1.76,4.36V66.72c0,2.64-.12,3.2-1.56,4.2V71h9.92v-.08c-1.4-1-1.56-1.56-1.56-4.2V58.76c0-3.12,1.2-4.6,2.8-4.6,1.56,0,2.16,1.2,2.16,2.76v9.8c0,2.64-.12,3.2-1.52,4.2V71h9.92v-.08c-1.44-1-1.56-1.56-1.56-4.2V57.08c0-3.6-1.8-6.28-5.64-6.28-3,0-5.28,1.8-6.16,5.12V51.2Zm41.68.6c-1.36-1.76-2.28-3.24-2.28-5.12,0-1.96,1.04-3.36,2.72-3.36,2.2,0,3.24,2.32,3.24,5.12a7.157,7.157,0,0,1-2.08,5.44Zm.96,17.84c-3.68,0-6.2-2.88-6.2-7A6.906,6.906,0,0,1,103.24,58l8.32,10.64A7.091,7.091,0,0,1,108.08,69.64ZM113.4,71h9.48v-.08a10.142,10.142,0,0,1-3.56-3.08l-2.56-3.36a16.873,16.873,0,0,0,2-5.4c.36-1.96.76-2.8,2.84-3.68v-.12h-7.08v.12c2.08.96,2.96,1.68,2.92,3.68a10.6,10.6,0,0,1-1.28,4.6l-7.04-9.24c3.08-.6,6.12-2.48,6.12-5.96,0-3.64-3.32-5.88-7.68-5.88-4.16,0-8.24,2.44-8.24,7.44a9.426,9.426,0,0,0,2.12,5.68l1.44,1.84c-3.76.84-6.68,3.04-6.68,6.72,0,4.72,4.24,7.12,9.08,7.12a12.411,12.411,0,0,0,6.88-2Zm27.52-27.6c3.92,0,6.2,3.32,8.24,7.56h.08L149,42.6a3.06,3.06,0,0,1-2.16,1.08c-1.52,0-3.28-1.08-6.08-1.08-5.56,0-9.56,3.28-9.56,8.48,0,5.16,3.6,7.04,7.2,8.56,3.6,1.48,7.2,2.6,7.2,6.24,0,3-1.88,4.72-4.92,4.72-3.6,0-7.16-3.68-9.6-8.88H131l.6,9.68a4.009,4.009,0,0,1,2.6-1.12c1.56,0,3.6,1.12,6.6,1.12,5.36,0,10-3.2,10-8.76,0-6.16-4.44-7.8-8.36-9.32-3.12-1.24-5.88-2.36-5.88-5.6A4.169,4.169,0,0,1,140.92,43.4ZM172.8,69.36a3.116,3.116,0,0,1-.84.16c-1.56,0-1.88-1.2-1.88-3.2,0-3.36.04-6.32.04-8.84,0-4.96-3.36-6.68-8.96-6.68-4.56,0-7.76,1.88-7.76,4.96a3.324,3.324,0,0,0,3.64,3.32,3.952,3.952,0,0,0,3.92-2.36,1.773,1.773,0,0,1-.6.12c-1.04,0-1.68-.8-1.68-2.44s.8-2.88,2.32-2.88c1.72,0,2.36,1.56,2.36,3.4v4.6l-2.6.52c-4.32.92-8.36,1.96-8.36,6.32,0,3.28,2.44,4.92,5.36,4.92a5.426,5.426,0,0,0,5.68-4.16c0,.12.08.76.08.84.44,2.12,1.96,3.4,4.8,3.4a5.741,5.741,0,0,0,4.48-1.92Zm-9.44-9.12v4.44c-.04,2.24-.88,3.88-2.44,3.88-1.24,0-1.92-1.24-1.92-3.32,0-2.64,1.04-4.12,3.16-4.72Zm10.96,6.52c0,2.6-.12,3.16-1.56,4.16V71h10.72v-.08c-1.68-.88-2.36-1.48-2.36-4.16V52.2h3.72l.2-1h-3.92v-6c0-2.2.6-3.8,2.2-3.8,1.24,0,1.8.96,1.8,2.48,0,1.84-.8,2.68-1.8,2.92A3.254,3.254,0,0,0,186,48.04a3.173,3.173,0,0,0,3.32-3.24c0-2.8-2.64-4.04-5.92-4.04-5.12,0-9.08,2.88-9.08,8.8v1.32l-2.12.88v.44h2.12ZM194.6,50.8c-5.16,0-9.6,4.04-9.6,10.32,0,6.52,4.28,10.28,9.44,10.28,4.56,0,7.6-2.76,8.48-7.12l-.24-.08c-1.12,2.76-3.04,3.84-5.2,3.84-3.4,0-5.56-2.88-5.56-7.84h11.16C203.08,54.92,200.36,50.8,194.6,50.8Zm-2.68,8.56c.08-4.6.92-7.88,2.64-7.88,1.88,0,2.16,3.4,2.16,7.88Zm29.4-6.72,3.72,8.88h-7.32ZM217.6,70.92a3.179,3.179,0,0,1-2.12-2.96,5.525,5.525,0,0,1,.52-2.2l1.24-3.08h8.28l1.56,3.72a6.219,6.219,0,0,1,.52,2.2,2.635,2.635,0,0,1-1.52,2.32V71h11.96v-.08c-1.4-.96-1.92-1.92-3-4.4L224.64,42.6h-.16l-10,23.52c-1.04,2.52-1.92,3.84-3.36,4.8V71h6.48Zm28.28-19.4c2.6,0,5.16,2.4,6.8,5.88h.08V50.76a2.971,2.971,0,0,1-2.08.96c-1.32,0-2.6-.92-4.92-.92-3.72,0-6.72,2.52-6.72,6.28s2.08,5.64,6.48,7.24c2.72.96,4.12,1.64,4.12,3.56a2.745,2.745,0,0,1-3.04,2.84c-3,0-5.52-2.56-7.56-6.84h-.08l.4,7.56a2.818,2.818,0,0,1,1.96-.88c1.32,0,2.88.84,5.4.84,4.36,0,7.52-2.6,7.52-6.68,0-3.72-2.08-5.56-6.68-7.24-3.28-1.2-4.32-1.84-4.32-3.6A2.352,2.352,0,0,1,245.88,51.52Zm30.48,8.12c6.28,0,10.44-3.04,10.44-8.32S282.64,43,276.32,43H263.2v.08c1.68,1.08,2,2.08,2,4.72V66.2c0,2.64-.32,3.64-2,4.72V71h12.08v-.08c-2.2-1.16-2.76-2.04-2.76-4.64V59.64Zm-3.84-1.04V44h1.6c3.76,0,5.56,3.12,5.56,7.32s-1.8,7.28-5.56,7.28Zm24.16,12.8c5.52,0,10-4.08,10-10.28,0-6.24-4.48-10.32-10-10.32-5.48,0-9.96,4.08-9.96,10.32C286.72,67.32,291.2,71.4,296.68,71.4Zm0-.68c-2.08,0-2.76-3.4-2.76-9.6,0-6.24.68-9.64,2.76-9.64s2.8,3.4,2.8,9.64C299.48,67.32,298.76,70.72,296.68,70.72Zm18.56-19.2c2.6,0,5.16,2.4,6.8,5.88h.08V50.76a2.971,2.971,0,0,1-2.08.96c-1.32,0-2.6-.92-4.92-.92-3.72,0-6.72,2.52-6.72,6.28s2.08,5.64,6.48,7.24c2.72.96,4.12,1.64,4.12,3.56a2.745,2.745,0,0,1-3.04,2.84c-3,0-5.52-2.56-7.56-6.84h-.08l.4,7.56a2.818,2.818,0,0,1,1.96-.88c1.32,0,2.88.84,5.4.84,4.36,0,7.52-2.6,7.52-6.68,0-3.72-2.08-5.56-6.68-7.24-3.28-1.2-4.32-1.84-4.32-3.6A2.352,2.352,0,0,1,315.24,51.52Zm17.08,0c2.6,0,5.16,2.4,6.8,5.88h.08V50.76a2.971,2.971,0,0,1-2.08.96c-1.32,0-2.6-.92-4.92-.92-3.72,0-6.72,2.52-6.72,6.28s2.08,5.64,6.48,7.24c2.72.96,4.12,1.64,4.12,3.56a2.745,2.745,0,0,1-3.04,2.84c-3,0-5.52-2.56-7.56-6.84h-.08l.4,7.56a2.818,2.818,0,0,1,1.96-.88c1.32,0,2.88.84,5.4.84,4.36,0,7.52-2.6,7.52-6.68,0-3.72-2.08-5.56-6.68-7.24-3.28-1.2-4.32-1.84-4.32-3.6A2.352,2.352,0,0,1,332.32,51.52Zm10.96-6.44a3.861,3.861,0,1,0,3.84-3.76A3.749,3.749,0,0,0,343.28,45.08Zm7.28,6.12H342v.08c1.52,1,1.76,1.6,1.76,4.36V66.72c0,2.64-.12,3.2-1.56,4.2V71h9.92v-.08c-1.4-1-1.56-1.56-1.56-4.2Zm15.36,20.2c4.96,0,8.84-4.08,8.84-10.52,0-6.2-3.24-10.08-7.4-10.08-3.08,0-5.2,2-5.92,5.04V41.04h-8.72v.08c1.56.92,1.92,1.6,1.92,4.36V62.52a63.58,63.58,0,0,1-.36,8.8,7.225,7.225,0,0,0,5.36-3.88A6.407,6.407,0,0,0,365.92,71.4Zm1.64-10.28c0,5.88-.96,9.04-3.16,9.04-1.6,0-2.96-1.88-2.96-5.24V59.04c0-3.32,1.44-5.44,3.04-5.44C366.52,53.6,367.56,56.28,367.56,61.12ZM384.4,41.04h-8.72v.08c1.52.92,1.88,1.6,1.88,4.36V66.72c0,2.64-.12,3.2-1.52,4.2V71h9.92v-.08c-1.44-1-1.56-1.56-1.56-4.2Zm12.32,9.76c-5.16,0-9.6,4.04-9.6,10.32,0,6.52,4.28,10.28,9.44,10.28,4.56,0,7.6-2.76,8.48-7.12l-.24-.08c-1.12,2.76-3.04,3.84-5.2,3.84-3.4,0-5.56-2.88-5.56-7.84H405.2C405.2,54.92,402.48,50.8,396.72,50.8Zm-2.68,8.56c.08-4.6.92-7.88,2.64-7.88,1.88,0,2.16,3.4,2.16,7.88Z" transform="translate(683 400)"/><circle class="c" cx="15.5" cy="15.5" r="15.5" transform="translate(855 169)"/></g></svg>