<svg xmlns="http://www.w3.org/2000/svg" width="50" height="40" viewBox="0 0 50 40"><defs><style>.a{fill:#06003b;fill-rule:evenodd;}</style></defs><path class="a" d="M22.778,39.9q-1.032.1-2.071.1C9.271,40,0,31.046,0,20S9.271,0,20.707,0q1.037,0,2.071.1v6A15,15,0,0,0,20.707,6,14.254,14.254,0,0,0,6.212,20,14.254,14.254,0,0,0,20.707,34a15,15,0,0,0,2.071-.1Z" transform="translate(0 0)"/><path class="a" d="M192.778,39.9q-1.032.1-2.071.1C179.271,40,170,31.046,170,20s9.271-20,20.707-20q1.037,0,2.071.1v6a15,15,0,0,0-2.071-.1,14.391,14.391,0,0,0-14.16,11h12.089v6H176.548a14.391,14.391,0,0,0,14.159,11,15,15,0,0,0,2.071-.1Z" transform="translate(-142.778 0)"/></svg>