<svg xmlns="http://www.w3.org/2000/svg" width="82" height="30.915" viewBox="0 0 82 30.915"><defs><style>.a,.b{fill:#f1f5f8;}.b{fill-rule:evenodd;}</style></defs><g transform="translate(0 0.271)"><path class="a" d="M321.142,291.221l-.847-1.451-.847,1.451Z" transform="translate(-295.338 -271.9)"/><path class="a" d="M15.854,161.491H10.869a1.132,1.132,0,0,1-.978-1.7l2.485-4.26-2.485-4.26a1.132,1.132,0,0,1,.978-1.7h4.985l1.5-2.566H0v17.057H17.351Z" transform="translate(0 -139.905)"/><path class="a" d="M198.7,214.7l2.157,3.7h4.335l2.157-3.7-2.157-3.7h-4.335Z" transform="translate(-183.702 -199.075)"/><path class="a" d="M320.3,212.451l.847-1.451h-1.693Z" transform="translate(-295.338 -199.075)"/><path class="a" d="M246.475,339h-1.693l.847,1.451Z" transform="translate(-226.307 -317.414)"/><path class="a" d="M38.644,57.83v-3.7A1.132,1.132,0,0,0,37.512,53H1.132A1.132,1.132,0,0,0,0,54.132v3.7Z" transform="translate(0 -53)"/><path class="a" d="M299.467,147H282.116l1.5,2.566H288.6a1.132,1.132,0,0,1,.978,1.7l-2.485,4.26,2.485,4.26a1.132,1.132,0,0,1-.978,1.7h-4.985l-1.5,2.566h17.351Z" transform="translate(-260.823 -139.905)"/><path class="a" d="M0,403v3.094a1.132,1.132,0,0,0,1.132,1.132H37.512a1.132,1.132,0,0,0,1.132-1.132V403Z" transform="translate(0 -376.584)"/><path class="a" d="M244.782,163.221h1.693l-.847-1.451Z" transform="translate(-226.307 -153.561)"/><path class="a" d="M170.116,211l.847,1.451.847-1.451Z" transform="translate(-157.276 -199.075)"/><path class="a" d="M170.963,289.77l-.847,1.451h1.693Z" transform="translate(-157.276 -271.9)"/></g><g transform="translate(43.356 0)"><path class="b" d="M17.6,30.837q-.8.077-1.6.077c-8.839,0-16-6.921-16-15.457S7.165,0,16,0q.8,0,1.6.077V4.715A11.6,11.6,0,0,0,16,4.637,11.016,11.016,0,0,0,4.8,15.457,11.016,11.016,0,0,0,16,26.278a11.6,11.6,0,0,0,1.6-.077Z" transform="translate(0 0)"/><path class="b" d="M187.6,30.837q-.8.077-1.6.077c-8.839,0-16-6.921-16-15.457S177.165,0,186,0q.8,0,1.6.077V4.715a11.6,11.6,0,0,0-1.6-.077,11.123,11.123,0,0,0-10.944,8.5H184.4v4.637H175.06A11.122,11.122,0,0,0,186,26.278a11.6,11.6,0,0,0,1.6-.077Z" transform="translate(-148.961 0)"/></g></svg>