<svg xmlns="http://www.w3.org/2000/svg" width="546" height="190" viewBox="0 0 546 190"><defs><style>.a,.c{fill:#06003b;}.b{fill:#5667ff;}.c{fill-rule:evenodd;}</style></defs><g transform="translate(-683 -172)"><path class="a" d="M8.12-8.558H9.333a2.143,2.143,0,0,0,1.443-.466,1.491,1.491,0,0,0,.545-1.185,1.417,1.417,0,0,0-.483-1.207,2.548,2.548,0,0,0-1.527-.365H8.12Zm4.874-1.7a2.727,2.727,0,0,1-.477,1.589,2.829,2.829,0,0,1-1.342,1.028L13.847-3.2H11.96L9.636-7.176H8.12V-3.2H6.458V-13.207H9.389a4.213,4.213,0,0,1,2.735.73A2.738,2.738,0,0,1,12.994-10.253ZM1.123-8.209a8.351,8.351,0,0,1,1.123-4.211,8.238,8.238,0,0,1,3.088-3.1,8.328,8.328,0,0,1,4.234-1.134,8.351,8.351,0,0,1,4.211,1.123,8.238,8.238,0,0,1,3.1,3.088,8.328,8.328,0,0,1,1.134,4.234,8.363,8.363,0,0,1-1.089,4.155A8.283,8.283,0,0,1,13.87-.943,8.266,8.266,0,0,1,9.568.225,8.276,8.276,0,0,1,5.278-.938a8.284,8.284,0,0,1-3.06-3.105A8.35,8.35,0,0,1,1.123-8.209Zm1.179,0a7.139,7.139,0,0,0,.977,3.633A7.138,7.138,0,0,0,5.947-1.915a7.15,7.15,0,0,0,3.622.971A7.069,7.069,0,0,0,13.2-1.92a7.314,7.314,0,0,0,2.656-2.645,7.05,7.05,0,0,0,.983-3.644,7.069,7.069,0,0,0-.977-3.627,7.314,7.314,0,0,0-2.645-2.656,7.05,7.05,0,0,0-3.644-.983,7.069,7.069,0,0,0-3.627.977,7.314,7.314,0,0,0-2.656,2.645A7.05,7.05,0,0,0,2.3-8.209Z" transform="translate(1167.987 221.589)"/><path class="a" d="M23.5,133.447V30.667L73.168,166.3h.849L120.5,30.667v107.2c0,13.9-3.609,21.061-13.585,25.695v.421h51.157v-.421c-9.765-4.633-13.585-11.794-13.585-25.695V42.251c0-13.9,1.91-20.64,11.887-25.274v-.421H119.443l-36.3,105.518L44.511,16.556H5.666v.421c9.764,4.634,11.463,11.373,11.463,25.274V134.5c0,16.007-5.307,24.431-15.284,29.065v.421H39.417v-.421C28.8,158.931,23.5,150.507,23.5,133.447Zm180.43,4.844V42.251c0-13.9,1.91-20.64,11.675-25.274v-.421H167.629v.421c9.764,4.634,11.463,11.373,11.463,25.274v96.04c0,13.9-1.7,20.64-11.463,25.274v.421H215.6v-.421C205.837,158.931,203.927,152.192,203.927,138.291Zm40.756-4.844V30.667L294.354,166.3h.849L341.691,30.667v107.2c0,13.9-3.609,21.061-13.585,25.695v.421h51.157v-.421c-9.764-4.633-13.585-11.794-13.585-25.695V42.251c0-13.9,1.91-20.64,11.887-25.274v-.421H340.629l-36.3,105.518L265.7,16.556H226.852v.421c9.764,4.634,11.463,11.373,11.463,25.274V134.5c0,16.007-5.307,24.431-15.283,29.065v.421H260.6v-.421C249.99,158.931,244.683,150.507,244.683,133.447ZM435.727,19.083c21.227,0,32.477,18.534,41.393,39.806h.425l-1.486-44.44c-2.547,3.159-5.307,6.108-10.614,6.108-6.793,0-15.284-6.108-29.93-6.108-24.623,0-44.789,16.007-44.789,41.07,0,25.906,19.317,34.962,38.209,43.176,18.043,7.793,35.661,14.743,35.661,34.751,0,17.9-11.675,28.012-27.807,28.012-18.468,0-36.086-17.06-47.124-44.65h-.425L392,166.092c3.609-4,7-6.74,12.1-6.74,7.642,0,17.406,6.74,32.9,6.74,24.2,0,47.336-14.532,47.336-42.544,0-29.486-23.138-38.121-43.516-46.546-15.92-6.74-30.355-13.9-30.355-31.592C410.466,28.982,421.929,19.083,435.727,19.083Z" transform="translate(681.155 195.697)"/><circle class="b" cx="12.5" cy="12.5" r="12.5" transform="translate(860.05 172)"/><path class="c" d="M19.708,35.744a17.917,17.917,0,1,1,0-35.654V5.465a12.542,12.542,0,0,0-1.792-.09,12.542,12.542,0,1,0,0,25.083,12.541,12.541,0,0,0,1.792-.09Z" transform="translate(1186 326.167)"/><path class="c" d="M189.708,35.744a17.917,17.917,0,1,1,0-35.654V5.465a12.861,12.861,0,0,0-14.043,9.765h10.46V20.6h-10.46a12.861,12.861,0,0,0,14.043,9.764Z" transform="translate(1039.292 326.167)"/></g></svg>