<svg xmlns="http://www.w3.org/2000/svg" width="535.999" height="188" viewBox="0 0 535.999 188">
  <g id="Group_751" data-name="Group 751" transform="translate(-691 -172)">
    <path id="Path_1148" data-name="Path 1148" d="M8.12-8.558H9.333a2.143,2.143,0,0,0,1.443-.466,1.491,1.491,0,0,0,.545-1.185,1.417,1.417,0,0,0-.483-1.207,2.548,2.548,0,0,0-1.527-.365H8.12Zm4.874-1.7a2.727,2.727,0,0,1-.477,1.589,2.829,2.829,0,0,1-1.342,1.028L13.847-3.2H11.96L9.636-7.176H8.12V-3.2H6.458V-13.207H9.389a4.213,4.213,0,0,1,2.735.73A2.738,2.738,0,0,1,12.994-10.253ZM1.123-8.209a8.351,8.351,0,0,1,1.123-4.211,8.238,8.238,0,0,1,3.088-3.1,8.328,8.328,0,0,1,4.234-1.134,8.351,8.351,0,0,1,4.211,1.123,8.238,8.238,0,0,1,3.1,3.088,8.328,8.328,0,0,1,1.134,4.234,8.363,8.363,0,0,1-1.089,4.155A8.283,8.283,0,0,1,13.87-.943,8.266,8.266,0,0,1,9.568.225,8.276,8.276,0,0,1,5.278-.938a8.284,8.284,0,0,1-3.06-3.105A8.35,8.35,0,0,1,1.123-8.209Zm1.179,0a7.139,7.139,0,0,0,.977,3.633A7.138,7.138,0,0,0,5.947-1.915a7.15,7.15,0,0,0,3.622.971A7.069,7.069,0,0,0,13.2-1.92a7.314,7.314,0,0,0,2.656-2.645,7.05,7.05,0,0,0,.983-3.644,7.069,7.069,0,0,0-.977-3.627,7.314,7.314,0,0,0-2.645-2.656,7.05,7.05,0,0,0-3.644-.983,7.069,7.069,0,0,0-3.627.977,7.314,7.314,0,0,0-2.656,2.645A7.05,7.05,0,0,0,2.3-8.209Z" transform="translate(1165.986 221.209)" fill="#06003b"/>
    <path id="Path_1130" data-name="Path 1130" d="M23.048,133.447V30.667L71.69,166.3h.831L118.045,30.667v107.2c0,13.9-3.534,21.061-13.3,25.695v.421h50.1v-.421c-9.562-4.633-13.3-11.794-13.3-25.695V42.251c0-13.9,1.871-20.64,11.641-25.274v-.421h-36.17L81.46,122.074,43.627,16.556H5.587v.421c9.562,4.634,11.225,11.373,11.225,25.274V134.5c0,16.007-5.2,24.431-14.967,29.065v.421H38.638v-.421C28.245,158.931,23.048,150.507,23.048,133.447Zm176.691,4.844V42.251c0-13.9,1.871-20.64,11.433-25.274v-.421H164.193v.421c9.562,4.634,11.225,11.373,11.225,25.274v96.04c0,13.9-1.663,20.64-11.225,25.274v.421h46.979v-.421C201.609,158.931,199.739,152.192,199.739,138.291Zm39.911-4.844V30.667L288.292,166.3h.831L334.647,30.667v107.2c0,13.9-3.534,21.061-13.3,25.695v.421h50.1v-.421c-9.562-4.633-13.3-11.794-13.3-25.695V42.251c0-13.9,1.871-20.64,11.641-25.274v-.421h-36.17L298.062,122.074,260.229,16.556h-38.04v.421c9.562,4.634,11.225,11.373,11.225,25.274V134.5c0,16.007-5.2,24.431-14.967,29.065v.421H255.24v-.421C244.847,158.931,239.65,150.507,239.65,133.447ZM426.734,19.083c20.787,0,31.8,18.534,40.535,39.806h.416L466.23,14.45c-2.495,3.159-5.2,6.108-10.394,6.108-6.652,0-14.967-6.108-29.31-6.108-24.113,0-43.861,16.007-43.861,41.07,0,25.906,18.916,34.962,37.417,43.176C437.751,106.488,455,113.439,455,133.447c0,17.9-11.433,28.012-27.231,28.012-18.085,0-35.338-17.06-46.147-44.65h-.416l2.7,49.284c3.534-4,6.86-6.74,11.849-6.74,7.483,0,17.045,6.74,32.22,6.74,23.7,0,46.355-14.532,46.355-42.544,0-29.486-22.658-38.121-42.614-46.546C416.133,70.263,402,63.1,402,45.41,402,28.982,413.223,19.083,426.734,19.083Z" transform="translate(689.155 193.697)" fill="#f1f5f8"/>
    <circle id="Ellipse_424" data-name="Ellipse 424" cx="12.5" cy="12.5" r="12.5" transform="translate(864.652 172)" fill="#06003b"/>
    <path id="Path_1146" data-name="Path 1146" d="M19.708,35.744a17.917,17.917,0,1,1,0-35.654V5.465a12.542,12.542,0,0,0-1.792-.09,12.542,12.542,0,1,0,0,25.083,12.541,12.541,0,0,0,1.792-.09Z" transform="translate(1184 324.167)" fill="#f1f5f8" fill-rule="evenodd"/>
    <path id="Path_1147" data-name="Path 1147" d="M189.708,35.744a17.917,17.917,0,1,1,0-35.654V5.465a12.861,12.861,0,0,0-14.043,9.765h10.46V20.6h-10.46a12.861,12.861,0,0,0,14.043,9.764Z" transform="translate(1037.291 324.167)" fill="#f1f5f8" fill-rule="evenodd"/>
  </g>
</svg>
