<svg xmlns="http://www.w3.org/2000/svg" width="155.672" height="21.996" viewBox="0 0 155.672 21.996"><defs><style>.a{fill:#f1f5f8;}</style></defs><path class="a" d="M1073.552,614.3c2.449,0,3.874,2.075,5.149,4.724h.05l-.15-5.224a1.912,1.912,0,0,1-1.351.676c-.95,0-2.05-.676-3.8-.676-3.472,0-5.971,2.049-5.971,5.3,0,3.224,2.249,4.4,4.5,5.349,2.249.925,4.5,1.625,4.5,3.9a2.768,2.768,0,0,1-3.074,2.949c-2.25,0-4.474-2.3-6-5.549h-.051l.375,6.048a2.5,2.5,0,0,1,1.621-.7c.978,0,2.25.7,4.127.7,3.349,0,6.248-2,6.248-5.472,0-3.85-2.774-4.874-5.224-5.824-1.95-.776-3.674-1.477-3.674-3.5a2.6,2.6,0,0,1,2.506-2.7q.109,0,.219,0m19.92,16.221a1.943,1.943,0,0,1-.525.1c-.975,0-1.175-.75-1.175-2,0-2.1.025-3.949.025-5.524,0-3.1-2.1-4.174-5.6-4.174-2.849,0-4.849,1.175-4.849,3.1a2.077,2.077,0,0,0,2.071,2.084q.1,0,.2-.009a2.47,2.47,0,0,0,2.449-1.475,1.108,1.108,0,0,1-.375.075c-.65,0-1.05-.5-1.05-1.525s.5-1.8,1.45-1.8c1.075,0,1.475.975,1.475,2.124v2.874l-1.625.325c-2.7.575-5.224,1.225-5.224,3.949,0,2.049,1.525,3.074,3.349,3.074a3.39,3.39,0,0,0,3.549-2.6c0,.075.05.473.05.525.274,1.325,1.225,2.125,3,2.125a3.588,3.588,0,0,0,2.8-1.2Zm-5.9-5.7V627.6c-.025,1.4-.55,2.424-1.525,2.424-.775,0-1.2-.775-1.2-2.074,0-1.65.65-2.574,1.974-2.949Zm5.749-5.649v.05c.95.625,1.1,1,1.1,2.724v6.923c0,1.65-.075,2-.975,2.624v.05h6.2v-.05c-.878-.625-.975-.975-.975-2.624V623.9c0-1.95.75-2.874,1.75-2.874.975,0,1.351.75,1.351,1.725v6.123c0,1.65-.075,2-.95,2.624v.05h6.2v-.05c-.9-.625-.976-.975-.976-2.624v-6.023c0-2.249-1.125-3.924-3.524-3.924a3.874,3.874,0,0,0-3.85,3.2v-2.949Zm20.62,12.622a6.14,6.14,0,0,0,6.254-6.025q0-.2-.005-.4a6.239,6.239,0,1,0-6.633,6.417q.192.009.385.006m0-.425c-1.3,0-1.725-2.124-1.725-6,0-3.9.425-6.023,1.725-6.023s1.75,2.124,1.75,6.023c0,3.877-.45,6-1.75,6m13.971-12.024c1,0,1.5.676,1.5,1.824,0,.95-.375,1.725-1.225,1.725a.9.9,0,0,1-.425-.075,1.862,1.862,0,0,0,2.049,1.4,2.116,2.116,0,0,0,2.223-2q.005-.1,0-.2c0-2-1.775-3.1-4.2-3.1a6.4,6.4,0,0,0-6.553,6.245q-.005.215,0,.431c0,3.874,2.6,6.2,5.749,6.2a4.918,4.918,0,0,0,5.149-4.323l-.15-.05a3.084,3.084,0,0,1-3.024,2.224c-2.125,0-3.4-1.9-3.4-5.174,0-2.975.8-5.124,2.3-5.124Zm13.022,7.425c0,1.974-.725,2.9-1.7,2.9-.925,0-1.325-.8-1.325-1.75v-8.748h-5.374v.05c.95.625,1.1,1,1.1,2.724v5.9c0,2.275,1.125,3.949,3.5,3.949a3.825,3.825,0,0,0,3.8-3.224v2.974h5.3v-.05c-.875-.6-1.025-1-1.025-2.624v-9.7h-5.374v.05c.95.625,1.1,1,1.1,2.724Zm11.172-13.947h-5.448v.05c.95.575,1.175,1,1.175,2.724v13.272c0,1.65-.075,2-.95,2.624v.05h6.2v-.05c-.9-.625-.975-.975-.975-2.624Zm2.375,2.524a2.343,2.343,0,0,0,2.335,2.35h.064a2.364,2.364,0,0,0,2.424-2.3c0-.015,0-.031,0-.046a2.349,2.349,0,0,0-2.347-2.351h-.078a2.327,2.327,0,0,0-2.4,2.256c0,.031,0,.062,0,.093Zm4.549,3.824h-5.349v.05c.95.625,1.1,1,1.1,2.724v6.923c0,1.65-.075,2-.975,2.624v.05h6.2v-.05c-.875-.625-.975-.975-.975-2.624Zm6.224.2c1.621,0,3.224,1.5,4.249,3.674h.05V618.9a1.856,1.856,0,0,1-1.3.6c-.825,0-1.621-.575-3.074-.575a3.952,3.952,0,0,0-4.2,3.924c0,2.349,1.3,3.524,4.049,4.526,1.7.6,2.574,1.025,2.574,2.224a1.715,1.715,0,0,1-1.9,1.775c-1.875,0-3.449-1.6-4.724-4.274h-.05l.25,4.724a1.76,1.76,0,0,1,1.225-.55,32.867,32.867,0,0,0,3.374.525c2.724,0,4.7-1.625,4.7-4.174,0-2.324-1.3-3.474-4.174-4.526-2.05-.75-2.7-1.148-2.7-2.249a1.47,1.47,0,0,1,1.652-1.477Z" transform="translate(-1014.807 -612.825)"/><path class="a" d="M3.82,15.084h0A10.069,10.069,0,0,1,3.01,0L4.337.124a9.166,9.166,0,0,0-1.306,1.3A9.049,9.049,0,0,0,1.372,4.54,9.126,9.126,0,0,0,1.34,9.725a9.054,9.054,0,0,0,.666,1.659,9.136,9.136,0,0,0,3,3.351l13.434-3.949a9.1,9.1,0,0,0-1.4-9.472l1.324.124a10.1,10.1,0,0,1,1.259,9ZM17.036,1.314h0L4.337.124h0L17.032,1.309l0,0h0Z" transform="translate(12.368 3.595)"/><path class="a" d="M4.808,9.615h0a4.785,4.785,0,0,1-2.688-.822A4.822,4.822,0,0,1,.377,6.678,4.8,4.8,0,0,1,.821,2.119,4.822,4.822,0,0,1,2.936.378,4.823,4.823,0,0,1,6.514.312,1.849,1.849,0,0,0,6.5.533,1.826,1.826,0,0,0,7.615,2.214a1.813,1.813,0,0,0,.71.143,1.822,1.822,0,0,0,.565-.089,4.8,4.8,0,0,1-.1,5.228A4.822,4.822,0,0,1,6.679,9.237,4.778,4.778,0,0,1,4.808,9.615Z" transform="translate(17.642 5.968)"/><path class="a" d="M399.174,674.561c-.29-.956-4.781-.509-11.275.95a.553.553,0,0,1,.01.059c4.585-.957,7.65-1.206,7.864-.507.363,1.2-7.755,4.715-18.128,7.857s-19.076,4.729-19.439,3.532c-.245-.811,3.4-2.691,9.011-4.8a.464.464,0,0,0-.02-.046c-7.642,2.77-12.776,5.337-12.448,6.421.446,1.464,10.749-.363,23.018-4.081s21.851-7.923,21.407-9.39" transform="translate(-354.734 -666.541)"/><path class="a" d="M450.243,613.1c-9.885-.915-18.1.511-18.345,3.183-.135,1.465,2.158,3,5.888,4.244,0-.038,0-.068,0-.109-2.359-.993-3.74-2.132-3.63-3.217.235-2.333,7.268-3.532,15.71-2.681,5.451.55,10.155,1.824,12.74,3.283,1.252-.24,2.387-.426,3.387-.557-2.8-1.854-8.755-3.5-15.753-4.148" transform="translate(-426.203 -609.826)"/></svg>